<svg width="55" height="55" viewBox="0 0 55 55" fill="none" xmlns="http://www.w3.org/2000/svg">
<path d="M20.9416 8.86914C20.9072 8.86914 20.873 8.87132 20.8386 8.87362C20.5476 8.89653 13.6465 9.49068 9.22363 13.0496C6.91363 15.1855 2.29492 27.6701 2.29492 38.4639C2.29492 38.6541 2.34419 38.8382 2.43815 39.0055C5.62586 44.604 14.32 46.0714 16.3 46.1356H16.3359C16.6865 46.1356 17.0158 45.9677 17.2221 45.6835L19.2273 42.9308C13.8213 41.5329 11.0602 39.1587 10.9021 39.0189C10.4483 38.6178 10.4026 37.9284 10.8036 37.4747C11.019 37.2295 11.3202 37.1032 11.6227 37.1032C11.8794 37.1032 12.1393 37.1929 12.3478 37.3762C12.4143 37.4358 17.4979 41.7492 27.4988 41.7492C37.5179 41.7492 42.6038 37.4153 42.6542 37.3717C42.8628 37.1907 43.1226 37.1032 43.3793 37.1032C43.6818 37.1032 43.9807 37.2272 44.1984 37.4747C44.5972 37.9284 44.5559 38.6201 44.1044 39.0189C43.944 39.161 41.1808 41.5284 35.7747 42.9264L37.7799 45.6835C37.9862 45.9677 38.3156 46.1356 38.6662 46.1356H38.702C40.6843 46.0737 49.3806 44.6063 52.5684 39.0055C52.6623 38.8405 52.7116 38.6541 52.7116 38.4639C52.7116 27.6701 48.092 15.1844 45.7247 13.0004C41.3614 9.49187 34.4612 8.89882 34.1679 8.87362C34.1381 8.87132 34.1037 8.86914 34.0739 8.86914C33.6476 8.86914 33.2567 9.1218 33.0802 9.51367C33.0665 9.54117 32.9163 9.88822 32.749 10.4268C35.6342 10.9126 39.1773 11.8952 42.3857 13.8866C42.899 14.2052 43.0578 14.8794 42.7393 15.395C42.533 15.7296 42.1749 15.9142 41.8083 15.9142C41.6112 15.9142 41.4119 15.8609 41.2309 15.7486C35.7171 12.3317 28.8278 12.1589 27.5033 12.1589C26.1787 12.1589 19.2893 12.3339 13.7801 15.7531C13.5991 15.8631 13.3998 15.9142 13.2027 15.9142C12.8361 15.9142 12.4758 15.7341 12.2673 15.3995C11.9464 14.8839 12.1075 14.2075 12.6208 13.8866C15.8292 11.8975 19.3745 10.9171 22.262 10.4312C22.0924 9.8904 21.9377 9.54565 21.9263 9.51815C21.7498 9.12627 21.3655 8.86914 20.9416 8.86914ZM27.5033 16.7423C28.1816 16.7423 34.265 16.8239 38.8094 19.6427C39.71 20.2018 40.7427 20.502 41.8038 20.502C42.7044 20.502 43.5693 20.2962 44.3416 19.9112C45.7556 23.4702 47.4197 29.0749 47.9537 34.8339C47.862 34.7056 47.7637 34.5816 47.6583 34.4624C46.5812 33.2272 45.0223 32.5243 43.3838 32.5243C42.0157 32.5243 40.6897 33.0148 39.718 33.8582C39.5507 33.9934 35.5355 37.1703 27.5033 37.1703C19.4733 37.1703 15.4606 33.9985 15.3735 33.9298C14.3354 33.02 13.0068 32.5199 11.6272 32.5199C9.99782 32.5199 8.4454 33.2187 7.3706 34.4356C7.25831 34.5616 7.15365 34.6942 7.05282 34.8294C7.58677 29.0751 9.24884 23.4589 10.6559 19.9023C11.4305 20.2896 12.2998 20.4976 13.2027 20.4976C14.2615 20.4976 15.2943 20.2018 16.1926 19.6427C20.7416 16.8216 26.8249 16.7423 27.5033 16.7423ZM20.3776 23.022C18.2601 23.022 16.5417 24.9839 16.5417 27.4039C16.5417 29.8239 18.2578 31.7858 20.3776 31.7858C22.4974 31.7858 24.2135 29.8239 24.2135 27.4039C24.2135 24.9816 22.4974 23.022 20.3776 23.022ZM34.6289 23.022C32.5114 23.022 30.793 24.9839 30.793 27.4039C30.793 29.8239 32.5091 31.7858 34.6289 31.7858C36.7487 31.7858 38.4648 29.8239 38.4648 27.4039C38.4648 24.9816 36.7464 23.022 34.6289 23.022Z" fill="white"/>
</svg>
