<svg width="56" height="55" viewBox="0 0 56 55" fill="none" xmlns="http://www.w3.org/2000/svg">
<path d="M25.637 4.81487C15.0953 5.9607 6.61613 14.4399 5.4703 24.7524C4.32446 35.5232 10.512 45.1482 19.9078 48.8149C20.5953 49.044 21.2828 48.5857 21.2828 47.669V44.0024C21.2828 44.0024 20.3661 44.2315 19.2203 44.2315C16.012 44.2315 14.637 41.4815 14.4078 39.8774C14.1786 38.9607 13.7203 38.2732 13.0328 37.5857C12.3453 37.3565 12.1161 37.3565 12.1161 37.1274C12.1161 36.669 12.8036 36.669 13.0328 36.669C14.4078 36.669 15.5536 38.2732 16.012 38.9607C17.1578 40.794 18.5328 41.2524 19.2203 41.2524C20.137 41.2524 20.8245 41.0232 21.2828 40.794C21.512 39.1899 22.1995 37.5857 23.5745 36.669C18.3036 35.5232 14.4078 32.544 14.4078 27.5024C14.4078 24.9815 15.5536 22.4607 17.1578 20.6274C16.9286 20.169 16.6995 19.0232 16.6995 17.419C16.6995 16.5024 16.6995 15.1274 17.387 13.7524C17.387 13.7524 20.5953 13.7524 23.8036 16.7315C24.9495 16.2732 26.5536 16.044 28.1578 16.044C29.762 16.044 31.3661 16.2732 32.7411 16.7315C35.7203 13.7524 39.1578 13.7524 39.1578 13.7524C39.6161 15.1274 39.6161 16.5024 39.6161 17.419C39.6161 19.2524 39.387 20.169 39.1578 20.6274C40.762 22.4607 41.9078 24.7524 41.9078 27.5024C41.9078 32.544 38.012 35.5232 32.7411 36.669C34.1161 37.8149 35.0328 39.8774 35.0328 41.9399V47.8982C35.0328 48.5857 35.7203 49.2732 36.637 49.044C45.1161 45.6065 51.0745 37.3565 51.0745 27.7315C51.0745 13.9815 39.387 3.2107 25.637 4.81487Z" fill="white"/>
</svg>
