<svg width="56" height="55" viewBox="0 0 56 55" fill="none" xmlns="http://www.w3.org/2000/svg">
<path d="M47.8083 6.89747C47.0467 6.81669 46.2188 6.93564 45.3869 7.26449C44.3556 7.67012 28.1966 14.4676 13.1335 20.8086L8.15625 22.9033C6.22896 23.6848 5.25586 24.9557 5.25586 26.6676C5.25586 27.8661 5.76311 29.4918 8.18311 30.4497L16.5844 33.8156C17.3109 35.995 18.9982 41.0552 19.4221 42.4004C19.6742 43.1979 20.3109 45.207 21.9197 45.6768C22.2497 45.7891 22.594 45.8469 22.9447 45.8469C23.9599 45.8469 24.6908 45.3744 25.0483 45.0994L30.3881 40.5832L36.8737 46.5809C37.1235 46.8353 38.4456 48.1206 40.2217 48.1206C42.4377 48.1206 44.1187 46.2759 44.4693 44.4907C44.6595 43.5121 50.9146 12.1118 50.9146 12.1164C51.4761 9.59784 50.4666 8.29134 49.818 7.73446C49.2623 7.25894 48.57 6.97825 47.8083 6.89747ZM46.291 11.8478C45.4271 16.1791 40.7174 39.8207 40.0024 43.2284L30.5224 34.4601L24.0905 39.9073L25.8719 32.9383C25.8719 32.9383 38.1611 20.4988 38.9013 19.7747C39.4971 19.1949 39.6219 18.9916 39.6219 18.79C39.6219 18.5218 39.4839 18.3289 39.1654 18.3289C38.8789 18.3289 38.4899 18.6034 38.2836 18.7318C35.6634 20.3653 24.5063 26.7216 19.0148 29.8455L11.0477 26.6631L14.9149 25.0383C24.7668 20.8904 42.3127 13.5024 46.291 11.8478Z" fill="white"/>
</svg>
