<svg width="55" height="55" viewBox="0 0 55 55" fill="none" xmlns="http://www.w3.org/2000/svg">
<path d="M27.4967 9.16797C27.4967 9.16797 13.1636 9.1679 9.58862 10.1258C7.6155 10.6529 6.06501 12.2057 5.53792 14.1765C4.58001 17.7515 4.58008 27.5013 4.58008 27.5013C4.58008 27.5013 4.58001 37.2511 5.53792 40.8261C6.06501 42.7992 7.61779 44.3497 9.58862 44.8768C13.1636 45.8347 27.4967 45.8346 27.4967 45.8346C27.4967 45.8346 41.8299 45.8347 45.4049 44.8768C47.3757 44.3497 48.9285 42.7969 49.4556 40.8261C50.4135 37.2511 50.4134 27.5013 50.4134 27.5013C50.4134 27.5013 50.4135 17.7515 49.4556 14.1765C48.9285 12.2057 47.3757 10.6529 45.4049 10.1258C41.8299 9.1679 27.4967 9.16797 27.4967 9.16797ZM27.4967 13.7513C34.1013 13.7513 42.3717 14.0575 44.2188 14.5525C44.606 14.6556 44.9235 14.973 45.0289 15.3626C45.5812 17.4205 45.8301 23.7017 45.8301 27.5013C45.8301 31.3009 45.5812 37.5798 45.0289 39.64C44.9258 40.0273 44.6083 40.3447 44.2188 40.4501C42.374 40.9451 34.1013 41.2513 27.4967 41.2513C20.8945 41.2513 12.6241 40.9451 10.7747 40.4501C10.3874 40.347 10.07 40.0296 9.9646 39.64C9.41231 37.5821 9.16341 31.3009 9.16341 27.5013C9.16341 23.7017 9.41231 17.4207 9.9646 15.3582C10.0677 14.9732 10.3852 14.6556 10.7747 14.5525C12.6195 14.0575 20.8922 13.7513 27.4967 13.7513ZM22.9134 19.561V35.4416L36.6634 27.5013L22.9134 19.561Z" fill="white"/>
</svg>
