<svg width="56" height="55" viewBox="0 0 56 55" fill="none" xmlns="http://www.w3.org/2000/svg">
<path d="M20.9616 6.87305C12.102 6.87305 4.91992 13.0285 4.91992 20.623C4.91992 23.2058 5.76555 25.6123 7.21159 27.6771V38.9564L14.749 33.3033C16.0488 33.7709 17.4423 34.0821 18.8892 34.2432C20.1021 40.8075 26.7126 45.8314 34.7116 45.8314C36.9139 45.8314 39.0129 45.4491 40.9242 44.7616L48.4616 50.4147V39.1354C49.9076 37.0706 50.7533 34.6641 50.7533 32.0814C50.7533 25.0909 44.6611 19.335 36.7839 18.4612C35.5711 11.8969 28.9606 6.87305 20.9616 6.87305ZM20.9616 11.4564C27.2797 11.4564 32.4199 15.5676 32.4199 20.623C32.4199 25.6785 27.2797 29.7897 20.9616 29.7897C19.3414 29.7897 17.7756 29.5202 16.3066 28.9885L13.9792 28.1515L12.0008 29.6331L11.7949 29.7897V27.6771V26.2314L10.9669 25.0497C9.9975 23.6656 9.50326 22.1745 9.50326 20.623C9.50326 15.5676 14.6435 11.4564 20.9616 11.4564ZM36.7302 23.0803C42.0848 23.8481 46.1699 27.5794 46.1699 32.0814C46.1699 33.6328 45.6757 35.1216 44.7063 36.5081L43.8783 37.6897V39.1354V41.248L43.6724 41.0959L41.6985 39.6099L39.371 40.4513C37.8998 40.9807 36.3318 41.248 34.7116 41.248C29.2986 41.248 24.7766 38.2198 23.5845 34.1761C30.256 33.2329 35.5304 28.7699 36.7302 23.0803Z" fill="black"/>
</svg>
