<svg width="56" height="55" viewBox="0 0 56 55" fill="none" xmlns="http://www.w3.org/2000/svg">
<path d="M50.7533 9.16797C48.9658 10.229 45.3793 11.6751 43.271 12.0921C43.2091 12.1082 43.1587 12.1288 43.0991 12.1448C41.236 10.3069 38.683 9.16797 35.8574 9.16797C30.1626 9.16797 25.5449 13.7857 25.5449 19.4805C25.5449 19.7807 25.5197 20.333 25.5449 20.6263C17.861 20.6263 12.0126 16.6021 7.81888 11.4596C7.36284 12.6055 7.16346 14.4159 7.16346 16.1163C7.16346 19.3269 9.67284 22.4803 13.5801 24.4351C12.8605 24.6207 12.0676 24.7536 11.2426 24.7536C9.91117 24.7536 8.5018 24.403 7.21159 23.3396C7.21159 23.3786 7.21159 23.4153 7.21159 23.4565C7.21159 27.9436 11.9737 30.9984 16.2087 31.8486C15.3493 32.3551 13.6168 32.4055 12.7712 32.4055C12.1753 32.4055 10.067 32.1328 9.50326 32.0273C10.6812 35.7055 14.9299 37.7726 18.9793 37.8459C15.8122 40.3301 13.6145 41.2513 7.12909 41.2513H4.91992C9.01742 43.8776 14.2355 45.8369 19.4651 45.8369C36.4922 45.8369 46.1699 32.8592 46.1699 20.6263C46.1699 20.4292 46.1653 20.0167 46.1585 19.6019C46.1585 19.5607 46.1699 19.5217 46.1699 19.4805C46.1699 19.4186 46.1516 19.359 46.1516 19.2971C46.1447 18.9855 46.1378 18.6944 46.131 18.5432C47.9414 17.2369 49.5112 15.6076 50.7533 13.7513C49.0918 14.4892 47.3089 14.9842 45.4366 15.2088C47.3478 14.063 50.0635 11.3313 50.7533 9.16797ZM41.5866 20.6263C41.5866 29.9763 34.8101 39.874 22.1853 41.1207C23.8949 39.9084 25.5449 38.1873 25.5449 38.1873C25.5449 38.1873 18.6699 32.0869 18.1543 24.1165C20.5262 24.8407 22.9966 25.2096 25.5449 25.2096H30.1283V19.4805C30.1283 19.4782 30.1283 19.4782 30.1283 19.4782C30.1328 16.3157 32.6949 13.7536 35.8574 13.7536C39.0222 13.7536 41.5866 16.318 41.5866 19.4828C41.5866 19.4828 41.5866 20.4453 41.5866 20.6263Z" fill="black"/>
</svg>
