<svg width="34" height="34" viewBox="0 0 34 34" fill="none" xmlns="http://www.w3.org/2000/svg">
<path d="M8.49935 2.83203C6.93393 2.83203 5.66602 4.09995 5.66602 5.66536V28.332C5.66602 29.8974 6.93393 31.1654 8.49935 31.1654H25.4993C27.0648 31.1654 28.3327 29.8974 28.3327 28.332V5.66536C28.3327 4.09995 27.0648 2.83203 25.4993 2.83203H19.8327H11.3327H8.49935ZM8.49935 5.66536H11.3327V16.9987L15.5827 14.8737L19.8327 16.9987V5.66536H25.4993V28.332H8.49935V5.66536ZM14.166 5.66536H16.9993V12.4139L16.8499 12.3392L15.5827 11.7056L14.3154 12.3392L14.166 12.4139V5.66536Z" fill="#EA7534"/>
</svg>
