<svg width="35" height="34" viewBox="0 0 35 34" fill="none" xmlns="http://www.w3.org/2000/svg">
<path d="M8.39193 4.25C7.23442 4.25 6.26693 5.21749 6.26693 6.375V24.0833H3.43359V26.9167H6.26693V29.75H9.10026V26.9167H12.6419H26.1003V29.75H28.9336V26.9167H31.7669V24.0833H29.1383C29.1617 23.6971 29.0779 23.3613 29.0055 23.0817L25.8208 10.2183L25.818 10.21C25.7116 9.79879 25.6786 9.24683 24.9686 8.72412C24.6136 8.46277 24.1607 8.36713 23.8424 8.36719C23.5242 8.36725 23.2879 8.42085 23.0456 8.48063L20.4336 9.11426V6.375C20.4336 5.21749 19.4661 4.25 18.3086 4.25H14.0586C13.8098 4.25 13.5738 4.30114 13.3503 4.38281C13.1268 4.30114 12.8907 4.25 12.6419 4.25H8.39193ZM9.10026 7.08333H11.9336V24.0833H9.10026V7.08333ZM14.7669 7.08333H17.6003V24.0833H14.7669V7.08333ZM23.1867 11.3638L26.1556 23.3612L23.2669 24.0833H23.2559L20.4447 12.0278L23.1867 11.3638Z" fill="#4195C4"/>
</svg>
