<svg width="35" height="34" viewBox="0 0 35 34" fill="none" xmlns="http://www.w3.org/2000/svg">
<path d="M24.4831 2.83203C23.7316 2.83203 23.011 3.13054 22.4796 3.6619C21.9483 4.19325 21.6497 4.91392 21.6497 5.66536C21.6497 6.41681 21.9483 7.13748 22.4796 7.66883C23.011 8.20019 23.7316 8.4987 24.4831 8.4987C25.2345 8.4987 25.9552 8.20019 26.4865 7.66883C27.0179 7.13748 27.3164 6.41681 27.3164 5.66536C27.3164 4.91392 27.0179 4.19325 26.4865 3.6619C25.9552 3.13054 25.2345 2.83203 24.4831 2.83203ZM15.485 6.97965L9.48909 10.0731L10.7896 12.591L15.7728 10.0177L17.4993 10.5269L14.9455 15.5876C14.6979 16.0167 14.5672 16.5033 14.5664 16.9987C14.5671 17.4184 14.6611 17.8328 14.8415 18.2117C15.0219 18.5907 15.2842 18.9249 15.6095 19.1901C15.6141 19.1938 15.6187 19.1975 15.6234 19.2012L20.0173 23.2962L20.0311 23.3101L17.4883 30.1776L20.1445 31.1626L23.2684 22.729L23.2601 22.7179L20.186 17.7568L22.0565 14.016L24.0902 16.9987H30.1497V14.1654H25.5843L22.6846 9.90983L22.6763 9.9043C22.4819 9.57221 22.222 9.28319 21.9123 9.05485C21.6026 8.82651 21.2497 8.66364 20.875 8.57617L20.8695 8.57064L15.485 6.97965ZM13.7751 20.3965L12.9782 21.2487H6.06641V24.082H14.2039L15.842 22.3361L13.7751 20.3965Z" fill="#EDC92B"/>
</svg>
