<svg width="35" height="34" viewBox="0 0 35 34" fill="none" xmlns="http://www.w3.org/2000/svg">
<path d="M8.69857 2.83203C7.14837 2.83203 5.86523 4.11517 5.86523 5.66536V28.332C5.86523 29.8822 7.14837 31.1654 8.69857 31.1654H25.6986C27.2488 31.1654 28.5319 29.8822 28.5319 28.332V11.332L20.0319 2.83203H8.69857ZM8.69857 5.66536H18.6152V12.7487H25.6986V28.332H8.69857V5.66536ZM14.3652 16.7303L9.82194 21.2736L14.3652 25.8169L15.7819 24.4002L12.6553 21.2736L15.7819 18.147L14.3652 16.7303ZM20.0319 16.7303L18.6152 18.147L21.7419 21.2736L18.6152 24.4002L20.0319 25.8169L24.5752 21.2736L20.0319 16.7303Z" fill="#D53A2C"/>
</svg>
