<svg width="3840" height="2160" viewBox="0 0 3840 2160" fill="none" xmlns="http://www.w3.org/2000/svg">
<g clip-path="url(#clip0)">
<path fill-rule="evenodd" clip-rule="evenodd" d="M3379.44 40.3964C3395.48 43.7487 3409.79 50.2435 3423.78 56.5969C3455.57 71.0242 3485.76 84.7228 3530.94 59.2424C3569.56 37.4663 3635.24 60.0436 3698.83 81.9036C3742.42 96.8861 3785.03 111.532 3817.27 111.329C3835.27 108.128 3840.35 113.261 3839.98 127.92L3839.92 129.588C3838.64 160.052 3838.88 190.516 3839.13 220.98C3839.22 233.175 3839.32 245.37 3839.32 257.565L3835.85 258.275C3782.83 269.332 3736.21 288.308 3718.71 335.746C3716.33 342.134 3714.12 348.566 3711.91 354.996C3704.52 376.466 3697.15 397.906 3683.54 417.578C3681.35 420.666 3681.05 424.701 3680.74 428.704C3680.61 430.509 3680.47 432.308 3680.16 434.011C3682.29 434.011 3684.44 434.141 3686.58 434.27C3690.84 434.528 3695.07 434.784 3699.04 434.011C3712.84 431.338 3726.36 427.412 3739.88 423.486C3771.71 414.241 3803.56 404.993 3839.12 412.1V1069.41C3775.74 1072.9 3730.24 1040.86 3726.66 988.744C3725.83 977.146 3726.11 965.462 3726.38 953.8V953.796C3726.76 937.418 3727.14 921.083 3724.47 905.087C3716.13 853.13 3667.44 838.523 3570.88 856.121C3388.14 889.314 3358.07 985.466 3411.66 1100.93L3413.74 1105.31C3415.77 1109.44 3419.33 1115.4 3425.01 1108.76L3425.43 1108.25C3462.22 1062.61 3513.32 1068.5 3563.2 1076.9L3581.61 1080.04C3631.28 1088.34 3667.65 1112.57 3677.18 1157.89L3680.6 1174.25C3686.88 1204.23 3693.37 1234.18 3701.23 1263.84L3703.41 1271.92C3717.97 1324.67 3702.73 1345.04 3638.8 1353.5L3632.79 1354.29C3604.38 1358.17 3576.78 1364.94 3567.1 1390.77C3557.55 1416.55 3549.68 1442.87 3541.82 1469.16C3538.25 1481.12 3534.67 1493.08 3530.94 1504.97C3536.15 1502.59 3540.36 1497.54 3544.5 1492.58C3552.21 1483.33 3559.68 1474.37 3572.87 1483.55C3594.92 1498.99 3577.63 1522.07 3564.32 1538.16C3541.27 1565.55 3517.23 1592.94 3488.82 1616.35C3357.08 1724.74 3190.38 1753.78 3013.93 1756.77C2920.35 1758.26 2827.36 1749.14 2734.76 1736.52C2732.07 1736.17 2729.28 1736.23 2726.46 1736.3H2726.45C2725.32 1736.33 2724.18 1736.36 2723.04 1736.36C2723.35 1736.5 2723.64 1736.65 2723.93 1736.81L2724.16 1736.93C2725.12 1737.44 2726.06 1737.94 2727.21 1738.18C2797.34 1752.77 2868.22 1764.35 2939.1 1775.92L2939.11 1775.92C3031.89 1791.07 3124.68 1806.22 3215.81 1828.15C3258.13 1838.31 3295.64 1824.39 3333.29 1810.42C3353.45 1802.94 3373.64 1795.45 3394.64 1791.63C3467.16 1778.52 3581.21 1810.69 3572.87 1868.62C3571.93 1876.42 3580.56 1882.15 3588.27 1887.26C3601.71 1896.17 3612.32 1903.21 3564.32 1916.13C3513.99 1929.67 3440.22 1933.88 3343.02 1928.73C3276.66 1928.73 3242.52 1913.68 3222.97 1905.06C3218.41 1903.05 3214.64 1901.39 3211.44 1900.35C3050.86 1848.77 2885.35 1810.95 2719.7 1773.09C2694.52 1767.34 2669.33 1761.58 2644.16 1755.77C2632.76 1753.1 2621.27 1750.84 2609.81 1748.58L2609.81 1748.58C2606.3 1747.89 2602.8 1747.2 2599.3 1746.5L2598.22 1746.28L2597.03 1746.05L2596.27 1745.89L2595.08 1745.65L2609.77 1752.09C2619.54 1756.38 2629.26 1760.7 2638.79 1765.24C2644.44 1767.85 2649.76 1771.01 2655.08 1774.18L2655.08 1774.18L2655.08 1774.18C2656.87 1775.25 2658.65 1776.31 2660.45 1777.35C2657.53 1776.91 2654.55 1776.6 2651.57 1776.28C2645.61 1775.66 2639.65 1775.03 2634.22 1773.37C2471.29 1726.4 2317.7 1663.15 2168.08 1592.11C2078.47 1549.54 1994.68 1499.62 1910.89 1449.7L1910.89 1449.7C1827.08 1399.78 1743.27 1349.85 1653.66 1307.27C1640.78 1301.16 1627.08 1296.36 1613.36 1291.56L1613.36 1291.56L1613.36 1291.56L1613.36 1291.56L1613.35 1291.56L1613.35 1291.56L1613.35 1291.55L1613.35 1291.55L1613.35 1291.55L1613.34 1291.55L1613.34 1291.55L1613.34 1291.55L1613.33 1291.55L1613.33 1291.55L1613.32 1291.54L1613.32 1291.54L1613.31 1291.54L1613.31 1291.54L1613.3 1291.54L1613.29 1291.53L1613.29 1291.53L1613.28 1291.53L1613.28 1291.53C1606.91 1289.3 1600.54 1287.07 1594.24 1284.7C1599.45 1303.01 1616.36 1313.59 1632.48 1323.67C1633.43 1324.26 1634.38 1324.85 1635.32 1325.45L1635.78 1325.74L1636.14 1325.97L1636.48 1326.18C1636.84 1326.41 1637.2 1326.63 1637.56 1326.86C1843.21 1456 2056.21 1576.18 2276.17 1687.89C2404.33 1752.96 2469.68 1798.16 2630.85 1917.95C2714.31 1979.98 2885.35 1995.67 3035.76 2009.47C3175.78 2022.32 3297.93 2033.53 3314.94 2078.95C3350.22 2173.18 3015.51 2168.24 2766.18 2147.85C2702.35 2142.63 2529.84 2071.65 2493.05 2014.51C2349.39 1791.3 2243.81 1734.3 2152.39 1684.94C2148.27 1682.72 2144.17 1680.5 2140.1 1678.29L2117.2 1665.88L2111.48 1662.74C2066.29 1637.74 2053.85 1626.08 2037.78 1611.04C2021.64 1595.92 2001.84 1577.38 1941.45 1538.41C1912.92 1520 1882.36 1504.95 1850.84 1491.4L1832.36 1481.31L1850.44 1491.23C1824.12 1479.94 1797.12 1469.69 1770.07 1459.43C1709.02 1436.26 1647.7 1412.98 1593.18 1377.3C1552.75 1350.83 1527.64 1313.65 1502.39 1276.26C1482.31 1246.54 1462.15 1216.69 1434.14 1192C1415.58 1175.64 1370.7 1152.83 1332.94 1133.64L1332.94 1133.63L1332.92 1133.63C1312.42 1123.2 1294.01 1113.85 1283.08 1107.18L1283.1 1107.2C1281.54 1105.42 1279.9 1103.72 1278.12 1102.11L1270.5 1095.15L1259.02 1074.96C1235.09 1032.63 1212.03 989.822 1195.72 945.127C1190.9 931.936 1193.77 917.667 1196.57 903.788C1196.84 902.432 1197.11 901.08 1197.38 899.732L1197.68 898.169L1198.27 894.951C1199.7 886.885 1200.87 878.728 1202.05 870.555L1202.05 870.548C1205.94 843.549 1209.86 816.372 1222.76 791.693C1234.98 768.333 1262.22 747.56 1295.16 731.499L1297.18 730.521L1309.6 726.407C1340.5 716.23 1371.53 706.638 1404.29 701.252C1406.56 700.859 1408.68 699.846 1410.75 698.558C1428.85 696.805 1445.71 697.01 1459.97 699.48C1480.18 702.982 1471.64 728.546 1464.29 736.847L1462.96 738.318C1459.77 741.778 1455.42 746.114 1450.42 751.108L1450.38 751.146C1448.39 753.127 1446.3 755.212 1444.14 757.387L1439.22 762.374C1440.56 759.892 1441.96 757.39 1443.43 754.867C1448.6 746.07 1438.27 740.424 1429.72 740.093C1370.71 738.435 1321.04 757.854 1288.65 797.526C1258.52 834.711 1268.7 874.437 1295.58 911.266L1297.39 913.717C1301.76 919.694 1309.51 923.512 1314.68 915.212C1333.96 883.991 1352.84 894.898 1371.72 914.282L1372.3 914.878C1375.84 918.548 1379.36 922.243 1382.88 925.942C1408.06 952.357 1433.41 978.966 1466.88 998.037C1529.08 1033.52 1593 1066.97 1656.83 1100.38L1656.84 1100.39C1714.35 1130.49 1771.79 1160.55 1827.82 1192.01L1843.21 1200.71C1957.26 1265.61 2077.08 1314.91 2201.86 1359.73L2210.45 1362.79C2350.75 1412.49 2493.71 1447.79 2647.74 1411.68C2689.96 1401.8 2731.46 1389.74 2772.95 1377.68L2772.95 1377.68L2772.96 1377.68L2772.96 1377.68L2772.96 1377.68L2772.96 1377.68L2772.97 1377.68L2772.97 1377.68L2772.97 1377.68L2772.98 1377.68L2772.98 1377.68L2772.98 1377.68C2796.3 1370.9 2819.61 1364.12 2843.05 1357.74C2847.61 1356.51 2852.88 1357.01 2858.21 1357.52C2860.79 1357.77 2863.38 1358.01 2865.9 1358.07C2863.79 1359.28 2861.74 1360.66 2859.69 1362.05L2859.68 1362.05C2855.57 1364.82 2851.47 1367.58 2846.83 1369.02C2802.91 1382.21 2758.86 1395.19 2714.84 1408.17L2714.77 1408.19L2714.65 1408.23C2680.06 1418.42 2645.48 1428.61 2610.98 1438.9C2607.36 1439.95 2604.13 1442.22 2600.95 1444.45L2600.94 1444.46C2599.58 1445.41 2598.23 1446.36 2596.87 1447.2C2598.48 1448.08 2600.04 1449.02 2601.6 1449.96C2604.46 1451.68 2607.29 1453.38 2610.38 1454.67C2614.45 1456.37 2618.72 1457.8 2622.98 1459.23C2624.55 1459.75 2626.12 1460.28 2627.67 1460.81C2625.42 1461.65 2623.22 1462.6 2621.02 1463.54L2621.01 1463.54C2616.21 1465.61 2611.45 1467.65 2606.41 1468.45C2536.1 1479.61 2466.55 1473.1 2397.04 1466.6C2372.45 1464.3 2347.87 1462 2323.26 1460.48C2317.43 1460.13 2311.4 1462.22 2305.39 1464.3C2302.79 1465.2 2300.2 1466.09 2297.63 1466.79C2298.88 1468.99 2299.92 1471.42 2300.96 1473.86C2303.21 1479.13 2305.46 1484.42 2309.95 1487.37C2327.01 1498.76 2344.61 1509.54 2362.19 1520.31C2375.12 1528.23 2388.04 1536.15 2400.76 1544.31C2404.29 1546.6 2406.53 1550.19 2408.78 1553.79C2409.95 1555.66 2411.12 1557.54 2412.48 1559.24L2404.75 1562.44C2403.05 1563.16 2401.35 1563.9 2399.68 1564.68L2397.18 1565.89C2396.9 1566.02 2396.62 1566.16 2396.32 1566.3C2396.04 1566.43 2395.75 1566.56 2395.46 1566.7L2395.45 1566.7L2395.45 1566.7C2391.78 1568.42 2387.25 1570.53 2387.25 1572.52C2387.25 1575.84 2390.62 1580.49 2394.2 1582.65C2443.48 1612.36 2499.51 1630.79 2556.53 1646.23C2776.29 1705.81 2998.04 1729.38 3220.18 1657.51C3358.47 1612.69 3429.21 1532.36 3422.25 1434.09C3418.83 1385.47 3400.48 1339.83 3382.14 1294.19C3373.28 1272.15 3364.41 1250.11 3357.23 1227.74L3356.09 1224.11C3332.29 1147.8 3298.59 1074.24 3264.89 1000.66L3264.89 1000.66C3239.51 945.247 3214.13 889.828 3192.96 833.214L3191.56 829.388C3189.73 824.27 3188.04 819.152 3186.36 814.091C3174.71 778.795 3163.95 746.224 3111.4 734.848L3109.51 734.45C3085.44 729.587 3065.17 716.646 3050.9 699.031L3046.89 693.974C3038.49 683.269 3030.68 671.76 3037.78 658.262C3043.66 647.1 3056.04 645.404 3068.28 643.726L3068.28 643.726C3071 643.353 3073.72 642.981 3076.35 642.506L3077.32 642.327C3081.77 641.512 3086.26 640.734 3090.75 639.955C3107.28 637.088 3123.89 634.208 3139.51 629.379L3147.77 626.897C3162.02 622.556 3177.56 616.792 3178.06 603.649C3178.51 591.97 3165.76 588.083 3153.33 584.294C3149.34 583.075 3145.38 581.867 3141.9 580.412L3130.83 575.764C3116.06 569.497 3101.72 562.486 3093.61 549.206C3069.97 509.701 3093.41 446.792 3144.88 406.291C3155.09 398.291 3167.1 391.492 3179.11 384.69L3179.12 384.688C3204.75 370.179 3230.41 355.655 3238.66 329.438L3240.01 325.085C3249.09 295.087 3256.17 259.589 3262.95 225.6C3272.22 179.109 3280.93 135.441 3293.42 112.535L3295.43 108.954C3298.61 103.245 3301.56 97.5018 3304.44 91.8912L3304.44 91.8886C3321.16 59.3237 3335.58 31.2304 3379.44 40.3964ZM705.674 1047.17C709.449 1049.33 712.825 1052.32 716.004 1055.14L724.086 1062.63C733.255 1071.16 742.362 1079.76 751.468 1088.36C828.678 1161.27 905.893 1234.18 1021.4 1268.6C1022.56 1268.96 1024.18 1270.36 1026.03 1271.94C1031.8 1276.91 1039.75 1283.75 1042.47 1266.77C1042.47 1266.61 1048.23 1266.11 1050.21 1267.1L1073.89 1279.37C1087.04 1286.19 1100.14 1293.07 1113.04 1300.17L1120.75 1304.45C1181.35 1338.44 1244.9 1368.35 1308.66 1397.96L1325.71 1405.87C1381.56 1452.65 1432.55 1502.74 1465.36 1563.73L1467.41 1567.6L1469.07 1570.84C1483.54 1599.41 1525.62 1690.36 1529.51 1728.71C1532.64 1759.67 1533.82 1789.72 1534.97 1819.27V1819.27C1536.31 1853.46 1537.62 1886.97 1541.91 1920.4L1542.81 1927.07L1170.82 1927.08C1185.62 1900.63 1208.73 1879.34 1232.8 1858.77L1237.19 1855.04C1294.23 1806.39 1299.48 1777.28 1258.32 1741.91L1257.06 1740.84C1255.29 1739.33 1253.38 1737.85 1251.46 1736.36L1251.46 1736.36L1251.46 1736.36L1251.46 1736.36L1251.46 1736.36L1251.45 1736.35C1241.96 1728.99 1232.13 1721.36 1236.59 1708.8C1242.04 1693.52 1258.91 1689.7 1275.1 1686.75L1276.13 1686.56C1283.83 1685.14 1294 1684.08 1303.77 1683.07L1303.79 1683.07L1303.81 1683.07H1303.81L1303.82 1683.07C1320.27 1681.37 1335.57 1679.78 1335.94 1676.77C1336.81 1668.96 1338.03 1661.06 1339.26 1653.11C1344.7 1617.77 1350.28 1581.54 1326.6 1549.29C1274.39 1478.05 1192.96 1434.25 1111.93 1390.66C1097.99 1383.15 1084.05 1375.66 1070.28 1368.03L1061.29 1363.03C916.065 1282.11 778.223 1194.81 679.311 1071.74L676.264 1067.92C675.436 1066.88 674.528 1065.8 673.589 1064.68C666.425 1056.12 657.495 1045.45 668.914 1037.38C679.237 1030.08 689.307 1036.68 698.717 1042.84L698.718 1042.84C701.08 1044.39 703.401 1045.9 705.674 1047.17ZM1349.49 1707.48L1346.47 1698.18C1347.33 1697.5 1348.28 1696.6 1349.26 1695.67L1349.27 1695.67C1351.66 1693.41 1354.23 1690.97 1356.21 1691.21C1379.25 1694.53 1403.3 1698.35 1407.27 1722.41C1409.06 1733.7 1399.52 1740.84 1386.21 1740.01C1361.66 1738.46 1355.04 1724.2 1349.49 1707.48ZM2150.14 1488.67L2153.75 1492.77C2165.42 1505.9 2178.23 1519.1 2193.72 1528.54C2324.26 1608.38 2475.27 1648.55 2628.86 1683.9C2629.76 1684.15 2630.78 1684.12 2631.73 1684.09C2632.04 1684.08 2632.34 1684.07 2632.63 1684.07C2631.64 1683.72 2630.69 1683.32 2629.74 1682.92L2629.73 1682.92C2628.4 1682.36 2627.07 1681.8 2625.68 1681.41C2538.45 1660.2 2453.87 1633.46 2373.22 1598.56L2355.98 1591.04C2353.19 1589.84 2350.39 1588.63 2347.59 1587.42C2296.3 1565.31 2244.28 1542.89 2213.98 1499.32L2212.39 1497.03C2200.48 1480.17 2189.48 1470.28 2183.58 1470.28L2180.81 1470.26C2148.19 1470.27 2139.43 1476.11 2150.14 1488.67ZM80.3735 121.457L77.9907 111.329C-21.6536 111.329 -24.6429 111.329 -24.7326 189.803L-24.7354 249.266C37.6554 240.634 101.04 234.327 148.528 278.812C182.505 310.681 196.812 352.676 181.114 393.343C163.902 437.725 121.6 433.623 80.8472 429.67C73.6528 428.973 66.5068 428.28 59.5556 427.859L51.2887 427.399C34.3329 426.335 17.444 424.221 0.525864 422.104L0.525394 422.103L0.523855 422.103L0.522343 422.103L0.520924 422.103L0.51955 422.103L0.518223 422.103L0.516941 422.102L0.515705 422.102C-7.89012 421.05 -16.3032 419.997 -24.7354 419.072V582.071C-24.5861 593.54 -24.3528 604.986 -24.1197 616.427C-23.7319 635.452 -23.3445 654.461 -23.3445 673.533C-23.212 756.963 -23.2562 840.319 -23.3003 923.7C-23.3224 965.4 -23.3445 1007.11 -23.3445 1048.83C-23.3445 1052.15 -23.75 1055.56 -24.1989 1058.92L-24.7354 1062.94V1073.07C-17.2085 1072.09 -9.60793 1071.22 -1.99108 1070.35L-1.97214 1070.35C44.8956 1064.98 92.3766 1059.53 127.069 1029.41C165.815 995.715 159.457 934.965 117.134 876.534L115.679 874.508C68.2699 808.008 79.2108 776.379 160.649 737.107C220.059 708.39 283.841 678.179 349.808 709.054L352.211 710.169C395.402 729.921 435.509 733.122 481.743 733.122L485.818 733.12C511.513 733.043 537.239 731.822 562.977 730.601C627.046 727.56 691.196 724.516 755.15 739.099C784.36 745.737 811.78 729.802 829.065 711.21L832.317 707.734C940.092 593.695 1095.33 544.599 1253.68 515.678C1640.54 444.966 1999.78 496.089 2305.98 722.663C2334.19 743.577 2356.05 771.63 2375.52 799.185L2376.01 799.87C2377.39 801.8 2378.87 803.791 2380.37 805.824C2396.6 827.685 2416.38 854.347 2356.45 861.263L2356.25 861.43C2359.62 866.487 2363 871.503 2366.37 876.52L2366.39 876.541C2369.76 881.561 2373.14 886.581 2376.52 891.642C2263.26 809.477 2136.29 747.395 1993.63 708.056C1990.73 707.133 1988.12 705.17 1985.53 703.222C1984.39 702.367 1983.26 701.514 1982.1 700.755C1982.92 699.925 1983.72 699.067 1984.52 698.206L1984.53 698.204L1984.53 698.203C1986.46 696.134 1988.4 694.046 1990.64 692.288C2021.03 669.628 1998.17 660.104 1980.37 652.688C1978.18 651.778 1976.08 650.899 1974.15 650.032L1968.83 647.559C1920.19 625.207 1866.88 613.764 1813.57 602.321C1794.5 598.228 1775.44 594.135 1756.58 589.543C1752.81 588.53 1749.32 586.756 1745.85 584.995C1744.2 584.157 1742.55 583.321 1740.88 582.572C1742.85 582.273 1744.83 581.87 1746.82 581.465C1751.47 580.52 1756.16 579.567 1760.75 579.915C1864.47 586.887 1964.02 608.962 2061.98 637.015L2062.74 637.234C2065.33 637.99 2068.21 638.94 2071.2 639.93C2084.57 644.352 2100.39 649.586 2104.7 641.994C2110.52 631.715 2095.19 624.229 2082.58 618.07L2082.58 618.069C2080.12 616.867 2077.76 615.716 2075.69 614.605L2071.85 612.562C1947.4 546.906 1807.19 521.838 1664.1 505.395L1655.25 504.388C1443.83 480.487 1249.31 517.503 1068.69 613.778C1052.67 622.324 1035.73 629.726 1018.85 637.1C970.807 658.084 923.266 678.85 899.006 725.153C882.67 756.397 879.178 789.557 875.687 822.706C874.04 838.34 872.394 853.972 869.401 869.399L869.168 870.597C862.321 905.259 847.992 934.403 800.65 943.265L799.937 943.409C789.961 945.599 790.905 953.017 799.061 958.536C854.859 995.728 908.186 981.908 924.788 926.094C913.319 880.077 914.801 832.868 942.869 791.361C947.807 784.058 956.829 779.083 965.271 774.546L972.469 770.692C989.288 761.723 1006.28 752.939 1023.6 744.658L1025.03 741.95C1080.12 639.66 1226.54 549.566 1377.66 530.448C1447.01 521.651 1516.36 519.826 1586.1 525.636C1590.49 526.095 1594.78 527.583 1599.05 529.061L1599.05 529.061C1600.96 529.724 1602.87 530.384 1604.78 530.949C1603.43 531.283 1602.07 531.638 1600.69 531.995L1600.68 531.998L1600.68 531.998C1596.61 533.061 1592.45 534.145 1588.29 534.767C1581 535.946 1573.68 537.052 1566.36 538.158C1523.2 544.68 1480.02 551.206 1442.64 572.777C1438.06 575.479 1435.03 580.09 1432.01 584.692C1430.57 586.876 1429.14 589.059 1427.54 591.035C1429.97 592.104 1432.38 593.431 1434.8 594.761C1439.88 597.563 1445 600.379 1450.39 600.829C1479.25 603.165 1508.26 604.646 1537.28 606.128L1537.29 606.128L1537.29 606.128L1537.29 606.128L1537.29 606.129L1537.3 606.129L1537.3 606.129L1537.3 606.129L1537.3 606.129C1617.58 610.228 1697.92 614.33 1775.26 636.517C1778.21 637.392 1781.5 638.185 1784.87 639.001L1784.88 639.002C1799.43 642.517 1815.76 646.46 1815.59 659.257C1815.44 672.245 1799.31 674.969 1784.93 677.398C1781.91 677.907 1778.97 678.404 1776.27 678.98L1774.66 679.34C1759.91 682.885 1745.06 686.219 1730.21 689.554C1670.65 702.926 1611.04 716.31 1557.29 743.414C1453.57 795.534 1444.43 877.198 1539.01 939.944C1547.77 945.741 1556.56 951.649 1565.4 957.592C1647.2 1012.57 1733.26 1070.41 1839.24 1068.92C1915.58 1067.82 1990.01 1076.36 2064.23 1084.86C2125.43 1091.88 2186.49 1098.88 2248.36 1100.45C2266.44 1100.95 2291.47 1100.62 2295.05 1083.52C2298.43 1067.92 2286.31 1050.16 2269.82 1039.37C2249.13 1025.8 2226.51 1014.47 2203.89 1003.14C2168.95 985.628 2134.03 968.129 2106.29 942.433C2087.81 925.5 2076.48 901.103 2090.99 881.35C2103.21 864.78 2126.63 871.813 2146.07 877.649L2146.07 877.65C2147.8 878.17 2149.5 878.679 2151.16 879.162L2156.94 880.821C2238.56 904.547 2306.63 947.052 2371.98 992.927L2378.3 997.377C2379.67 998.311 2381.35 999.052 2383.05 999.8C2384.07 1000.25 2385.09 1000.7 2386.05 1001.19C2385.79 1000.59 2385.56 999.966 2385.33 999.34C2384.67 997.548 2384 995.739 2382.68 994.387C2268.82 876.371 2070.52 772.628 1864.47 793.045L1863.66 793.123C1862.58 793.224 1861.47 793.318 1860.35 793.413L1860.34 793.414C1847.67 794.491 1833.32 795.712 1828.31 809.31V810.972C1830.7 812.385 1833.08 813.796 1835.45 815.205L1835.45 815.206L1835.46 815.207L1835.46 815.208L1835.46 815.21L1835.46 815.211L1835.46 815.212L1835.47 815.213L1835.47 815.214C1852.91 825.553 1870.22 835.812 1887.52 846.326C1889.95 847.881 1891.97 849.952 1893.95 851.98C1894.72 852.768 1895.49 853.549 1896.26 854.292C1894.61 854.126 1892.91 854.071 1891.21 854.016C1887.81 853.905 1884.41 853.794 1881.36 852.8C1873.29 850.205 1865.03 847.122 1856.67 844.002L1856.67 844C1822.27 831.16 1786.25 817.711 1754.59 835.203L1752.95 836.097C1707.35 860.487 1676.66 844.263 1645.03 827.541L1645.03 827.54C1639.16 824.438 1633.26 821.32 1627.23 818.44L1626.21 817.947C1599.7 804.89 1603.48 787.716 1626.44 773.292C1704.72 724.158 1795.33 722.333 1886.93 729.304L1891.18 729.636C2031.39 740.872 2159.53 779.649 2257.1 866.91L2259.98 869.461C2275.61 883.175 2292.3 896.053 2308.98 908.92L2308.99 908.923C2341.75 934.201 2374.46 959.439 2398.97 990.903L2400.6 992.971C2403.02 996.018 2405.51 999.089 2408.02 1002.19C2432.01 1031.73 2457.9 1063.63 2438.71 1099.96C2419.37 1136.8 2375.25 1141.34 2332.84 1145.71C2326.58 1146.35 2320.36 1146.99 2314.27 1147.73L2311.34 1148.09C2295.55 1150.08 2279.59 1151.48 2263.64 1152.88L2263.64 1152.88L2263.63 1152.88L2263.63 1152.88L2263.63 1152.88L2263.62 1152.88L2263.62 1152.88L2263.62 1152.88L2263.61 1152.88L2263.61 1152.88C2248.87 1154.18 2234.14 1155.47 2219.55 1157.22C2213.86 1157.82 2208.32 1161.73 2203.67 1165.4L2202.06 1166.68C2201.27 1167.18 2206.04 1174.48 2209.81 1176.97C2294.06 1233.58 2513.81 1241.88 2602.23 1191.91C2644.27 1168.18 2668.51 1133.45 2688.38 1095.95L2692.39 1088.29C2755.99 967.386 2794 962.44 2914.79 1053.31C2979.96 1102.44 3035 1158.38 3084.47 1218.64L3084.89 1219.14C3085.21 1219.53 3085.53 1219.93 3085.86 1220.33C3086.09 1220.62 3086.33 1220.92 3086.56 1221.22L3086.93 1221.69L3087.2 1222.03L3087.21 1222.04C3092.66 1228.97 3098.9 1236.91 3108.91 1234.07C3114.87 1232.41 3119.44 1219.47 3119.24 1211.83C3117.26 1139.29 3086.66 1074.89 3038.38 1015.47L3037.78 1015.96C3039.88 1019.66 3042 1023.35 3044.12 1027.04L3044.13 1027.05C3065.63 1064.48 3087.17 1101.97 3092.42 1144.28C3092.6 1145.52 3092.83 1146.82 3093.08 1148.16C3094.5 1155.92 3096.1 1164.66 3086.26 1167.35C3080.3 1169.01 3068.38 1161.37 3062.22 1155.73L3054.06 1148.29C2991.46 1091.3 2927 1035.89 2851.6 990.239C2776.09 944.589 2729 956.209 2691.25 1027.25C2686.57 1036.04 2682.14 1044.98 2677.7 1053.91C2654.83 1100 2631.9 1146.21 2574.81 1173.32C2571.9 1174.76 2568.9 1175.98 2565.87 1177.17L2561.3 1178.97C2535.67 1189.09 2509.05 1194.4 2480.43 1191.75C2487.13 1190.28 2493.9 1188.97 2500.68 1187.65C2515.44 1184.78 2530.25 1181.91 2544.41 1177.47C2605.99 1158.2 2633.25 1115.08 2655.88 1068.79L2658.18 1064.05L2660.45 1059.29C2662.77 1054.35 2665.05 1049.39 2667.34 1044.41C2674.66 1028.49 2682.02 1012.47 2690.65 997.043C2726.42 933.47 2765.76 923.675 2836.1 962.85C2867.68 980.402 2898.21 999.132 2928.75 1017.87L2928.76 1017.87C2948.19 1029.78 2967.61 1041.7 2987.31 1053.31C2991.17 1055.73 2996.76 1056.15 3002.34 1056.57C3004.8 1056.76 3007.25 1056.94 3009.56 1057.3C3009.69 1055.24 3010.12 1053.08 3010.54 1050.92C3011.42 1046.46 3012.3 1042.01 3010.56 1038.54C2956.62 932.481 2868.52 849.695 2759.92 781.28L2753.24 777.109C2686.68 735.779 2612.37 707.392 2532.49 688.14L2527.67 686.959C2458.05 669.548 2396.82 638.458 2335.57 607.353L2335.57 607.352C2303.66 591.148 2271.74 574.94 2238.62 560.66C2017.67 465.548 1781.02 413.096 1537.62 378.239L1527.49 376.771C1436.33 363.466 1345.92 347.471 1261.23 314.499L1260.47 314.208C1258.48 313.443 1256.3 312.658 1254.03 311.842C1239.25 306.513 1220.78 299.859 1225.86 289.103C1231.44 277.11 1251.94 280.588 1267.73 284.246L1275.54 286.115C1342.35 301.708 1409.31 316.887 1476.26 332.065L1476.26 332.066C1802.72 406.077 2129.06 480.062 2438.71 601.824C2461.31 610.709 2484 619.417 2506.66 628.116L2506.67 628.118L2506.68 628.121L2506.68 628.123L2506.69 628.126L2506.69 628.128L2506.7 628.131L2506.71 628.134L2506.71 628.136C2650.01 683.132 2792.24 737.72 2904.26 833.878C3032.41 943.929 3141.9 1065.1 3164.15 1224.78C3173.49 1292.67 3156 1354.09 3085.86 1397.41C3081.01 1400.45 3074.68 1401.74 3068.32 1403.03C3065.32 1403.63 3062.3 1404.25 3059.44 1405.04C3059.7 1402.67 3059.79 1400.26 3059.88 1397.86V1397.85C3060.05 1393.02 3060.23 1388.23 3061.82 1383.8C3099.37 1278.56 2980.55 1100.62 2852.99 1071.08C2790.74 1056.58 2754.66 1087.7 2723.53 1122.45L2718.85 1127.73C2658.94 1194.99 2583.92 1240.34 2482.42 1252.17C2479.77 1252.5 2477.3 1253.72 2474.83 1254.93C2473.59 1255.54 2472.35 1256.15 2471.09 1256.65C2472.35 1257.09 2473.59 1257.63 2474.83 1258.16C2477.3 1259.23 2479.77 1260.3 2482.42 1260.63C2506.4 1264.21 2529.86 1260.8 2553.11 1256.27L2557.92 1255.32C2560.63 1254.83 2563.42 1254.51 2566.19 1254.2L2566.19 1254.2L2566.19 1254.2L2566.19 1254.2L2566.2 1254.2L2566.2 1254.19L2566.2 1254.19L2566.21 1254.19C2568.1 1253.98 2569.98 1253.76 2571.83 1253.5C2570.09 1254.29 2568.4 1255.19 2566.72 1256.1L2566.72 1256.1C2564.19 1257.45 2561.66 1258.81 2558.92 1259.8C2546.41 1264.44 2533.82 1269.02 2521.21 1273.6L2521.2 1273.61L2521.19 1273.61L2521.18 1273.61L2521.17 1273.62C2512.57 1276.74 2503.95 1279.88 2495.34 1283.04L2494.36 1283.4C2480.81 1288.45 2472.02 1294.2 2469.31 1309.76L2469.14 1310.57C2466.02 1324.42 2448.48 1322.67 2434.32 1321.25C2433.13 1321.14 2431.96 1321.02 2430.83 1320.91L2423.65 1320.32C2326.41 1312.13 2236.89 1282.25 2147.48 1252.4L2147.47 1252.4C2135.91 1248.54 2124.34 1244.67 2112.76 1240.86L2100.84 1236.96L2099.07 1236.38C2096.6 1235.58 2094.12 1234.77 2091.64 1233.97L2091.29 1233.86C2048.58 1220.03 2005.55 1206.11 1970.78 1179.63C1947.13 1161.54 1945.34 1141.29 1967 1121.37L1967.76 1120.67C1983.52 1105.86 1975.21 1099.29 1957.74 1094.43L1956.07 1093.98C1933.72 1088.14 1910.63 1090.29 1887.88 1092.41C1864.72 1094.57 1841.91 1096.69 1820.56 1090.33C1687.24 1050.32 1564.24 993.89 1480.39 894.959C1438.07 844.998 1467.28 788.066 1545.96 742.583C1588.43 718.149 1636.03 703.179 1683.68 688.19L1683.68 688.19C1696.88 684.036 1710.09 679.881 1723.2 675.522C1724.72 675.034 1726.31 674.561 1727.93 674.079L1727.93 674.079L1727.93 674.078C1738.44 670.954 1750.22 667.453 1750.22 657.098C1750.04 646.182 1737.47 643.131 1726.58 640.49L1725.69 640.275L1718.37 638.45C1630.94 617.04 1541.54 618.844 1451.91 622.694L1443.24 623.072C1418.4 624.233 1393.76 625.227 1368.92 625.728C1368.14 625.739 1367.35 625.754 1366.56 625.768C1355.38 625.974 1342.91 626.205 1337.53 616.598C1333.11 608.709 1338.62 602.284 1344.03 595.977C1345.67 594.055 1347.31 592.145 1348.65 590.207C1350.06 588.101 1351.9 585.811 1353.76 583.492L1353.77 583.482L1353.78 583.473L1353.78 583.471C1358.53 577.57 1363.43 571.489 1361.57 567.798C1357.88 560.279 1347.55 561.447 1338.07 562.52L1338.06 562.52C1335.82 562.774 1333.62 563.022 1331.57 563.149L1328.38 563.371C1222.94 571.37 1108.41 645.509 1054.53 730.638L1054.84 730.505L1060.64 728.065L1063.28 726.974L1065.92 725.894L1066.54 724.978C1103.44 670.616 1160.25 630.337 1235.8 603.649C1256.86 596.181 1273.15 596.515 1270.37 624.73L1270.25 626.048C1267.33 662.917 1298 659.343 1323.67 656.353C1327.88 655.862 1331.97 655.387 1335.74 655.109L1350.19 653.967C1359.56 653.204 1368.93 652.404 1378.31 651.604C1397.04 650.005 1415.77 648.406 1434.5 647.103L1434.42 647.109L1451.23 644.917L1459.71 643.797C1476.72 641.539 1494.05 639.167 1511.75 636.599C1529.78 633.984 1575.55 635.379 1594.33 643.99C1597.23 645.322 1598.99 647.907 1600.1 650.735L1607.23 651.639C1619.07 653.193 1631.45 655.665 1633.59 666.395C1635.66 676.784 1624.17 682.15 1613.69 687.039C1611.12 688.242 1608.6 689.417 1606.37 690.63L1602.67 692.615C1596.18 696.082 1589.66 699.494 1583.14 702.902C1553.73 718.289 1524.46 733.605 1498.67 753.706C1438.07 800.843 1426.15 862.925 1478.8 916.04C1563.5 1001.58 1677 1055.75 1792.77 1106.41L1808.04 1113.07C1814 1115.56 1821.36 1117.72 1827.52 1117.05C1877.98 1112.24 1904.01 1134.15 1915.74 1172.33C1894.84 1140.11 1859.04 1134.74 1822.85 1129.32C1796.77 1125.41 1770.48 1121.47 1749.43 1107.43L1742.4 1102.81C1710.36 1082.01 1676.41 1063.2 1642.44 1044.39L1642.44 1044.39L1642.44 1044.38L1642.44 1044.38L1642.43 1044.38L1642.43 1044.38L1642.43 1044.38L1642.43 1044.38L1642.43 1044.38L1642.43 1044.38C1614.88 1029.12 1587.33 1013.86 1560.79 997.532L1560.83 997.553C1561.54 1003 1557.16 1007.7 1551.99 1010.46L1557.04 1013.53L1571.28 1022.08C1579.9 1027.28 1588.52 1032.51 1597.14 1037.75L1597.16 1037.76C1652.76 1071.53 1708.73 1105.52 1769.1 1132.16C1823.7 1156.28 1877.01 1182.6 1930.33 1208.92C2062.7 1274.28 2195.16 1339.68 2347.71 1371.51C2485.6 1400.4 2617.14 1401.56 2737.15 1326.86C2743.9 1322.55 2750.66 1317.24 2755.23 1311.26C2756.26 1309.93 2757.31 1308.62 2758.37 1307.29C2766.71 1296.85 2775.18 1286.25 2771.12 1272.25L2770.48 1272.66C2759.57 1279.49 2748.66 1286.33 2737.74 1293C2735.3 1294.43 2732.71 1295.67 2730.1 1296.92L2730.1 1296.92C2728.47 1297.7 2726.83 1298.48 2725.23 1299.31C2725.1 1298.07 2724.91 1296.84 2724.71 1295.61C2724.26 1292.87 2723.82 1290.16 2724.23 1287.52C2726.22 1272.91 2722.84 1265.45 2701.38 1268.43C2700.01 1268.63 2698.59 1268.84 2697.14 1269.06C2681.37 1271.44 2661.64 1274.41 2652.9 1261.8C2645.19 1250.58 2655.68 1241.87 2665.51 1233.72C2668.33 1231.37 2671.1 1229.07 2673.37 1226.77C2701.98 1197.39 2730.59 1168.01 2760.99 1140.12C2801.13 1103.28 2847.03 1102.95 2892.53 1132.49C2948.17 1168.84 2992.87 1213.33 3023.08 1267.1C3063.21 1338.65 3025.86 1404.05 2920.75 1451.85C2872.98 1473.6 2821.89 1487.61 2770.78 1501.63L2770.77 1501.63C2751.29 1506.97 2731.81 1512.31 2712.51 1518.08C2707.35 1519.6 2702.98 1523.15 2698.63 1526.69L2698.63 1526.69C2696.78 1528.19 2694.94 1529.69 2693.04 1531.03C2694.83 1532.52 2696.5 1534.31 2698.18 1536.1C2701.54 1539.68 2704.89 1543.26 2709.13 1544.47C2803.51 1572.19 2910.81 1595.27 2991.48 1546.96C3072.35 1498.66 3154.21 1437.91 3190.77 1351.6C3220.71 1280.8 3210.52 1210.79 3183.09 1142.67L3181.24 1138.13C3100.37 943.595 2943 797.857 2754.24 671.374C2640.18 595.019 2513.02 538.084 2382.28 485.8C2362.41 477.831 2328.83 464.885 2316.71 482.146C2308.55 493.881 2322 502.757 2335.73 511.813C2342.39 516.207 2349.12 520.643 2353.47 525.469C2355.14 527.282 2356.77 529.094 2358.4 530.905C2360.05 532.745 2361.7 534.585 2363.4 536.425C2361.89 536.231 2360.35 536.108 2358.81 535.985C2355.08 535.688 2351.39 535.394 2348.3 534.103C2278.64 506.082 2206.77 482.168 2134.9 458.255C2029.23 423.098 1923.56 387.94 1824.93 339.729L1823.59 339.082C1815.77 335.365 1807.98 332.678 1799.23 329.657L1799.22 329.656L1799.22 329.655L1799.22 329.655C1788.47 325.946 1776.26 321.734 1760.75 314.499C1753.68 311.2 1745.41 306.473 1736.66 301.468L1736.66 301.467C1721.35 292.718 1704.56 283.119 1690.07 278.812C1672.56 273.605 1653.8 270.752 1635.32 267.942C1608.79 263.906 1582.85 259.96 1562.06 249.266C1499.57 217.121 1429.72 197.311 1377.66 197.311C1260.24 197.311 1133.07 191.501 1108.23 184.862C935.864 184.862 910.381 166.479 884.898 148.096C859.416 129.712 833.933 111.329 661.564 111.329C638.714 187.518 599.174 228.849 537.578 222.044C505.034 218.447 472.026 217.277 439.004 216.107C368.395 213.605 297.722 211.1 231.385 184.862L229.411 184.099C206.346 175.462 181.79 175.89 156.946 177.123L146.85 177.642C97.5179 179.761 87.5922 151.437 80.3735 121.457ZM1792.55 1459.98V1460.15C1793.24 1460.4 1793.94 1460.69 1794.63 1460.98C1795.33 1461.27 1796.02 1461.56 1796.72 1461.81L1797.64 1462.64C1797.96 1462.93 1798.31 1463.22 1798.7 1463.47C1799.4 1463.72 1800.1 1464.01 1800.8 1464.3C1801.11 1464.43 1801.42 1464.56 1801.73 1464.69C1802.01 1464.8 1802.28 1464.91 1802.55 1465.01L1802.69 1465.06C1802.75 1465.09 1802.82 1465.11 1802.88 1465.13C1803.17 1465.3 1803.47 1465.47 1803.76 1465.64C1803.96 1465.75 1804.15 1465.85 1804.34 1465.96C1804.56 1466.08 1804.77 1466.19 1804.98 1466.31C1805.28 1466.47 1805.58 1466.63 1805.88 1466.79L1807.84 1467.82L1807.15 1467.41C1805.66 1466.55 1804.17 1465.71 1802.68 1464.96C1801.74 1464.63 1800.81 1464.22 1799.93 1463.83C1799.51 1463.65 1799.09 1463.47 1798.7 1463.3L1797.79 1462.47C1797.75 1462.44 1797.71 1462.41 1797.68 1462.38C1797.63 1462.34 1797.59 1462.3 1797.54 1462.26C1797.48 1462.21 1797.42 1462.16 1797.35 1462.1C1797.16 1461.94 1796.94 1461.79 1796.72 1461.65C1796.33 1461.5 1795.94 1461.35 1795.55 1461.19C1795.25 1461.07 1794.96 1460.95 1794.66 1460.83L1794.63 1460.81C1794.3 1460.68 1793.97 1460.54 1793.64 1460.4L1793.49 1460.34C1793.38 1460.3 1793.28 1460.26 1793.17 1460.22C1793.07 1460.18 1792.96 1460.14 1792.85 1460.1C1792.75 1460.06 1792.65 1460.02 1792.55 1459.98ZM2493.54 1364.66C2476.59 1363.84 2459.63 1363.03 2442.68 1362.05C2444.6 1362.11 2446.5 1362.14 2448.39 1362.18H2448.39C2452.18 1362.25 2455.93 1362.33 2459.77 1362.55L2468.53 1362.95C2476.57 1363.35 2484.56 1363.8 2492.64 1364.26L2494.74 1364.38C2494.64 1364.38 2494.59 1364.46 2494.57 1364.54L2494.54 1364.71L2493.54 1364.66ZM1005.77 1088.23L1006.4 1087.66C1008.83 1091.36 1011.25 1095 1013.66 1098.6C1005.85 1102.68 994.668 1104.99 978.882 1104.77C977.164 1104.77 975.447 1103.96 973.673 1103.13L973.672 1103.13C972.777 1102.71 971.868 1102.28 970.937 1101.95C971.153 1101.83 971.369 1101.68 971.587 1101.53C971.673 1101.47 971.76 1101.41 971.846 1101.34C971.944 1101.27 972.043 1101.2 972.142 1101.12C972.948 1100.52 973.785 1099.9 974.712 1099.79C989.264 1098.16 999.179 1094.03 1005.77 1088.23ZM1632.74 983.831L1623.46 978.948C1631.92 982.492 1640.36 986.082 1648.8 989.671L1648.82 989.682L1648.82 989.682C1718.66 1019.38 1788.44 1049.06 1869.44 1052.32C1870.51 1052.32 1871.63 1052.4 1872.77 1052.48C1873.96 1052.56 1875.18 1052.65 1876.39 1052.65C1888.74 1052.82 1901.04 1053.03 1913.34 1053.24C1925.38 1053.44 1937.42 1053.65 1949.51 1053.81L1943.95 1054.22C1920.8 1055.91 1897.79 1057.59 1874.61 1059.12C1785.27 1064.83 1715.45 1027.75 1645.58 990.638C1641.3 988.366 1637.03 986.094 1632.74 983.831ZM1640.15 959.53C1640.18 959.642 1640.22 959.759 1640.25 959.879C1640.31 960.116 1640.37 960.366 1640.42 960.617C1640.62 961.551 1640.83 962.496 1641.54 962.85L1652.99 970.268C1706.57 1004.75 1762.17 1036.8 1843.21 1040.37L1881.78 1033.91C1896.16 1031.49 1911.66 1028.83 1927.06 1026.09C1929.63 1025.64 1932.1 1024.42 1934.54 1023.22C1935.7 1022.65 1936.84 1022.09 1937.99 1021.61C1936.65 1021.13 1935.3 1020.49 1933.96 1019.86C1931.13 1018.52 1928.3 1017.18 1925.47 1017.29C1826.92 1017.79 1735.12 995.218 1646.9 960.361C1645.63 959.829 1644.19 959.773 1642.7 959.715C1641.86 959.682 1641 959.649 1640.15 959.53ZM1502.65 839.354C1496.29 807.318 1550.34 754.203 1589.48 754.366C1590.51 754.366 1591.46 754.647 1592.43 754.935C1592.96 755.09 1593.49 755.247 1594.05 755.364C1593.81 755.877 1593.59 756.409 1593.36 756.945L1593.36 756.947C1592.63 758.669 1591.88 760.447 1590.67 761.838C1545.96 812.233 1546.49 820.304 1604.59 854.374L1610.14 857.612C1636.05 872.619 1660.82 889.005 1685.46 905.582L1703.93 918.032C1707.26 920.369 1708.98 924.419 1710.71 928.486C1711.56 930.487 1712.42 932.493 1713.46 934.301L1712.6 934.591C1710.24 935.379 1707.9 936.16 1705.76 936.875C1704.7 937.23 1703.69 937.569 1702.75 937.885L1697.17 939.777C1612.33 938.449 1511.79 885.167 1502.65 839.354ZM1494.74 747.846L1492.31 750.069C1499.47 742.705 1506.15 737.151 1512.77 732.418L1512.78 732.409C1506.37 737.603 1500.36 742.748 1494.74 747.846ZM509.362 560.66C510.353 548.045 521.083 542.068 534.597 540.74C543.933 539.746 550.293 546.053 549.698 553.355C548.503 564.808 538.968 570.785 525.457 572.28C525.097 572.221 524.736 572.163 524.373 572.105C516.537 570.847 508.411 569.543 509.362 560.66Z" fill="#1A46FF"/>
<path fill-rule="evenodd" clip-rule="evenodd" d="M1594.33 643.99C1575.55 635.379 1529.78 633.984 1511.75 636.599C1491.1 639.595 1470.95 642.325 1451.23 644.917L1434.42 647.109C1488.52 643.343 1542.66 642.036 1597.03 650.293L1598.54 650.52L1600.1 650.735C1598.99 647.908 1597.23 645.322 1594.33 643.99ZM1518.42 676.237L1515.76 676.023C1476.42 672.369 1437.47 677.017 1399.12 684.156C1396.28 684.721 1393.54 685.901 1390.82 687.068C1389.54 687.616 1388.27 688.16 1387 688.638L1387.41 688.653C1391.66 688.815 1396.08 688.984 1400.32 689.469L1420.19 691.958C1418.54 692.977 1416.95 694.153 1415.37 695.321L1415.37 695.321L1415.37 695.322C1413.83 696.457 1412.3 697.585 1410.74 698.555C1428.84 696.805 1445.71 697.01 1459.96 699.48C1480.18 702.982 1471.64 728.547 1464.29 736.847C1461.04 740.514 1456.16 745.376 1450.42 751.103L1450.42 751.106L1450.42 751.108C1448.05 753.469 1445.54 755.976 1442.93 758.608L1439.21 762.377C1377.69 876.231 1450.58 948.376 1551.99 1010.46C1557.15 1007.7 1561.54 1003 1560.83 997.553C1554.28 993.526 1547.8 989.433 1541.39 985.26C1417.44 904.364 1402.23 833.244 1492.31 750.07C1499.47 742.705 1506.15 737.151 1512.77 732.418C1518.9 727.445 1525.4 722.425 1532.25 717.354L1532.9 716.877C1533.78 716.23 1534.69 715.583 1535.6 714.931C1545.22 708.047 1555.49 700.7 1550.33 688.968C1545.62 678.178 1532.62 677.252 1520.64 676.398C1519.9 676.345 1519.15 676.292 1518.42 676.237ZM1297.18 730.521C1263.34 746.713 1235.23 767.856 1222.76 791.693C1209.86 816.372 1205.94 843.549 1202.05 870.548C1200.87 878.723 1199.7 886.882 1198.27 894.951L1197.68 898.169C1197.32 900.033 1196.95 901.907 1196.57 903.789C1193.77 917.667 1190.9 931.937 1195.72 945.127C1212.03 989.822 1235.09 1032.63 1259.02 1074.96L1270.5 1095.15L1265.92 1090.95C1192.09 1022.86 1125.08 951.524 1116.04 854.802L1114.43 836.251C1111.91 805.302 1111.71 767.864 1150.56 765.323C1196.9 762.32 1238.82 749.755 1280.08 736.187L1297.18 730.521ZM1083.84 744.263C1083.66 743.913 1083.47 743.557 1083.4 743.247C1082.8 743.909 1082.16 744.553 1081.53 745.197C1080.24 746.49 1078.96 747.783 1078.03 749.224C1040.68 808.479 1040.48 872.386 1062.93 932.639L1065.87 940.572C1068.22 946.922 1070.56 953.282 1072.9 959.647C1118.38 1083.26 1164.56 1208.8 1280.31 1301.46C1359.83 1365.22 1456.54 1409.5 1553.04 1453.68C1581.92 1466.91 1610.78 1480.12 1639.15 1493.85L1645.37 1496.84C1651.26 1499.68 1657.16 1502.5 1663.06 1505.33C1745.4 1544.75 1827.97 1584.27 1885.93 1650.71C1923.02 1692.91 1897.27 1726.07 1871.46 1759.32C1869.5 1761.84 1867.54 1764.36 1865.61 1766.89L1861.36 1772.5C1854.35 1781.6 1846.04 1790.12 1837.05 1797.94C1781.95 1846.09 1761 1845.14 1720.54 1789.15L1718.03 1785.65C1687.83 1742.99 1668.76 1699.17 1671.34 1646.39C1673.88 1591.81 1622.84 1561.75 1575.74 1534C1572.16 1531.89 1568.6 1529.79 1565.09 1527.7L1555.22 1521.8C1488.97 1482.54 1418.55 1449.03 1347.71 1416.08L1325.71 1405.87C1382.53 1453.45 1434.3 1504.47 1467.05 1566.89L1467.42 1567.6C1479.97 1591.74 1525.46 1688.76 1529.51 1728.71C1532.64 1759.67 1533.82 1789.72 1534.98 1819.27C1536.4 1855.74 1537.8 1891.43 1542.81 1927.08L1732.34 1927.08C1750.22 1898.69 1774.86 1885.74 1814.2 1898.69C1837.47 1906.44 1861.35 1912.91 1885.26 1919.38L1885.27 1919.39C1894.64 1921.92 1904.01 1924.46 1913.35 1927.08H2038.14C2038.54 1926.96 2039.02 1926.89 2039.5 1926.81L2039.5 1926.81L2039.5 1926.81C2040.43 1926.67 2041.39 1926.52 2041.91 1926.08C2063.77 1906.15 2073.65 1916.06 2090.18 1932.64C2109.71 1952.24 2138.53 1981.15 2207.36 1981.15C2262.09 1981.15 2324.01 2008.06 2398.49 2040.42C2496.97 2083.22 2617.41 2135.56 2772.22 2147.85C2552.99 2099.04 2501.98 2038.91 2443.83 1927.07C2385.67 1815.23 2264.38 1745.72 2136.26 1676.21L2117.2 1665.88C2067.31 1638.68 2054.51 1626.7 2037.79 1611.04C2021.64 1595.92 2001.84 1577.38 1941.45 1538.41C1912.92 1520 1882.36 1504.95 1850.84 1491.4C1870.95 1502.4 1891.06 1513.43 1911.17 1524.47L1926.66 1532.98L1911.57 1524.73C1891.2 1513.59 1870.84 1502.43 1850.47 1491.25C1824.14 1479.95 1797.13 1469.7 1770.08 1459.43C1709.02 1436.26 1647.7 1412.98 1593.19 1377.3C1552.76 1350.83 1527.64 1313.65 1502.39 1276.26C1482.31 1246.54 1462.15 1216.69 1434.14 1192C1415.58 1175.64 1370.7 1152.83 1332.94 1133.63L1332.94 1133.63C1312.43 1123.21 1294.02 1113.85 1283.08 1107.18C1286.21 1110.76 1288.97 1114.62 1291.74 1118.5L1291.74 1118.5L1291.74 1118.5L1291.74 1118.5L1291.74 1118.5C1293.59 1121.09 1295.43 1123.67 1297.4 1126.18C1293.63 1125.54 1289.67 1125.18 1285.69 1124.81H1285.69L1285.69 1124.81C1277.28 1124.03 1268.84 1123.26 1262.23 1119.87C1183.14 1079.54 1141.22 1014.97 1108.23 946.418L1106.38 942.562C1076.09 879.543 1048.56 814.87 1084.19 745.736C1084.44 745.425 1084.14 744.852 1083.84 744.263ZM1018.23 995.506C1004.47 928.439 990.706 861.385 1005.71 792.878C1009.25 776.672 1015.32 760.527 1023.6 744.659C1003.8 754.122 984.438 764.243 965.269 774.546C956.827 779.083 947.806 784.058 942.867 791.361C914.8 832.868 913.317 880.077 924.787 926.094C925.152 924.866 925.5 923.616 925.829 922.347C931.365 901.053 936.433 879.703 941.499 858.361C945.16 842.939 948.82 827.522 952.654 812.133C953.2 810.07 955.074 808.324 956.902 806.622L956.902 806.622C957.722 805.858 958.533 805.102 959.21 804.331C959.673 805.273 960.248 806.195 960.822 807.118L960.822 807.118C961.97 808.962 963.117 810.805 963.38 812.798C964.552 821.947 965.7 831.117 966.848 840.292L966.849 840.295L966.849 840.296C969.013 857.586 971.18 874.897 973.515 892.139C973.651 893.828 974.882 895.44 976.095 897.029C976.67 897.782 977.241 898.529 977.69 899.277C977.901 898.617 978.139 897.945 978.38 897.268C979.046 895.391 979.728 893.471 979.875 891.642C980.136 885.336 980.316 879.02 980.497 872.702C981.551 835.778 982.607 798.79 999.745 763.497C978.218 837.915 991.976 910.777 1005.75 983.724C1009.01 1000.98 1012.27 1018.24 1015.06 1035.53L1016.22 1042.91C1018.74 1059.86 1018.32 1076.62 1006.4 1087.66C1008.83 1091.36 1011.25 1095 1013.66 1098.6C1033.64 1088.17 1031.58 1066.12 1027.93 1044.98L1026.97 1039.54C1024.26 1024.85 1021.24 1010.18 1018.23 995.506ZM1026.36 817.205L1026.36 817.205C1026.04 818.602 1025.72 820.008 1025.38 821.427C1025.31 819.669 1025.14 817.874 1024.96 816.073C1024.61 812.433 1024.25 808.768 1024.78 805.325C1028.6 780.394 1039.07 755.065 1054.53 730.641L1054.84 730.505L1060.64 728.066C1062.4 727.334 1064.16 726.61 1065.92 725.894C1049.64 750.084 1037.29 777.045 1028.95 806.82C1027.96 810.261 1027.17 813.703 1026.36 817.205Z" fill="#EC4B43"/>
<path d="M3839.92 129.588C3838.13 172.247 3839.32 214.906 3839.32 257.565L3835.86 258.275C3782.84 269.332 3736.22 288.308 3718.71 335.746C3708.38 363.466 3701.23 392.015 3683.54 417.578C3680.36 422.059 3681.16 428.533 3680.17 434.011C3686.52 434.011 3693.08 435.173 3699.04 434.011C3745.34 425.047 3788.45 401.975 3839.12 412.1V1069.41C3775.74 1072.9 3730.24 1040.86 3726.66 988.743C3724.67 960.858 3729.05 932.475 3724.48 905.087C3716.13 853.13 3667.45 838.523 3570.88 856.121C3388.14 889.314 3358.07 985.466 3411.67 1100.93L3413.74 1105.31C3415.77 1109.44 3419.33 1115.4 3425.02 1108.76L3425.44 1108.25C3462.22 1062.61 3513.32 1068.5 3563.2 1076.9L3581.61 1080.04C3631.29 1088.34 3667.65 1112.57 3677.19 1157.89L3680.6 1174.25C3686.88 1204.23 3693.38 1234.18 3701.23 1263.84L3703.41 1271.92C3717.97 1324.67 3702.73 1345.04 3638.8 1353.5L3632.79 1354.29C3604.38 1358.17 3576.78 1364.94 3567.11 1390.77C3553.2 1428.28 3542.87 1466.95 3530.95 1504.97C3545.85 1498.16 3552.6 1469.44 3572.87 1483.55C3594.93 1498.99 3577.64 1522.07 3564.33 1538.16C3541.28 1565.55 3517.24 1592.94 3488.82 1616.35C3377.03 1708.32 3240.07 1743.17 3093.34 1753.44C3091.48 1752.62 3091.03 1751.6 3092.98 1750.18C3176 1689.48 3353.75 1675.79 3427.45 1577.43C3497.31 1484.21 3430.53 1382.31 3402.94 1290.95C3395.45 1266.15 3395.71 1239.83 3386.43 1215.45C3378 1193.29 3359.72 1174.44 3350.26 1152.57L3341.33 1131.83C3326.05 1096.13 3316.64 1072.97 3311.33 1058.76L3310.11 1055.47L3303.31 1043.64C3297.09 1032.73 3289.62 1019.45 3280.73 1003.42L3276.59 995.95C3226.6 905.616 3292.44 813.265 3274.5 725.029C3253.07 619.646 3242.42 760.686 3256.74 593.422C3264.24 505.793 3316.59 408.403 3377.07 336.81C3385.47 326.856 3400.02 310.15 3413.74 284.212C3427.45 258.275 3444.22 167.029 3477.25 111.329C3510.28 55.6298 3574.41 25.6801 3632.79 8.06378C3691.17 -9.55259 3726.8 3.70611 3751.99 28.4261C3779.45 55.3771 3775.92 111.589 3817.27 111.329C3835.28 108.128 3840.35 113.261 3839.98 127.92L3839.92 129.588Z" fill="#F68C22"/>
<path d="M77.9907 111.329L80.3346 121.295C87.6377 151.672 97.651 180.402 148.528 177.559L154.761 177.233C180.349 175.923 205.669 175.209 229.41 184.099L231.385 184.862C328.746 223.371 435.448 210.756 537.578 222.043C599.174 228.849 638.714 187.518 661.564 111.329C661.564 111.329 1114.87 205.004 1259.22 229.365C1330.64 241.418 1403.56 230.671 1445.46 238.788C1538.29 256.769 1607.85 279.187 1666.43 294.946C1715.51 308.148 1746.7 320.119 1773.99 327.748C1797.05 334.199 1819.54 337.083 1824.93 339.729C1923.33 387.827 2028.73 422.933 2134.16 458.009L2133.1 462.806C2132.36 466.181 1996.44 432.859 1789.07 371.776C1581.7 310.692 1498.2 249.772 1245.79 266.152C1228.28 267.289 1212.6 276.111 1195.33 278.807C1107.71 292.493 1002.48 302.387 920.565 335.772C770.139 397.082 629.183 478.819 472.837 530.432C348.419 571.504 216.449 574.874 95.8145 623.268C43.1352 644.402 15.1554 665.789 -23.3178 694.867L-23.3445 673.533C-23.3445 642.991 -24.338 612.613 -24.7354 582.071V419.072C0.671335 421.86 25.9049 425.806 51.2887 427.399L59.5556 427.859C105.881 430.663 160.864 445.56 181.114 393.343C196.812 352.676 182.505 310.681 148.528 278.812C101.04 234.327 37.6554 240.634 -24.7354 249.266L-24.7326 189.803C-24.6429 111.329 -21.6536 111.329 77.9907 111.329Z" fill="#FEF151"/>
<path d="M-24.7336 45.0913C74.9107 45.0913 80.3336 121.295 80.3336 121.295C87.6367 151.672 97.65 180.402 148.527 177.558L154.76 177.233C180.348 175.923 205.668 175.209 229.409 184.099L231.384 184.862C328.745 223.371 435.446 210.756 537.577 222.043C599.173 228.849 638.713 187.518 661.563 111.329C684.413 35.1403 722.083 8.06366 790.455 8.06366C880.518 8.06366 878.295 126.59 1024.51 143.033C1071.25 148.288 1154.25 190.487 1254.24 209.948C1315.68 221.907 1382.18 208.781 1454.63 222.043C1486.74 227.921 1520.68 250.122 1568.79 264.375C1603.9 274.775 1644.86 280.198 1680.95 289.993C1711.76 298.358 1744.28 314.638 1768.41 323.043C1795.45 332.463 1812.93 333.84 1824.93 339.729C1828.64 341.542 1832.36 343.336 1836.09 345.113C1812.86 341.314 1789.91 336.824 1768.41 332.596C1734.16 325.861 1702.23 312.525 1668.48 304.211C1626.72 293.922 1583.55 287.792 1542.04 276.823C1483.73 261.416 1492.21 246.679 1426.38 245.114L1424.08 245.066C1283.75 242.449 1085.35 249.262 940.714 280.4C908.966 287.235 879.693 300.74 848.118 308.116C805.132 318.157 758.969 318.865 717.448 332.555C679.285 345.138 651.638 376.424 612.21 385.898C567.14 396.727 518 385.428 471.691 391.605C406.709 400.271 366.181 422.773 314.92 453.876C287.711 470.385 263.739 490.556 235.685 506.045C169.223 542.738 94.7165 569.375 31.7905 610.191L27.0414 613.291C-19.9417 644.183 -19.481 650.927 -17.1996 677.62L-16.8188 682.156L-23.3324 682.158L-23.3455 673.533C-23.3455 642.991 -24.339 612.613 -24.7364 582.071V419.072C0.670329 421.86 25.9039 425.805 51.2877 427.399L59.5546 427.859C105.88 430.663 160.863 445.56 181.113 393.343C196.811 352.676 182.504 310.681 148.527 278.811C101.039 234.326 37.6544 240.634 -24.7364 249.265L-24.7336 189.803C-24.6439 111.329 -124.378 45.0913 -24.7336 45.0913Z" fill="#EC4B43"/>
<path fill-rule="evenodd" clip-rule="evenodd" d="M716.004 1055.14C712.824 1052.32 709.449 1049.33 705.674 1047.17C703.401 1045.9 701.08 1044.38 698.717 1042.84C689.307 1036.68 679.237 1030.08 668.914 1037.38C657.495 1045.45 666.425 1056.12 673.589 1064.68C674.528 1065.8 675.436 1066.88 676.264 1067.92L679.311 1071.74C778.223 1194.81 916.065 1282.12 1061.29 1363.03L1070.28 1368.03C1084.05 1375.66 1097.99 1383.15 1111.93 1390.66C1192.96 1434.25 1274.39 1478.05 1326.6 1549.29C1350.28 1581.54 1344.7 1617.77 1339.26 1653.11C1338.03 1661.06 1336.81 1668.96 1335.94 1676.77C1335.57 1679.78 1320.27 1681.37 1303.82 1683.07C1294.03 1684.08 1283.84 1685.13 1276.13 1686.56L1272 1687.33C1256.81 1690.24 1241.69 1694.5 1236.59 1708.8C1232.13 1721.36 1241.96 1728.99 1251.45 1736.35C1253.37 1737.84 1255.28 1739.33 1257.06 1740.84L1258.32 1741.91C1299.48 1777.28 1294.23 1806.39 1237.19 1855.04L1232.8 1858.77C1225.27 1865.2 1210.33 1868.97 1195.24 1872.77C1162.08 1881.12 1128.23 1889.65 1170.82 1927.08C1232.8 1981.53 1568.08 1919 1568.08 1919C1576.42 1905.75 1662.7 1931.74 1737.25 1954.2C1779.29 1966.87 1817.6 1978.41 1836.09 1981.15C1839.32 1981.63 1842.57 1982.13 1845.8 1982.63C1893.88 1990.06 1938.75 1997 1872.55 1919C1839.78 1880.38 1822.26 1869.74 1809.88 1862.23C1795.58 1853.54 1788.14 1849.03 1771.95 1810.32C1751.55 1811.3 1731.9 1805.21 1718.03 1785.65C1687.83 1742.99 1668.76 1699.17 1671.34 1646.39C1673.87 1591.81 1622.84 1561.75 1575.74 1534C1573.17 1532.48 1570.61 1530.98 1568.08 1529.47L1554.13 1521.16C1480.84 1477.83 1402.48 1441.48 1324.11 1405.13C1255.18 1373.16 1186.25 1341.19 1120.75 1304.45L1113.04 1300.17C1100.14 1293.07 1087.04 1286.19 1073.89 1279.37L1050.21 1267.1C1048.23 1266.11 1042.47 1266.61 1042.47 1266.77C1039.75 1283.75 1031.8 1276.91 1026.03 1271.95C1024.18 1270.36 1022.56 1268.96 1021.4 1268.6C905.893 1234.18 828.678 1161.27 751.468 1088.36C745.814 1083.02 740.16 1077.68 734.492 1072.36L724.086 1062.63L716.004 1055.14ZM1349.49 1707.48L1346.47 1698.18C1347.33 1697.5 1348.28 1696.6 1349.27 1695.67C1351.66 1693.41 1354.23 1690.97 1356.21 1691.21C1379.25 1694.53 1403.3 1698.35 1407.27 1722.41C1409.06 1733.7 1399.52 1740.84 1386.21 1740.01C1362.95 1738.54 1355.78 1725.67 1350.38 1710.1L1349.49 1707.48Z" fill="#64DAFB"/>
<path fill-rule="evenodd" clip-rule="evenodd" d="M-23.9232 1442.97C11.0309 1434.17 35.6576 1416.06 49.3612 1387.65C66.4412 1352.1 98.2175 1334.99 144.095 1338.65C228.7 1345.46 271.002 1337.98 288.876 1257.57C297.218 1220.03 331.179 1202.42 376.857 1197.44C439.021 1190.62 458.287 1159.89 445.178 1095.27C442.968 1084.45 440.334 1073.66 437.7 1062.87C429.207 1028.07 420.701 993.223 426.311 957.212C432.069 920.165 449.151 888.765 493.041 872.486C494.672 871.865 496.748 871.801 498.771 871.739L498.771 871.739C499.455 871.718 500.134 871.697 500.787 871.654C500.787 871.934 500.81 872.253 500.834 872.583C500.908 873.621 500.991 874.767 500.388 875.145C429.885 933.789 461.065 994.26 498.798 1052.24C500.553 1054.93 502.308 1057.62 504.063 1060.31L504.11 1060.38C541.683 1117.93 579.069 1175.19 600.881 1238.97C608.827 1262.23 634.645 1272.69 662.052 1265.88C690.649 1258.74 713.888 1243.62 708.92 1213.39C708.756 1212.41 708.571 1211.42 708.385 1210.42C706.765 1201.74 705.049 1192.55 716.272 1187.63C726.755 1182.94 734.611 1190.1 740.879 1195.81C741.496 1196.37 742.097 1196.92 742.684 1197.44C762.741 1215.08 783.453 1232.24 804.16 1249.41C871.011 1304.82 937.819 1360.19 982.398 1431.34C1008.42 1472.88 984.981 1525.38 934.136 1544.81C895.276 1559.78 885.978 1591.38 877.191 1621.24C870.664 1643.43 864.419 1664.65 846.552 1677.38C706.85 1776.96 774.038 1792.44 852.847 1810.6C899.219 1821.29 949.615 1832.9 964.255 1863.12C1003.78 1944.69 634.339 1946.02 512.702 1946.18C427.547 1946.3 411.103 1894.06 394.795 1842.25C387.808 1820.06 380.846 1797.94 368.516 1780.05C365.649 1775.94 360.906 1772.85 356.156 1769.75C353.995 1768.35 351.834 1766.94 349.847 1765.43C348.049 1767.35 345.942 1769.21 343.838 1771.06L343.838 1771.06C339.204 1775.13 334.593 1779.19 333.364 1783.87C321.447 1829.89 285.699 1853.48 232.672 1863.12C208.027 1867.61 203.434 1877.2 197.928 1888.7C191.631 1901.84 184.139 1917.48 144.095 1930.86C86.6738 1950.03 55.7384 1948.74 19.3843 1947.22H19.3833C8.21672 1946.76 -3.46115 1946.27 -16.5749 1946.35C-23.526 1946.35 -24.9162 1945.18 -24.7176 1939.37C-23.9232 1773.9 -23.9232 1608.44 -23.9232 1442.97ZM566.326 1586.34C564.511 1586.73 562.076 1587.02 559.307 1587.34C546.624 1588.83 526.911 1591.14 527.4 1607.77C528.194 1634.52 555.997 1649.64 586.382 1652.13C610.611 1654.12 619.352 1635.52 619.947 1618.91C620.941 1595.48 604.259 1583.69 566.326 1586.34ZM417.571 1629.2C407.841 1630.53 407.441 1621.4 410.025 1605.45C411.414 1599.63 415.982 1584.85 437.827 1584.02C447.758 1583.52 459.082 1590 456.698 1599.8C452.725 1616.75 436.837 1626.38 417.571 1629.2Z" fill="#F5BBBA"/>
<path d="M2876.67 134.636C2959.76 149.521 2872.6 233.474 2889.32 291.752C2897.79 321.209 2996.1 432.308 2962.43 449.323C2918.55 471.715 2903.72 370.513 2773.06 321.515C2716.23 300.203 2666 261.313 2620.15 216.555C2574.3 171.798 2640.51 152.6 2710.02 161.319C2779.54 170.037 2793.58 119.75 2876.67 134.636Z" fill="#EC4B43"/>
<path d="M3663.98 1946.18C3676.75 1895.99 3676.15 1839.23 3706.29 1797.76C3733.03 1760.74 3794.1 1740.5 3839.8 1712.86C3839.8 1788.71 3839.8 1864.57 3840 1940.42C3840 1945.36 3838.8 1946.35 3832.81 1946.35C3776.54 1946.18 3720.26 1946.18 3663.98 1946.18Z" fill="#F68C22"/>
<path d="M3840 1597.71C3806.08 1582.44 3771.36 1566.17 3767.57 1530.48C3764.38 1500.27 3789.52 1481.84 3818.65 1467.4C3833.42 1460.1 3839.6 1462.25 3838.8 1477.86C3837.8 1495.45 3839.4 1513.05 3840 1530.64C3840 1531.14 3840 1531.81 3840 1532.3C3840 1532.8 3840 1533.47 3840 1533.97C3840 1555.05 3840 1576.29 3840 1597.71Z" fill="#7DFA8C"/>
<path d="M2150.45 1137.13C2198.6 1143.29 2244.75 1134.49 2288.08 1150.16C2290.29 1151.04 2292.1 1152.62 2294.1 1153.85C2292.1 1154.73 2290.09 1156.32 2288.08 1156.32C2222.68 1155.97 2157.07 1155.62 2091.67 1154.73C2088.86 1154.73 2086.26 1151.21 2083.65 1149.28C2086.26 1147.34 2088.66 1143.82 2091.67 1143.47C2112.14 1141 2133 1139.06 2150.45 1137.13Z" fill="#F68C22"/>
<path d="M3178.02 996.395C3128.82 938.71 3079.43 881.189 3030.83 823.169C2954.07 731.737 2852.31 660.418 2752.73 588.598C2699.96 550.529 2621.81 548.701 2556.55 527.089C2548.42 524.428 2539.69 523.098 2531.76 520.274C2517.47 515.12 2500.02 514.953 2490.5 502.319C2504.58 500.654 2518.66 499.161 2532.75 497.165C2537.51 496.5 2542.07 494.007 2546.83 492.342C2542.27 489.02 2538.3 484.03 2532.95 482.536C2469.47 463.084 2406.39 442.47 2342.12 425.181C2274.28 406.894 2309.99 370.486 2321.1 341.56C2332.8 310.804 2362.75 321.777 2384.77 332.915C2459.35 370.486 2556.55 366.496 2621.42 416.536C2683.9 464.58 2779.11 496.166 2804.1 562.334C2843.18 666.07 2964.78 699.981 3026.07 781.942C3079.04 852.428 3137.35 919.923 3178.02 996.395Z" fill="#FEF151"/>
<path d="M3258.19 1479.31C3228.76 1480.47 3221.4 1463.21 3222.19 1444.62C3224.38 1394.67 3244.87 1346.37 3242.28 1295.59C3235.12 1152.53 3158.34 1033.53 3061.66 920.181C2992.44 839.023 2908.69 768.656 2831.71 693.307C2827.13 688.826 2825.34 682.189 2822.16 676.547C2829.12 678.372 2837.68 678.539 2842.85 682.189C3071.21 848.649 3238.3 1044.65 3264.96 1305.38C3269.93 1353.18 3256.21 1402.14 3252.43 1450.6C3251.63 1459.89 3256.41 1469.52 3258.79 1478.98L3258.19 1479.31Z" fill="#38EA4E"/>
<path d="M2923.01 1204.04C2917.63 1198.36 2912.44 1192.52 2906.86 1186.84C2901.88 1181.83 2896.7 1177.15 2891.51 1172.31C2898.49 1176.15 2906.26 1179.16 2912.04 1184C2933.18 1202.37 2955.5 1220.24 2974.04 1240.45C3061.76 1335.8 3040.83 1408.94 2913.24 1465.72C2816.95 1508.47 2711.09 1518.32 2606.84 1534.52C2593.48 1536.52 2572.94 1535.52 2570.95 1547.88C2568.96 1559.57 2588.7 1563.57 2600.65 1568.42C2710.7 1613 2829.31 1623.02 2948.92 1628.03C2975.84 1629.2 3002.55 1630.37 3029.46 1631.71C3031.86 1631.87 3034.05 1633.38 3036.44 1634.38C3034.24 1635.38 3032.05 1636.88 3029.66 1637.22C2839.68 1665.1 2666.24 1621.02 2499.19 1550.55C2493.21 1548.04 2490.01 1541.2 2485.43 1536.19C2495.4 1533.01 2505.16 1527.84 2515.33 1527C2624.18 1518.65 2733.42 1512.31 2837.88 1482.25C2868.78 1473.4 2899.28 1461.37 2927.2 1447.18C3035.84 1392.24 3041.82 1331.62 2949.52 1237.44C2939.95 1227.59 2929.39 1218.57 2919.42 1208.88C2916.63 1206.21 2914.64 1203.21 2912.24 1200.37C2915.83 1201.53 2919.42 1202.71 2923.01 1204.04Z" fill="#EC4B43"/>
<path d="M2834.62 1159.52C2835.42 1159.68 2839.02 1160.18 2842.62 1160.84C2840.02 1162.33 2837.02 1163.82 2834.62 1165.64C2833.02 1166.8 2831.82 1168.46 2830.62 1169.95C2833.82 1171.11 2836.82 1172.43 2840.02 1173.42C2846.82 1175.41 2853.62 1177.4 2860.42 1179.22C2855.02 1182.03 2848.42 1184.02 2844.42 1187.82C2830.62 1201.56 2816.22 1215.3 2804.62 1230.53C2789.42 1250.39 2767.82 1262.97 2743.42 1272.74C2733.02 1276.87 2724.62 1274.56 2723.02 1263.8C2717.02 1228.87 2789.62 1159.52 2834.62 1159.52Z" fill="#EC4B43"/>
<path d="M3227.76 988.182C3227.57 988.681 3227.16 989.338 3226.96 989.999C3225.75 989.175 3224.14 988.349 3223.33 987.359C3174.19 929.226 3125.05 871.263 3076.11 812.967C3074.9 811.646 3075.11 809.501 3074.71 807.685C3076.51 808.18 3078.73 808.342 3079.94 809.335C3138.75 862.839 3185.07 923.283 3226.96 986.2C3227.16 986.698 3227.36 987.359 3227.76 988.182Z" fill="#7767F6"/>
<path fill-rule="evenodd" clip-rule="evenodd" d="M1198.27 939.777V894.951L1201.38 900.454C1226.82 944.947 1268.39 1000.99 1443.11 1097.09C1486.22 1120.81 1605.42 1162.83 1639.63 1178.91L1640.68 1179.41C1699.69 1207.69 1767.31 1222.28 1825.51 1251.71C2007.17 1343.56 1930.75 1370.14 2075.38 1430.51L2089.06 1436.18C2127.17 1451.89 2155.93 1462.8 2178.15 1470.29L2175.49 1470.33C2147.27 1470.95 2140.04 1476.82 2150.12 1488.65L2152.17 1490.98L2155.35 1494.56C2166.59 1507.1 2178.93 1519.53 2193.71 1528.54C2316.18 1603.44 2456.66 1643.43 2600.39 1677.28L2614.61 1680.61L2628.86 1683.9C2629.45 1684.07 2630.1 1684.11 2630.75 1684.11L2631.39 1684.1L2632.63 1684.07C2630.25 1683.24 2628.06 1682.08 2625.68 1681.41C2538.45 1660.2 2453.86 1633.46 2373.22 1598.56L2355.98 1591.04C2302.04 1567.7 2245.94 1545.27 2213.98 1499.32C2206.42 1488.3 2199.15 1479.99 2193.22 1475.15C2262.57 1496.46 2255.63 1477.42 2304.95 1482.04C2306.3 1484.16 2307.89 1486.01 2309.95 1487.37C2339.56 1507.12 2370.75 1525.05 2400.76 1544.31C2406.12 1547.79 2408.51 1554.27 2412.48 1559.24L2404.75 1562.44C2403.05 1563.16 2401.35 1563.9 2399.68 1564.68L2397.18 1565.89C2393.4 1567.71 2387.24 1570.2 2387.24 1572.52C2387.24 1575.84 2390.62 1580.49 2394.2 1582.65C2440.19 1610.38 2492.07 1628.28 2545.14 1643.1L2548.93 1644.15L2556.53 1646.23C2688.91 1682.12 2822.01 1704.95 2955.49 1701.71L2967.99 1703.62C2970.32 1703.98 2972.33 1704.3 2974 1704.57L2975.56 1704.84C3113.44 1728.38 3194.1 1696.06 3331.41 1645.52C3396.72 1621.49 3434.26 1573.04 3512.28 1595.29C3504.77 1602.58 3496.97 1609.63 3488.82 1616.35C3357.08 1724.74 3190.38 1753.78 3013.93 1756.77C2920.35 1758.26 2827.36 1749.14 2734.76 1736.52C2730.99 1736.02 2727.01 1736.36 2723.04 1736.36C2724.43 1737.02 2725.62 1737.85 2727.21 1738.18C2889.15 1771.88 3055.06 1789.47 3215.81 1828.15C3280.78 1843.75 3334.43 1802.59 3394.64 1791.63C3467.16 1778.52 3591.77 1787.54 3583.43 1845.47C3581.24 1863.58 3572.34 1891.48 3572.34 1891.48C3547.5 1911.01 3455.35 1916.13 3394.64 1916.13C3333.92 1916.13 3266.03 1911.01 3211.44 1900.35C3156.85 1889.69 2834.91 1799.76 2644.16 1755.77C2627.87 1751.96 2611.37 1748.97 2595.08 1745.65L2609.77 1752.09C2619.54 1756.38 2629.26 1760.7 2638.79 1765.24C2646.34 1768.72 2653.3 1773.2 2660.45 1777.35C2651.71 1776.02 2642.37 1775.86 2634.22 1773.37C2471.29 1726.4 2317.7 1663.15 2168.08 1592.11C1988.86 1506.96 1832.88 1392.43 1653.65 1307.27C1636.04 1298.91 1616.86 1293 1598.23 1286.18L1594.24 1284.7C1523.85 1251.71 1458.39 1167.58 1329.21 1108.03C1261.17 1076.67 1198.27 966.875 1198.27 939.777Z" fill="#FEF151"/>
<path fill-rule="evenodd" clip-rule="evenodd" d="M1926.66 1308.1C1966.42 1337.11 2015.99 1359.4 2075.38 1374.97C2133.38 1380.8 2269.17 1421.91 2347.17 1462.18C2339.2 1461.55 2331.23 1460.98 2323.26 1460.48C2314.92 1459.98 2306.17 1464.47 2297.63 1466.79C2301.6 1473.76 2303.39 1483.06 2309.95 1487.37C2339.55 1507.12 2370.75 1525.05 2400.75 1544.31C2406.12 1547.79 2408.5 1554.27 2412.47 1559.24L2404.75 1562.44C2403.05 1563.16 2401.35 1563.9 2399.68 1564.68L2397.18 1565.89C2393.4 1567.71 2387.24 1570.2 2387.24 1572.52C2387.24 1575.84 2390.62 1580.49 2394.19 1582.65C2440.19 1610.38 2492.06 1628.28 2545.14 1643.1L2548.93 1644.15L2556.53 1646.23C2776.29 1705.81 2998.03 1729.38 3220.18 1657.51C3229.05 1654.64 3237.65 1651.61 3245.96 1648.45L3256.18 1646.89C3364.54 1630.16 3451.95 1611.06 3528.84 1510.2L3531.24 1507.02C3532.06 1505.93 3532.88 1504.85 3533.71 1503.78L3534.33 1502.98C3546.99 1493.89 3554.2 1470.56 3572.87 1483.55C3593.43 1497.95 3579.8 1518.97 3567.07 1534.8L3566.51 1535.49L3564.32 1538.16C3541.27 1565.55 3517.23 1592.94 3488.82 1616.35C3387.72 1699.53 3266.02 1735.98 3135.13 1749.79L3118.21 1748.83C2985.46 1741.13 2848.29 1729.23 2723.33 1707.11L2715.37 1705.69C2696.85 1702.33 2664.39 1693.94 2625.76 1683.19L2628.86 1683.9C2629.45 1684.07 2630.1 1684.11 2630.74 1684.11L2631.39 1684.1L2632.63 1684.07C2630.25 1683.24 2628.06 1682.08 2625.68 1681.41C2538.45 1660.2 2453.86 1633.46 2373.21 1598.56L2355.98 1591.04C2302.04 1567.7 2245.93 1545.27 2213.98 1499.32L2212.38 1497.03C2200.47 1480.17 2189.48 1470.28 2183.58 1470.28L2180.64 1470.26C2157.62 1470.28 2146.54 1473.22 2145.84 1479.39L2143.04 1477.67C2095.95 1449.2 1957.43 1383.35 1926.66 1308.1Z" fill="#38EA4E"/>
<path fill-rule="evenodd" clip-rule="evenodd" d="M1390.66 481.48L1398.79 485.285C1399.89 487.648 1398.7 491.859 1395.75 492.451L1387.48 496.036C1343.28 500.88 1298.67 507.455 1253.68 515.678C1095.33 544.599 940.092 593.695 832.317 707.734L828.248 712.079C810.923 730.294 783.904 745.633 755.15 739.099C665.503 718.658 575.472 732.851 485.818 733.119L479.181 733.118L474.093 733.09C431.043 732.715 393.003 728.824 352.211 710.169L347.83 708.146C327.332 698.924 307.047 695.547 287.042 696.134C445.476 660.964 601.853 622.772 752.075 567.354C815.687 543.887 889.837 500.341 960.885 483.465C967.684 481.85 974.769 487.112 981.79 486.433L1011.11 483.55C1114.88 473.216 1124.92 471.103 1234.8 477.447C1286.65 480.441 1371.89 440.964 1390.66 481.48Z" fill="#38EA4E"/>
<path fill-rule="evenodd" clip-rule="evenodd" d="M1147.39 427.112C1183.51 451.174 1142.19 457.065 1196 460.221C1225.85 461.971 1255.95 456.966 1285.76 459.073C1288.87 459.292 1290.36 465.267 1287.77 466.704L1281.88 473.497C1239.49 496.948 1176.68 475.867 1135.02 478.73C1044.65 484.94 978.943 521.789 904.871 566.134C861.797 591.921 816.231 656.317 785.56 685.82C765.386 705.227 742.455 720.343 717.688 732.449C640.718 722.376 563.546 732.813 486.649 733.117L479.179 733.119L474.091 733.09C431.041 732.715 393.001 728.824 352.209 710.169L347.828 708.146C342.482 705.741 337.151 703.733 331.835 702.09C368.692 698.715 410.988 686.962 437.845 678.727L447.35 675.826C535.079 649.159 638.999 620.275 721.346 576.329C757.31 557.137 790.582 534.532 826.814 515.695C847.208 505.093 871.294 499.769 890.905 488.18C962.513 445.866 908.241 454.189 981.009 433.295L985.118 432.131C1029.67 419.685 1110.63 402.625 1147.39 427.112Z" fill="#F5BBBA"/>
<path fill-rule="evenodd" clip-rule="evenodd" d="M2480.3 672.744C2495.69 678.104 2511.43 682.896 2527.62 686.947L2536.85 689.199C2615.07 708.429 2687.89 736.53 2753.25 777.109L2759.92 781.28C2868.52 849.695 2956.62 932.481 3010.56 1038.54C3011.02 1039.46 3011.3 1040.44 3011.44 1041.48C3011.49 1042.44 3011.52 1043.36 3011.54 1044.24C3011.35 1048.4 3009.83 1053.07 3009.56 1057.3C3002.01 1056.13 2992.87 1056.8 2987.31 1053.31C2936.64 1023.44 2887.76 991.567 2836.1 962.85C2824.81 956.562 2814.32 951.535 2804.51 947.79L2808.67 945.978C2820.04 940.952 2836.24 933.183 2855.37 921.046L2857.18 919.875C2875.33 907.872 2876.99 898.636 2858.2 888.578C2826.46 871.583 2791.89 858.496 2760.03 841.661C2745.69 834.085 2734.95 822.04 2719.89 815.504C2647.14 783.921 2551.54 729.509 2481.95 674.067L2480.3 672.744Z" fill="#EC4B43"/>
<path fill-rule="evenodd" clip-rule="evenodd" d="M1621.54 753.32L1628.19 751.807L1628.05 751.866C1580.97 771.575 1545.63 810.804 1618.69 849.363C1663.51 873.021 1717.61 881.498 1765.39 900.681C1779.54 906.359 1774.86 922.267 1761.22 926.09C1744.8 930.691 1728.89 933.333 1713.41 934.22L1713.34 934.086C1711.92 931.572 1710.85 928.696 1709.63 925.989C1709.04 924.69 1708.42 923.427 1707.71 922.263C1707.41 921.778 1707.1 921.308 1706.77 920.86C1705.95 919.761 1705.03 918.803 1703.93 918.032L1691.49 909.644C1666.9 893.071 1642.27 876.59 1616.59 861.386L1609.73 857.371V857.371L1604.26 854.182L1600.22 851.797C1596.27 849.453 1592.62 847.233 1589.26 845.113C1588.19 844.438 1587.15 843.772 1586.14 843.116L1583.37 841.295V841.295L1581.46 840.006L1579.13 838.387L1577 836.85V836.85C1575.88 836.027 1574.82 835.216 1573.8 834.415C1572.87 833.675 1571.97 832.943 1571.13 832.219L1570.13 831.351V831.351C1569.67 830.941 1569.22 830.533 1568.79 830.126C1568.07 829.453 1567.39 828.785 1566.75 828.12L1565.83 827.125L1565.3 826.531V826.531L1564.39 825.45V825.45L1563.8 824.698L1563.32 824.062L1562.75 823.251V823.251L1562.17 822.354L1561.71 821.594V821.594L1561.11 820.489L1560.74 819.746V819.746L1560.42 819.028V819.028L1560.27 818.662C1559.84 817.592 1559.51 816.513 1559.28 815.421L1559.14 814.691V814.691L1559.03 813.911V813.911L1558.95 813.145L1558.9 812.449V812.449L1558.88 811.475V811.475L1558.92 810.257L1559.03 809.055L1559.15 808.193V808.193L1559.29 807.446L1559.44 806.713L1559.75 805.472L1560.04 804.491V804.491L1560.15 804.143L1560.45 803.256V803.256L1560.79 802.357L1561.06 801.667L1561.47 800.702V800.702L1561.92 799.722C1562.26 798.999 1562.63 798.263 1563.03 797.515C1564 795.682 1565.14 793.772 1566.45 791.772L1567.24 790.592V790.592L1568.45 788.828V788.828L1569.76 787.01V787.01L1570.43 786.091V786.091L1572.24 783.695V783.695L1574.69 780.566L1576.26 778.62V778.62L1578.12 776.369V776.369L1580.53 773.494V773.494L1583.58 769.931L1586.65 766.395L1589.67 762.972C1598.98 758.685 1608.6 756.278 1621.54 753.32Z" fill="#EC4B43"/>
<path fill-rule="evenodd" clip-rule="evenodd" d="M2059.74 995.24L2067.79 991.836C2096.22 1027.58 2038.52 1017.72 1998.86 1019.33C1970.89 1020.46 1941.85 1025.08 1913.11 1028.55L1917.82 1027.72L1927.06 1026.09C1930.84 1025.43 1934.41 1023.1 1937.99 1021.61C1933.82 1020.12 1929.65 1017.13 1925.47 1017.29C1857.43 1017.64 1792.61 1006.98 1729.97 988.885L1719.4 983.324C1755.63 987.296 1791.59 993.962 1828.1 995.24C1905.25 997.941 2016.99 941.495 2059.74 995.24Z" fill="#F5BBBA"/>
<path fill-rule="evenodd" clip-rule="evenodd" d="M2495.17 684.637C2534.48 710.906 2580.35 730.172 2604.31 744.393L2605.62 745.178C2629.47 759.643 2658.48 776.247 2681.67 791.444C2697.54 801.845 2714.68 810.925 2732.28 819.137L2739.41 822.447C2773.14 838.051 2796.9 848.249 2830.75 866.525C2845.66 874.573 2873.67 895.695 2884.53 907.428L2885.26 908.242C2893.69 917.833 2913.23 947.722 2898.22 959.53C2889.5 966.387 2850.34 954.945 2809.09 949.61C2776.24 936.044 2750.95 936.216 2729.21 950.822C2752 922.618 2778.7 911.074 2809.32 916.188C2822.05 918.314 2833.64 930.565 2845.98 927.191C2853.44 925.151 2845.85 913.721 2841.65 907.829L2841.36 907.428C2834.32 897.614 2824.87 888.647 2813.65 882.101L2802.27 875.481C2702.95 817.776 2585.03 751.604 2495.17 684.637Z" fill="#F5BBBA"/>
<path fill-rule="evenodd" clip-rule="evenodd" d="M2553.78 725.534L2560.69 732.252C2587.43 758.084 2620.83 788.647 2653.45 808.95C2683.56 827.686 2773.46 835.906 2809.41 872.039C2816.86 879.522 2821.48 897.156 2810.9 901.209C2797.01 906.526 2782.76 884.876 2767.93 887.925C2753.86 890.818 2752.61 909.779 2740.03 915.782C2731.19 920 2711.89 924.076 2709.49 915.807C2706.07 904.047 2726.05 895.612 2730.85 884.195C2733.08 878.885 2735.06 870.926 2729.88 867.328C2713.65 856.049 2674.4 847.6 2640.7 823.148C2607.01 798.695 2582.26 768.711 2553.78 725.534Z" fill="#FEF151"/>
<path fill-rule="evenodd" clip-rule="evenodd" d="M1773.09 478.185L1823.5 487.961C1965.86 515.661 1867.67 498.382 2020.09 553.136L2025.27 554.988C2196.56 616.078 2217.36 608.369 2345.43 726.394L2355.89 736.089C2387.27 765.38 2448.2 824.854 2447.49 863.326C2447.27 874.182 2429.88 880.79 2427.98 891.531C2425.24 907.071 2441.75 923.979 2434.21 938.369C2430.37 945.698 2416.86 930.742 2410.63 924.672C2391.37 905.92 2377.12 883.829 2358.44 864.695L2356.25 861.43L2356.45 861.263L2358.4 861.027C2419.46 853.314 2393.74 824.151 2377.49 801.912L2376.5 800.56L2373.74 796.679C2354.72 769.936 2333.34 742.944 2305.98 722.663C1999.78 496.088 1640.54 444.966 1253.68 515.678C1163.07 532.227 1073.48 555.38 993.224 593.527C1137.49 505.913 1301.03 488.111 1500.76 474.036L1513.04 473.179C1579.59 468.565 1694.42 462.939 1773.09 478.185Z" fill="#F68C22"/>
</g>
<defs>
<clipPath id="clip0">
<rect width="3840" height="2160" fill="white"/>
</clipPath>
</defs>
</svg>
