<svg width="3840" height="2612" viewBox="0 0 3840 2612" fill="none" xmlns="http://www.w3.org/2000/svg">
<g clip-path="url(#clip0)">
<path fill-rule="evenodd" clip-rule="evenodd" d="M3404.32 60.55C3420.43 64.579 3434.81 72.3847 3448.87 80.0205C3480.8 97.3599 3511.12 113.824 3556.52 83.2001C3595.32 57.0285 3661.3 84.163 3725.18 110.435C3768.97 128.442 3811.77 146.044 3844.16 145.8C3862.25 141.953 3867.35 148.122 3866.98 165.74L3866.92 167.744C3865.63 204.352 3865.88 240.96 3866.12 277.567V277.585C3866.22 292.241 3866.32 306.897 3866.32 321.553L3862.84 322.407C3809.57 335.695 3762.74 358.502 3745.15 415.515C3742.76 423.192 3740.54 430.922 3738.32 438.649L3738.32 438.653C3730.9 464.456 3723.49 490.223 3709.82 513.864C3707.62 517.576 3707.31 522.425 3707.01 527.236C3706.87 529.406 3706.74 531.568 3706.43 533.614C3708.56 533.614 3710.72 533.77 3712.87 533.926C3717.15 534.236 3721.41 534.544 3725.39 533.614C3739.26 530.403 3752.84 525.684 3766.42 520.965C3798.4 509.854 3830.39 498.74 3866.12 507.281V1297.27C3802.44 1301.46 3756.73 1262.96 3753.14 1200.32C3752.31 1186.38 3752.58 1172.34 3752.86 1158.32C3753.24 1138.64 3753.62 1119 3750.94 1099.78C3742.56 1037.33 3693.65 1019.78 3596.64 1040.93C3413.06 1080.82 3382.85 1196.38 3436.69 1335.15L3438.77 1340.41C3440.81 1345.37 3444.39 1352.54 3450.1 1344.56L3450.52 1343.95C3487.48 1289.09 3538.82 1296.17 3588.93 1306.27L3607.42 1310.04C3657.32 1320.02 3693.85 1349.14 3703.44 1403.6L3706.86 1423.26C3713.17 1459.31 3719.7 1495.29 3727.59 1530.94L3729.78 1540.65C3744.41 1604.05 3729.1 1628.54 3664.88 1638.7L3658.83 1639.65C3630.29 1644.31 3602.57 1652.45 3592.85 1683.49C3583.24 1714.47 3575.34 1746.12 3567.45 1777.71L3567.45 1777.71L3567.44 1777.72L3567.44 1777.73L3567.44 1777.74L3567.44 1777.75L3567.43 1777.75L3567.43 1777.76L3567.43 1777.77L3567.43 1777.78L3567.43 1777.79L3567.42 1777.79C3563.84 1792.14 3560.26 1806.48 3556.52 1820.74C3561.75 1817.89 3565.98 1811.82 3570.14 1805.85C3577.89 1794.73 3585.39 1783.97 3598.64 1795.01C3620.8 1813.56 3603.43 1841.29 3590.05 1860.64C3566.9 1893.55 3542.75 1926.47 3514.2 1954.6C3381.86 2084.87 3214.39 2119.78 3037.13 2123.37C2943.11 2125.17 2849.7 2114.2 2756.67 2099.03C2753.97 2098.61 2751.16 2098.69 2748.33 2098.77C2747.19 2098.8 2746.04 2098.83 2744.9 2098.83C2745.29 2099.05 2745.66 2099.29 2746.02 2099.52C2746.99 2100.14 2747.93 2100.74 2749.09 2101.03C2819.52 2118.56 2890.7 2132.46 2961.88 2146.37L2961.89 2146.37L2961.9 2146.37L2961.9 2146.37L2961.91 2146.37L2961.92 2146.38L2961.92 2146.38L2961.93 2146.38L2961.94 2146.38L2961.94 2146.38L2961.95 2146.38L2961.96 2146.38C3055.17 2164.59 3148.39 2182.8 3239.94 2209.16C3282.45 2221.37 3320.13 2204.64 3357.96 2187.85C3378.21 2178.86 3398.5 2169.86 3419.59 2165.26C3492.44 2149.51 3607.02 2188.17 3598.64 2257.79C3597.69 2267.17 3606.37 2274.05 3614.11 2280.19C3627.61 2290.91 3638.27 2299.37 3590.05 2314.89C3539.49 2331.17 3465.38 2336.22 3367.73 2330.04C3301.07 2330.04 3266.77 2311.95 3247.13 2301.6C3242.54 2299.18 3238.76 2297.18 3235.54 2295.93C3074.23 2233.94 2907.95 2188.48 2741.54 2142.98C2716.24 2136.07 2690.94 2129.15 2665.65 2122.17C2654.2 2118.96 2642.65 2116.24 2631.14 2113.53C2626.2 2112.36 2621.26 2111.2 2616.35 2110L2631.1 2117.75C2640.92 2122.91 2650.68 2128.09 2660.26 2133.54C2665.94 2136.68 2671.28 2140.49 2676.63 2144.3C2678.42 2145.58 2680.21 2146.85 2682.02 2148.11C2679.09 2147.57 2676.09 2147.2 2673.1 2146.82C2667.11 2146.07 2661.13 2145.32 2655.67 2143.32C2491.99 2086.87 2337.69 2010.86 2187.38 1925.48C2097.36 1874.31 2013.18 1814.31 1929 1754.32C1844.81 1694.32 1760.62 1634.32 1670.59 1583.14C1657.65 1575.79 1643.88 1570.02 1630.09 1564.25C1623.67 1561.56 1617.25 1558.87 1610.9 1556.01C1616.14 1578.02 1633.12 1590.73 1649.31 1602.85C1651.03 1604.13 1652.74 1605.41 1654.42 1606.69C1861.02 1761.89 2075 1906.32 2295.97 2040.58C2424.72 2118.78 2490.37 2173.12 2652.28 2317.08C2736.13 2391.63 2907.95 2410.49 3059.06 2427.08C3199.72 2442.52 3322.44 2455.99 3339.52 2510.58C3374.96 2623.83 3038.72 2617.89 2788.24 2593.39C2724.12 2587.11 2550.8 2501.81 2513.85 2433.13C2369.52 2164.87 2263.46 2096.37 2171.62 2037.04C2167.48 2034.37 2163.36 2031.71 2159.27 2029.05L2136.27 2014.13L2130.52 2010.36C2085.13 1980.31 2072.62 1966.3 2056.49 1948.22C2040.27 1930.05 2020.37 1907.77 1959.71 1860.94C1931.05 1838.81 1900.35 1820.71 1868.68 1804.43L1850.12 1792.3L1868.28 1804.23C1841.83 1790.66 1814.72 1778.35 1787.54 1766.01C1726.21 1738.16 1664.6 1710.19 1609.84 1667.3C1569.22 1635.49 1543.99 1590.8 1518.62 1545.87C1498.45 1510.15 1478.2 1474.27 1450.06 1444.6C1431.42 1424.94 1386.33 1397.52 1348.4 1374.46C1327.79 1361.92 1309.29 1350.68 1298.3 1342.66C1296.75 1340.53 1295.1 1338.49 1293.32 1336.57L1285.67 1328.21L1274.14 1303.93C1250.1 1253.07 1226.93 1201.61 1210.54 1147.9C1205.7 1132.04 1208.59 1114.89 1211.4 1098.22L1211.4 1098.21C1211.67 1096.58 1211.95 1094.96 1212.21 1093.34L1212.52 1091.46L1213.11 1087.59C1214.54 1077.9 1215.72 1068.09 1216.9 1058.26C1220.81 1025.82 1224.75 993.154 1237.71 963.494C1249.98 935.418 1277.35 910.453 1310.44 891.149L1312.47 889.974L1324.95 885.03C1355.99 872.798 1387.16 861.271 1420.07 854.797C1422.36 854.326 1424.49 853.107 1426.56 851.56C1444.74 849.453 1461.68 849.699 1476.01 852.667C1496.32 856.876 1487.74 887.601 1480.35 897.577L1479.01 899.345C1475.82 903.495 1471.46 908.694 1466.44 914.681L1466.44 914.684L1466.42 914.705L1466.42 914.709L1466.42 914.715L1466.38 914.758L1466.31 914.84C1464.33 917.198 1462.26 919.678 1460.11 922.263L1455.16 928.257C1456.51 925.273 1457.92 922.266 1459.4 919.235C1464.59 908.662 1454.21 901.876 1445.63 901.479C1386.34 899.486 1336.44 922.824 1303.9 970.504C1273.64 1015.19 1283.87 1062.94 1310.86 1107.2L1312.69 1110.15C1317.08 1117.33 1324.86 1121.92 1330.05 1111.94C1349.42 1074.42 1368.39 1087.53 1387.36 1110.83L1387.94 1111.54C1391.48 1115.93 1395 1120.35 1398.52 1124.78L1398.54 1124.8L1398.55 1124.82L1398.57 1124.84C1423.86 1156.59 1449.33 1188.57 1482.95 1211.49C1545.45 1254.13 1609.66 1294.34 1673.79 1334.5L1673.79 1334.5L1673.79 1334.5L1673.8 1334.5L1673.8 1334.5L1673.8 1334.5L1673.8 1334.5L1673.8 1334.5L1673.8 1334.5L1673.8 1334.51L1673.81 1334.51L1673.81 1334.51C1731.57 1370.68 1789.27 1406.8 1845.56 1444.62L1861.02 1455.07C1975.59 1533.07 2095.96 1592.32 2221.32 1646.19L2229.94 1649.86C2370.89 1709.59 2514.51 1752.03 2669.25 1708.62C2711.68 1696.75 2753.38 1682.25 2795.07 1667.76C2818.49 1659.61 2841.91 1651.47 2865.46 1643.79C2870.04 1642.31 2875.34 1642.92 2880.69 1643.53C2883.28 1643.83 2885.88 1644.12 2888.42 1644.19C2886.29 1645.65 2884.23 1647.31 2882.17 1648.97L2882.17 1648.97C2878.04 1652.3 2873.92 1655.63 2869.26 1657.35C2825.13 1673.21 2780.88 1688.81 2736.65 1704.41L2736.59 1704.43L2736.57 1704.44L2736.55 1704.44L2736.54 1704.45L2736.52 1704.45L2736.5 1704.46L2736.48 1704.47L2736.47 1704.47L2736.45 1704.48L2736.43 1704.49L2736.41 1704.49L2736.4 1704.5C2701.67 1716.74 2666.96 1728.98 2632.32 1741.34C2628.68 1742.6 2625.44 1745.33 2622.24 1748.01C2620.88 1749.16 2619.52 1750.3 2618.14 1751.32C2619.76 1752.37 2621.33 1753.5 2622.9 1754.63L2622.9 1754.63C2625.77 1756.69 2628.62 1758.75 2631.72 1760.3C2635.8 1762.34 2640.1 1764.06 2644.38 1765.77L2644.38 1765.77L2644.41 1765.78C2645.1 1766.06 2645.79 1766.33 2646.48 1766.61C2646.76 1766.73 2647.05 1766.84 2647.34 1766.96C2647.69 1767.1 2648.04 1767.25 2648.39 1767.39C2648.62 1767.49 2648.85 1767.58 2649.09 1767.68C2646.83 1768.68 2644.61 1769.82 2642.41 1770.95L2642.4 1770.95C2637.58 1773.44 2632.79 1775.89 2627.73 1776.85C2557.09 1790.26 2487.22 1782.44 2417.39 1774.63L2417.39 1774.63L2417.38 1774.63L2417.38 1774.63L2417.38 1774.63L2417.37 1774.63L2417.37 1774.63L2417.36 1774.63L2417.36 1774.63L2417.35 1774.63L2417.35 1774.63L2417.34 1774.63C2392.66 1771.86 2367.99 1769.1 2343.28 1767.28C2337.42 1766.86 2331.37 1769.36 2325.32 1771.86C2322.72 1772.94 2320.11 1774.02 2317.53 1774.86C2318.79 1777.5 2319.83 1780.42 2320.87 1783.35C2323.13 1789.69 2325.4 1796.04 2329.91 1799.59C2347.04 1813.27 2364.71 1826.22 2382.37 1839.17L2382.37 1839.17L2382.38 1839.18L2382.38 1839.18L2382.39 1839.18C2395.38 1848.7 2408.36 1858.22 2421.13 1868.02C2424.68 1870.78 2426.93 1875.09 2429.19 1879.42L2429.19 1879.42L2429.19 1879.43L2429.19 1879.43C2430.36 1881.68 2431.54 1883.93 2432.9 1885.97L2425.14 1889.82C2423.43 1890.68 2421.73 1891.57 2420.05 1892.51L2417.54 1893.96C2417 1894.27 2416.41 1894.6 2415.8 1894.94C2412.11 1897 2407.56 1899.54 2407.56 1901.93C2407.56 1905.92 2410.95 1911.51 2414.54 1914.1C2464.05 1949.81 2520.33 1971.96 2577.62 1990.51C2798.4 2062.13 3021.16 2090.46 3244.33 2004.08C3383.26 1950.21 3454.32 1853.66 3447.33 1735.56C3443.89 1677.12 3425.46 1622.28 3407.03 1567.42C3398.13 1540.94 3389.23 1514.45 3382.01 1487.55L3380.86 1483.2C3356.95 1391.48 3323.1 1303.07 3289.24 1214.64C3263.75 1148.04 3238.25 1081.44 3216.98 1013.4L3215.58 1008.8C3213.73 1002.65 3212.04 996.498 3210.36 990.417L3210.36 990.413C3198.64 947.992 3187.84 908.847 3135.05 895.174L3133.14 894.697C3108.96 888.852 3088.6 873.299 3074.27 852.128L3070.24 846.05C3061.8 833.184 3053.95 819.352 3061.08 803.13C3067 789.715 3079.43 787.677 3091.73 785.66C3094.46 785.212 3097.19 784.765 3099.84 784.194L3100.8 783.979C3105.28 782.999 3109.79 782.064 3114.3 781.128C3130.9 777.682 3147.59 774.22 3163.29 768.417L3171.59 765.435C3185.9 760.217 3201.51 753.29 3202.01 737.494C3202.46 723.457 3189.66 718.786 3177.17 714.231C3173.16 712.767 3169.18 711.315 3165.68 709.567L3154.56 703.981C3139.72 696.448 3125.32 688.022 3117.17 672.062C3093.42 624.582 3116.97 548.975 3168.68 500.299C3178.93 490.684 3191 482.512 3203.07 474.336C3228.82 456.898 3254.6 439.443 3262.89 407.934L3264.24 402.702C3273.36 366.649 3280.48 323.985 3287.29 283.135C3296.61 227.26 3305.36 174.778 3317.91 147.25L3319.93 142.945C3323.12 136.087 3326.08 129.186 3328.97 122.444L3328.98 122.436C3345.77 83.298 3360.26 49.5339 3404.32 60.55ZM718.244 1270.54C722.036 1273.13 725.427 1276.72 728.622 1280.12L736.74 1289.12C745.952 1299.38 755.1 1309.71 764.248 1320.05C841.814 1407.67 919.384 1495.3 1035.43 1536.66C1036.59 1537.1 1038.22 1538.78 1040.07 1540.68C1045.87 1546.65 1053.86 1554.87 1056.59 1534.47C1056.59 1534.27 1062.37 1533.67 1064.37 1534.87L1088.15 1549.61C1101.36 1557.81 1114.53 1566.07 1127.49 1574.6L1135.23 1579.75C1196.11 1620.6 1259.95 1656.55 1324 1692.13L1341.13 1701.64C1397.24 1757.86 1448.46 1818.07 1481.43 1891.36L1483.49 1896.02L1485.16 1899.91C1499.69 1934.25 1541.96 2043.55 1545.87 2089.65C1549.02 2126.85 1550.2 2162.97 1551.36 2198.49V2198.49C1552.71 2239.58 1554.02 2279.85 1558.33 2320.03L1559.23 2328.05L1185.53 2328.05C1200.4 2296.26 1223.61 2270.68 1247.8 2245.96L1252.2 2241.47C1309.51 2183.01 1314.78 2148.01 1273.43 2105.51L1272.17 2104.22C1270.38 2102.41 1268.47 2100.62 1266.53 2098.83C1257 2089.98 1247.13 2080.81 1251.61 2065.72C1257.08 2047.36 1274.03 2042.76 1290.29 2039.21L1291.33 2038.99C1299.07 2037.27 1309.31 2036.01 1319.14 2034.79C1335.67 2032.75 1351.04 2030.84 1351.41 2027.22C1352.29 2017.84 1353.51 2008.34 1354.74 1998.79L1354.74 1998.78C1360.21 1956.31 1365.82 1912.77 1342.03 1874.01C1289.58 1788.4 1207.78 1735.75 1126.37 1683.36C1112.36 1674.34 1098.37 1665.33 1084.53 1656.16L1075.5 1650.15C929.603 1552.91 791.127 1447.98 691.759 1300.07L688.698 1295.48C687.866 1294.23 686.954 1292.93 686.011 1291.58C678.814 1281.29 669.842 1268.47 681.314 1258.77C691.685 1250 701.802 1257.93 711.255 1265.33C713.628 1267.19 715.96 1269.02 718.244 1270.54ZM1365.03 2064.13L1361.99 2052.95C1362.86 2052.14 1363.82 2051.06 1364.8 2049.94C1367.21 2047.22 1369.79 2044.29 1371.77 2044.57C1394.93 2048.56 1419.08 2053.15 1423.08 2082.08C1424.87 2095.64 1415.29 2104.22 1401.91 2103.22C1377.25 2101.37 1370.6 2084.23 1365.03 2064.13ZM2169.36 1801.15L2172.99 1806.09C2184.72 1821.87 2197.58 1837.73 2213.14 1849.07C2344.28 1945.02 2495.99 1993.3 2650.29 2035.79C2651.19 2036.1 2652.21 2036.06 2653.17 2036.02C2653.48 2036.01 2653.78 2035.99 2654.08 2035.99C2653.08 2035.58 2652.12 2035.09 2651.16 2034.61C2649.82 2033.94 2648.49 2033.27 2647.09 2032.8C2559.46 2007.3 2474.49 1975.16 2393.47 1933.23L2376.15 1924.19C2373.34 1922.74 2370.53 1921.29 2367.72 1919.84C2316.19 1893.26 2263.94 1866.31 2233.5 1813.96L2231.9 1811.2C2219.93 1790.93 2208.88 1779.05 2202.96 1779.05L2200.17 1779.03C2167.4 1779.04 2158.6 1786.06 2169.36 1801.15ZM90.0636 157.972L87.6698 145.8C-12.4333 145.8 -15.4364 145.8 -15.5265 240.114L-15.5293 311.579C47.1487 301.205 110.825 293.625 158.532 347.089C192.666 385.391 207.038 435.863 191.268 484.738C173.977 538.079 131.479 533.148 90.5393 528.398C83.3119 527.559 76.1329 526.727 69.1498 526.221L60.8448 525.668C43.8117 524.389 26.8459 521.849 9.85063 519.304L9.85006 519.304L9.84942 519.304L9.84873 519.304L9.848 519.304L9.84724 519.303L9.8459 519.303L9.84461 519.303L9.84334 519.303L9.84209 519.303L9.84087 519.303L9.83966 519.302L9.83846 519.302L9.83728 519.302C1.393 518.038 -7.05857 516.772 -15.5293 515.66V711.56C-15.3794 725.344 -15.145 739.101 -14.9108 752.85C-14.5212 775.715 -14.132 798.561 -14.132 821.484C-13.9989 921.754 -14.0433 1021.93 -14.0876 1122.15C-14.1098 1172.26 -14.132 1222.39 -14.132 1272.54C-14.132 1276.52 -14.5394 1280.62 -14.9904 1284.66L-15.5293 1289.49V1301.66C-7.96164 1300.49 -0.31974 1299.44 7.33846 1298.39C54.4221 1291.94 102.122 1285.4 136.974 1249.19C175.898 1208.7 169.511 1135.68 126.993 1065.46L125.532 1063.02C77.9042 983.101 88.8955 945.089 170.708 897.889C230.392 863.376 294.468 827.067 360.739 864.175L363.153 865.514C406.543 889.253 446.834 893.1 493.281 893.1L497.375 893.097C523.187 893.005 549.029 891.538 574.885 890.07H574.886H574.886H574.887H574.887H574.888H574.888H574.889H574.889C639.253 886.416 703.698 882.758 767.947 900.284C797.292 908.261 824.838 889.11 842.203 866.766L845.469 862.588C953.741 725.531 1109.69 666.525 1268.77 631.766C1657.42 546.781 2018.31 608.222 2325.91 880.531C2354.26 905.666 2376.22 939.381 2395.78 972.498L2396.27 973.321C2397.64 975.608 2399.1 977.967 2400.59 980.375L2400.64 980.449L2400.66 980.477C2416.95 1006.75 2436.82 1038.79 2376.62 1047.11L2376.42 1047.31C2379.81 1053.38 2383.2 1059.41 2386.59 1065.44L2386.6 1065.46C2389.99 1071.5 2393.39 1077.53 2396.78 1083.62C2283 984.867 2155.45 910.254 2012.13 862.975C2009.21 861.866 2006.59 859.506 2003.99 857.165C2002.85 856.137 2001.71 855.113 2000.55 854.2C2001.37 853.205 2002.17 852.176 2002.98 851.143L2002.98 851.137C2004.92 848.649 2006.88 846.138 2009.13 844.024C2039.66 816.791 2016.69 805.344 1998.81 796.43C1996.61 795.337 1994.49 794.281 1992.56 793.239L1987.22 790.267C1938.35 763.403 1884.8 749.651 1831.24 735.898L1831.24 735.897C1812.09 730.978 1792.93 726.059 1773.99 720.541C1770.2 719.323 1766.69 717.192 1763.21 715.075L1763.21 715.075C1761.55 714.067 1759.89 713.062 1758.22 712.162C1760.19 711.803 1762.19 711.318 1764.19 710.832C1768.86 709.696 1773.57 708.551 1778.18 708.969C1882.38 717.348 1982.38 743.879 2080.79 777.594L2081.56 777.858C2084.17 778.766 2087.05 779.907 2090.06 781.097C2103.49 786.413 2119.39 792.702 2123.71 783.578C2129.56 771.225 2114.16 762.227 2101.49 754.826C2099.02 753.381 2096.65 751.997 2094.57 750.661L2090.71 748.205C1965.68 669.297 1824.83 639.169 1681.08 619.407L1672.19 618.197C1459.8 589.472 1264.38 633.96 1082.93 749.667C1066.84 759.938 1049.82 768.833 1032.86 777.696C984.597 802.916 936.837 827.873 912.466 883.523C896.054 921.073 892.546 960.926 889.039 1000.77C887.385 1019.56 885.731 1038.34 882.724 1056.88L882.49 1058.32C875.611 1099.98 861.216 1135.01 813.657 1145.66L812.94 1145.83C802.918 1148.47 803.867 1157.38 812.06 1164.01C868.115 1208.71 921.688 1192.1 938.366 1125.02C926.844 1069.72 928.334 1012.98 956.53 963.095C961.492 954.318 970.555 948.338 979.035 942.886L986.266 938.254C1003.16 927.474 1020.23 916.917 1037.63 906.965L1039.07 903.71C1094.41 780.774 1241.51 672.494 1393.33 649.517C1462.99 638.945 1532.66 636.751 1602.72 643.734C1607.13 644.285 1611.45 646.074 1615.73 647.85L1615.73 647.85C1617.66 648.647 1619.57 649.44 1621.49 650.119C1620.13 650.522 1618.76 650.949 1617.37 651.38C1613.28 652.657 1609.1 653.961 1604.92 654.708C1597.6 656.125 1590.24 657.454 1582.89 658.784C1539.53 666.622 1496.15 674.466 1458.6 700.39C1454 703.638 1450.96 709.179 1447.92 714.711C1446.48 717.336 1445.04 719.958 1443.43 722.333C1445.87 723.618 1448.3 725.212 1450.72 726.811C1455.83 730.179 1460.97 733.564 1466.39 734.105C1495.39 736.913 1524.54 738.693 1553.7 740.475C1634.35 745.4 1715.06 750.33 1792.75 776.996C1795.72 778.048 1799.02 779.002 1802.42 779.983C1817.03 784.207 1833.44 788.946 1833.27 804.326C1833.12 819.936 1816.92 823.209 1802.47 826.128C1799.44 826.741 1796.48 827.338 1793.77 828.03L1792.15 828.463C1777.33 832.724 1762.42 836.73 1747.5 840.738C1687.67 856.809 1627.78 872.895 1573.78 905.47C1469.58 968.11 1460.4 1066.26 1555.42 1141.67C1564.18 1148.61 1572.97 1155.68 1581.82 1162.79L1581.92 1162.87L1581.93 1162.88C1664.1 1228.95 1750.56 1298.47 1857.03 1296.67C1933.72 1295.36 2008.49 1305.62 2083.06 1315.84C2144.54 1324.27 2205.88 1332.68 2268.03 1334.58C2286.19 1335.18 2311.34 1334.78 2314.94 1314.23C2318.33 1295.48 2306.15 1274.13 2289.59 1261.16C2268.8 1244.86 2246.08 1231.24 2223.36 1217.62C2188.26 1196.57 2153.18 1175.54 2125.31 1144.66C2106.74 1124.31 2095.37 1094.99 2109.94 1071.25C2122.21 1051.33 2145.74 1059.79 2165.27 1066.8C2166.14 1067.11 2167 1067.42 2167.85 1067.73C2168.7 1068.03 2169.55 1068.33 2170.38 1068.62L2176.19 1070.61C2258.19 1099.13 2326.57 1150.21 2392.23 1205.35L2398.57 1210.69C2399.95 1211.82 2401.64 1212.71 2403.34 1213.61C2404.36 1214.14 2405.39 1214.68 2406.36 1215.28C2406.1 1214.56 2405.87 1213.81 2405.64 1213.05L2405.63 1213.05C2404.97 1210.9 2404.3 1208.73 2402.97 1207.1C2288.59 1065.26 2089.38 940.58 1882.38 965.118L1881.56 965.212C1880.47 965.334 1879.35 965.447 1878.23 965.562C1865.5 966.857 1851.08 968.323 1846.05 984.667V986.664C1848.44 988.357 1850.82 990.047 1853.2 991.736C1870.74 1004.17 1888.14 1016.51 1905.53 1029.15C1907.98 1031.02 1910.01 1033.51 1911.99 1035.95L1912 1035.95L1912 1035.95C1912.77 1036.9 1913.53 1037.84 1914.32 1038.73C1912.65 1038.53 1910.94 1038.46 1909.24 1038.4C1905.82 1038.26 1902.41 1038.13 1899.35 1036.94C1891.24 1033.82 1882.94 1030.11 1874.55 1026.37L1874.54 1026.36L1874.54 1026.36L1874.54 1026.36L1874.54 1026.36L1874.54 1026.36L1874.54 1026.36L1874.53 1026.36C1839.98 1010.93 1803.79 994.764 1771.99 1015.79L1770.34 1016.86C1724.53 1046.17 1693.7 1026.67 1661.92 1006.58C1656.03 1002.85 1650.1 999.101 1644.04 995.64L1643.02 995.047C1616.39 979.354 1620.18 958.714 1643.25 941.378C1721.89 882.327 1812.91 880.134 1904.94 888.512L1909.21 888.911C2050.06 902.414 2178.79 949.019 2276.81 1053.89L2279.71 1056.96C2295.41 1073.44 2312.18 1088.92 2328.94 1104.39C2361.85 1134.77 2394.71 1165.1 2419.33 1202.91L2420.97 1205.4C2423.4 1209.06 2425.91 1212.75 2428.43 1216.47C2452.52 1251.98 2478.54 1290.32 2459.26 1333.98C2439.83 1378.26 2395.51 1383.72 2352.9 1388.96C2346.62 1389.74 2340.37 1390.51 2334.24 1391.4L2331.3 1391.83C2315.44 1394.22 2299.41 1395.9 2283.38 1397.58L2283.38 1397.58L2283.38 1397.58L2283.37 1397.58L2283.37 1397.58L2283.37 1397.59L2283.36 1397.59L2283.36 1397.59L2283.35 1397.59L2283.35 1397.59C2268.55 1399.14 2253.75 1400.7 2239.09 1402.8C2233.37 1403.52 2227.81 1408.23 2223.13 1412.64L2221.52 1414.17C2220.72 1414.78 2225.51 1423.55 2229.31 1426.54C2313.94 1494.57 2534.71 1504.54 2623.54 1444.5C2665.77 1415.97 2690.12 1374.23 2710.08 1329.16L2714.11 1319.96C2778 1174.65 2816.19 1168.71 2937.53 1277.92C3003 1336.97 3058.29 1404.2 3107.99 1476.62L3108.42 1477.22C3108.65 1477.56 3108.88 1477.9 3109.11 1478.25L3109.41 1478.68C3109.61 1478.99 3109.81 1479.29 3110.01 1479.6L3110.49 1480.33L3110.64 1480.54L3110.73 1480.69L3110.74 1480.71C3116.22 1489.03 3122.49 1498.58 3132.55 1495.17C3138.53 1493.17 3143.13 1477.61 3142.93 1468.44C3140.93 1381.26 3110.19 1303.86 3061.69 1232.44L3061.08 1233.03C3063.19 1237.46 3065.32 1241.89 3067.44 1246.31L3067.46 1246.35C3089.07 1291.34 3110.71 1336.4 3115.98 1387.25C3116.09 1388.15 3116.22 1389.09 3116.36 1390.04C3116.45 1390.66 3116.54 1391.28 3116.64 1391.91C3118.07 1401.24 3119.67 1411.74 3109.79 1414.97C3103.8 1416.97 3091.83 1407.79 3085.64 1401.01L3077.44 1392.07C3014.56 1323.58 2949.8 1256.98 2874.05 1202.12C2798.2 1147.25 2750.89 1161.22 2712.96 1246.6C2708.26 1257.17 2703.81 1267.9 2699.35 1278.64C2676.37 1334.04 2653.34 1389.57 2595.99 1422.15C2593.06 1423.88 2590.05 1425.35 2587 1426.78L2582.42 1428.94C2556.67 1441.11 2529.92 1447.49 2501.17 1444.3C2507.9 1442.54 2514.7 1440.96 2521.51 1439.38C2536.34 1435.93 2551.22 1432.47 2565.45 1427.14C2627.3 1403.98 2654.7 1352.15 2677.43 1296.53L2679.74 1290.82L2682.02 1285.1C2684.35 1279.18 2686.63 1273.23 2688.92 1267.27L2688.94 1267.23L2688.94 1267.22L2688.94 1267.22L2688.95 1267.21L2688.95 1267.21L2688.96 1267.18C2696.31 1248.05 2703.7 1228.82 2712.36 1210.29C2748.29 1133.89 2787.82 1122.12 2858.48 1169.2C2890.2 1190.29 2920.88 1212.81 2951.56 1235.32L2951.57 1235.32L2951.57 1235.33C2971.08 1249.64 2990.6 1263.96 3010.39 1277.92C3014.26 1280.83 3019.88 1281.33 3025.48 1281.84C3027.95 1282.06 3030.42 1282.28 3032.74 1282.71C3032.87 1280.24 3033.3 1277.64 3033.73 1275.04C3034.61 1269.68 3035.49 1264.33 3033.74 1260.17C2979.55 1132.7 2891.05 1033.2 2781.95 950.979L2775.24 945.967C2708.37 896.293 2633.72 862.177 2553.47 839.039L2548.63 837.619C2478.69 816.694 2417.18 779.329 2355.64 741.946C2323.59 722.471 2291.52 702.99 2258.25 685.827C2036.28 571.518 1798.54 508.478 1554.02 466.585L1543.84 464.821C1452.27 448.831 1361.44 429.607 1276.36 389.98L1275.6 389.629C1273.59 388.711 1271.4 387.767 1269.13 386.786C1254.27 380.382 1235.72 372.385 1240.83 359.457C1246.43 345.044 1267.02 349.224 1282.88 353.62L1290.73 355.866C1357.86 374.607 1425.12 392.85 1492.38 411.092C1820.34 500.042 2148.18 588.961 2459.26 735.3C2481.98 745.987 2504.79 756.461 2527.58 766.923C2671.53 833.02 2814.41 898.627 2926.95 1014.19C3055.69 1146.46 3165.68 1292.09 3188.04 1484C3197.42 1565.59 3179.85 1639.4 3109.39 1691.47C3104.51 1695.13 3098.16 1696.67 3091.77 1698.22C3088.75 1698.95 3085.73 1699.69 3082.84 1700.65C3083.11 1697.79 3083.2 1694.89 3083.29 1692C3083.46 1686.2 3083.64 1680.44 3085.24 1675.11C3122.96 1548.63 3003.6 1334.78 2875.45 1299.27C2812.91 1281.85 2776.66 1319.24 2745.39 1361.01L2740.69 1367.36C2680.5 1448.19 2605.14 1502.69 2503.17 1516.91C2500.51 1517.31 2498.03 1518.77 2495.54 1520.24C2494.3 1520.97 2493.06 1521.7 2491.79 1522.3C2493.06 1522.83 2494.3 1523.48 2495.55 1524.12C2498.03 1525.4 2500.51 1526.69 2503.17 1527.09C2527.26 1531.38 2550.82 1527.29 2574.19 1521.85L2579.02 1520.7C2581.75 1520.11 2584.55 1519.73 2587.34 1519.35L2587.35 1519.35C2589.25 1519.09 2591.14 1518.83 2593 1518.51C2591.24 1519.47 2589.55 1520.55 2587.86 1521.63C2585.32 1523.26 2582.78 1524.89 2580.02 1526.09C2567.44 1531.67 2554.79 1537.17 2542.11 1542.69C2533.46 1546.45 2524.81 1550.22 2516.15 1554.02L2515.17 1554.45C2501.55 1560.52 2492.73 1567.43 2490 1586.14L2489.83 1587.11C2486.7 1603.75 2469.07 1601.65 2454.85 1599.95C2454.1 1599.86 2453.36 1599.77 2452.64 1599.68C2452.2 1599.63 2451.77 1599.58 2451.34 1599.54L2444.13 1598.83C2346.44 1588.98 2256.51 1553.07 2166.68 1517.19C2155.06 1512.55 2143.44 1507.91 2131.81 1503.33L2119.84 1498.63C2116.7 1497.41 2113.56 1496.19 2110.41 1494.98L2110.32 1494.94L2110.24 1494.91C2067.33 1478.3 2024.1 1461.56 1989.17 1429.74C1965.42 1407.99 1963.62 1383.65 1985.38 1359.72L1986.14 1358.87C2001.97 1341.08 1993.62 1333.18 1976.07 1327.34L1974.4 1326.8C1951.94 1319.78 1928.75 1322.36 1905.89 1324.91C1882.63 1327.5 1859.71 1330.06 1838.27 1322.41C1704.33 1274.33 1580.76 1206.5 1496.53 1087.6C1454.01 1027.56 1483.36 959.134 1562.4 904.471C1605.07 875.105 1652.88 857.113 1700.75 839.099C1714.02 834.107 1727.29 829.113 1740.46 823.874C1741.98 823.287 1743.58 822.719 1745.21 822.139C1755.77 818.384 1767.6 814.176 1767.6 801.731C1767.42 788.611 1754.79 784.945 1743.85 781.771L1742.96 781.513L1735.61 779.319C1647.77 753.587 1557.96 755.755 1467.92 760.382L1459.2 760.837C1434.25 762.232 1409.5 763.428 1384.55 764.029C1384.16 764.036 1383.78 764.043 1383.39 764.051L1382.85 764.063L1382.18 764.077L1382.17 764.078C1370.95 764.325 1358.41 764.602 1353.01 753.056C1348.57 743.575 1354.1 735.854 1359.53 728.273C1361.19 725.964 1362.83 723.668 1364.18 721.339C1365.6 718.8 1367.45 716.039 1369.33 713.244L1369.33 713.243C1374.11 706.151 1379.02 698.842 1377.16 694.406C1373.45 685.37 1363.08 686.773 1353.55 688.062C1351.29 688.368 1349.08 688.666 1347.02 688.819L1343.81 689.086C1237.89 698.699 1122.83 787.803 1068.71 890.115L1069.01 889.955L1074.84 887.023L1077.5 885.711L1080.15 884.414L1080.77 883.312C1117.84 817.977 1174.92 769.569 1250.81 737.494C1271.97 728.518 1288.34 728.919 1285.54 762.83L1285.42 764.414C1282.49 808.725 1313.3 804.43 1339.08 800.836L1339.08 800.836C1343.32 800.246 1347.42 799.674 1351.21 799.34L1365.72 797.968C1375.13 797.052 1384.54 796.091 1393.94 795.131L1393.97 795.128C1412.77 793.208 1431.56 791.289 1450.36 789.724L1467.23 787.092L1475.75 785.746C1492.84 783.032 1510.25 780.18 1528.03 777.095C1546.14 773.951 1592.12 775.628 1610.99 785.977C1613.91 787.578 1615.68 790.685 1616.79 794.084L1623.95 795.17C1635.84 797.037 1648.28 800.009 1650.43 812.905C1652.51 825.391 1640.97 831.839 1630.44 837.716L1630.44 837.718C1627.85 839.163 1625.33 840.574 1623.08 842.031L1619.37 844.417C1612.85 848.584 1606.3 852.684 1599.75 856.78C1570.21 875.273 1540.8 893.681 1514.89 917.839C1454.01 974.491 1442.04 1049.1 1494.93 1112.94C1580.02 1215.75 1694.04 1280.85 1810.34 1341.73L1825.69 1349.74C1831.68 1352.73 1839.06 1355.32 1845.25 1354.52C1895.95 1348.74 1922.1 1375.08 1933.88 1420.96C1912.88 1382.23 1876.92 1375.79 1840.56 1369.27C1814.36 1364.57 1787.95 1359.84 1766.8 1342.96L1759.75 1337.41C1727.56 1312.41 1693.45 1289.81 1659.33 1267.19L1659.32 1267.19C1631.66 1248.86 1603.99 1230.52 1577.34 1210.91C1578.05 1217.45 1573.65 1223.1 1568.46 1226.42L1573.53 1230.1L1587.84 1240.39C1596.5 1246.64 1605.16 1252.93 1613.83 1259.23L1613.84 1259.23L1613.84 1259.23C1669.7 1299.82 1725.92 1340.66 1786.56 1372.68C1841.41 1401.66 1894.95 1433.29 1948.51 1464.93L1948.51 1464.93L1948.52 1464.93L1948.52 1464.93L1948.52 1464.93L1948.53 1464.94L1948.53 1464.94L1948.53 1464.94L1948.54 1464.94L1948.54 1464.94L1948.54 1464.94L1948.54 1464.94L1948.54 1464.95L1948.55 1464.95C2081.53 1543.5 2214.59 1622.1 2367.84 1660.35C2506.36 1695.06 2638.51 1696.46 2759.07 1606.69C2765.86 1601.5 2772.65 1595.12 2777.24 1587.93C2778.27 1586.34 2779.33 1584.75 2780.39 1583.17C2788.77 1570.61 2797.28 1557.88 2793.2 1541.05L2792.58 1541.52L2792.55 1541.54C2781.59 1549.76 2770.63 1557.97 2759.67 1565.99C2757.22 1567.71 2754.61 1569.2 2751.99 1570.7L2751.98 1570.7C2750.35 1571.63 2748.71 1572.57 2747.1 1573.57C2746.97 1572.08 2746.77 1570.6 2746.57 1569.12C2746.13 1565.83 2745.69 1562.57 2746.1 1559.4C2748.09 1541.85 2744.7 1532.87 2723.14 1536.46C2722.58 1536.56 2722 1536.66 2721.42 1536.76C2721.05 1536.83 2720.68 1536.89 2720.3 1536.96C2719.83 1537.05 2719.36 1537.13 2718.88 1537.22C2703.03 1540.07 2683.21 1543.65 2674.44 1528.48C2666.69 1515.01 2677.23 1504.54 2687.1 1494.74L2687.1 1494.74L2687.1 1494.74L2687.11 1494.73L2687.11 1494.73L2687.12 1494.72C2689.95 1491.9 2692.73 1489.15 2695 1486.39C2723.74 1451.08 2752.49 1415.77 2783.03 1382.26C2823.35 1337.97 2869.46 1337.57 2915.17 1373.08C2971.06 1416.77 3015.97 1470.23 3046.32 1534.87C3086.64 1620.85 3049.11 1699.45 2943.51 1756.9C2895.53 1783.05 2844.2 1799.88 2792.86 1816.72C2773.29 1823.14 2753.71 1829.56 2734.32 1836.5C2729.14 1838.32 2724.74 1842.6 2720.38 1846.85L2720.37 1846.85L2720.37 1846.85C2718.52 1848.66 2716.66 1850.46 2714.76 1852.06C2716.56 1853.86 2718.24 1856.01 2719.93 1858.16C2723.3 1862.46 2726.67 1866.76 2730.93 1868.22C2825.74 1901.54 2933.53 1929.27 3014.58 1871.21C3095.82 1813.16 3178.06 1740.15 3214.79 1636.41C3244.86 1551.32 3234.62 1467.19 3207.07 1385.32L3205.21 1379.86C3123.96 1146.06 2965.87 970.902 2776.24 818.889C2661.66 727.122 2533.91 658.694 2402.57 595.857C2382.6 586.279 2348.87 570.72 2336.69 591.465C2328.5 605.569 2342.01 616.237 2355.8 627.12C2362.5 632.402 2369.25 637.734 2373.62 643.533C2375.3 645.704 2376.93 647.875 2378.56 650.044L2378.57 650.066C2380.23 652.278 2381.89 654.489 2383.6 656.701C2382.09 656.467 2380.53 656.319 2378.99 656.172C2375.25 655.815 2371.54 655.462 2368.43 653.909C2298.46 620.233 2226.25 591.492 2154.05 562.753C2047.89 520.498 1941.74 478.245 1842.66 420.302L1841.31 419.525C1833.45 415.057 1825.63 411.827 1816.83 408.195L1816.83 408.195C1806.03 403.738 1793.76 398.676 1778.18 389.98C1771.08 386.015 1762.77 380.334 1753.97 374.318C1738.6 363.803 1721.73 352.266 1707.18 347.089C1689.58 340.832 1670.73 337.402 1652.17 334.025C1625.52 329.174 1599.45 324.432 1578.57 311.579C1515.79 272.946 1445.63 249.138 1393.33 249.138C1275.36 249.138 1147.61 242.155 1122.66 234.176C949.493 234.176 923.893 212.082 898.293 189.988C872.693 167.894 847.093 145.8 673.93 145.8C650.975 237.368 611.253 287.041 549.373 278.862C516.68 274.539 483.52 273.134 450.346 271.727H450.345C379.411 268.72 308.413 265.71 241.77 234.176L239.788 233.259C216.616 222.879 191.947 223.393 166.989 224.874L156.846 225.498C107.287 228.045 97.3155 194.004 90.0636 157.972ZM1810.12 1766.68V1766.88C1810.82 1767.18 1811.52 1767.53 1812.22 1767.87C1812.91 1768.22 1813.61 1768.57 1814.31 1768.87L1815.23 1769.87C1815.56 1770.22 1815.91 1770.57 1816.31 1770.87C1817.01 1771.17 1817.71 1771.52 1818.41 1771.87C1819.11 1772.22 1819.8 1772.56 1820.5 1772.86C1821.5 1773.56 1822.49 1774.21 1823.52 1774.86L1825.48 1776.09L1824.79 1775.61C1823.29 1774.57 1821.8 1773.56 1820.3 1772.66C1819.36 1772.26 1818.42 1771.77 1817.54 1771.3C1817.11 1771.08 1816.7 1770.86 1816.31 1770.67L1815.38 1769.67C1815.06 1769.32 1814.71 1768.97 1814.31 1768.67C1813.61 1768.37 1812.91 1768.03 1812.22 1767.68C1811.52 1767.33 1810.82 1766.98 1810.12 1766.68ZM2514.37 1652.11L2514.34 1652.11C2497.3 1651.13 2480.28 1650.15 2463.25 1648.98C2463.51 1648.99 2463.77 1648.99 2464.03 1649C2464.35 1649.01 2464.66 1649.02 2464.97 1649.03C2466.31 1649.07 2467.65 1649.1 2468.98 1649.13C2472.78 1649.22 2476.55 1649.31 2480.41 1649.57L2489.21 1650.06C2497.29 1650.53 2505.32 1651.08 2513.43 1651.63L2515.54 1651.77C2515.44 1651.77 2515.4 1651.87 2515.37 1651.97L2515.35 1652.17L2514.37 1652.11ZM1019.72 1319.89L1020.36 1319.2C1022.8 1323.64 1025.23 1328.02 1027.65 1332.35C1019.81 1337.26 1008.57 1340.03 992.713 1339.76C990.986 1339.76 989.262 1338.8 987.479 1337.79C986.581 1337.29 985.667 1336.77 984.731 1336.37C985.131 1336.1 985.532 1335.75 985.941 1335.38C986.751 1334.66 987.592 1333.91 988.523 1333.78C1003.14 1331.82 1013.1 1326.85 1019.72 1319.89ZM1649.58 1194.41L1640.25 1188.55C1648.76 1192.81 1657.25 1197.13 1665.74 1201.45C1735.9 1237.14 1805.99 1272.81 1887.37 1276.72C1888.45 1276.72 1889.57 1276.82 1890.71 1276.92C1891.91 1277.02 1893.13 1277.12 1894.35 1277.12C1906.76 1277.33 1919.12 1277.58 1931.48 1277.83H1931.48H1931.48C1943.57 1278.08 1955.67 1278.32 1967.81 1278.52L1962.21 1279.01C1938.95 1281.04 1915.84 1283.06 1892.56 1284.9C1802.81 1291.76 1732.67 1247.2 1662.48 1202.59C1658.18 1199.86 1653.89 1197.13 1649.58 1194.41ZM1657.02 1165.21C1657.13 1165.61 1657.21 1166.06 1657.29 1166.51C1657.5 1167.64 1657.7 1168.77 1658.41 1169.2L1669.93 1178.11C1723.75 1219.56 1779.6 1258.08 1861.02 1262.36L1899.77 1254.61C1914.21 1251.69 1929.78 1248.5 1945.26 1245.2C1947.83 1244.66 1950.32 1243.2 1952.77 1241.75C1953.93 1241.07 1955.08 1240.39 1956.24 1239.82C1954.89 1239.24 1953.54 1238.48 1952.19 1237.71L1952.19 1237.71C1949.34 1236.1 1946.5 1234.49 1943.66 1234.63C1844.65 1235.23 1752.43 1208.1 1663.8 1166.21C1662.52 1165.57 1661.08 1165.5 1659.58 1165.43C1658.74 1165.39 1657.88 1165.35 1657.02 1165.21ZM1518.88 1020.78C1512.5 982.272 1566.79 918.437 1606.11 918.633C1607.15 918.633 1608.1 918.97 1609.08 919.316C1609.4 919.427 1609.71 919.539 1610.03 919.641C1610.25 919.71 1610.48 919.775 1610.7 919.832C1610.47 920.449 1610.24 921.087 1610.02 921.732C1609.29 923.803 1608.53 925.94 1607.31 927.613C1562.39 988.18 1562.92 997.88 1621.29 1038.83L1626.87 1042.72C1652.9 1060.75 1677.78 1080.45 1702.53 1100.37L1721.09 1115.33C1724.43 1118.14 1726.17 1123.01 1727.9 1127.9C1728.76 1130.3 1729.62 1132.71 1730.67 1134.89C1726.83 1136.42 1722.99 1137.96 1719.91 1139.19L1714.3 1141.47C1629.07 1139.87 1528.07 1075.84 1518.88 1020.78ZM1510.94 910.796L1508.5 913.468C1515.69 904.617 1522.4 897.942 1529.05 892.254C1522.62 898.493 1516.58 904.672 1510.94 910.796ZM521.029 685.827C522.024 670.666 532.804 663.482 546.381 661.886C555.759 660.691 562.148 668.271 561.55 677.047C560.35 690.812 550.771 697.995 537.198 699.792C536.837 699.722 536.473 699.652 536.11 699.582C528.237 698.07 520.074 696.503 521.029 685.827Z" fill="#1A46FF"/>
<path fill-rule="evenodd" clip-rule="evenodd" d="M1610.98 785.977C1592.12 775.628 1546.13 773.951 1528.02 777.095C1507.28 780.695 1487.04 783.976 1467.22 787.092L1450.34 789.726C1504.69 785.199 1559.07 783.628 1613.69 793.553L1615.22 793.826L1616.78 794.084C1615.67 790.685 1613.9 787.578 1610.98 785.977ZM1534.73 824.734L1532.06 824.476C1492.53 820.084 1453.41 825.672 1414.88 834.251C1412.03 834.931 1409.27 836.348 1406.54 837.751C1405.26 838.409 1403.98 839.064 1402.71 839.637L1403.12 839.656C1407.38 839.85 1411.83 840.053 1416.08 840.636L1436.04 843.628C1434.39 844.852 1432.79 846.266 1431.2 847.67L1431.2 847.67C1429.66 849.035 1428.12 850.39 1426.56 851.556C1444.74 849.454 1461.68 849.699 1476 852.668C1496.31 856.877 1487.74 887.602 1480.35 897.577C1477.08 901.986 1472.18 907.83 1466.41 914.715L1466.41 914.716C1464.04 917.554 1461.51 920.568 1458.89 923.731L1455.16 928.261C1393.35 1065.1 1466.58 1151.8 1568.45 1226.42C1573.64 1223.1 1578.05 1217.45 1577.33 1210.91C1570.75 1206.07 1564.24 1201.15 1557.8 1196.13C1433.29 1098.91 1418.01 1013.43 1508.5 913.469C1515.69 904.618 1522.4 897.943 1529.05 892.255C1535.21 886.278 1541.74 880.244 1548.62 874.15L1549.27 873.576C1550.16 872.8 1551.07 872.023 1551.98 871.241L1551.99 871.238C1561.65 862.964 1571.97 854.134 1566.79 840.034C1562.05 827.066 1549 825.953 1536.96 824.928C1536.21 824.864 1535.47 824.8 1534.73 824.734ZM1312.47 889.974C1278.47 909.435 1250.23 934.845 1237.71 963.494C1224.75 993.154 1220.81 1025.82 1216.9 1058.26L1216.9 1058.26C1215.72 1068.09 1214.54 1077.9 1213.11 1087.59L1212.51 1091.46C1212.16 1093.7 1211.78 1095.95 1211.4 1098.22C1208.59 1114.89 1205.7 1132.04 1210.54 1147.9C1226.93 1201.61 1250.09 1253.07 1274.13 1303.93L1285.67 1328.21L1281.07 1323.15C1206.89 1241.33 1139.58 1155.59 1130.5 1039.34L1128.88 1017.05C1126.35 979.849 1126.15 934.855 1165.17 931.8C1211.73 928.192 1253.84 913.091 1295.3 896.783L1312.47 889.974ZM1098.14 906.49L1098.14 906.49L1098.14 906.49L1098.14 906.49L1098.14 906.49C1097.96 906.069 1097.78 905.641 1097.7 905.269C1097.1 906.065 1096.46 906.839 1095.82 907.613L1095.82 907.613C1094.53 909.167 1093.24 910.72 1092.31 912.452C1054.78 983.668 1054.58 1060.47 1077.14 1132.89L1080.1 1142.42C1082.45 1150.06 1084.8 1157.7 1087.16 1165.35C1132.84 1313.91 1179.24 1464.79 1295.52 1576.16C1375.41 1652.78 1472.56 1706 1569.51 1759.11L1569.51 1759.11C1598.52 1775 1627.51 1790.88 1656.02 1807.37L1662.26 1810.97C1668.15 1814.37 1674.06 1817.75 1679.97 1821.13L1680 1821.15L1680.03 1821.17C1762.75 1868.55 1845.7 1916.06 1903.93 1995.9C1941.19 2046.62 1915.32 2086.47 1889.39 2126.43C1887.42 2129.46 1885.45 2132.49 1883.51 2135.53L1879.25 2142.28C1872.21 2153.21 1863.86 2163.45 1854.83 2172.84C1799.47 2230.71 1778.42 2229.57 1737.77 2162.28L1735.26 2158.08C1704.92 2106.81 1685.76 2054.15 1688.35 1990.71C1690.9 1925.12 1639.63 1888.98 1592.31 1855.63C1588.71 1853.09 1585.13 1850.57 1581.61 1848.06L1571.69 1840.97C1505.14 1793.79 1434.39 1753.51 1363.23 1713.91L1341.13 1701.64C1398.21 1758.83 1450.22 1820.14 1483.12 1895.17L1483.49 1896.02C1496.1 1925.03 1541.8 2041.63 1545.86 2089.65C1549.01 2126.85 1550.2 2162.97 1551.36 2198.49C1552.79 2242.31 1554.2 2285.21 1559.23 2328.05L1749.63 2328.05C1767.6 2293.94 1792.35 2278.38 1831.87 2293.94C1855.25 2303.25 1879.24 2311.02 1903.25 2318.8L1903.26 2318.8L1903.27 2318.81L1903.27 2318.81L1903.28 2318.81C1912.69 2321.86 1922.1 2324.91 1931.48 2328.05H2056.84C2057.24 2327.92 2057.72 2327.83 2058.2 2327.74C2059.14 2327.56 2060.1 2327.38 2060.63 2326.86C2082.59 2302.9 2092.51 2314.81 2109.12 2334.74C2128.74 2358.29 2157.69 2393.04 2226.84 2393.04C2281.82 2393.04 2344.03 2425.38 2418.85 2464.28C2517.78 2515.72 2638.78 2578.62 2794.3 2593.39C2574.06 2534.72 2522.82 2462.46 2464.39 2328.04C2405.97 2193.63 2284.12 2110.09 2155.41 2026.55L2136.26 2014.13C2086.14 1981.45 2073.28 1967.04 2056.49 1948.22C2040.26 1930.05 2020.37 1907.77 1959.71 1860.94C1931.04 1838.81 1900.35 1820.71 1868.68 1804.43C1888.88 1817.66 1909.08 1830.92 1929.28 1844.18L1944.85 1854.41L1929.68 1844.5C1909.22 1831.11 1888.77 1817.69 1868.31 1804.25C1841.85 1790.67 1814.73 1778.35 1787.54 1766.01L1787.54 1766.01L1787.54 1766.01L1787.54 1766.01L1787.54 1766.01L1787.54 1766.01C1726.21 1738.16 1664.6 1710.19 1609.84 1667.3C1569.22 1635.49 1543.99 1590.8 1518.62 1545.87C1498.45 1510.15 1478.2 1474.27 1450.06 1444.6C1431.42 1424.94 1386.33 1397.52 1348.39 1374.46C1327.79 1361.92 1309.29 1350.68 1298.3 1342.66C1301.45 1346.96 1304.22 1351.61 1307 1356.27L1307 1356.27L1307 1356.27L1307 1356.27L1307 1356.27C1308.86 1359.37 1310.71 1362.48 1312.68 1365.5C1308.9 1364.73 1304.92 1364.29 1300.93 1363.85C1292.48 1362.92 1283.99 1361.98 1277.35 1357.92C1197.91 1309.44 1155.79 1231.84 1122.65 1149.45L1120.79 1144.81C1090.36 1069.08 1062.7 991.349 1098.5 908.261C1098.75 907.886 1098.45 907.198 1098.14 906.49ZM1032.24 1208.45C1018.41 1127.84 1004.59 1047.25 1019.65 964.918C1023.21 945.441 1029.31 926.038 1037.63 906.966C1017.74 918.339 998.29 930.504 979.032 942.886C970.552 948.339 961.489 954.318 956.527 963.095C928.331 1012.98 926.841 1069.72 938.363 1125.02C938.731 1123.55 939.08 1122.05 939.411 1120.52C944.972 1094.93 950.064 1069.27 955.153 1043.62L955.153 1043.62L955.153 1043.62L955.153 1043.62L955.153 1043.62C958.831 1025.08 962.508 1006.55 966.36 988.06C966.908 985.58 968.791 983.482 970.626 981.436L970.627 981.436C971.451 980.518 972.265 979.61 972.945 978.683C973.411 979.815 973.988 980.924 974.565 982.033C975.718 984.248 976.87 986.463 977.135 988.858C978.312 999.856 979.465 1010.88 980.619 1021.91C982.793 1042.69 984.97 1063.49 987.316 1084.21C987.452 1086.24 988.689 1088.18 989.908 1090.09C990.486 1091 991.06 1091.89 991.51 1092.79C991.722 1092 991.962 1091.19 992.203 1090.38C992.873 1088.12 993.558 1085.82 993.705 1083.62C993.967 1076.04 994.149 1068.45 994.33 1060.85C995.389 1016.48 996.45 972.023 1013.67 929.607C992.041 1019.05 1005.86 1106.61 1019.7 1194.29C1022.97 1215.03 1026.25 1235.77 1029.05 1256.55L1030.22 1265.41C1032.74 1285.79 1032.33 1305.93 1020.35 1319.2C1022.8 1323.64 1025.22 1328.02 1027.65 1332.35C1047.72 1319.81 1045.65 1293.32 1041.98 1267.9L1041.01 1261.36C1038.29 1243.71 1035.26 1226.08 1032.24 1208.45ZM1043.01 981.674C1042.01 985.809 1041.21 989.946 1040.41 994.156C1040.08 995.834 1039.76 997.524 1039.42 999.23C1039.35 997.116 1039.18 994.959 1039 992.794C1038.64 988.42 1038.28 984.015 1038.82 979.878C1042.66 949.914 1053.17 919.473 1068.7 890.118L1069.01 889.955L1074.84 887.023C1076.61 886.144 1078.38 885.274 1080.15 884.414C1063.79 913.486 1051.38 945.889 1043.01 981.674Z" fill="#EC4B43"/>
<path d="M3866.91 167.745C3865.11 219.015 3866.31 270.284 3866.31 321.554L3862.83 322.407C3809.57 335.695 3762.73 358.502 3745.15 415.515C3734.77 448.83 3727.58 483.143 3709.82 513.865C3706.62 519.251 3707.42 527.031 3706.43 533.614C3712.81 533.614 3719.4 535.011 3725.39 533.614C3771.9 522.842 3815.21 495.112 3866.11 507.281V1297.27C3802.44 1301.46 3756.73 1262.96 3753.13 1200.32C3751.14 1166.8 3755.53 1132.69 3750.94 1099.78C3742.55 1037.33 3693.65 1019.78 3596.64 1040.93C3413.05 1080.82 3382.85 1196.38 3436.69 1335.15L3438.77 1340.41C3440.81 1345.37 3444.39 1352.54 3450.1 1344.56L3450.52 1343.95C3487.47 1289.09 3538.81 1296.17 3588.92 1306.27L3607.42 1310.04C3657.32 1320.02 3693.85 1349.14 3703.43 1403.6L3706.86 1423.26C3713.17 1459.31 3719.69 1495.29 3727.59 1530.94L3729.78 1540.65C3744.4 1604.05 3729.1 1628.54 3664.87 1638.7L3658.83 1639.65C3630.29 1644.31 3602.56 1652.45 3592.84 1683.49C3578.87 1728.57 3568.49 1775.06 3556.52 1820.74C3571.49 1812.56 3578.27 1778.05 3598.64 1795.01C3620.79 1813.56 3603.42 1841.29 3590.05 1860.64C3566.9 1893.55 3542.74 1926.47 3514.2 1954.6C3401.9 2065.14 3264.3 2107.02 3116.89 2119.36C3115.03 2118.38 3114.58 2117.16 3116.53 2115.44C3199.94 2042.49 3378.51 2026.04 3452.55 1907.83C3522.73 1795.79 3455.63 1673.32 3427.92 1563.52C3420.39 1533.71 3420.66 1502.09 3411.34 1472.79C3402.86 1446.15 3384.51 1423.5 3375 1397.21L3366.03 1372.29C3350.67 1329.38 3341.22 1301.54 3335.89 1284.47L3334.67 1280.51L3327.84 1266.29C3321.58 1253.18 3314.08 1237.22 3305.15 1217.96L3300.99 1208.98C3250.77 1100.41 3316.92 989.42 3298.89 883.374C3277.36 756.72 3266.66 926.228 3281.04 725.202C3288.58 619.885 3341.18 502.838 3401.93 416.794C3410.38 404.831 3424.99 384.752 3438.77 353.58C3452.55 322.407 3469.39 212.743 3502.57 145.801C3535.75 78.8585 3600.18 42.8636 3658.83 21.6914C3717.48 0.519247 3753.28 16.4542 3778.58 46.1639C3806.17 78.5548 3802.62 146.113 3844.16 145.801C3862.25 141.953 3867.35 148.123 3866.98 165.74L3866.91 167.745Z" fill="#F68C22"/>
<path d="M87.6698 145.801L90.0245 157.778C97.3612 194.287 107.421 228.816 158.532 225.398L164.794 225.007C190.5 223.433 215.936 222.575 239.786 233.259L241.77 234.176C339.58 280.458 446.773 265.297 549.373 278.862C611.253 287.042 650.975 237.368 673.93 145.801C673.93 145.801 1129.32 258.384 1274.34 287.662C1346.08 302.148 1419.34 289.232 1461.44 298.986C1554.69 320.597 1624.57 347.54 1683.43 366.48C1732.73 382.347 1764.07 396.734 1791.47 405.903C1814.65 413.656 1837.24 417.123 1842.66 420.303C1941.51 478.109 2047.4 520.301 2153.3 562.456L2152.24 568.222C2151.49 572.278 2014.95 532.23 1806.63 458.818C1598.31 385.405 1514.42 312.188 1260.85 331.875C1243.26 333.24 1227.5 343.843 1210.16 347.083C1122.13 363.532 1016.41 375.422 934.123 415.547C783.005 489.232 641.4 587.467 484.334 649.498C359.343 698.861 226.765 702.911 105.576 761.073C52.6538 786.472 24.5452 812.176 -14.1052 847.124L-14.132 821.484C-14.132 784.777 -15.1301 748.267 -15.5293 711.56V515.66C9.99438 519.012 35.3442 523.753 60.8448 525.668L69.1498 526.221C115.689 529.591 170.924 547.495 191.268 484.739C207.038 435.863 192.666 385.392 158.532 347.089C110.825 293.625 47.1487 301.206 -15.5293 311.579L-15.5265 240.114C-15.4364 145.801 -12.4333 145.801 87.6698 145.801Z" fill="#FEF151"/>
<path d="M-15.5297 66.1934C84.5733 66.1934 90.0212 157.779 90.0212 157.779C97.3579 194.287 107.417 228.816 158.529 225.399L164.791 225.007C190.497 223.433 215.933 222.575 239.783 233.259L241.767 234.176C339.576 280.459 446.769 265.297 549.37 278.863C611.249 287.042 650.972 237.368 673.927 145.801C696.883 54.2339 734.726 21.6919 803.412 21.6919C893.891 21.6919 891.657 164.143 1038.55 183.904C1085.5 190.221 1168.89 240.936 1269.33 264.326C1331.06 278.699 1397.86 262.923 1470.65 278.863C1502.9 285.927 1537 312.609 1585.33 329.739C1620.6 342.238 1661.75 348.755 1698 360.528C1728.96 370.581 1761.63 390.148 1785.87 400.249C1813.04 411.57 1830.59 413.226 1842.65 420.303C1846.38 422.482 1850.11 424.638 1853.86 426.774C1830.53 422.208 1807.47 416.812 1785.87 411.73C1751.47 403.636 1719.38 387.608 1685.48 377.616C1643.53 365.249 1600.16 357.883 1558.46 344.699C1499.88 326.183 1508.4 308.471 1442.26 306.591L1439.95 306.532C1298.98 303.387 1099.67 311.575 954.364 348.998C922.469 357.213 893.061 373.444 861.341 382.309C818.157 394.377 771.781 395.228 730.07 411.681C691.73 426.803 663.957 464.404 624.347 475.79C579.069 488.806 529.703 475.227 483.18 482.649C417.899 493.065 377.185 520.109 325.687 557.491C298.354 577.332 274.271 601.574 246.088 620.189C179.32 664.289 104.47 696.302 41.2546 745.357L36.4836 749.083C-10.7158 786.21 -10.253 794.315 -7.96103 826.397L-7.57848 831.848L-14.1221 831.85L-14.1352 821.485C-14.1352 784.778 -15.1333 748.268 -15.5325 711.561V515.661C9.99113 519.012 35.3409 523.754 60.8416 525.669L69.1465 526.221C115.686 529.592 170.921 547.496 191.265 484.739C207.034 435.863 192.662 385.392 158.529 347.089C110.822 293.625 47.1455 301.206 -15.5325 311.579L-15.5297 240.114C-15.4397 145.801 -115.633 66.1934 -15.5297 66.1934Z" fill="#EC4B43"/>
<path fill-rule="evenodd" clip-rule="evenodd" d="M728.621 1280.12C725.427 1276.72 722.036 1273.13 718.243 1270.54C715.96 1269.02 713.628 1267.19 711.255 1265.33C701.802 1257.93 691.685 1250 681.314 1258.77C669.842 1268.47 678.814 1281.29 686.011 1291.58C686.954 1292.93 687.866 1294.23 688.698 1295.48L691.759 1300.07C791.126 1447.98 929.603 1552.91 1075.5 1650.15L1084.53 1656.16C1098.37 1665.33 1112.36 1674.34 1126.37 1683.36C1207.78 1735.75 1289.58 1788.4 1342.03 1874.01C1365.82 1912.77 1360.21 1956.31 1354.74 1998.78C1353.51 2008.34 1352.29 2017.84 1351.41 2027.22C1351.04 2030.85 1335.67 2032.75 1319.14 2034.79C1309.31 2036.01 1299.07 2037.27 1291.33 2038.99L1287.17 2039.91C1271.91 2043.41 1256.73 2048.53 1251.61 2065.72C1247.13 2080.81 1257 2089.98 1266.53 2098.83C1268.46 2100.62 1270.38 2102.41 1272.17 2104.22L1273.43 2105.51C1314.78 2148.01 1309.51 2183.01 1252.2 2241.47L1247.8 2245.96C1240.23 2253.69 1225.22 2258.21 1210.07 2262.78C1176.75 2272.82 1142.74 2283.07 1185.53 2328.05C1247.8 2393.49 1584.62 2318.34 1584.62 2318.34C1593 2302.42 1679.68 2333.66 1754.56 2360.65C1796.81 2375.87 1835.29 2389.74 1853.86 2393.04C1857.11 2393.61 1860.37 2394.22 1863.62 2394.82C1911.92 2403.75 1957 2412.08 1890.5 2318.34C1857.57 2271.93 1839.97 2259.15 1827.53 2250.11C1813.16 2239.68 1805.69 2234.25 1789.43 2187.72C1768.94 2188.91 1749.19 2181.59 1735.26 2158.08C1704.92 2106.81 1685.76 2054.15 1688.36 1990.71C1690.9 1925.12 1639.63 1888.98 1592.31 1855.63C1589.73 1853.81 1587.16 1852 1584.62 1850.2L1570.6 1840.2C1496.98 1788.12 1418.26 1744.44 1339.53 1700.75C1270.28 1662.33 1201.03 1623.9 1135.23 1579.76L1127.49 1574.6C1114.53 1566.07 1101.36 1557.81 1088.15 1549.61L1064.37 1534.87C1062.37 1533.67 1056.59 1534.27 1056.59 1534.47C1053.86 1554.88 1045.87 1546.65 1040.07 1540.68C1038.22 1538.78 1036.59 1537.1 1035.42 1536.66C919.384 1495.3 841.814 1407.67 764.248 1320.05C758.568 1313.63 752.889 1307.21 747.194 1300.82L736.74 1289.12L728.621 1280.12ZM1365.03 2064.13L1361.99 2052.95C1362.86 2052.14 1363.82 2051.06 1364.8 2049.94C1367.21 2047.22 1369.79 2044.29 1371.77 2044.57C1394.93 2048.56 1419.08 2053.15 1423.07 2082.08C1424.87 2095.64 1415.29 2104.22 1401.91 2103.22C1378.55 2101.46 1371.35 2085.99 1365.92 2067.28L1365.03 2064.13Z" fill="#64DAFB"/>
<path fill-rule="evenodd" clip-rule="evenodd" d="M-14.7134 1746.23C20.4017 1735.65 45.1417 1713.89 58.9084 1679.75C76.0671 1637.02 107.99 1616.46 154.079 1620.85C239.073 1629.03 281.57 1620.05 299.526 1523.41C307.906 1478.29 342.024 1457.12 387.913 1451.14C450.362 1442.95 469.717 1406.01 456.548 1328.34C454.327 1315.34 451.682 1302.38 449.035 1289.4C440.503 1247.59 431.958 1205.7 437.594 1162.42C443.379 1117.9 460.539 1080.16 504.631 1060.59C506.27 1059.85 508.355 1059.77 510.387 1059.7C511.075 1059.67 511.757 1059.65 512.413 1059.59C512.413 1059.93 512.436 1060.31 512.46 1060.71C512.535 1061.96 512.617 1063.34 512.012 1063.79C441.184 1134.27 472.508 1206.95 510.415 1276.63C512.177 1279.86 513.939 1283.09 515.701 1286.32L515.751 1286.41C553.497 1355.58 591.056 1424.4 612.967 1501.05C620.95 1529 646.887 1541.58 674.42 1533.39C703.149 1524.81 726.495 1506.64 721.505 1470.3C721.34 1469.13 721.154 1467.94 720.967 1466.74C719.339 1456.31 717.615 1445.26 728.89 1439.35C739.421 1433.72 747.314 1442.32 753.61 1449.18L753.615 1449.18C754.233 1449.85 754.836 1450.51 755.424 1451.14C775.573 1472.34 796.379 1492.97 817.182 1513.59L817.183 1513.6C884.342 1580.19 951.457 1646.74 996.242 1732.26C1022.38 1782.17 998.837 1845.27 947.757 1868.63C908.719 1886.61 899.377 1924.59 890.55 1960.49C883.993 1987.15 877.719 2012.65 859.77 2027.96C719.425 2147.63 786.922 2166.24 866.094 2188.06C912.68 2200.91 963.307 2214.86 978.015 2251.18C1017.72 2349.21 646.579 2350.82 524.382 2351.01C438.835 2351.15 422.316 2288.37 405.932 2226.1C398.913 2199.43 391.919 2172.85 379.533 2151.35C376.653 2146.41 371.887 2142.69 367.115 2138.97C364.945 2137.28 362.774 2135.59 360.778 2133.78C358.972 2136.09 356.854 2138.31 354.741 2140.54C350.086 2145.44 345.453 2150.31 344.218 2155.94C332.247 2211.25 296.334 2239.6 243.063 2251.18C218.305 2256.58 213.691 2268.11 208.159 2281.92C201.833 2297.72 194.307 2316.52 154.079 2332.59C96.3928 2355.64 65.3149 2354.09 28.7934 2352.26L28.7887 2352.26C17.5718 2351.7 5.84137 2351.12 -7.33125 2351.21C-14.3144 2351.21 -15.711 2349.81 -15.5115 2342.82C-14.7134 2143.96 -14.7134 1945.1 -14.7134 1746.23ZM578.252 1918.54C576.428 1919.01 573.983 1919.35 571.2 1919.74C558.459 1921.53 538.656 1924.31 539.146 1944.3C539.945 1976.44 567.875 1994.61 598.401 1997.61C622.741 2000 631.522 1977.64 632.12 1957.68C633.119 1929.52 616.359 1915.35 578.252 1918.54ZM428.817 1970.05C419.042 1971.65 418.64 1960.67 421.236 1941.51C422.632 1934.52 427.22 1916.75 449.166 1915.75C459.142 1915.15 470.518 1922.94 468.124 1934.72C464.132 1955.08 448.171 1966.66 428.817 1970.05Z" fill="#F5BBBA"/>
<path d="M2899.23 173.811C2982.7 191.702 2895.15 292.6 2911.94 362.641C2920.45 398.044 3019.21 531.568 2985.39 552.018C2941.3 578.929 2926.41 457.299 2795.15 398.412C2738.06 372.797 2687.59 326.058 2641.53 272.266C2595.47 218.474 2661.98 195.402 2731.82 205.88C2801.66 216.359 2815.76 155.921 2899.23 173.811Z" fill="#EC4B43"/>
<path d="M3744.41 2302.91C3713.41 2267.99 3712.41 2218.91 3732.58 2173.04C3759.41 2126.41 3820.79 2104.22 3866.7 2071C3866.7 2162.16 3866.7 2253.33 3866.9 2344.5C3866.9 2350.43 3865.7 2351.62 3859.69 2351.62C3803.15 2351.42 3775.4 2337.83 3744.41 2302.91Z" fill="#F68C22"/>
<path d="M3867 1932.2C3832.92 1913.85 3798.04 1894.29 3794.24 1851.4C3791.03 1815.09 3816.28 1792.95 3845.55 1775.59C3860.39 1766.81 3866.6 1769.4 3865.8 1788.16C3864.79 1809.3 3866.4 1830.45 3867 1851.6C3867 1852.2 3867 1853 3867 1853.59C3867 1854.2 3867 1854.99 3867 1855.59C3867 1880.93 3867 1906.46 3867 1932.2Z" fill="#FEF151"/>
<path d="M2169.68 1378.65C2218.05 1386.06 2264.41 1375.48 2307.94 1394.31C2310.16 1395.37 2311.97 1397.27 2313.99 1398.75C2311.97 1399.81 2309.96 1401.72 2307.94 1401.72C2242.24 1401.29 2176.33 1400.87 2110.62 1399.81C2107.8 1399.81 2105.18 1395.58 2102.56 1393.25C2105.18 1390.93 2107.6 1386.69 2110.62 1386.27C2131.18 1383.31 2152.14 1380.98 2169.68 1378.65Z" fill="#F68C22"/>
<path d="M3201.97 1209.52C3152.55 1140.19 3102.93 1071.05 3054.11 1001.32C2976.99 891.436 2874.76 805.722 2774.72 719.405C2721.72 673.652 2643.2 671.455 2577.64 645.481C2569.47 642.283 2560.7 640.685 2552.73 637.29C2538.38 631.096 2520.85 630.895 2511.28 615.711C2525.43 613.71 2539.58 611.915 2553.73 609.517C2558.51 608.718 2563.09 605.721 2567.88 603.72C2563.29 599.728 2559.31 593.73 2553.93 591.935C2490.16 568.557 2426.79 543.782 2362.23 523.003C2294.07 501.025 2329.94 457.268 2341.1 422.503C2352.86 385.54 2382.95 398.727 2405.07 412.113C2480 457.268 2577.64 452.473 2642.81 512.613C2705.58 570.355 2801.23 608.316 2826.34 687.84C2865.59 812.514 2987.75 853.27 3049.32 951.775C3102.53 1036.49 3161.12 1117.61 3201.97 1209.52Z" fill="#FEF151"/>
<path d="M3282.51 1789.91C3252.94 1791.3 3245.55 1770.56 3246.35 1748.22C3248.55 1688.18 3269.13 1630.14 3266.53 1569.1C3259.34 1397.16 3182.2 1254.15 3085.08 1117.92C3015.53 1020.38 2931.4 935.806 2854.07 845.248C2849.47 839.863 2847.67 831.887 2844.47 825.105C2851.47 827.299 2860.06 827.5 2865.26 831.887C3094.67 1031.95 3262.53 1267.51 3289.31 1580.87C3294.31 1638.31 3280.52 1697.15 3276.72 1755.4C3275.92 1766.57 3280.72 1778.14 3283.12 1789.5L3282.51 1789.91Z" fill="#F5BBBA"/>
<path d="M2945.78 1459.07C2940.38 1452.25 2935.17 1445.22 2929.56 1438.4C2924.56 1432.38 2919.35 1426.76 2914.14 1420.94C2921.15 1425.56 2928.96 1429.17 2934.77 1434.99C2956 1457.06 2978.43 1478.54 2997.05 1502.83C3085.17 1617.42 3064.15 1705.33 2935.97 1773.57C2839.24 1824.95 2732.9 1836.78 2628.16 1856.25C2614.74 1858.66 2594.11 1857.46 2592.11 1872.31C2590.1 1886.36 2609.93 1891.18 2621.95 1897C2732.5 1950.58 2851.66 1962.63 2971.82 1968.65C2998.86 1970.05 3025.69 1971.45 3052.73 1973.06C3055.13 1973.26 3057.34 1975.07 3059.74 1976.27C3057.53 1977.48 3055.33 1979.28 3052.93 1979.69C2862.07 2013.2 2687.84 1960.22 2520.01 1875.52C2514 1872.51 2510.8 1864.28 2506.19 1858.26C2516.21 1854.45 2526.02 1848.23 2536.23 1847.22C2645.58 1837.19 2755.33 1829.56 2860.27 1793.44C2891.31 1782.8 2921.95 1768.35 2949.99 1751.29C3059.14 1685.26 3065.15 1612.41 2972.42 1499.21C2962.81 1487.37 2952.19 1476.53 2942.18 1464.89C2939.37 1461.68 2937.37 1458.07 2934.97 1454.66C2938.57 1456.06 2942.18 1457.47 2945.78 1459.07Z" fill="#EC4B43"/>
<path d="M2856.99 1405.56C2857.8 1405.76 2861.41 1406.36 2865.03 1407.15C2862.42 1408.95 2859.4 1410.73 2856.99 1412.93C2855.39 1414.32 2854.18 1416.31 2852.98 1418.1C2856.19 1419.49 2859.2 1421.08 2862.42 1422.27C2869.25 1424.66 2876.08 1427.05 2882.91 1429.24C2877.49 1432.62 2870.86 1435.01 2866.84 1439.58C2852.98 1456.09 2838.51 1472.6 2826.86 1490.9C2811.59 1514.78 2789.89 1529.89 2765.37 1541.63C2754.92 1546.6 2746.48 1543.82 2744.88 1530.89C2738.85 1488.92 2811.78 1405.56 2856.99 1405.56Z" fill="#EC4B43"/>
<path d="M3251.95 1199.64C3251.75 1200.24 3251.34 1201.03 3251.14 1201.83C3249.93 1200.84 3248.31 1199.84 3247.5 1198.65C3198.13 1128.79 3148.76 1059.12 3099.6 989.061C3098.38 987.473 3098.59 984.896 3098.18 982.713C3100 983.307 3102.23 983.503 3103.44 984.696C3162.52 1049 3209.06 1121.64 3251.14 1197.26C3251.34 1197.86 3251.54 1198.65 3251.95 1199.64Z" fill="#7767F6"/>
<path fill-rule="evenodd" clip-rule="evenodd" d="M1213.11 1141.47V1087.59L1216.23 1094.21C1241.78 1147.68 1283.55 1215.04 1459.07 1330.54C1502.38 1359.04 1622.13 1409.54 1656.49 1428.87L1657.55 1429.47C1716.83 1463.46 1784.76 1481 1843.24 1516.37C2025.73 1626.76 1948.95 1658.7 2094.26 1731.26L2108 1738.07C2146.28 1756.94 2175.17 1770.06 2197.49 1779.06L2194.82 1779.11C2166.47 1779.86 2159.21 1786.91 2169.33 1801.13L2171.39 1803.93L2174.59 1808.24C2185.88 1823.3 2198.28 1838.25 2213.13 1849.07C2336.16 1939.09 2477.29 1987.15 2621.68 2027.83L2635.97 2031.83L2650.28 2035.79C2650.88 2035.99 2651.53 2036.04 2652.18 2036.04L2652.82 2036.03L2654.07 2035.99C2651.67 2034.99 2649.48 2033.6 2647.08 2032.8C2559.45 2007.3 2474.48 1975.16 2393.46 1933.23L2376.14 1924.19C2321.96 1896.13 2265.59 1869.17 2233.49 1813.96C2225.9 1800.7 2218.59 1790.72 2212.63 1784.9C2282.3 1810.52 2275.33 1787.64 2324.88 1793.19C2326.23 1795.74 2327.83 1797.96 2329.9 1799.59C2359.64 1823.33 2390.98 1844.88 2421.12 1868.02C2426.51 1872.21 2428.91 1879.99 2432.9 1885.97L2425.14 1889.82C2423.43 1890.68 2421.73 1891.57 2420.04 1892.51L2417.53 1893.96C2413.74 1896.15 2407.55 1899.14 2407.55 1901.93C2407.55 1905.92 2410.94 1911.51 2414.54 1914.1C2460.74 1947.43 2512.86 1968.94 2566.18 1986.75L2569.99 1988.01L2577.62 1990.51C2710.61 2033.65 2844.32 2061.08 2978.41 2057.2L2990.97 2059.49C2993.31 2059.92 2995.33 2060.31 2997.01 2060.64L2998.57 2060.95C3137.09 2089.25 3218.12 2050.4 3356.07 1989.67C3421.67 1960.78 3459.39 1902.55 3537.77 1929.3C3530.22 1938.06 3522.39 1946.53 3514.2 1954.6C3381.86 2084.87 3214.38 2119.78 3037.13 2123.37C2943.11 2125.16 2849.69 2114.2 2756.67 2099.03C2752.88 2098.43 2748.89 2098.83 2744.9 2098.83C2746.29 2099.63 2747.49 2100.63 2749.09 2101.03C2911.77 2141.52 3078.45 2162.67 3239.93 2209.15C3305.2 2227.91 3359.1 2178.43 3419.58 2165.26C3492.44 2149.51 3617.62 2160.35 3609.24 2229.98C3607.05 2251.73 3598.1 2285.27 3598.1 2285.27C3573.15 2308.74 3480.58 2314.89 3419.58 2314.89C3358.59 2314.89 3290.38 2308.74 3235.54 2295.93C3180.7 2283.12 2857.28 2175.04 2665.65 2122.17C2649.28 2117.58 2632.71 2113.99 2616.35 2110L2631.1 2117.75C2640.92 2122.9 2650.68 2128.09 2660.26 2133.54C2667.84 2137.73 2674.83 2143.12 2682.02 2148.11C2673.23 2146.51 2663.85 2146.31 2655.67 2143.32C2491.99 2086.87 2337.69 2010.86 2187.38 1925.48C2007.33 1823.13 1850.64 1685.48 1670.58 1583.14C1652.89 1573.09 1633.62 1565.99 1614.9 1557.79L1610.9 1556.01C1540.18 1516.37 1474.42 1415.25 1344.65 1343.69C1276.29 1305.99 1213.11 1174.04 1213.11 1141.47Z" fill="#FEF151"/>
<path fill-rule="evenodd" clip-rule="evenodd" d="M1944.85 1584.14C1984.79 1619 2034.59 1645.79 2094.26 1664.51C2152.52 1671.52 2288.94 1720.91 2367.3 1769.32C2359.29 1768.56 2351.29 1767.87 2343.28 1767.28C2334.9 1766.68 2326.11 1772.06 2317.53 1774.86C2321.52 1783.24 2323.32 1794.41 2329.9 1799.59C2359.65 1823.33 2390.99 1844.88 2421.13 1868.02C2426.52 1872.21 2428.91 1879.99 2432.9 1885.97L2425.14 1889.82C2423.43 1890.68 2421.73 1891.57 2420.05 1892.51L2417.54 1893.96C2413.74 1896.15 2407.56 1899.14 2407.56 1901.93C2407.56 1905.92 2410.95 1911.51 2414.54 1914.1C2460.74 1947.43 2512.86 1968.95 2566.18 1986.75L2569.99 1988.02L2577.62 1990.51C2798.4 2062.13 3021.16 2090.46 3244.33 2004.08C3253.24 2000.62 3261.87 1996.99 3270.23 1993.19L3280.49 1991.31C3389.35 1971.2 3477.17 1948.25 3554.41 1827.03L3556.82 1823.21C3557.64 1821.89 3558.47 1820.6 3559.3 1819.31L3559.92 1818.35C3572.65 1807.43 3579.88 1779.39 3598.64 1795.01C3619.29 1812.3 3605.6 1837.57 3592.81 1856.6L3592.25 1857.43L3590.05 1860.64C3566.9 1893.55 3542.75 1926.47 3514.2 1954.6C3412.64 2054.58 3290.38 2098.39 3158.89 2114.98L3141.89 2113.83C3008.53 2104.57 2870.73 2090.27 2745.19 2063.69L2737.2 2061.98C2718.59 2057.94 2685.98 2047.86 2647.17 2034.93L2650.28 2035.79C2650.88 2035.99 2651.53 2036.04 2652.18 2036.04L2652.83 2036.03L2654.07 2035.99C2651.68 2035 2649.48 2033.6 2647.09 2032.8C2559.45 2007.3 2474.48 1975.17 2393.46 1933.23L2376.15 1924.19C2321.96 1896.13 2265.6 1869.17 2233.49 1813.96L2231.89 1811.2C2219.93 1790.93 2208.88 1779.05 2202.95 1779.05L2200 1779.03C2176.88 1779.05 2165.75 1782.58 2165.04 1790L2162.22 1787.93C2114.92 1753.72 1975.76 1674.58 1944.85 1584.14Z" fill="#F5BBBA"/>
<path fill-rule="evenodd" clip-rule="evenodd" d="M1406.38 590.665L1414.55 595.238C1415.65 598.079 1414.45 603.139 1411.49 603.85L1403.18 608.159C1358.78 613.98 1313.96 621.883 1268.77 631.765C1109.69 666.525 953.737 725.53 845.465 862.588L841.378 867.81C823.973 889.701 796.829 908.136 767.943 900.284C677.883 875.717 587.438 892.774 497.371 893.097L490.703 893.096L485.592 893.062C442.344 892.611 404.128 887.934 363.149 865.514L358.747 863.083C338.155 851.999 317.777 847.941 297.68 848.646C456.843 806.378 613.94 760.477 764.854 693.873C828.758 665.669 903.251 613.334 974.625 593.051C981.456 591.11 988.573 597.434 995.627 596.617L1025.08 593.153C1129.33 580.733 1139.42 578.194 1249.8 585.818C1301.9 589.417 1387.52 541.971 1406.38 590.665Z" fill="#64DAFB"/>
<path fill-rule="evenodd" clip-rule="evenodd" d="M1161.99 525.323C1198.28 554.242 1156.77 561.322 1210.83 565.115C1240.82 567.219 1271.05 561.204 1301 563.735C1304.12 563.999 1305.63 571.179 1303.02 572.907L1297.1 581.071C1254.52 609.255 1191.42 583.919 1149.57 587.359C1058.78 594.823 992.771 639.11 918.358 692.406C875.086 723.399 829.31 800.792 798.498 836.251C778.23 859.574 755.194 877.742 730.314 892.291C652.989 880.186 575.462 892.728 498.211 893.094L490.706 893.096L485.595 893.062C442.347 892.611 404.131 887.934 363.152 865.514L358.75 863.083C353.38 860.193 348.024 857.78 342.684 855.804C379.71 851.748 422.201 837.623 449.182 827.726L458.73 824.239C546.864 792.19 651.262 757.475 733.988 704.66C770.118 681.593 803.543 654.425 839.942 631.787C860.43 619.044 884.626 612.645 904.327 598.718C976.266 547.863 921.744 557.866 994.847 532.754L998.975 531.356C1043.73 516.397 1125.06 495.894 1161.99 525.323Z" fill="#F5BBBA"/>
<path fill-rule="evenodd" clip-rule="evenodd" d="M2501.04 820.536C2516.5 826.978 2532.31 832.736 2548.58 837.605L2557.84 840.312C2636.43 863.423 2709.58 897.196 2775.24 945.967L2781.95 950.979C2891.05 1033.2 2979.55 1132.7 3033.74 1260.17C3034.2 1261.27 3034.48 1262.46 3034.62 1263.7C3034.67 1264.86 3034.71 1265.96 3034.72 1267.02C3034.53 1272.02 3033.01 1277.63 3032.74 1282.71C3025.15 1281.31 3015.97 1282.11 3010.38 1277.92C2959.48 1242.01 2910.38 1203.71 2858.48 1169.2C2847.13 1161.64 2836.59 1155.6 2826.74 1151.1L2830.92 1148.92C2842.34 1142.88 2858.61 1133.54 2877.83 1118.96L2879.65 1117.55C2897.88 1103.12 2899.55 1092.02 2880.68 1079.93C2848.79 1059.51 2814.06 1043.78 2782.05 1023.55C2767.65 1014.44 2756.86 999.967 2741.73 992.112C2668.65 954.153 2572.61 888.758 2502.7 822.126L2501.04 820.536Z" fill="#EC4B43"/>
<path fill-rule="evenodd" clip-rule="evenodd" d="M1638.32 917.375L1645.01 915.557L1644.87 915.629C1597.57 939.316 1562.07 986.462 1635.46 1032.81C1680.49 1061.24 1734.83 1071.43 1782.84 1094.48C1797.05 1101.31 1792.35 1120.42 1778.65 1125.02C1762.15 1130.55 1746.17 1133.72 1730.62 1134.79L1730.55 1134.63C1729.11 1131.61 1728.04 1128.15 1726.81 1124.9C1726.23 1123.34 1725.6 1121.82 1724.89 1120.42C1724.59 1119.84 1724.28 1119.27 1723.94 1118.73C1723.12 1117.41 1722.19 1116.26 1721.09 1115.33L1708.59 1105.25C1683.89 1085.33 1659.15 1065.53 1633.35 1047.25L1626.45 1042.43L1620.96 1038.6L1616.9 1035.73C1612.94 1032.91 1609.27 1030.25 1605.9 1027.7C1604.82 1026.89 1603.77 1026.09 1602.76 1025.3L1599.97 1023.11L1598.06 1021.56L1595.72 1019.61L1593.58 1017.77C1592.45 1016.78 1591.38 1015.8 1590.37 1014.84C1589.42 1013.95 1588.53 1013.07 1587.68 1012.2L1586.68 1011.16C1586.21 1010.66 1585.76 1010.17 1585.33 1009.68C1584.61 1008.88 1583.93 1008.07 1583.28 1007.27L1582.35 1006.08L1581.82 1005.36L1580.91 1004.07L1580.31 1003.16L1579.84 1002.4L1579.26 1001.42L1578.67 1000.34L1578.21 999.431L1577.61 998.103L1577.24 997.21L1576.92 996.347L1576.77 995.907C1576.34 994.622 1576.01 993.325 1575.78 992.012L1575.64 991.134L1575.52 990.197L1575.44 989.277L1575.4 988.439L1575.38 987.269L1575.42 985.806L1575.53 984.361L1575.65 983.325L1575.78 982.428L1575.94 981.546L1576.25 980.054L1576.54 978.876L1576.65 978.457L1576.95 977.392L1577.29 976.311L1577.57 975.482L1577.98 974.322L1578.43 973.144C1578.77 972.275 1579.14 971.391 1579.54 970.491C1580.52 968.288 1581.67 965.993 1582.98 963.589L1583.77 962.171L1584.99 960.051L1586.3 957.866L1586.98 956.761L1588.8 953.882L1591.26 950.122L1592.84 947.782L1594.7 945.077L1597.12 941.622L1600.18 937.34L1603.27 933.09L1606.31 928.976C1615.66 923.824 1625.32 920.931 1638.32 917.375Z" fill="#EC4B43"/>
<path fill-rule="evenodd" clip-rule="evenodd" d="M2078.54 1208.13L2086.63 1204.03C2115.19 1247 2057.22 1235.15 2017.38 1237.08C1989.28 1238.44 1960.11 1243.99 1931.23 1248.16L1935.97 1247.17L1945.25 1245.2C1949.05 1244.41 1952.64 1241.61 1956.23 1239.82C1952.04 1238.02 1947.85 1234.43 1943.66 1234.63C1875.3 1235.04 1810.18 1222.24 1747.25 1200.49L1736.63 1193.81C1773.03 1198.58 1809.15 1206.59 1845.84 1208.13C1923.34 1211.37 2035.59 1143.53 2078.54 1208.13Z" fill="#F5BBBA"/>
<path fill-rule="evenodd" clip-rule="evenodd" d="M2515.98 834.828C2555.46 866.4 2601.55 889.554 2625.62 906.646L2626.93 907.589C2650.89 924.975 2680.04 944.929 2703.33 963.195C2719.27 975.694 2736.49 986.608 2754.18 996.477L2761.34 1000.46C2795.22 1019.21 2819.09 1031.46 2853.1 1053.43C2868.08 1063.1 2896.21 1088.49 2907.12 1102.59L2907.86 1103.57C2916.32 1115.09 2935.96 1151.02 2920.87 1165.21C2912.12 1173.45 2872.77 1159.7 2831.33 1153.29C2798.34 1136.98 2772.93 1137.19 2751.09 1154.74C2773.99 1120.84 2800.81 1106.97 2831.57 1113.12C2844.36 1115.67 2856 1130.4 2868.4 1126.34C2875.89 1123.89 2868.27 1110.15 2864.05 1103.07L2863.76 1102.59C2856.69 1090.79 2847.19 1080.02 2835.91 1072.15L2824.49 1064.19C2724.71 994.842 2606.24 915.312 2515.98 834.828Z" fill="#F5BBBA"/>
<path fill-rule="evenodd" clip-rule="evenodd" d="M2574.85 883.981L2581.8 892.055C2608.65 923.101 2642.21 959.833 2674.99 984.234C2705.23 1006.75 2795.55 1016.63 2831.66 1060.06C2839.14 1069.05 2843.79 1090.24 2833.15 1095.12C2819.21 1101.51 2804.89 1075.49 2789.99 1079.15C2775.85 1082.63 2774.6 1105.41 2761.96 1112.63C2753.08 1117.7 2733.69 1122.6 2731.28 1112.66C2727.85 1098.53 2747.91 1088.39 2752.74 1074.67C2754.98 1068.29 2756.97 1058.72 2751.77 1054.4C2735.46 1040.84 2696.02 1030.69 2662.18 1001.3C2628.33 971.909 2603.47 935.873 2574.85 883.981Z" fill="#FEF151"/>
<path fill-rule="evenodd" clip-rule="evenodd" d="M1790.57 586.705L1841.21 598.455C1984.23 631.746 1885.58 610.979 2038.71 676.786L2043.91 679.011C2215.99 752.432 2236.88 743.167 2365.54 885.015L2376.05 896.666C2407.57 931.87 2468.78 1003.35 2468.07 1049.59C2467.85 1062.63 2450.38 1070.58 2448.48 1083.48C2445.72 1102.16 2462.3 1122.48 2454.73 1139.78C2450.87 1148.58 2437.3 1130.61 2431.04 1123.31C2411.69 1100.78 2397.38 1074.23 2378.61 1051.23L2376.41 1047.31L2376.61 1047.11L2378.57 1046.82C2439.92 1037.55 2414.07 1002.5 2397.75 975.776L2396.76 974.151L2393.99 969.486C2374.88 937.346 2353.39 904.905 2325.91 880.531C2018.3 608.223 1657.41 546.781 1268.76 631.766C1177.74 651.655 1087.74 679.483 1007.11 725.328C1152.04 620.03 1316.33 598.635 1516.98 581.72L1529.31 580.689C1596.18 575.143 1711.54 568.382 1790.57 586.705Z" fill="#F68C22"/>
</g>
<defs>
<clipPath id="clip0">
<rect width="3840" height="2612" fill="white"/>
</clipPath>
</defs>
</svg>
