<svg width="3840" height="2160" viewBox="0 0 3840 2160" fill="none" xmlns="http://www.w3.org/2000/svg">
<g clip-path="url(#clip0)">
<path d="M3379.44 40.3965C3431.9 51.3612 3465.86 95.9437 3530.94 59.2425C3596.03 22.5413 3737.99 111.827 3817.27 111.329C3835.27 108.128 3840.35 113.261 3839.98 127.92L3839.92 129.588C3838.13 172.247 3839.32 214.906 3839.32 257.565L3835.85 258.275C3782.84 269.332 3736.22 288.308 3718.71 335.746C3708.38 363.466 3701.23 392.015 3683.54 417.578C3680.36 422.059 3681.16 428.533 3680.17 434.011C3686.52 434.011 3693.08 435.173 3699.04 434.011C3745.34 425.047 3788.45 401.975 3839.12 412.1V1069.41C3775.74 1072.9 3730.24 1040.86 3726.66 988.743C3724.67 960.858 3729.05 932.475 3724.48 905.087C3716.13 853.13 3667.45 838.523 3570.88 856.121C3388.14 889.314 3358.07 985.466 3411.66 1100.93L3413.74 1105.31C3415.77 1109.44 3419.33 1115.4 3425.01 1108.76L3425.43 1108.25C3462.22 1062.61 3513.32 1068.5 3563.2 1076.9L3581.61 1080.04C3631.29 1088.34 3667.65 1112.57 3677.19 1157.89L3680.6 1174.25C3686.88 1204.23 3693.37 1234.18 3701.23 1263.84L3703.41 1271.92C3717.97 1324.67 3702.73 1345.04 3638.8 1353.5L3632.79 1354.29C3604.38 1358.17 3576.78 1364.94 3567.1 1390.77C3553.19 1428.28 3542.86 1466.95 3530.94 1504.97C3545.84 1498.16 3552.6 1469.44 3572.87 1483.55C3594.92 1498.99 3577.63 1522.07 3564.32 1538.16C3541.27 1565.55 3517.23 1592.94 3488.82 1616.35C3357.08 1724.74 3190.38 1753.78 3013.94 1756.77C2920.35 1758.26 2827.36 1749.14 2734.76 1736.52C2730.99 1736.02 2727.01 1736.36 2723.04 1736.36C2724.43 1737.02 2725.62 1737.85 2727.21 1738.18C2889.15 1771.88 3055.07 1789.47 3215.81 1828.15C3280.78 1843.75 3334.43 1802.59 3394.64 1791.63C3467.16 1778.52 3581.21 1810.69 3572.87 1868.62C3570.29 1890.03 3639.83 1895.81 3564.32 1916.13C3513.99 1929.67 3440.22 1933.88 3343.02 1928.73C3261.16 1928.73 3228.33 1905.83 3211.44 1900.35C3026.45 1840.93 2834.91 1799.76 2644.16 1755.77C2627.87 1751.96 2611.37 1748.97 2595.08 1745.65L2609.77 1752.09C2619.54 1756.38 2629.26 1760.7 2638.79 1765.24C2646.34 1768.72 2653.3 1773.2 2660.45 1777.35C2651.71 1776.02 2642.37 1775.86 2634.22 1773.37C2471.29 1726.4 2317.7 1663.15 2168.08 1592.11C1988.86 1506.96 1832.88 1392.43 1653.66 1307.27C1634.78 1298.31 1614.11 1292.17 1594.24 1284.7C1600.01 1304.95 1620.07 1315.74 1637.56 1326.86C1843.21 1456 2056.21 1576.18 2276.17 1687.89C2404.33 1752.95 2469.68 1798.16 2630.85 1917.95C2792.02 2037.73 3279.66 1984.73 3314.94 2078.95C3350.22 2173.18 3015.52 2168.24 2766.18 2147.85C2702.35 2142.63 2529.84 2071.65 2493.06 2014.51C2342.9 1781.23 2234.36 1729.5 2140.1 1678.29L2117.2 1665.88L2111.48 1662.74C2020.87 1612.6 2061.92 1616.15 1941.45 1538.41C1912.92 1520 1882.36 1504.95 1850.84 1491.4L1832.36 1481.31L1850.44 1491.23C1764.7 1454.45 1671.85 1428.79 1593.18 1377.3C1520.61 1329.79 1497.38 1247.74 1434.14 1192C1405.5 1166.76 1314.15 1126.13 1283.08 1107.18L1283.36 1107.51C1281.73 1105.62 1280 1103.81 1278.12 1102.11L1270.5 1095.15L1259.02 1074.96C1235.09 1032.63 1212.03 989.822 1195.72 945.127C1190.43 930.647 1194.41 914.867 1197.38 899.732L1197.68 898.169L1198.27 894.951C1204.39 860.237 1205.95 823.845 1222.76 791.693C1234.98 768.333 1262.22 747.56 1295.16 731.499L1297.18 730.521L1309.6 726.407C1340.5 716.23 1371.53 706.638 1404.29 701.252C1406.56 700.859 1408.68 699.846 1410.75 698.558C1428.85 696.805 1445.71 697.01 1459.97 699.48C1480.18 702.982 1471.64 728.546 1464.29 736.847L1462.96 738.318C1458.5 743.159 1451.77 749.713 1444.14 757.387L1439.22 762.374C1440.56 759.892 1441.96 757.389 1443.43 754.867C1448.6 746.07 1438.27 740.424 1429.72 740.093C1370.71 738.435 1321.04 757.854 1288.65 797.526C1258.52 834.71 1268.7 874.437 1295.58 911.266L1297.39 913.717C1301.76 919.694 1309.51 923.512 1314.68 915.212C1333.96 883.991 1352.84 894.898 1371.72 914.282L1372.3 914.878C1401.11 944.756 1428.73 976.296 1466.88 998.037C1585.13 1065.49 1709.58 1125.62 1827.82 1192.01L1843.21 1200.71C1957.26 1265.61 2077.08 1314.91 2201.86 1359.73L2210.45 1362.79C2350.75 1412.49 2493.71 1447.79 2647.74 1411.68C2713.7 1396.25 2777.88 1375.5 2843.05 1357.74C2849.81 1355.91 2858.15 1357.9 2865.9 1358.07C2859.54 1361.72 2853.78 1366.87 2846.83 1369.02C2768.34 1392.59 2689.46 1415.5 2610.98 1438.9C2605.81 1440.4 2601.44 1444.38 2596.87 1447.2C2601.44 1449.69 2605.61 1452.68 2610.38 1454.67C2615.94 1457 2621.9 1458.82 2627.67 1460.81C2620.51 1463.47 2613.76 1467.29 2606.41 1468.45C2511.23 1483.55 2417.45 1466.29 2323.26 1460.48C2314.92 1459.98 2306.18 1464.47 2297.63 1466.79C2301.6 1473.76 2303.39 1483.06 2309.95 1487.37C2339.56 1507.12 2370.75 1525.05 2400.76 1544.31C2406.12 1547.79 2408.51 1554.27 2412.48 1559.24L2404.75 1562.44C2403.05 1563.16 2401.35 1563.9 2399.68 1564.68L2397.18 1565.89C2393.41 1567.71 2387.25 1570.2 2387.25 1572.52C2387.25 1575.84 2390.62 1580.49 2394.2 1582.65C2443.48 1612.36 2499.51 1630.79 2556.53 1646.23C2776.29 1705.81 2998.04 1729.38 3220.18 1657.51C3358.47 1612.69 3429.21 1532.36 3422.25 1434.09C3417.18 1361.99 3379.29 1296.46 3357.23 1227.73L3356.09 1224.11C3314.36 1090.33 3242.24 965.006 3192.96 833.214L3191.56 829.388C3176.93 788.571 3171.49 747.855 3111.4 734.848L3109.51 734.45C3085.44 729.587 3065.17 716.646 3050.9 699.031L3046.89 693.973C3038.49 683.269 3030.68 671.76 3037.78 658.262C3044.97 644.619 3061.86 645.118 3076.35 642.506L3077.32 642.327C3098.18 638.51 3119.64 635.519 3139.51 629.379L3147.77 626.897C3162.02 622.556 3177.56 616.792 3178.06 603.649C3178.65 588.215 3156.2 586.389 3141.9 580.412L3130.83 575.764C3116.06 569.496 3101.72 562.486 3093.61 549.206C3069.97 509.701 3093.41 446.792 3144.88 406.291C3176.87 381.226 3226.54 367.947 3238.66 329.438L3240.01 325.085C3261.51 254.057 3271.8 152.186 3293.42 112.536L3295.44 108.954C3317.06 70.112 3328.02 29.651 3379.44 40.3965ZM705.673 1047.17C709.448 1049.33 712.823 1052.32 716.003 1055.14L724.085 1062.63C810.995 1143.53 892.268 1230.12 1021.4 1268.6C1026.17 1270.09 1038.89 1289.18 1042.47 1266.77C1042.47 1266.61 1048.23 1266.11 1050.21 1267.1L1073.89 1279.37C1087.03 1286.19 1100.14 1293.07 1113.04 1300.17L1120.75 1304.45C1181.35 1338.44 1244.9 1368.35 1308.66 1397.96L1325.71 1405.87C1381.56 1452.65 1432.54 1502.74 1465.36 1563.73L1467.41 1567.6L1469.07 1570.84C1483.54 1599.41 1525.62 1690.36 1529.5 1728.71C1536.27 1795.48 1533.92 1858.08 1541.91 1920.4L1542.81 1927.08H1170.82C1185.62 1900.63 1208.73 1879.34 1232.8 1858.77L1237.19 1855.04C1294.23 1806.39 1299.48 1777.28 1258.32 1741.91L1257.06 1740.84C1246.53 1731.87 1231.23 1723.9 1236.59 1708.8C1242.04 1693.52 1258.91 1689.7 1275.1 1686.75L1276.13 1686.56C1296.8 1682.74 1335.34 1681.58 1335.94 1676.77C1340.71 1634.27 1355.61 1588.79 1326.6 1549.29C1265.4 1465.79 1164.07 1419.98 1070.28 1368.03L1061.29 1363.03C916.064 1282.12 778.222 1194.81 679.31 1071.74L676.263 1067.92C669.113 1058.96 655.998 1046.51 668.913 1037.38C681.828 1028.25 694.348 1040.86 705.673 1047.17ZM1346.47 1698.18L1349.49 1707.48C1355.04 1724.2 1361.66 1738.46 1386.21 1740.01C1399.52 1740.84 1409.06 1733.7 1407.27 1722.41C1403.3 1698.35 1379.25 1694.53 1356.21 1691.21C1353.42 1690.87 1349.45 1695.86 1346.47 1698.18ZM2150.14 1488.67L2153.75 1492.77C2165.42 1505.91 2178.23 1519.11 2193.71 1528.54C2324.26 1608.38 2475.27 1648.55 2628.86 1683.9C2630.05 1684.24 2631.44 1684.07 2632.63 1684.07C2630.25 1683.24 2628.06 1682.08 2625.68 1681.41C2538.45 1660.2 2453.86 1633.46 2373.22 1598.56L2355.98 1591.04C2302.04 1567.7 2245.94 1545.27 2213.98 1499.32L2212.39 1497.03C2200.48 1480.17 2189.48 1470.28 2183.58 1470.28L2180.81 1470.26C2148.18 1470.27 2139.42 1476.11 2150.14 1488.67ZM77.9888 111.329L80.3716 121.457C87.5903 151.437 97.516 179.761 146.848 177.641L156.944 177.122C181.789 175.89 206.344 175.462 229.41 184.099L231.383 184.862C328.744 223.371 435.446 210.756 537.576 222.043C599.172 228.849 638.712 187.518 661.563 111.329C1006.3 111.329 763.493 184.862 1108.23 184.862C1133.07 191.501 1260.24 197.311 1377.66 197.311C1429.72 197.311 1499.57 217.121 1562.05 249.265C1597.32 267.407 1647.41 266.128 1690.07 278.812C1712.85 285.584 1741.32 305.435 1760.75 314.499C1788.9 327.63 1806.17 330.803 1823.59 339.082L1824.93 339.729C1990.64 420.732 2176.23 464.885 2348.3 534.102C2352.67 535.928 2358.24 535.761 2363.4 536.425C2360.02 532.774 2356.85 529.123 2353.47 525.469C2340.15 510.699 2304.59 499.576 2316.71 482.146C2328.83 464.885 2362.41 477.831 2382.28 485.8C2513.02 538.084 2640.18 595.019 2754.24 671.374C2943 797.857 3100.37 943.595 3181.24 1138.13L3183.09 1142.67C3210.52 1210.79 3220.71 1280.8 3190.77 1351.6C3154.21 1437.91 3072.35 1498.66 2991.48 1546.96C2910.81 1595.27 2803.51 1572.19 2709.13 1544.47C2702.77 1542.65 2698.4 1535.51 2693.04 1531.03C2699.4 1526.55 2705.16 1520.24 2712.51 1518.08C2782.45 1497.17 2854.78 1481.9 2920.74 1451.85C3025.86 1404.05 3063.21 1338.65 3023.08 1267.1C2992.87 1213.33 2948.16 1168.84 2892.53 1132.49C2847.03 1102.95 2801.13 1103.28 2760.99 1140.12C2730.59 1168.01 2701.98 1197.39 2673.37 1226.77C2663.23 1237.06 2642.97 1247.36 2652.9 1261.8C2662.44 1275.57 2685.09 1270.76 2701.38 1268.43C2722.84 1265.45 2726.22 1272.91 2724.23 1287.52C2723.64 1291.34 2724.83 1295.32 2725.23 1299.31C2729.4 1297.15 2733.77 1295.32 2737.74 1293C2748.87 1286.2 2760 1279.22 2771.12 1272.25C2775.69 1288.02 2764.37 1299.48 2755.23 1311.26C2750.66 1317.24 2743.9 1322.54 2737.15 1326.86C2617.14 1401.56 2485.6 1400.39 2347.7 1371.51C2133.71 1326.86 1959.25 1216.15 1769.1 1132.16C1699.37 1101.38 1635.5 1060.8 1571.28 1022.08L1557.04 1013.53L1551.99 1010.46C1557.15 1007.7 1561.54 1003 1560.83 997.553L1558.45 996.085C1618.36 1033.18 1683.61 1064.64 1742.4 1102.81L1749.43 1107.43C1799.7 1140.96 1879.77 1116.89 1915.74 1172.33C1904.01 1134.15 1877.98 1112.24 1827.52 1117.05C1821.36 1117.72 1814 1115.56 1808.04 1113.07L1792.77 1106.41C1677 1055.75 1563.5 1001.58 1478.8 916.04C1426.15 862.925 1438.07 800.843 1498.67 753.706C1530.17 729.153 1566.87 711.738 1602.67 692.614L1606.36 690.63C1617.69 684.486 1636.17 679.34 1633.59 666.395C1631.45 655.665 1619.07 653.192 1607.23 651.639L1600.1 650.735C1598.99 647.907 1597.23 645.322 1594.32 643.989C1575.55 635.378 1529.78 633.984 1511.75 636.599C1494.05 639.167 1476.72 641.539 1459.7 643.797L1451.22 644.917L1434.42 647.109L1436.82 646.943C1407.94 648.914 1379.07 651.615 1350.18 653.967L1335.74 655.109C1308.99 657.078 1266.85 668.973 1270.25 626.048L1270.37 624.73C1273.15 596.514 1256.86 596.181 1235.8 603.649C1160.25 630.337 1103.44 670.616 1066.53 724.977L1065.92 725.894L1063.28 726.974L1060.64 728.065L1054.84 730.505L1054.53 730.638C1108.41 645.509 1222.94 571.369 1328.38 563.371L1331.57 563.149C1342.3 562.485 1357 558.5 1361.57 567.798C1364.15 572.944 1353.62 582.735 1348.65 590.207C1342.89 598.507 1331.77 606.306 1337.53 616.597C1343.29 626.889 1357.2 625.891 1368.92 625.728C1393.76 625.227 1418.4 624.233 1443.23 623.072L1451.91 622.693C1541.54 618.843 1630.94 617.04 1718.37 638.45L1725.69 640.275C1736.77 642.97 1750.04 645.885 1750.22 657.097C1750.22 669.051 1734.53 671.871 1723.2 675.522C1662.8 695.609 1600.2 711.377 1545.96 742.583C1467.28 788.065 1438.07 844.998 1480.39 894.958C1564.24 993.889 1687.24 1050.32 1820.56 1090.33C1862.88 1102.95 1910.97 1082.19 1956.07 1093.98L1957.74 1094.43C1975.21 1099.29 1983.51 1105.86 1967.75 1120.67L1967 1121.37C1945.34 1141.29 1947.13 1161.54 1970.78 1179.63C2008.14 1208.08 2055.05 1222.04 2100.84 1236.96L2112.76 1240.86C2213.86 1274.15 2313.83 1311.07 2423.65 1320.32L2430.82 1320.91C2445.42 1322.26 2465.76 1325.59 2469.14 1310.57L2469.31 1309.76C2472.02 1294.2 2480.8 1288.45 2494.36 1283.4L2495.34 1283.04C2516.6 1275.24 2537.86 1267.61 2558.92 1259.8C2563.49 1258.14 2567.46 1255.49 2571.83 1253.5C2567.26 1254.16 2562.49 1254.49 2557.92 1255.32L2553.11 1256.27C2529.85 1260.8 2506.4 1264.21 2482.42 1260.63C2478.45 1260.13 2474.87 1257.98 2471.09 1256.65C2474.87 1255.15 2478.45 1252.66 2482.42 1252.17C2583.92 1240.34 2658.94 1194.99 2718.85 1127.73L2723.53 1122.45C2754.66 1087.69 2790.73 1056.58 2852.99 1071.08C2980.55 1100.62 3099.37 1278.56 3061.82 1383.8C3059.44 1390.44 3060.23 1397.91 3059.44 1405.04C3068.38 1402.55 3078.71 1401.89 3085.86 1397.41C3156 1354.08 3173.49 1292.67 3164.15 1224.78C3141.9 1065.1 3032.41 943.929 2904.25 833.878C2774.5 722.5 2604.22 666.892 2438.71 601.824C2065.55 455.091 1668.16 377.74 1275.54 286.115L1267.73 284.246C1251.94 280.588 1231.43 277.11 1225.86 289.103C1220 301.507 1245.46 308.455 1260.47 314.208L1261.23 314.499C1345.92 347.471 1436.33 363.466 1527.48 376.771L1537.61 378.239C1781.02 413.096 2017.67 465.548 2238.62 560.66C2335.31 602.353 2421.78 660.478 2527.67 686.958L2532.49 688.14C2612.37 707.392 2686.68 735.778 2753.24 777.109L2759.92 781.28C2868.52 849.695 2956.62 932.481 3010.56 1038.54C3013.14 1043.69 3009.96 1050.99 3009.56 1057.3C3002.01 1056.13 2992.87 1056.8 2987.31 1053.31C2936.64 1023.44 2887.76 991.567 2836.1 962.85C2765.76 923.675 2726.42 933.47 2690.65 997.043C2679.33 1017.29 2670.19 1038.54 2660.45 1059.29L2658.18 1064.05L2655.88 1068.79C2633.25 1115.08 2605.98 1158.2 2544.41 1177.47C2523.75 1183.95 2501.69 1187.1 2480.43 1191.75C2509.05 1194.4 2535.67 1189.09 2561.3 1178.97L2565.86 1177.17C2568.9 1175.98 2571.9 1174.76 2574.81 1173.32C2642.97 1140.96 2662.44 1081.36 2691.25 1027.25C2729 956.209 2776.09 944.589 2851.6 990.239C2927 1035.89 2991.46 1091.3 3054.06 1148.29L3062.22 1155.73C3068.38 1161.37 3080.3 1169.01 3086.26 1167.35C3097.79 1164.19 3093.61 1152.74 3092.42 1144.28C3086.66 1097.8 3061.23 1057.13 3037.78 1015.96L3038.38 1015.47C3086.66 1074.89 3117.26 1139.29 3119.24 1211.83C3119.44 1219.47 3114.87 1232.41 3108.91 1234.07C3097.45 1237.32 3090.93 1226.45 3084.89 1219.14L3084.47 1218.64C3035 1158.38 2979.96 1102.44 2914.78 1053.31C2794 962.44 2755.99 967.386 2692.39 1088.29L2688.38 1095.95C2668.51 1133.45 2644.27 1168.18 2602.23 1191.91C2513.81 1241.88 2294.05 1233.58 2209.81 1176.97C2206.03 1174.48 2201.26 1167.18 2202.06 1166.68L2203.67 1165.4C2208.32 1161.73 2213.85 1157.82 2219.54 1157.22C2249.94 1153.57 2280.94 1151.91 2311.34 1148.09L2314.26 1147.73C2361.7 1141.98 2416.51 1142.24 2438.71 1099.95C2459.91 1059.82 2426.08 1025.09 2400.6 992.971L2398.97 990.903C2361.99 943.423 2306.32 910.119 2259.98 869.461L2257.1 866.91C2159.53 779.649 2031.39 740.872 1891.18 729.636L1886.93 729.304C1795.33 722.333 1704.72 724.158 1626.43 773.292C1603.48 787.716 1599.7 804.89 1626.21 817.947L1627.23 818.44C1665.79 836.846 1698.89 865.011 1752.95 836.097L1754.59 835.203C1793.94 813.461 1840.03 839.521 1881.36 852.8C1885.93 854.292 1891.3 853.794 1896.26 854.292C1893.48 851.639 1890.9 848.485 1887.52 846.326C1867.85 834.375 1848.18 822.755 1828.31 810.972V809.31C1833.76 794.508 1850.28 794.372 1863.66 793.122L1864.47 793.044C2070.52 772.628 2268.82 876.371 2382.68 994.387C2384.46 996.212 2385.06 998.868 2386.05 1001.19C2383.47 999.866 2380.49 998.868 2378.3 997.377L2371.98 992.927C2306.62 947.052 2238.56 904.547 2156.94 880.821L2151.15 879.162C2130.89 873.252 2104.3 863.305 2090.99 881.35C2076.48 901.102 2087.81 925.5 2106.29 942.433C2151.99 984.759 2217.16 1004.85 2269.81 1039.37C2286.31 1050.16 2298.43 1067.92 2295.05 1083.52C2291.47 1100.62 2266.44 1100.95 2248.35 1100.45C2111.45 1096.97 1978.52 1066.92 1839.24 1068.92C1721.81 1070.57 1628.82 999.366 1539.01 939.944C1444.43 877.198 1453.57 795.534 1557.29 743.414C1624.45 709.551 1700.75 697.104 1774.66 679.34L1776.27 678.98C1791.84 675.659 1815.4 674.971 1815.59 659.257C1815.79 643.489 1790.96 641.162 1775.26 636.517C1669.95 606.306 1559.07 609.626 1450.39 600.829C1442.44 600.165 1435.09 594.355 1427.54 591.035C1432.5 584.894 1435.88 576.762 1442.64 572.777C1486.35 547.548 1538.01 542.899 1588.28 534.766C1593.85 533.935 1599.41 532.277 1604.77 530.949C1598.61 529.123 1592.45 526.3 1586.1 525.636C1516.35 519.826 1447.01 521.651 1377.66 530.448C1226.54 549.566 1080.12 639.66 1025.03 741.95L1023.6 744.658C1006.28 752.939 989.286 761.723 972.467 770.692L965.269 774.546C956.827 779.083 947.806 784.058 942.867 791.361C914.8 832.868 913.317 880.077 924.787 926.094C908.185 981.907 854.857 995.728 799.059 958.535C790.903 953.017 789.959 945.599 799.935 943.409L800.649 943.264C847.99 934.403 862.319 905.259 869.166 870.597L869.399 869.399C878.739 821.26 874.964 771.132 899.004 725.153C931.79 662.577 1007.1 646.642 1068.69 613.778C1249.31 517.503 1443.83 480.487 1655.25 504.388L1664.1 505.394C1807.19 521.838 1947.4 546.906 2071.84 612.562L2075.69 614.605C2088.4 621.413 2111.65 629.709 2104.7 641.993C2099.43 651.285 2076.91 641.366 2062.74 637.234L2061.98 637.014C1964.02 608.962 1864.47 586.887 1760.75 579.915C1754.2 579.418 1747.44 581.574 1740.88 582.572C1746.05 584.894 1751.02 588.048 1756.58 589.543C1828.15 606.975 1902.78 617.212 1968.83 647.559L1974.15 650.032C1991.76 657.965 2024.76 666.848 1990.64 692.288C1987.47 694.778 1984.88 697.931 1982.1 700.755C1985.88 703.244 1989.45 706.728 1993.63 708.056C2136.29 747.395 2263.26 809.477 2376.52 891.642C2369.76 881.517 2363 871.555 2356.25 861.43L2356.45 861.263C2421.95 853.704 2392.23 822.556 2376.01 799.87L2375.52 799.185C2356.05 771.63 2334.19 743.577 2305.98 722.663C1999.78 496.088 1640.54 444.966 1253.68 515.678C1095.33 544.599 940.091 593.695 832.315 707.734L829.064 711.21C811.778 729.801 784.358 745.736 755.148 739.099C665.501 718.658 575.471 732.851 485.816 733.119L481.741 733.122C435.507 733.122 395.4 729.921 352.209 710.169L349.806 709.054C283.839 678.178 220.057 708.39 160.647 737.107C79.2089 776.379 68.268 808.007 115.678 874.508L117.132 876.534C159.455 934.965 165.813 995.715 127.067 1029.41C86.7318 1064.43 29.1094 1066.09 -24.7373 1073.07V1062.94L-24.2009 1058.92C-23.7519 1055.56 -23.3464 1052.15 -23.3464 1048.83C-23.3464 923.675 -23.1477 798.688 -23.3464 673.533C-23.3464 642.991 -24.3399 612.613 -24.7373 582.071V419.072C0.669389 421.86 25.903 425.806 51.2868 427.399L59.5537 427.859C105.88 430.663 160.862 445.56 181.113 393.343C196.81 352.676 182.504 310.681 148.526 278.812C101.038 234.327 37.6535 240.634 -24.7373 249.265V189.803C-24.6449 111.329 -21.6555 111.329 77.9888 111.329ZM1792.55 1459.98V1460.15C1793.94 1460.65 1795.33 1461.31 1796.72 1461.81L1797.64 1462.64C1797.96 1462.93 1798.31 1463.22 1798.7 1463.47C1800.1 1463.97 1801.49 1464.63 1802.88 1465.13C1803.87 1465.71 1804.86 1466.25 1805.88 1466.79L1807.84 1467.82L1807.15 1467.41C1805.66 1466.55 1804.17 1465.71 1802.68 1464.96C1801.29 1464.47 1799.9 1463.8 1798.7 1463.3L1797.78 1462.47C1797.46 1462.18 1797.11 1461.89 1796.72 1461.65C1795.33 1461.14 1793.94 1460.48 1792.55 1459.98ZM2442.68 1362.05C2459.97 1363.05 2477.25 1363.88 2494.54 1364.71L2494.57 1364.54C2494.59 1364.46 2494.64 1364.38 2494.74 1364.38C2485.95 1363.88 2477.27 1363.38 2468.53 1362.95L2459.77 1362.55C2454.01 1362.22 2448.44 1362.22 2442.68 1362.05ZM1005.76 1088.23L1006.4 1087.66C1008.83 1091.35 1011.25 1095 1013.66 1098.6C1005.85 1102.68 994.665 1104.99 978.88 1104.77C976.295 1104.77 973.715 1102.95 970.935 1101.95C972.125 1101.28 973.315 1099.95 974.71 1099.79C989.262 1098.16 999.177 1094.03 1005.76 1088.23ZM1623.45 978.949L1632.74 983.832C1706.98 1023.05 1779.8 1065.18 1874.61 1059.12C1899.64 1057.46 1924.48 1055.64 1949.51 1053.81C1925.08 1053.48 1900.83 1052.98 1876.39 1052.65C1874.01 1052.65 1871.63 1052.32 1869.44 1052.32C1778.64 1048.67 1701.94 1011.82 1623.45 978.949ZM1640.14 959.53C1640.54 960.691 1640.54 962.353 1641.53 962.85L1652.99 970.268C1706.57 1004.75 1762.17 1036.8 1843.21 1040.37L1881.78 1033.91C1896.16 1031.49 1911.66 1028.83 1927.06 1026.09C1930.84 1025.43 1934.41 1023.1 1937.99 1021.61C1933.82 1020.12 1929.65 1017.13 1925.47 1017.29C1826.92 1017.79 1735.12 995.218 1646.9 960.361C1644.91 959.53 1642.53 959.86 1640.14 959.53ZM1589.47 754.366C1550.33 754.203 1496.29 807.317 1502.64 839.354C1511.78 885.167 1612.33 938.449 1697.17 939.777L1702.75 937.885C1705.81 936.856 1709.64 935.578 1713.46 934.301C1710.29 928.821 1708.89 921.519 1703.93 918.032L1685.45 905.582C1660.82 889.005 1636.05 872.619 1610.14 857.612L1604.58 854.374C1546.48 820.304 1545.95 812.233 1590.67 761.838C1592.26 760.013 1593.05 757.523 1594.04 755.364C1592.45 755.03 1591.06 754.366 1589.47 754.366ZM1494.73 747.846L1492.31 750.069C1499.47 742.705 1506.15 737.151 1512.77 732.418L1513.37 731.932C1506.74 737.288 1500.53 742.592 1494.73 747.846ZM534.596 540.74C521.082 542.068 510.352 548.045 509.361 560.66C508.366 569.954 517.307 570.952 525.456 572.28C538.967 570.785 548.502 564.808 549.697 553.354C550.292 546.053 543.932 539.746 534.596 540.74Z" fill="#1A46FF"/>
<path d="M1083.4 743.247C1083.6 744.078 1084.59 745.239 1084.19 745.737C1048.56 814.87 1076.09 879.543 1106.37 942.562L1108.23 946.418C1141.22 1014.97 1183.14 1079.54 1262.22 1119.87C1271.96 1124.85 1285.67 1124.19 1297.39 1126.18C1292.49 1119.91 1288.29 1113.14 1283.08 1107.18C1314.15 1126.13 1405.5 1166.76 1434.14 1192C1497.38 1247.74 1520.61 1329.79 1593.18 1377.3C1671.86 1428.8 1764.72 1454.45 1850.47 1491.25C1870.83 1502.43 1891.2 1513.59 1911.56 1524.73L1926.66 1532.98L1911.17 1524.47C1891.06 1513.43 1870.95 1502.4 1850.84 1491.4C1882.36 1504.95 1912.92 1520 1941.45 1538.41C2064.37 1617.74 2019.13 1612.42 2117.2 1665.88L2136.26 1676.21C2264.38 1745.72 2385.67 1815.23 2443.82 1927.07C2501.98 2038.91 2552.99 2099.04 2772.21 2147.85C2500.33 2126.27 2334.46 1981.15 2207.36 1981.15C2080.26 1981.15 2089.59 1882.59 2041.91 1926.08C2041.11 1926.75 2039.33 1926.75 2038.13 1927.08H1913.35C1880.17 1917.78 1846.59 1909.48 1814.2 1898.69C1774.86 1885.74 1750.22 1898.69 1732.34 1927.08L1542.81 1927.08C1533.74 1862.54 1536.51 1797.87 1529.5 1728.71C1525.46 1688.76 1479.97 1591.74 1467.41 1567.6L1467.04 1566.89C1434.3 1504.47 1382.52 1453.45 1325.71 1405.87L1347.7 1416.08C1418.54 1449.03 1488.97 1482.54 1555.22 1521.8L1565.08 1527.7C1614.77 1557.32 1674.06 1587.66 1671.34 1646.39C1668.76 1699.17 1687.83 1742.99 1718.03 1785.65L1720.53 1789.15C1761 1845.14 1781.95 1846.09 1837.05 1797.94C1846.04 1790.12 1854.35 1781.6 1861.36 1772.5L1865.61 1766.89C1893 1731.05 1925.83 1696.11 1885.93 1650.71C1823.81 1579.51 1733.43 1539.22 1645.36 1496.84L1639.15 1493.85C1515.96 1434.26 1383.63 1384.29 1280.3 1301.46C1158.6 1204.03 1113.8 1070.24 1065.87 940.572L1062.93 932.639C1040.48 872.386 1040.68 808.479 1078.03 749.224C1079.42 747.065 1081.61 745.239 1083.4 743.247ZM1005.71 792.878C987.425 876.371 1011.87 957.704 1026.97 1039.54L1027.93 1044.98C1031.58 1066.12 1033.64 1088.17 1013.66 1098.6C1011.25 1095 1008.83 1091.36 1006.4 1087.66C1018.32 1076.62 1018.74 1059.86 1016.22 1042.91L1015.06 1035.53C1000.46 945.164 973.125 855.521 999.745 763.497C979.675 804.828 981.66 848.485 979.875 891.642C979.675 894.131 978.485 896.788 977.69 899.277C976.295 896.951 973.715 894.628 973.515 892.139C969.94 865.745 966.76 839.188 963.38 812.797C962.985 809.807 960.6 807.154 959.21 804.331C957.025 806.82 953.445 809.143 952.655 812.133C943.514 848.816 935.365 885.665 925.829 922.347C925.5 923.616 925.152 924.865 924.787 926.094C913.317 880.077 914.8 832.868 942.867 791.361C947.806 784.058 956.827 779.083 965.269 774.546C984.438 764.243 1003.8 754.122 1023.6 744.658C1015.32 760.527 1009.25 776.672 1005.71 792.878ZM1297.18 730.521C1263.34 746.713 1235.23 767.856 1222.76 791.693C1205.95 823.845 1204.39 860.237 1198.27 894.951L1197.68 898.169C1194.69 913.777 1190.25 930.148 1195.72 945.127C1212.03 989.822 1235.09 1032.63 1259.02 1074.96L1270.5 1095.15L1265.93 1090.95C1192.09 1022.86 1125.08 951.524 1116.04 854.802L1114.43 836.251C1111.91 805.302 1111.71 767.864 1150.56 765.322C1196.9 762.32 1238.82 749.755 1280.09 736.187L1297.18 730.521ZM1515.76 676.023L1518.42 676.237C1530.97 677.175 1545.33 677.506 1550.33 688.968C1555.97 701.81 1543.14 709.398 1532.9 716.877L1532.25 717.354C1525.4 722.425 1518.9 727.445 1512.77 732.418C1506.15 737.151 1499.47 742.705 1492.31 750.069C1402.23 833.244 1417.44 904.364 1541.39 985.26C1547.8 989.433 1554.28 993.526 1560.83 997.553C1561.54 1003 1557.15 1007.7 1551.99 1010.46C1450.58 948.376 1377.69 876.231 1439.21 762.377L1442.93 758.608C1451.87 749.588 1459.7 742.027 1464.29 736.847C1471.64 728.546 1480.18 702.982 1459.97 699.48C1445.71 697.01 1428.84 696.805 1410.74 698.554C1413.91 696.586 1416.94 693.967 1420.19 691.958L1400.32 689.469C1395.94 688.968 1391.37 688.804 1387 688.638C1390.98 687.142 1394.95 684.987 1399.12 684.156C1437.47 677.017 1476.42 672.369 1515.76 676.023ZM1028.95 806.82C1027.56 811.633 1026.57 816.448 1025.38 821.427C1025.18 816.114 1023.99 810.471 1024.78 805.325C1028.6 780.394 1039.07 755.065 1054.53 730.641L1054.84 730.505L1060.64 728.065C1062.4 727.334 1064.16 726.61 1065.92 725.894C1049.64 750.084 1037.28 777.045 1028.95 806.82ZM1511.75 636.599C1529.78 633.984 1575.55 635.379 1594.32 643.99C1597.23 645.322 1598.99 647.907 1600.1 650.735L1598.54 650.52L1597.02 650.293C1542.66 642.035 1488.52 643.342 1434.42 647.109L1451.22 644.917C1470.95 642.325 1491.1 639.595 1511.75 636.599Z" fill="#EC4B43"/>
<path d="M3839.92 129.588C3838.13 172.247 3839.32 214.906 3839.32 257.565L3835.86 258.275C3782.84 269.332 3736.22 288.308 3718.71 335.746C3708.38 363.466 3701.23 392.015 3683.54 417.578C3680.36 422.059 3681.16 428.533 3680.17 434.011C3686.52 434.011 3693.08 435.173 3699.04 434.011C3745.34 425.047 3788.45 401.975 3839.12 412.1V1069.41C3775.74 1072.9 3730.24 1040.86 3726.66 988.743C3724.67 960.858 3729.05 932.475 3724.48 905.087C3716.13 853.13 3667.45 838.523 3570.88 856.121C3388.14 889.314 3358.07 985.466 3411.66 1100.93L3413.74 1105.31C3415.77 1109.44 3419.33 1115.4 3425.01 1108.76L3425.43 1108.25C3462.22 1062.61 3513.32 1068.5 3563.2 1076.9L3581.61 1080.04C3631.29 1088.34 3667.65 1112.57 3677.19 1157.89L3680.6 1174.25C3686.88 1204.23 3693.37 1234.18 3701.23 1263.84L3703.41 1271.92C3717.97 1324.67 3702.73 1345.04 3638.8 1353.5L3632.79 1354.29C3604.38 1358.17 3576.78 1364.94 3567.11 1390.77C3553.2 1428.28 3542.87 1466.95 3530.95 1504.97C3545.85 1498.16 3552.6 1469.44 3572.87 1483.55C3594.93 1498.99 3577.64 1522.07 3564.33 1538.16C3541.28 1565.55 3517.23 1592.94 3488.82 1616.35C3377.03 1708.32 3240.06 1743.17 3093.34 1753.44C3091.48 1752.62 3091.03 1751.6 3092.97 1750.18C3176 1689.48 3353.75 1675.79 3427.45 1577.43C3497.31 1484.21 3430.52 1382.31 3402.94 1290.95C3395.44 1266.15 3395.71 1239.83 3386.43 1215.45C3378 1193.29 3359.72 1174.44 3350.26 1152.57L3341.33 1131.83C3326.05 1096.13 3316.64 1072.97 3311.33 1058.76L3310.11 1055.46L3303.31 1043.64C3297.09 1032.73 3289.62 1019.45 3280.73 1003.42L3276.58 995.95C3226.6 905.616 3292.44 813.265 3274.5 725.029C3253.07 619.646 3242.42 760.686 3256.73 593.422C3264.24 505.793 3316.59 408.403 3377.07 336.81C3385.47 326.856 3400.02 310.15 3413.74 284.212C3427.45 258.275 3444.22 167.029 3477.25 111.329C3510.28 55.6298 3574.41 25.6801 3632.79 8.06378C3691.17 -9.55259 3726.8 3.70611 3751.99 28.4261C3779.45 55.3771 3775.92 111.589 3817.27 111.329C3835.28 108.128 3840.35 113.261 3839.98 127.92L3839.92 129.588Z" fill="#F68C22"/>
<path d="M77.9888 111.329L80.3327 121.295C87.6358 151.672 97.6491 180.402 148.526 177.559L154.76 177.233C180.348 175.923 205.667 175.209 229.408 184.099L231.383 184.862C328.744 223.371 435.446 210.756 537.576 222.044C599.172 228.849 638.712 187.518 661.563 111.329C963.765 173.779 1162.98 213.125 1259.22 229.365C1330.63 241.418 1403.56 230.671 1445.46 238.788C1538.29 256.769 1607.84 279.187 1666.43 294.946C1715.51 308.148 1746.7 320.119 1773.98 327.748C1797.05 334.199 1819.54 337.083 1824.93 339.729C1923.33 387.827 2028.73 422.933 2134.16 458.009L2133.1 462.806C2132.35 466.181 1996.44 432.859 1789.07 371.776C1581.7 310.692 1498.2 249.772 1245.79 266.152C1228.28 267.289 1212.59 276.111 1195.33 278.807C1107.7 292.493 1002.48 302.387 920.563 335.773C770.138 397.082 629.182 478.819 472.835 530.432C348.417 571.504 216.447 574.874 95.8126 623.269C43.1333 644.402 15.1535 665.789 -23.3197 694.867L-23.3464 673.533C-23.3464 642.991 -24.3399 612.613 -24.7373 582.071V419.072C0.669391 421.86 25.903 425.806 51.2868 427.399L59.5537 427.859C105.88 430.663 160.862 445.56 181.113 393.343C196.81 352.676 182.504 310.681 148.526 278.812C101.038 234.327 37.6535 240.634 -24.7373 249.266V189.803C-24.6449 111.329 -21.6555 111.329 77.9888 111.329Z" fill="#FEF151"/>
<path d="M-24.7336 45.0917C41.696 45.0917 76.7184 70.493 80.3337 121.295C87.6368 151.672 97.6501 180.402 148.527 177.559L154.761 177.233C180.349 175.923 205.668 175.21 229.409 184.099L231.384 184.862C328.745 223.372 435.447 210.756 537.577 222.044C599.173 228.849 638.713 187.518 661.564 111.33C684.414 35.1408 722.083 8.06415 790.455 8.06415C880.519 8.06415 878.296 126.591 1024.51 143.033C1071.25 148.289 1154.25 190.487 1254.24 209.948C1315.68 221.907 1382.18 208.781 1454.63 222.044C1486.74 227.922 1520.68 250.122 1568.79 264.375C1603.9 274.776 1644.86 280.198 1680.95 289.994C1711.76 298.359 1744.28 314.639 1768.41 323.044C1795.45 332.464 1812.93 333.841 1824.93 339.73C1828.64 341.542 1832.36 343.337 1836.09 345.113C1812.86 341.315 1789.91 336.824 1768.41 332.596C1734.17 325.861 1702.23 312.526 1668.48 304.211C1626.72 293.922 1583.56 287.793 1542.04 276.823C1483.74 261.416 1492.21 246.679 1426.38 245.115L1424.08 245.066C1283.75 242.449 1085.35 249.262 940.715 280.4C908.966 287.235 879.693 300.74 848.119 308.116C805.132 318.158 758.969 318.866 717.449 332.555C679.285 345.138 651.639 376.424 612.21 385.898C567.14 396.727 518 385.429 471.691 391.605C406.709 400.271 366.182 422.773 314.92 453.877C287.711 470.386 263.739 490.557 235.685 506.045C169.224 542.738 94.7166 569.375 31.7905 610.191L27.0414 613.292C-19.9417 644.183 -19.481 650.927 -17.1995 677.621L-16.8187 682.159H-23.3324L-23.3454 673.534C-23.3454 642.992 -24.3389 612.613 -24.7363 582.071V419.072C0.670369 421.861 25.904 425.806 51.2878 427.399L59.5547 427.859C105.881 430.663 160.863 445.561 181.114 393.344C196.811 352.676 182.505 310.682 148.527 278.812C101.039 234.327 37.6545 240.635 -24.7363 249.266L-24.7336 189.803C-24.6439 111.33 -124.378 45.0917 -24.7336 45.0917Z" fill="#EC4B43"/>
<path d="M705.672 1047.17C709.447 1049.33 712.823 1052.32 716.002 1055.14L724.084 1062.63L734.49 1072.36C817.573 1150.38 897.433 1231.66 1021.4 1268.6C1026.17 1270.1 1038.88 1289.18 1042.46 1266.77C1042.46 1266.61 1048.22 1266.11 1050.21 1267.1L1073.88 1279.37C1087.03 1286.19 1100.14 1293.07 1113.04 1300.17L1120.75 1304.45C1260.72 1382.95 1416.38 1439.72 1554.13 1521.16L1568.08 1529.47C1617.12 1558.54 1674.01 1588.84 1671.34 1646.39C1668.75 1699.17 1687.83 1742.99 1718.03 1785.65C1731.9 1805.21 1751.55 1811.3 1771.95 1810.32C1802.15 1882.53 1801.9 1835.75 1872.55 1919C1943.21 2002.24 1887.34 1988.74 1836.09 1981.15C1784.84 1973.55 1581.13 1898.28 1568.08 1919C1344.56 1960.69 1212.14 1963.38 1170.82 1927.08C1108.84 1872.62 1208.72 1879.34 1232.8 1858.77L1237.19 1855.04C1294.23 1806.39 1299.48 1777.28 1258.32 1741.91L1257.06 1740.84C1246.53 1731.87 1231.23 1723.9 1236.59 1708.8C1241.69 1694.5 1256.81 1690.24 1271.99 1687.33L1276.13 1686.56C1296.8 1682.74 1335.34 1681.58 1335.94 1676.77C1340.71 1634.27 1355.61 1588.79 1326.6 1549.29C1265.4 1465.79 1164.07 1419.98 1070.28 1368.03L1061.29 1363.03C916.063 1282.12 778.221 1194.81 679.309 1071.74L676.262 1067.92C669.112 1058.96 655.997 1046.51 668.912 1037.38C681.827 1028.25 694.347 1040.86 705.672 1047.17ZM1346.47 1698.18L1349.49 1707.48L1350.38 1710.1C1355.78 1725.67 1362.95 1738.54 1386.21 1740.01C1399.52 1740.84 1409.06 1733.7 1407.27 1722.41C1403.3 1698.35 1379.25 1694.53 1356.21 1691.21C1353.42 1690.87 1349.45 1695.86 1346.47 1698.18Z" fill="#64DAFB"/>
<path d="M-23.9251 1442.97C11.029 1434.17 35.6557 1416.06 49.3593 1387.65C66.4393 1352.1 98.2156 1334.99 144.093 1338.65C228.698 1345.46 271 1337.98 288.874 1257.57C297.216 1220.03 331.177 1202.42 376.856 1197.44C439.019 1190.62 458.285 1159.89 445.176 1095.27C435.841 1049.58 418.959 1004.39 426.31 957.212C432.067 920.165 449.149 888.765 493.039 872.486C495.223 871.654 498.202 871.821 500.785 871.654C500.785 872.816 501.18 874.647 500.386 875.145C429.883 933.789 461.064 994.26 498.797 1052.24C538.123 1112.54 578.04 1172.18 600.879 1238.97C608.825 1262.23 634.643 1272.69 662.05 1265.88C690.647 1258.74 713.886 1243.62 708.919 1213.38C707.33 1203.91 703.756 1193.11 716.27 1187.63C727.785 1182.48 736.131 1191.62 742.683 1197.44C827.488 1272.03 924.008 1338.15 982.396 1431.34C1008.41 1472.88 984.98 1525.38 934.134 1544.81C866.411 1570.89 888.472 1647.5 846.55 1677.38C624.648 1835.54 924.732 1781.54 964.253 1863.11C1003.78 1944.68 634.337 1946.02 512.7 1946.18C391.063 1946.34 409.623 1839.69 368.514 1780.05C364.344 1774.07 356.201 1770.25 349.846 1765.43C344.086 1771.58 335.149 1777.06 333.362 1783.87C321.445 1829.89 285.697 1853.48 232.67 1863.11C179.842 1872.75 219.153 1905.79 144.093 1930.86C69.0338 1955.92 39.2305 1946.01 -16.5768 1946.34C-23.5279 1946.34 -24.9182 1945.18 -24.7196 1939.37C-23.9251 1773.9 -23.9251 1608.44 -23.9251 1442.97ZM566.325 1586.34C556.195 1588.5 526.803 1587.51 527.398 1607.77C528.192 1634.52 555.995 1649.64 586.381 1652.13C610.61 1654.12 619.35 1635.52 619.945 1618.91C620.939 1595.48 604.257 1583.69 566.325 1586.34ZM410.023 1605.45C407.439 1621.4 407.838 1630.53 417.569 1629.2C436.835 1626.38 452.723 1616.75 456.696 1599.8C459.079 1590 447.755 1583.52 437.825 1584.02C415.98 1584.85 411.412 1599.63 410.023 1605.45Z" fill="#F5BBBA"/>
<path d="M2876.67 134.636C2959.75 149.521 2872.6 233.474 2889.32 291.752C2897.78 321.209 2996.09 432.308 2962.43 449.323C2918.54 471.715 2903.72 370.513 2773.06 321.515C2716.23 300.202 2665.99 261.313 2620.15 216.555C2574.3 171.797 2640.5 152.6 2710.02 161.319C2779.54 170.037 2793.58 119.75 2876.67 134.636Z" fill="#EC4B43"/>
<path d="M3663.98 1946.18C3676.75 1895.99 3676.15 1839.23 3706.29 1797.76C3733.03 1760.74 3794.1 1740.5 3839.8 1712.86C3839.8 1788.71 3839.8 1864.57 3840 1940.42C3840 1945.36 3838.8 1946.34 3832.81 1946.34C3776.54 1946.18 3720.26 1946.18 3663.98 1946.18Z" fill="#F68C22"/>
<path d="M3840 1597.71C3806.08 1582.44 3771.36 1566.17 3767.57 1530.48C3764.38 1500.27 3789.52 1481.84 3818.65 1467.4C3833.42 1460.09 3839.6 1462.25 3838.8 1477.86C3837.8 1495.45 3839.4 1513.05 3840 1530.64C3840 1531.14 3840 1531.81 3840 1532.3C3840 1532.8 3840 1533.47 3840 1533.96C3840 1555.05 3840 1576.29 3840 1597.71Z" fill="#FEF151"/>
<path d="M2150.46 1137.13C2198.61 1143.29 2244.75 1134.49 2288.09 1150.16C2290.29 1151.04 2292.1 1152.62 2294.1 1153.85C2292.1 1154.73 2290.09 1156.32 2288.09 1156.32C2222.68 1155.97 2157.08 1155.61 2091.67 1154.73C2088.86 1154.73 2086.26 1151.21 2083.65 1149.28C2086.26 1147.34 2088.66 1143.82 2091.67 1143.47C2112.14 1141 2133 1139.06 2150.46 1137.13Z" fill="#F68C22"/>
<path d="M3178.02 996.396C3128.82 938.711 3079.43 881.189 3030.83 823.17C2954.07 731.737 2852.31 660.418 2752.73 588.598C2699.96 550.529 2621.81 548.701 2556.55 527.089C2548.42 524.429 2539.69 523.099 2531.76 520.274C2517.47 515.121 2500.02 514.953 2490.5 502.319C2504.58 500.655 2518.66 499.161 2532.75 497.166C2537.51 496.5 2542.07 494.007 2546.83 492.342C2542.27 489.02 2538.3 484.03 2532.94 482.536C2469.47 463.085 2406.39 442.471 2342.12 425.181C2274.28 406.894 2309.98 370.486 2321.1 341.56C2332.8 310.805 2362.75 321.777 2384.77 332.915C2459.35 370.487 2556.55 366.497 2621.42 416.536C2683.9 464.581 2779.11 496.166 2804.1 562.334C2843.18 666.07 2964.78 699.981 3026.07 781.942C3079.04 852.428 3137.35 919.923 3178.02 996.396Z" fill="#FEF151"/>
<path d="M3258.19 1479.31C3228.75 1480.47 3221.39 1463.21 3222.19 1444.62C3224.38 1394.67 3244.87 1346.37 3242.28 1295.59C3235.12 1152.53 3158.33 1033.53 3061.66 920.181C2992.44 839.023 2908.69 768.655 2831.71 693.307C2827.13 688.825 2825.34 682.189 2822.16 676.547C2829.12 678.372 2837.67 678.539 2842.85 682.189C3071.21 848.649 3238.3 1044.65 3264.95 1305.38C3269.93 1353.18 3256.2 1402.14 3252.43 1450.6C3251.63 1459.89 3256.4 1469.52 3258.79 1478.98L3258.19 1479.31Z" fill="#FEF151"/>
<path d="M2923.01 1204.04C2917.62 1198.36 2912.44 1192.52 2906.86 1186.84C2901.88 1181.83 2896.69 1177.15 2891.51 1172.31C2898.49 1176.15 2906.26 1179.16 2912.04 1184C2933.17 1202.37 2955.5 1220.24 2974.04 1240.45C3061.75 1335.8 3040.82 1408.94 2913.24 1465.72C2816.95 1508.47 2711.09 1518.32 2606.83 1534.52C2593.47 1536.52 2572.94 1535.52 2570.95 1547.87C2568.95 1559.57 2588.69 1563.57 2600.65 1568.42C2710.7 1613 2829.31 1623.02 2948.92 1628.03C2975.84 1629.2 3002.55 1630.37 3029.46 1631.7C3031.85 1631.87 3034.05 1633.38 3036.44 1634.38C3034.24 1635.38 3032.05 1636.88 3029.66 1637.22C2839.68 1665.1 2666.24 1621.02 2499.18 1550.55C2493.2 1548.04 2490.01 1541.2 2485.43 1536.19C2495.4 1533.01 2505.16 1527.84 2515.33 1527C2624.18 1518.65 2733.42 1512.31 2837.88 1482.25C2868.78 1473.4 2899.28 1461.37 2927.19 1447.18C3035.84 1392.24 3041.82 1331.62 2949.52 1237.44C2939.95 1227.59 2929.39 1218.57 2919.42 1208.88C2916.63 1206.21 2914.63 1203.21 2912.24 1200.37C2915.83 1201.53 2919.42 1202.71 2923.01 1204.04Z" fill="#EC4B43"/>
<path d="M2834.62 1159.52C2835.42 1159.68 2839.02 1160.18 2842.62 1160.84C2840.02 1162.33 2837.02 1163.82 2834.62 1165.64C2833.02 1166.8 2831.82 1168.46 2830.62 1169.95C2833.82 1171.11 2836.82 1172.43 2840.02 1173.42C2846.82 1175.41 2853.62 1177.39 2860.42 1179.21C2855.02 1182.03 2848.42 1184.02 2844.42 1187.82C2830.62 1201.56 2816.22 1215.3 2804.62 1230.53C2789.42 1250.39 2767.82 1262.97 2743.42 1272.74C2733.02 1276.87 2724.62 1274.56 2723.02 1263.8C2717.02 1228.87 2789.62 1159.52 2834.62 1159.52Z" fill="#EC4B43"/>
<path d="M3227.76 988.182C3227.56 988.68 3227.16 989.337 3226.96 989.998C3225.75 989.175 3224.14 988.348 3223.33 987.359C3174.19 929.226 3125.05 871.262 3076.11 812.967C3074.9 811.645 3075.1 809.501 3074.7 807.684C3076.51 808.179 3078.73 808.342 3079.94 809.334C3138.75 862.839 3185.07 923.283 3226.96 986.2C3227.16 986.698 3227.36 987.359 3227.76 988.182Z" fill="#EC4B43"/>
<path fill-rule="evenodd" clip-rule="evenodd" d="M1198.28 939.777V894.951L1201.38 900.454C1226.82 944.947 1268.39 1000.99 1443.12 1097.09C1486.23 1120.81 1605.42 1162.83 1639.63 1178.91L1640.68 1179.41C1699.69 1207.69 1767.31 1222.28 1825.52 1251.71C2007.18 1343.56 1930.75 1370.14 2075.38 1430.51L2089.06 1436.18C2127.18 1451.89 2155.93 1462.8 2178.15 1470.29L2175.49 1470.33C2147.27 1470.95 2140.04 1476.82 2150.12 1488.65L2152.17 1490.98L2155.35 1494.56C2166.59 1507.1 2178.94 1519.53 2193.71 1528.54C2316.18 1603.44 2456.66 1643.43 2600.39 1677.28L2614.62 1680.61L2628.86 1683.9C2629.46 1684.07 2630.1 1684.11 2630.75 1684.11L2631.39 1684.1L2632.63 1684.07C2630.25 1683.24 2628.06 1682.08 2625.68 1681.41C2538.45 1660.2 2453.86 1633.46 2373.22 1598.56L2355.98 1591.04C2302.04 1567.7 2245.94 1545.27 2213.98 1499.32C2206.42 1488.3 2199.15 1479.99 2193.22 1475.15C2262.57 1496.46 2255.63 1477.42 2304.95 1482.04C2306.3 1484.16 2307.89 1486.01 2309.95 1487.37C2339.56 1507.12 2370.75 1525.05 2400.76 1544.31C2406.12 1547.79 2408.51 1554.27 2412.48 1559.24L2404.75 1562.44C2403.05 1563.16 2401.36 1563.9 2399.68 1564.68L2397.18 1565.89C2393.41 1567.71 2387.25 1570.2 2387.25 1572.52C2387.25 1575.84 2390.62 1580.49 2394.2 1582.65C2440.19 1610.38 2492.07 1628.28 2545.14 1643.1L2548.94 1644.15L2556.53 1646.23C2688.91 1682.12 2822.02 1704.95 2955.49 1701.71L2967.99 1703.62C2970.32 1703.98 2972.33 1704.3 2974 1704.57L2975.56 1704.84C3113.45 1728.38 3194.1 1696.06 3331.41 1645.52C3396.72 1621.49 3434.26 1573.04 3512.28 1595.29C3504.77 1602.58 3496.98 1609.63 3488.82 1616.35C3357.08 1724.74 3190.38 1753.78 3013.94 1756.77C2920.35 1758.26 2827.36 1749.14 2734.76 1736.52C2730.99 1736.02 2727.01 1736.36 2723.04 1736.36C2724.43 1737.02 2725.62 1737.85 2727.21 1738.18C2889.15 1771.88 3055.07 1789.47 3215.81 1828.15C3280.78 1843.75 3334.43 1802.59 3394.64 1791.63C3467.16 1778.52 3591.77 1787.54 3583.43 1845.47C3581.97 1857.54 3578.28 1872.88 3572.34 1891.48C3547.5 1911.01 3455.35 1916.13 3394.64 1916.13C3333.92 1916.13 3266.03 1911.01 3211.44 1900.35C3156.85 1889.69 2834.91 1799.76 2644.16 1755.77C2627.87 1751.96 2611.37 1748.97 2595.08 1745.65L2609.77 1752.09C2619.54 1756.38 2629.26 1760.7 2638.79 1765.24C2646.34 1768.72 2653.3 1773.2 2660.45 1777.35C2651.71 1776.02 2642.37 1775.86 2634.22 1773.37C2471.29 1726.4 2317.7 1663.15 2168.08 1592.11C1988.86 1506.96 1832.88 1392.43 1653.66 1307.27C1636.04 1298.91 1616.86 1293 1598.23 1286.18L1594.25 1284.7C1523.85 1251.71 1458.39 1167.58 1329.21 1108.03C1261.17 1076.67 1198.28 966.875 1198.28 939.777Z" fill="#FEF151"/>
<path fill-rule="evenodd" clip-rule="evenodd" d="M1926.66 1308.11C1966.42 1337.11 2016 1359.4 2075.39 1374.98C2133.38 1380.8 2269.17 1421.91 2347.18 1462.18C2339.2 1461.55 2331.24 1460.98 2323.27 1460.48C2314.92 1459.98 2306.18 1464.47 2297.63 1466.79C2301.61 1473.76 2303.4 1483.06 2309.95 1487.37C2339.56 1507.13 2370.75 1525.05 2400.76 1544.31C2406.12 1547.79 2408.51 1554.27 2412.48 1559.25L2404.76 1562.44C2403.05 1563.16 2401.36 1563.9 2399.68 1564.68L2397.18 1565.89C2393.41 1567.71 2387.25 1570.2 2387.25 1572.52C2387.25 1575.84 2390.62 1580.49 2394.2 1582.65C2440.19 1610.38 2492.07 1628.28 2545.14 1643.1L2548.94 1644.15L2556.53 1646.23C2776.3 1705.81 2998.04 1729.38 3220.18 1657.51C3229.06 1654.64 3237.65 1651.61 3245.96 1648.45L3256.18 1646.89C3364.55 1630.16 3451.95 1611.06 3528.85 1510.2L3531.25 1507.02C3532.06 1505.93 3532.88 1504.85 3533.71 1503.78L3534.33 1502.98C3547 1493.89 3554.2 1470.56 3572.87 1483.55C3593.43 1497.95 3579.8 1518.97 3567.07 1534.8L3566.51 1535.49L3564.33 1538.16C3541.28 1565.55 3517.24 1592.94 3488.82 1616.35C3387.72 1699.53 3266.02 1735.98 3135.14 1749.79L3118.21 1748.83C2985.47 1741.13 2848.3 1729.23 2723.34 1707.11L2715.38 1705.69C2696.86 1702.33 2664.4 1693.94 2625.76 1683.19L2628.86 1683.9C2629.46 1684.07 2630.1 1684.11 2630.75 1684.11L2631.39 1684.1L2632.63 1684.07C2630.25 1683.24 2628.06 1682.08 2625.68 1681.41C2538.45 1660.2 2453.87 1633.46 2373.22 1598.56L2355.98 1591.05C2302.04 1567.7 2245.94 1545.27 2213.98 1499.32L2212.39 1497.03C2200.48 1480.17 2189.48 1470.28 2183.58 1470.28L2180.64 1470.26C2157.63 1470.28 2146.55 1473.22 2145.84 1479.39L2143.04 1477.67C2095.95 1449.2 1957.43 1383.35 1926.66 1308.11Z" fill="#FFBEC9"/>
<path fill-rule="evenodd" clip-rule="evenodd" d="M1390.66 481.48L1398.79 485.285C1399.89 487.648 1398.7 491.859 1395.75 492.451L1387.48 496.036C1343.28 500.88 1298.66 507.455 1253.68 515.678C1095.33 544.599 940.092 593.695 832.316 707.734L828.247 712.079C810.922 730.294 783.903 745.633 755.149 739.099C665.502 718.658 575.472 732.851 485.817 733.119L479.18 733.118L474.092 733.09C431.042 732.715 393.002 728.824 352.21 710.169L347.829 708.146C327.331 698.924 307.046 695.547 287.041 696.134C445.475 660.964 601.852 622.772 752.074 567.354C815.686 543.887 889.837 500.341 960.884 483.465C967.683 481.85 974.768 487.112 981.789 486.433L1011.11 483.55C1114.88 473.216 1124.92 471.103 1234.8 477.447C1286.65 480.441 1371.89 440.964 1390.66 481.48Z" fill="#64DAFB"/>
<path fill-rule="evenodd" clip-rule="evenodd" d="M1147.39 427.112C1183.51 451.174 1142.19 457.065 1196 460.221C1225.85 461.971 1255.94 456.966 1285.76 459.073C1288.87 459.292 1290.36 465.267 1287.77 466.704L1281.88 473.497C1239.49 496.948 1176.68 475.867 1135.02 478.73C1044.65 484.94 978.942 521.789 904.87 566.134C861.796 591.921 816.23 656.317 785.559 685.82C765.385 705.227 742.454 720.343 717.687 732.448C640.718 722.376 563.545 732.813 486.648 733.119H479.178L474.09 733.09C431.04 732.715 393 728.824 352.208 710.169L347.827 708.146C342.481 705.741 337.15 703.733 331.834 702.09C368.691 698.715 410.987 686.962 437.844 678.727L447.349 675.826C535.078 649.159 638.998 620.275 721.345 576.329C757.309 557.137 790.581 534.532 826.814 515.695C847.207 505.093 871.293 499.769 890.904 488.18C962.512 445.866 908.241 454.189 981.008 433.295L985.118 432.131C1029.67 419.685 1110.63 402.625 1147.39 427.112Z" fill="#F5BBBA"/>
<path fill-rule="evenodd" clip-rule="evenodd" d="M2480.3 672.744C2495.69 678.104 2511.43 682.896 2527.62 686.947L2536.84 689.199C2615.07 708.429 2687.89 736.53 2753.25 777.109L2759.92 781.28C2868.52 849.695 2956.62 932.481 3010.56 1038.54C3011.02 1039.46 3011.3 1040.44 3011.44 1041.48C3011.49 1042.44 3011.52 1043.36 3011.54 1044.24C3011.34 1048.4 3009.83 1053.07 3009.56 1057.3C3002.01 1056.13 2992.87 1056.8 2987.31 1053.31C2936.64 1023.44 2887.76 991.567 2836.1 962.85C2824.81 956.562 2814.32 951.535 2804.51 947.79L2808.67 945.978C2820.04 940.951 2836.23 933.183 2855.37 921.046L2857.18 919.875C2875.33 907.872 2876.99 898.636 2858.2 888.578C2826.46 871.583 2791.89 858.496 2760.03 841.661C2745.69 834.085 2734.95 822.04 2719.89 815.504C2647.14 783.921 2551.54 729.509 2481.95 674.067L2480.3 672.744Z" fill="#EC4B43"/>
<path fill-rule="evenodd" clip-rule="evenodd" d="M1621.54 753.32L1628.19 751.807L1628.05 751.867C1580.97 771.576 1545.63 810.804 1618.69 849.363C1663.51 873.021 1717.61 881.498 1765.39 900.681C1779.54 906.36 1774.86 922.267 1761.22 926.09C1744.8 930.692 1728.89 933.333 1713.41 934.22L1713.34 934.087C1711.91 931.573 1710.84 928.697 1709.63 925.989C1709.04 924.69 1708.42 923.428 1707.71 922.263C1707.41 921.778 1707.1 921.309 1706.77 920.86C1705.95 919.761 1705.02 918.803 1703.93 918.032L1691.49 909.645C1666.9 893.071 1642.27 876.59 1616.59 861.386L1609.72 857.371L1604.26 854.183L1600.22 851.797C1596.27 849.453 1592.62 847.234 1589.26 845.113C1588.19 844.438 1587.15 843.773 1586.14 843.116L1583.37 841.296L1581.46 840.006L1579.13 838.388L1577 836.85C1575.88 836.027 1574.81 835.216 1573.8 834.415C1572.86 833.675 1571.97 832.943 1571.13 832.219L1570.13 831.352C1569.67 830.942 1569.22 830.533 1568.79 830.126C1568.07 829.453 1567.39 828.785 1566.75 828.12L1565.82 827.125L1565.3 826.531L1564.39 825.451L1563.79 824.698L1563.32 824.062L1562.75 823.252L1562.16 822.354L1561.71 821.594L1561.1 820.49L1560.74 819.747L1560.42 819.028L1560.27 818.662C1559.84 817.593 1559.51 816.514 1559.28 815.421L1559.14 814.691L1559.03 813.911L1558.95 813.146L1558.9 812.449L1558.88 811.475L1558.92 810.258L1559.03 809.056L1559.15 808.193L1559.28 807.447L1559.44 806.713L1559.75 805.472L1560.04 804.491L1560.15 804.143L1560.45 803.257L1560.78 802.358L1561.06 801.668L1561.47 800.703L1561.92 799.722C1562.26 798.999 1562.63 798.263 1563.03 797.515C1564 795.682 1565.14 793.772 1566.45 791.772L1567.24 790.592L1568.45 788.828L1569.75 787.01L1570.43 786.091L1572.24 783.695L1574.69 780.567L1576.26 778.62L1578.11 776.369L1580.53 773.494L1583.57 769.931L1586.65 766.395L1589.67 762.973C1598.98 758.686 1608.6 756.278 1621.54 753.32Z" fill="#EC4B43"/>
<path fill-rule="evenodd" clip-rule="evenodd" d="M2059.74 995.24L2067.79 991.836C2096.22 1027.58 2038.52 1017.72 1998.86 1019.33C1970.89 1020.46 1941.85 1025.08 1913.11 1028.55L1917.82 1027.72L1927.06 1026.09C1930.84 1025.43 1934.41 1023.1 1937.99 1021.61C1933.82 1020.12 1929.65 1017.13 1925.47 1017.29C1857.43 1017.64 1792.61 1006.98 1729.97 988.885L1719.4 983.324C1755.63 987.296 1791.59 993.962 1828.1 995.24C1905.25 997.941 2016.99 941.495 2059.74 995.24Z" fill="#F5BBBA"/>
<path fill-rule="evenodd" clip-rule="evenodd" d="M2495.17 684.636C2534.47 710.906 2580.35 730.172 2604.31 744.392L2605.62 745.177C2629.47 759.643 2658.48 776.246 2681.67 791.444C2697.54 801.844 2714.67 810.925 2732.28 819.137L2739.41 822.447C2773.14 838.051 2796.9 848.248 2830.75 866.525C2845.66 874.573 2873.66 895.695 2884.53 907.427L2885.26 908.242C2893.69 917.833 2913.23 947.722 2898.21 959.53C2889.5 966.387 2850.34 954.944 2809.08 949.61C2776.24 936.044 2750.95 936.215 2729.21 950.821C2752 922.617 2778.7 911.074 2809.32 916.188C2822.05 918.314 2833.64 930.565 2845.98 927.19C2853.44 925.151 2845.85 913.721 2841.65 907.829L2841.36 907.427C2834.32 897.614 2824.87 888.647 2813.64 882.101L2802.27 875.481C2702.95 817.776 2585.03 751.604 2495.17 684.636Z" fill="#F5BBBA"/>
<path fill-rule="evenodd" clip-rule="evenodd" d="M2553.78 725.534L2560.7 732.252C2587.43 758.084 2620.83 788.647 2653.46 808.95C2683.56 827.686 2773.46 835.906 2809.41 872.039C2816.86 879.522 2821.49 897.155 2810.9 901.209C2797.02 906.526 2782.76 884.876 2767.93 887.925C2753.86 890.818 2752.61 909.778 2740.03 915.781C2731.19 920 2711.89 924.076 2709.49 915.807C2706.07 904.047 2726.05 895.611 2730.85 884.195C2733.09 878.885 2735.06 870.926 2729.89 867.328C2713.65 856.048 2674.4 847.6 2640.7 823.147C2607.01 798.695 2582.27 768.711 2553.78 725.534Z" fill="#FEF151"/>
<path fill-rule="evenodd" clip-rule="evenodd" d="M1773.09 478.185L1823.51 487.961C1965.86 515.661 1867.67 498.382 2020.09 553.137L2025.27 554.989C2196.56 616.078 2217.36 608.369 2345.43 726.395L2355.89 736.089C2387.27 765.38 2448.2 824.854 2447.49 863.327C2447.27 874.183 2429.88 880.791 2427.98 891.531C2425.24 907.071 2441.75 923.979 2434.21 938.369C2430.37 945.698 2416.86 930.742 2410.63 924.672C2391.37 905.92 2377.12 883.829 2358.44 864.695L2356.25 861.43L2356.45 861.263L2358.4 861.027C2419.46 853.314 2393.74 824.152 2377.49 801.913L2376.5 800.56L2373.75 796.679C2354.72 769.936 2333.34 742.944 2305.98 722.663C1999.78 496.089 1640.54 444.966 1253.68 515.678C1163.07 532.227 1073.48 555.381 993.224 593.527C1137.49 505.913 1301.03 488.111 1500.76 474.037L1513.04 473.179C1579.59 468.565 1694.42 462.939 1773.09 478.185Z" fill="#F68C22"/>
</g>
<defs>
<clipPath id="clip0">
<rect width="3840" height="2160" fill="white"/>
</clipPath>
</defs>
</svg>
