<svg width="1000" height="1654" viewBox="0 0 1000 1654" fill="none" xmlns="http://www.w3.org/2000/svg">
<g clip-path="url(#clip0)">
<g clip-path="url(#clip1)">
<path d="M853.533 146.492C759.008 51.9508 633.599 0 500 0C224.38 0 0 224.418 0 500.085C0 775.751 224.38 1000.17 500 1000.17C633.599 1000.17 759.008 948.218 853.533 853.677C948.058 759.136 1000 633.706 1000 500.085C1000 366.463 948.058 241.033 853.533 146.492ZM500 974.428C238.418 974.428 25.737 761.711 25.737 500.085C25.737 238.459 238.418 25.7414 500 25.7414C761.582 25.7414 974.263 238.459 974.263 500.085C974.263 761.711 761.582 974.428 500 974.428Z" fill="#1B1B1B"/>
<path d="M550.775 447.45C473.33 412.114 406.414 381.692 411.328 307.744C413.433 278.727 434.257 261.41 451.337 252.049C472.628 240.349 501.173 234.264 525.974 235.903C591.955 240.349 643.897 268.196 694.435 325.997L713.855 309.148C659.105 246.433 599.91 215.075 527.612 210.161C521.997 209.693 516.381 209.693 510.532 209.927C509.362 209.927 508.192 209.927 507.256 209.927C459.76 209.927 408.052 225.372 368.277 251.581C321.482 282.471 295.277 324.827 294.575 370.928C292.703 483.722 386.058 522.1 468.417 556.032C544.224 587.389 609.971 614.301 608.567 688.483C607.865 738.561 539.077 765.473 490.644 765.473C489.942 765.473 489.474 765.473 488.773 765.473V765.707H488.539C416.943 764.771 353.302 734.817 299.255 676.782L280.303 694.333C338.562 757.048 410.392 790.746 488.305 791.682C489.475 791.682 490.644 791.682 491.814 791.682C542.118 791.682 596.4 778.343 638.047 755.41C689.053 727.563 718.768 687.079 721.81 641.68C729.531 528.886 634.538 485.594 550.775 447.45ZM696.073 639.574C693.031 686.143 656.063 715.862 625.647 732.477C622.839 734.115 620.031 735.519 617.224 736.923C627.752 723.351 634.07 707.204 634.538 688.717C635.942 596.984 555.923 563.988 478.478 532.162C396.587 498.465 319.142 466.405 320.546 371.162C321.014 333.954 343.241 299.086 382.783 272.877C388.632 268.898 394.949 265.388 401.501 261.878C392.376 274.983 386.994 289.725 386.058 305.638C379.741 397.371 461.398 434.579 540.481 470.383C623.775 508.761 702.624 544.799 696.073 639.574Z" fill="#1B1B1B"/>
</g>
<g clip-path="url(#clip2)">
<path d="M133.367 1438.26C121.902 1438.26 110.905 1436.39 99.9088 1432.88C88.912 1429.14 79.7871 1423.99 71.832 1417.2L84.7005 1395.44C92.8896 1401.29 101.079 1405.73 109.034 1408.78C116.989 1411.82 124.71 1413.22 132.431 1413.22C139.45 1413.22 144.832 1411.82 148.809 1409.24C152.787 1406.67 154.658 1402.93 154.658 1398.01C154.658 1393.1 152.319 1389.59 147.639 1387.48C142.96 1385.14 135.473 1382.57 124.71 1379.76C115.819 1377.42 108.332 1375.08 102.249 1372.74C95.9312 1370.4 91.0178 1367.82 87.2742 1365.02C83.5307 1362.21 80.723 1358.93 79.0852 1355.19C77.4474 1351.44 76.5115 1347 76.5115 1341.85C76.5115 1334.83 77.9153 1328.74 80.489 1323.13C83.0627 1317.51 87.0403 1312.83 91.7197 1309.09C96.6332 1305.11 102.248 1302.3 108.8 1300.19C115.351 1298.09 122.37 1297.15 129.857 1297.15C140.152 1297.15 149.511 1298.56 158.636 1301.6C167.527 1304.64 175.716 1309.32 183.203 1315.87L169.165 1336.93C162.146 1331.79 155.594 1328.04 149.043 1325.47C142.492 1323.13 136.175 1321.72 129.623 1321.72C123.774 1321.72 118.861 1322.89 114.883 1325.47C110.905 1327.81 109.034 1331.79 109.034 1337.17C109.034 1339.51 109.502 1341.61 110.438 1343.02C111.373 1344.66 113.011 1346.06 114.883 1347.23C116.989 1348.4 119.796 1349.57 123.072 1350.74C126.348 1351.91 130.559 1353.08 135.707 1354.25C145.066 1356.59 153.021 1359.17 159.806 1361.51C166.357 1363.85 171.972 1366.65 176.184 1369.7C180.395 1372.74 183.437 1376.48 185.543 1380.46C187.415 1384.44 188.584 1389.35 188.584 1395.2C188.584 1408.54 183.671 1419.07 173.844 1426.8C163.549 1434.52 150.213 1438.26 133.367 1438.26Z" fill="#1B1B1B"/>
<path d="M356.107 1376.93H247.31C249.182 1387.23 254.095 1395.19 262.284 1401.27C270.239 1407.35 280.3 1410.16 292.233 1410.16C307.441 1410.16 320.075 1405.25 329.902 1395.19L347.216 1415.08C340.899 1422.57 333.178 1428.18 323.585 1431.93C313.992 1435.67 303.463 1437.54 291.531 1437.54C276.322 1437.54 262.986 1434.5 251.287 1428.42C239.589 1422.33 230.698 1413.91 224.38 1403.14C218.063 1392.38 215.021 1380.21 215.021 1366.4C215.021 1352.83 218.063 1340.66 224.146 1329.9C230.23 1319.13 238.887 1310.71 249.649 1304.62C260.646 1298.54 272.813 1295.5 286.383 1295.5C299.954 1295.5 311.886 1298.54 322.649 1304.39C333.178 1310.47 341.601 1318.66 347.45 1329.66C353.299 1340.43 356.341 1353.06 356.341 1367.1C356.575 1369.44 356.575 1372.72 356.107 1376.93ZM260.178 1330.83C252.925 1336.92 248.714 1345.11 247.076 1355.4H325.691C324.287 1345.34 320.075 1337.15 313.056 1331.07C306.037 1324.75 297.146 1321.71 286.617 1321.71C276.322 1321.47 267.431 1324.75 260.178 1330.83Z" fill="#1B1B1B"/>
<path d="M422.787 1428.42C411.323 1422.33 402.432 1413.91 396.114 1403.14C389.797 1392.38 386.521 1380.21 386.521 1366.4C386.521 1352.83 389.797 1340.66 396.114 1329.9C402.432 1319.13 411.323 1310.71 422.787 1304.62C434.018 1298.54 447.12 1295.5 461.627 1295.5C475.197 1295.5 487.364 1298.3 497.659 1303.69C507.953 1309.3 515.675 1317.26 520.822 1327.56L496.021 1342.06C492.043 1335.75 487.13 1330.83 481.047 1327.56C475.197 1324.28 468.646 1322.64 461.393 1322.64C449.226 1322.64 439.165 1326.62 431.21 1334.34C423.255 1342.3 419.278 1352.83 419.278 1365.93C419.278 1379.04 423.255 1389.57 430.976 1397.53C438.931 1405.48 448.992 1409.23 461.159 1409.23C468.178 1409.23 474.729 1407.59 480.813 1404.31C486.896 1401.04 491.809 1396.36 495.787 1389.8L520.588 1404.31C515.207 1414.61 507.485 1422.8 497.191 1428.42C486.896 1434.03 474.963 1436.84 461.627 1436.84C447.12 1437.54 434.252 1434.5 422.787 1428.42Z" fill="#1B1B1B"/>
<path d="M638.987 1295.73V1326.62C636.18 1326.16 633.606 1325.92 631.5 1325.92C618.866 1325.92 609.039 1329.67 602.02 1336.92C595.001 1344.17 591.491 1354.94 591.491 1368.75V1435.91H558.969V1297.37H589.619V1317.5C598.978 1302.99 615.356 1295.73 638.987 1295.73Z" fill="#1B1B1B"/>
<path d="M802.998 1376.93H694.2C696.072 1387.23 700.986 1395.19 709.175 1401.27C717.13 1407.35 727.191 1410.16 739.123 1410.16C754.331 1410.16 766.966 1405.25 776.793 1395.19L794.107 1415.08C787.79 1422.57 780.068 1428.18 770.476 1431.93C760.883 1435.67 750.354 1437.54 738.421 1437.54C723.213 1437.54 709.877 1434.5 698.178 1428.42C686.479 1422.33 677.588 1413.91 671.271 1403.14C664.954 1392.38 661.912 1380.21 661.912 1366.4C661.912 1352.83 664.954 1340.66 671.037 1329.9C677.12 1319.13 685.777 1310.71 696.54 1304.62C707.537 1298.54 719.703 1295.5 733.274 1295.5C746.844 1295.5 758.777 1298.54 769.54 1304.39C780.068 1310.47 788.491 1318.66 794.341 1329.66C800.19 1340.43 803.232 1353.06 803.232 1367.1C803.466 1369.44 803.466 1372.72 802.998 1376.93ZM707.069 1330.83C699.816 1336.92 695.604 1345.11 693.966 1355.4H772.581C771.177 1345.34 766.966 1337.15 759.947 1331.07C752.928 1324.75 744.037 1321.71 733.508 1321.71C723.213 1321.47 714.322 1324.75 707.069 1330.83Z" fill="#1B1B1B"/>
<path d="M928.167 1428.19C924.423 1431.24 919.744 1433.58 914.362 1435.22C908.981 1436.85 903.132 1437.56 897.048 1437.56C881.84 1437.56 870.142 1433.58 861.719 1425.62C853.529 1417.66 849.318 1405.96 849.318 1390.75V1324.06H826.389V1298.08H849.318V1266.49H881.84V1298.08H919.042V1324.06H881.84V1390.05C881.84 1396.84 883.478 1401.99 886.754 1405.5C890.029 1409.01 894.709 1410.88 901.026 1410.88C908.279 1410.88 914.362 1409.01 919.276 1405.26L928.167 1428.19Z" fill="#1B1B1B"/>
<path d="M110.435 1528.77C120.496 1538.83 125.643 1553.11 125.643 1572.3V1651.39H107.16V1574.17C107.16 1559.89 103.65 1549.13 96.6308 1541.64C89.6116 1534.15 79.3168 1530.41 66.2143 1530.41C51.474 1530.41 39.7754 1534.85 31.3524 1543.51C22.6954 1552.17 18.4839 1564.34 18.4839 1579.78V1651.39H0V1514.96H17.548V1540.24C22.4614 1532.05 29.4806 1525.49 38.3715 1520.81C47.2625 1516.13 57.5573 1514.03 69.256 1514.03C86.57 1514.03 100.374 1518.94 110.435 1528.77Z" fill="#1B1B1B"/>
<path d="M292.94 1588.91H178.762C179.698 1603.19 185.313 1614.65 195.14 1623.31C204.967 1631.97 217.367 1636.42 232.575 1636.42C240.998 1636.42 248.72 1635.01 255.973 1631.97C262.992 1628.93 269.309 1624.48 274.457 1618.63L284.751 1630.57C278.668 1637.82 271.181 1643.44 262.056 1647.18C252.931 1650.92 243.104 1652.8 232.107 1652.8C218.069 1652.8 205.668 1649.75 194.906 1643.9C184.143 1637.82 175.72 1629.63 169.637 1619.1C163.553 1608.57 160.512 1596.63 160.512 1583.29C160.512 1569.96 163.319 1558.02 169.169 1547.49C175.018 1536.96 182.973 1528.77 193.034 1522.92C203.095 1517.07 214.559 1514.03 227.194 1514.03C239.829 1514.03 251.059 1517.07 261.12 1522.92C271.181 1528.77 279.136 1536.96 284.751 1547.49C290.367 1558.02 293.408 1569.96 293.408 1583.53L292.94 1588.91ZM193.97 1542.34C185.079 1550.77 179.931 1561.77 178.762 1575.1H275.626C274.457 1561.53 269.309 1550.77 260.418 1542.34C251.527 1533.92 240.296 1529.71 227.194 1529.71C213.858 1529.71 202.861 1533.92 193.97 1542.34Z" fill="#1B1B1B"/>
<path d="M396.588 1643.22C393.079 1646.26 388.867 1648.6 383.72 1650.24C378.573 1651.88 373.191 1652.81 367.81 1652.81C354.941 1652.81 345.114 1649.3 338.329 1642.52C331.31 1635.5 328.034 1625.9 328.034 1613.27V1530.66H303.701V1514.98H328.034V1485.26H346.518V1514.98H387.931V1530.66H346.284V1612.1C346.284 1620.29 348.39 1626.37 352.368 1630.58C356.345 1634.8 362.194 1636.9 369.916 1636.9C373.659 1636.9 377.403 1636.2 380.912 1635.03C384.422 1633.86 387.463 1631.99 390.037 1629.88L396.588 1643.22Z" fill="#1B1B1B"/>
<path d="M588.439 1515.92H610.433L552.875 1651.42H533.924L506.783 1585.19L479.642 1651.42H460.69L403.133 1515.92H424.892L471.687 1628.72L494.616 1572.32L471.219 1515.92H490.171L506.783 1559.21L523.395 1515.92H542.347L519.183 1572.32L542.113 1628.72L588.439 1515.92Z" fill="#1B1B1B"/>
<path d="M684.126 1653.97C674.299 1653.97 665.174 1652.1 657.219 1648.35C649.03 1644.61 642.01 1639.46 636.161 1633.14C630.312 1626.83 625.632 1619.34 622.357 1610.91C619.081 1602.49 617.443 1593.6 617.443 1584.24C617.443 1574.64 619.081 1565.75 622.591 1557.32C625.866 1548.9 630.546 1541.41 636.629 1535.09C642.478 1528.77 649.732 1523.63 657.687 1519.88C665.876 1516.14 674.767 1514.27 684.36 1514.27C693.952 1514.27 703.077 1516.14 711.266 1519.88C719.455 1523.63 726.475 1528.77 732.558 1535.09C738.641 1541.41 743.087 1548.9 746.596 1557.32C749.872 1565.75 751.744 1574.87 751.744 1584.24C751.744 1593.6 750.106 1602.49 746.83 1610.91C743.555 1619.34 738.875 1626.83 733.026 1633.14C727.177 1639.46 719.923 1644.61 711.734 1648.35C703.077 1652.1 693.952 1653.97 684.126 1653.97ZM635.225 1584.47C635.225 1592.19 636.629 1599.21 639.203 1605.53C641.777 1612.08 645.286 1617.7 649.732 1622.61C654.177 1627.53 659.324 1631.51 665.408 1634.08C671.491 1636.89 677.808 1638.29 684.36 1638.29C690.911 1638.29 697.462 1636.89 703.311 1634.08C709.161 1631.27 714.542 1627.29 718.988 1622.38C723.433 1617.47 726.943 1611.62 729.516 1605.06C732.09 1598.51 733.494 1591.49 733.494 1583.77C733.494 1576.28 732.09 1569.26 729.516 1562.71C726.943 1556.15 723.433 1550.3 718.988 1545.39C714.542 1540.48 709.161 1536.5 703.311 1533.69C697.228 1530.88 690.911 1529.48 684.36 1529.48C677.808 1529.48 671.257 1530.88 665.408 1533.69C659.558 1536.5 654.411 1540.48 649.732 1545.39C645.286 1550.3 641.777 1556.15 639.203 1562.94C636.395 1569.73 635.225 1576.98 635.225 1584.47Z" fill="#1B1B1B"/>
<path d="M848.398 1531.83C836.465 1532.06 826.17 1535.57 817.279 1541.66C808.389 1547.98 802.305 1556.4 798.562 1567.4V1651.41H781.014V1516.39H797.626V1548.91C802.539 1538.62 809.324 1530.43 817.747 1524.58C826.17 1518.73 835.295 1515.68 844.888 1515.68C846.292 1515.68 847.462 1515.68 848.164 1515.92V1531.83H848.398Z" fill="#1B1B1B"/>
<path d="M980.59 1651.41L930.754 1582.15L901.741 1609.06V1651.41H884.193V1462.1H901.741V1590.8L977.783 1516.62H997.67L942.453 1571.85L999.776 1651.41H980.59Z" fill="#1B1B1B"/>
</g>
</g>
<defs>
<clipPath id="clip0">
<rect width="1000" height="1654" fill="white"/>
</clipPath>
<clipPath id="clip1">
<rect width="1000" height="1000.17" fill="white"/>
</clipPath>
<clipPath id="clip2">
<rect width="999.766" height="387.525" fill="white" transform="translate(0 1266.45)"/>
</clipPath>
</defs>
</svg>
