<svg width="1000" height="1654" viewBox="0 0 1000 1654" fill="none" xmlns="http://www.w3.org/2000/svg">
<g clip-path="url(#clip0)">
<g clip-path="url(#clip1)">
<path d="M853.533 146.492C759.008 51.9508 633.599 0 500 0C224.38 0 0 224.418 0 500.085C0 775.751 224.38 1000.17 500 1000.17C633.599 1000.17 759.008 948.218 853.533 853.677C948.058 759.136 1000 633.706 1000 500.085C1000 366.463 948.058 241.033 853.533 146.492ZM500 974.428C238.418 974.428 25.737 761.711 25.737 500.085C25.737 238.459 238.418 25.7414 500 25.7414C761.582 25.7414 974.263 238.459 974.263 500.085C974.263 761.711 761.582 974.428 500 974.428Z" fill="white"/>
<path d="M550.775 447.45C473.33 412.114 406.414 381.692 411.328 307.744C413.433 278.727 434.257 261.41 451.337 252.049C472.628 240.349 501.173 234.264 525.974 235.903C591.955 240.349 643.897 268.196 694.435 325.997L713.855 309.148C659.105 246.433 599.91 215.075 527.612 210.161C521.997 209.693 516.381 209.693 510.532 209.927C509.362 209.927 508.192 209.927 507.256 209.927C459.76 209.927 408.052 225.372 368.277 251.581C321.482 282.471 295.277 324.827 294.575 370.928C292.703 483.722 386.058 522.1 468.417 556.032C544.224 587.389 609.971 614.301 608.567 688.483C607.865 738.561 539.077 765.473 490.644 765.473C489.942 765.473 489.474 765.473 488.773 765.473V765.707H488.539C416.943 764.771 353.302 734.817 299.255 676.782L280.303 694.333C338.562 757.048 410.392 790.746 488.305 791.682C489.475 791.682 490.644 791.682 491.814 791.682C542.118 791.682 596.4 778.343 638.047 755.41C689.053 727.563 718.768 687.079 721.81 641.68C729.531 528.886 634.538 485.594 550.775 447.45ZM696.073 639.574C693.031 686.143 656.063 715.862 625.647 732.477C622.839 734.115 620.031 735.519 617.224 736.923C627.752 723.351 634.07 707.204 634.538 688.717C635.942 596.984 555.923 563.988 478.478 532.162C396.587 498.465 319.142 466.405 320.546 371.162C321.014 333.954 343.241 299.086 382.783 272.877C388.632 268.898 394.949 265.388 401.501 261.878C392.376 274.983 386.994 289.725 386.058 305.638C379.741 397.371 461.398 434.579 540.481 470.383C623.775 508.761 702.624 544.799 696.073 639.574Z" fill="white"/>
</g>
<g clip-path="url(#clip2)">
<path d="M133.366 1438.26C121.901 1438.26 110.905 1436.39 99.9078 1432.88C88.9111 1429.14 79.7861 1423.99 71.8311 1417.2L84.6996 1395.44C92.8886 1401.29 101.078 1405.73 109.033 1408.78C116.988 1411.82 124.709 1413.22 132.43 1413.22C139.449 1413.22 144.831 1411.82 148.808 1409.24C152.786 1406.67 154.657 1402.93 154.657 1398.01C154.657 1393.1 152.318 1389.59 147.638 1387.48C142.959 1385.14 135.472 1382.57 124.709 1379.76C115.818 1377.42 108.331 1375.08 102.248 1372.74C95.9303 1370.4 91.0168 1367.82 87.2733 1365.02C83.5297 1362.21 80.722 1358.93 79.0842 1355.19C77.4464 1351.44 76.5105 1347 76.5105 1341.85C76.5105 1334.83 77.9144 1328.74 80.4881 1323.13C83.0618 1317.51 87.0393 1312.83 91.7187 1309.09C96.6322 1305.11 102.248 1302.3 108.799 1300.19C115.35 1298.09 122.369 1297.15 129.856 1297.15C140.151 1297.15 149.51 1298.56 158.635 1301.6C167.526 1304.64 175.715 1309.32 183.202 1315.87L169.164 1336.93C162.145 1331.79 155.593 1328.04 149.042 1325.47C142.491 1323.13 136.174 1321.72 129.622 1321.72C123.773 1321.72 118.86 1322.89 114.882 1325.47C110.905 1327.81 109.033 1331.79 109.033 1337.17C109.033 1339.51 109.501 1341.61 110.437 1343.02C111.372 1344.66 113.01 1346.06 114.882 1347.23C116.988 1348.4 119.795 1349.57 123.071 1350.74C126.347 1351.91 130.558 1353.08 135.706 1354.25C145.065 1356.59 153.02 1359.17 159.805 1361.51C166.356 1363.85 171.971 1366.65 176.183 1369.7C180.394 1372.74 183.436 1376.48 185.542 1380.46C187.414 1384.44 188.583 1389.35 188.583 1395.2C188.583 1408.54 183.67 1419.07 173.843 1426.8C163.548 1434.52 150.212 1438.26 133.366 1438.26Z" fill="white"/>
<path d="M356.106 1376.93H247.309C249.181 1387.23 254.094 1395.19 262.283 1401.27C270.238 1407.35 280.299 1410.16 292.232 1410.16C307.44 1410.16 320.074 1405.25 329.901 1395.19L347.215 1415.08C340.898 1422.57 333.177 1428.18 323.584 1431.93C313.991 1435.67 303.462 1437.54 291.53 1437.54C276.321 1437.54 262.985 1434.5 251.286 1428.42C239.588 1422.33 230.697 1413.91 224.379 1403.14C218.062 1392.38 215.021 1380.21 215.021 1366.4C215.021 1352.83 218.062 1340.66 224.145 1329.9C230.229 1319.13 238.886 1310.71 249.648 1304.62C260.645 1298.54 272.812 1295.5 286.382 1295.5C299.953 1295.5 311.885 1298.54 322.648 1304.39C333.177 1310.47 341.6 1318.66 347.449 1329.66C353.298 1340.43 356.34 1353.06 356.34 1367.1C356.574 1369.44 356.574 1372.72 356.106 1376.93ZM260.177 1330.83C252.924 1336.92 248.713 1345.11 247.075 1355.4H325.69C324.286 1345.34 320.074 1337.15 313.055 1331.07C306.036 1324.75 297.145 1321.71 286.616 1321.71C276.321 1321.47 267.43 1324.75 260.177 1330.83Z" fill="white"/>
<path d="M422.786 1428.42C411.322 1422.33 402.431 1413.91 396.113 1403.14C389.796 1392.38 386.521 1380.21 386.521 1366.4C386.521 1352.83 389.796 1340.66 396.113 1329.9C402.431 1319.13 411.322 1310.71 422.786 1304.62C434.017 1298.54 447.12 1295.5 461.626 1295.5C475.196 1295.5 487.363 1298.3 497.658 1303.69C507.952 1309.3 515.674 1317.26 520.821 1327.56L496.02 1342.06C492.042 1335.75 487.129 1330.83 481.046 1327.56C475.196 1324.28 468.645 1322.64 461.392 1322.64C449.225 1322.64 439.164 1326.62 431.209 1334.34C423.254 1342.3 419.277 1352.83 419.277 1365.93C419.277 1379.04 423.254 1389.57 430.975 1397.53C438.93 1405.48 448.991 1409.23 461.158 1409.23C468.177 1409.23 474.728 1407.59 480.812 1404.31C486.895 1401.04 491.808 1396.36 495.786 1389.8L520.587 1404.31C515.206 1414.61 507.485 1422.8 497.19 1428.42C486.895 1434.03 474.962 1436.84 461.626 1436.84C447.12 1437.54 434.251 1434.5 422.786 1428.42Z" fill="white"/>
<path d="M638.987 1295.73V1326.62C636.179 1326.16 633.605 1325.92 631.499 1325.92C618.865 1325.92 609.038 1329.67 602.019 1336.92C595 1344.17 591.49 1354.94 591.49 1368.75V1435.91H558.968V1297.37H589.618V1317.5C598.977 1302.99 615.355 1295.73 638.987 1295.73Z" fill="white"/>
<path d="M802.997 1376.93H694.199C696.071 1387.23 700.985 1395.19 709.174 1401.27C717.129 1407.35 727.19 1410.16 739.122 1410.16C754.33 1410.16 766.965 1405.25 776.792 1395.19L794.106 1415.08C787.789 1422.57 780.067 1428.18 770.475 1431.93C760.882 1435.67 750.353 1437.54 738.42 1437.54C723.212 1437.54 709.876 1434.5 698.177 1428.42C686.478 1422.33 677.587 1413.91 671.27 1403.14C664.953 1392.38 661.911 1380.21 661.911 1366.4C661.911 1352.83 664.953 1340.66 671.036 1329.9C677.119 1319.13 685.776 1310.71 696.539 1304.62C707.536 1298.54 719.702 1295.5 733.273 1295.5C746.843 1295.5 758.776 1298.54 769.539 1304.39C780.067 1310.47 788.49 1318.66 794.34 1329.66C800.189 1340.43 803.231 1353.06 803.231 1367.1C803.465 1369.44 803.465 1372.72 802.997 1376.93ZM707.068 1330.83C699.815 1336.92 695.603 1345.11 693.965 1355.4H772.58C771.177 1345.34 766.965 1337.15 759.946 1331.07C752.927 1324.75 744.036 1321.71 733.507 1321.71C723.212 1321.47 714.321 1324.75 707.068 1330.83Z" fill="white"/>
<path d="M928.167 1428.19C924.423 1431.24 919.744 1433.58 914.362 1435.22C908.981 1436.85 903.132 1437.56 897.048 1437.56C881.84 1437.56 870.142 1433.58 861.719 1425.62C853.529 1417.66 849.318 1405.96 849.318 1390.75V1324.06H826.389V1298.08H849.318V1266.49H881.84V1298.08H919.042V1324.06H881.84V1390.05C881.84 1396.84 883.478 1401.99 886.754 1405.5C890.029 1409.01 894.709 1410.88 901.026 1410.88C908.279 1410.88 914.362 1409.01 919.276 1405.26L928.167 1428.19Z" fill="white"/>
<path d="M110.435 1528.77C120.496 1538.83 125.643 1553.11 125.643 1572.3V1651.39H107.16V1574.17C107.16 1559.89 103.65 1549.13 96.6308 1541.64C89.6116 1534.15 79.3168 1530.41 66.2143 1530.41C51.474 1530.41 39.7754 1534.85 31.3524 1543.51C22.6954 1552.17 18.4839 1564.34 18.4839 1579.78V1651.39H0V1514.96H17.548V1540.24C22.4614 1532.05 29.4806 1525.49 38.3715 1520.81C47.2625 1516.13 57.5573 1514.03 69.256 1514.03C86.57 1514.03 100.374 1518.94 110.435 1528.77Z" fill="white"/>
<path d="M292.94 1588.91H178.762C179.698 1603.19 185.313 1614.65 195.14 1623.31C204.967 1631.97 217.367 1636.42 232.575 1636.42C240.998 1636.42 248.72 1635.01 255.973 1631.97C262.992 1628.93 269.309 1624.48 274.457 1618.63L284.751 1630.57C278.668 1637.82 271.181 1643.44 262.056 1647.18C252.931 1650.92 243.104 1652.8 232.107 1652.8C218.069 1652.8 205.668 1649.75 194.906 1643.9C184.143 1637.82 175.72 1629.63 169.637 1619.1C163.553 1608.57 160.512 1596.63 160.512 1583.29C160.512 1569.96 163.319 1558.02 169.169 1547.49C175.018 1536.96 182.973 1528.77 193.034 1522.92C203.095 1517.07 214.559 1514.03 227.194 1514.03C239.829 1514.03 251.059 1517.07 261.12 1522.92C271.181 1528.77 279.136 1536.96 284.751 1547.49C290.367 1558.02 293.408 1569.96 293.408 1583.53L292.94 1588.91ZM193.97 1542.34C185.079 1550.77 179.931 1561.77 178.762 1575.1H275.626C274.457 1561.53 269.309 1550.77 260.418 1542.34C251.527 1533.92 240.296 1529.71 227.194 1529.71C213.858 1529.71 202.861 1533.92 193.97 1542.34Z" fill="white"/>
<path d="M396.588 1643.22C393.079 1646.26 388.867 1648.6 383.72 1650.24C378.573 1651.88 373.191 1652.81 367.81 1652.81C354.941 1652.81 345.114 1649.3 338.329 1642.52C331.31 1635.5 328.034 1625.9 328.034 1613.27V1530.66H303.701V1514.98H328.034V1485.26H346.518V1514.98H387.931V1530.66H346.284V1612.1C346.284 1620.29 348.39 1626.37 352.368 1630.58C356.345 1634.8 362.194 1636.9 369.916 1636.9C373.659 1636.9 377.403 1636.2 380.912 1635.03C384.422 1633.86 387.463 1631.99 390.037 1629.88L396.588 1643.22Z" fill="white"/>
<path d="M588.439 1515.92H610.433L552.875 1651.42H533.924L506.783 1585.19L479.642 1651.42H460.69L403.133 1515.92H424.892L471.687 1628.72L494.616 1572.32L471.219 1515.92H490.171L506.783 1559.21L523.395 1515.92H542.347L519.183 1572.32L542.113 1628.72L588.439 1515.92Z" fill="white"/>
<path d="M684.127 1653.97C674.3 1653.97 665.175 1652.1 657.22 1648.35C649.031 1644.61 642.011 1639.46 636.162 1633.14C630.313 1626.83 625.633 1619.34 622.358 1610.91C619.082 1602.49 617.444 1593.6 617.444 1584.24C617.444 1574.64 619.082 1565.75 622.592 1557.32C625.867 1548.9 630.547 1541.41 636.63 1535.09C642.479 1528.77 649.733 1523.63 657.688 1519.88C665.877 1516.14 674.768 1514.27 684.361 1514.27C693.953 1514.27 703.078 1516.14 711.267 1519.88C719.456 1523.63 726.476 1528.77 732.559 1535.09C738.642 1541.41 743.088 1548.9 746.597 1557.32C749.873 1565.75 751.745 1574.87 751.745 1584.24C751.745 1593.6 750.107 1602.49 746.831 1610.91C743.556 1619.34 738.876 1626.83 733.027 1633.14C727.178 1639.46 719.924 1644.61 711.735 1648.35C703.078 1652.1 693.953 1653.97 684.127 1653.97ZM635.226 1584.47C635.226 1592.19 636.63 1599.21 639.204 1605.53C641.778 1612.08 645.287 1617.7 649.733 1622.61C654.178 1627.53 659.325 1631.51 665.409 1634.08C671.492 1636.89 677.809 1638.29 684.361 1638.29C690.912 1638.29 697.463 1636.89 703.312 1634.08C709.162 1631.27 714.543 1627.29 718.989 1622.38C723.434 1617.47 726.944 1611.62 729.517 1605.06C732.091 1598.51 733.495 1591.49 733.495 1583.77C733.495 1576.28 732.091 1569.26 729.517 1562.71C726.944 1556.15 723.434 1550.3 718.989 1545.39C714.543 1540.48 709.162 1536.5 703.312 1533.69C697.229 1530.88 690.912 1529.48 684.361 1529.48C677.809 1529.48 671.258 1530.88 665.409 1533.69C659.559 1536.5 654.412 1540.48 649.733 1545.39C645.287 1550.3 641.778 1556.15 639.204 1562.94C636.396 1569.73 635.226 1576.98 635.226 1584.47Z" fill="white"/>
<path d="M848.398 1531.83C836.465 1532.06 826.17 1535.57 817.279 1541.66C808.389 1547.98 802.305 1556.4 798.562 1567.4V1651.41H781.014V1516.39H797.626V1548.91C802.539 1538.62 809.324 1530.43 817.747 1524.58C826.17 1518.73 835.295 1515.68 844.888 1515.68C846.292 1515.68 847.462 1515.68 848.164 1515.92V1531.83H848.398Z" fill="white"/>
<path d="M980.59 1651.41L930.754 1582.15L901.741 1609.06V1651.41H884.193V1462.1H901.741V1590.8L977.783 1516.62H997.67L942.453 1571.85L999.776 1651.41H980.59Z" fill="white"/>
</g>
</g>
<defs>
<clipPath id="clip0">
<rect width="1000" height="1654" fill="white"/>
</clipPath>
<clipPath id="clip1">
<rect width="1000" height="1000.17" fill="white"/>
</clipPath>
<clipPath id="clip2">
<rect width="999.766" height="387.525" fill="white" transform="translate(0 1266.45)"/>
</clipPath>
</defs>
</svg>
