<svg width="2727" height="1007" viewBox="0 0 2727 1007" fill="none" xmlns="http://www.w3.org/2000/svg">
<path d="M856.807 147.692C761.919 52.7949 636.029 0.648438 501.918 0.648438C225.241 0.648438 0 225.912 0 502.617C0 779.322 225.241 1004.58 501.918 1004.58C636.029 1004.58 761.919 952.438 856.807 857.541C951.695 762.644 1003.84 636.741 1003.84 502.617C1003.84 368.492 951.695 242.589 856.807 147.692ZM501.918 978.747C239.333 978.747 25.8357 765.228 25.8357 502.617C25.8357 240.005 239.333 26.4868 501.918 26.4868C764.503 26.4868 978 240.005 978 502.617C978 765.228 764.503 978.747 501.918 978.747Z" fill="#1B1B1B"/>
<path d="M552.87 449.802C475.128 414.333 407.955 383.797 412.888 309.57C415.002 280.444 435.905 263.061 453.051 253.666C474.424 241.921 503.078 235.814 527.974 237.458C594.208 241.921 646.349 269.873 697.081 327.892L716.575 310.98C661.616 248.028 602.193 216.552 529.618 211.62C523.981 211.15 518.345 211.15 512.473 211.385C511.298 211.385 510.124 211.385 509.185 211.385C461.506 211.385 409.6 226.888 369.672 253.196C322.698 284.202 296.392 326.718 295.687 372.992C293.808 486.211 387.522 524.733 470.196 558.793C546.294 590.269 612.293 617.281 610.884 691.743C610.179 742.01 541.127 769.023 492.509 769.023C491.804 769.023 491.334 769.023 490.63 769.023V769.258H490.395C418.525 768.318 354.64 738.252 300.385 679.998L281.36 697.615C339.843 760.567 411.948 794.391 490.16 795.331C491.334 795.331 492.509 795.331 493.683 795.331C544.18 795.331 598.67 781.942 640.477 758.922C691.679 730.97 721.507 690.333 724.561 644.764C732.311 531.545 636.954 488.09 552.87 449.802ZM698.725 642.65C695.672 689.394 658.562 719.225 628.029 735.903C625.211 737.547 622.392 738.956 619.574 740.366C630.143 726.742 636.484 710.534 636.954 691.978C638.363 599.899 558.038 566.779 480.296 534.834C398.091 501.009 320.349 468.828 321.758 373.227C322.228 335.879 344.54 300.879 384.234 274.571C390.105 270.578 396.447 267.055 403.023 263.531C393.863 276.685 388.461 291.484 387.522 307.456C381.18 399.535 463.15 436.883 542.536 472.822C626.15 511.344 705.301 547.518 698.725 642.65Z" fill="#1B1B1B"/>
<path d="M1307.18 469.97C1290.04 469.97 1273.12 467.151 1256.68 461.749C1240.24 456.346 1226.15 448.36 1214.41 438.259L1233.9 405.374C1246.35 414.3 1258.56 420.877 1270.54 425.575C1282.28 430.038 1294.26 432.387 1306.01 432.387C1316.34 432.387 1324.56 430.508 1330.67 426.515C1336.77 422.522 1339.59 417.119 1339.59 409.602C1339.59 402.321 1336.07 396.918 1329.02 393.63C1321.98 390.341 1310.47 386.348 1294.73 381.885C1281.35 378.127 1270.07 374.603 1260.68 371.315C1251.28 368.026 1243.77 364.033 1237.89 359.805C1232.26 355.577 1228.03 350.644 1225.45 345.007C1222.86 339.369 1221.45 332.792 1221.45 324.806C1221.45 314.47 1223.57 305.075 1227.56 296.618C1231.55 288.397 1237.19 281.115 1244.47 275.243C1251.75 269.371 1260.21 264.908 1270.07 261.854C1279.94 258.801 1290.51 257.156 1302.01 257.156C1317.28 257.156 1331.84 259.27 1345.23 263.733C1358.62 268.196 1371.07 275.243 1382.1 285.344L1360.97 317.054C1350.63 309.303 1340.53 303.43 1330.67 299.907C1320.8 296.149 1311.17 294.504 1301.54 294.504C1292.62 294.504 1285.34 296.384 1279.23 299.907C1273.12 303.665 1270.31 309.538 1270.31 317.524C1270.31 321.282 1271.01 324.101 1272.42 326.45C1273.83 328.799 1276.18 330.913 1279.23 332.792C1282.28 334.671 1286.51 336.316 1291.44 337.96C1296.61 339.604 1302.95 341.483 1310.47 343.127C1324.56 346.886 1336.54 350.409 1346.64 354.167C1356.74 357.926 1364.96 361.919 1371.3 366.617C1377.64 371.315 1382.34 376.717 1385.39 382.824C1388.45 388.932 1389.86 396.213 1389.86 404.905C1389.86 424.87 1382.34 440.843 1367.54 452.353C1352.98 464.333 1332.78 469.97 1307.18 469.97Z" fill="#1B1B1B"/>
<path d="M1643.05 377.407H1479.35C1482.16 392.675 1489.68 404.889 1501.89 414.05C1514.11 422.976 1529.14 427.439 1546.99 427.439C1570.01 427.439 1588.79 419.922 1603.59 404.654L1629.66 434.721C1620.27 445.996 1608.52 454.452 1594.2 460.089C1579.87 465.727 1563.66 468.78 1545.81 468.78C1522.8 468.78 1502.6 464.317 1485.22 455.156C1467.84 445.996 1454.21 433.311 1444.82 417.104C1435.19 400.896 1430.49 382.339 1430.49 361.904C1430.49 341.468 1435.19 323.381 1444.35 306.938C1453.51 290.731 1466.43 278.046 1482.87 268.886C1499.31 259.725 1517.86 255.262 1538.3 255.262C1558.73 255.262 1576.82 259.725 1592.79 268.651C1608.76 277.577 1621.21 290.261 1630.37 306.469C1639.29 322.676 1643.75 341.703 1643.75 362.843C1643.75 366.367 1643.52 371.064 1643.05 377.407ZM1498.6 308.113C1487.8 317.274 1481.22 329.723 1478.88 344.991H1597.25C1595.14 329.958 1588.79 317.743 1577.99 308.348C1567.19 298.952 1554.03 294.254 1538.06 294.254C1522.56 294.019 1509.41 298.717 1498.6 308.113Z" fill="#1B1B1B"/>
<path d="M1743.57 455.156C1726.43 445.996 1713.04 433.311 1703.41 417.104C1693.78 400.896 1688.85 382.339 1688.85 361.904C1688.85 341.233 1693.78 322.911 1703.41 306.703C1713.04 290.496 1726.43 277.812 1743.57 268.886C1760.72 259.725 1780.21 255.262 1802.06 255.262C1822.73 255.262 1840.58 259.49 1856.08 267.711C1871.58 276.167 1883.32 288.147 1891.07 303.65L1853.49 325.495C1847.39 315.864 1840.11 308.583 1830.95 303.885C1822.02 298.952 1812.16 296.603 1801.35 296.603C1783.03 296.603 1768 302.475 1756.02 314.455C1744.04 326.2 1737.94 342.172 1737.94 361.904C1737.94 381.635 1743.81 397.607 1755.79 409.352C1767.53 421.332 1782.8 427.204 1801.35 427.204C1811.92 427.204 1821.79 424.855 1830.95 419.922C1839.87 414.99 1847.39 407.943 1853.49 398.312L1891.07 420.157C1883.09 435.895 1871.11 447.875 1855.61 456.331C1840.11 464.787 1822.26 469.015 1801.82 469.015C1779.98 468.78 1760.72 464.317 1743.57 455.156Z" fill="#1B1B1B"/>
<path d="M2069.12 255.066V301.575C2064.89 300.871 2061.13 300.401 2057.84 300.401C2038.82 300.401 2024.02 306.038 2013.22 317.078C2002.41 328.118 1997.25 344.091 1997.25 364.997V466.236H1948.39V257.415H1994.9V287.952C2008.99 266.106 2033.65 255.066 2069.12 255.066Z" fill="#1B1B1B"/>
<path d="M2316.2 377.407H2152.49C2155.31 392.675 2162.83 404.889 2175.04 414.05C2187.25 422.976 2202.29 427.439 2220.14 427.439C2243.15 427.439 2261.94 419.922 2276.74 404.654L2302.81 434.721C2293.42 445.996 2281.67 454.452 2267.34 460.089C2253.02 465.727 2236.81 468.78 2218.96 468.78C2195.94 468.78 2175.74 464.317 2158.36 455.156C2140.98 445.996 2127.36 433.311 2117.97 417.104C2108.34 400.896 2103.64 382.339 2103.64 361.904C2103.64 341.468 2108.34 323.381 2117.5 306.938C2126.66 290.731 2139.57 278.046 2156.02 268.886C2172.46 259.725 2191.01 255.262 2211.45 255.262C2231.88 255.262 2249.96 259.725 2265.94 268.651C2281.91 277.577 2294.35 290.261 2303.51 306.469C2312.44 322.676 2316.9 341.703 2316.9 362.843C2317.14 366.367 2316.9 371.064 2316.2 377.407ZM2171.99 308.113C2161.18 317.274 2154.61 329.723 2152.26 344.991H2270.63C2268.52 329.958 2262.18 317.743 2251.37 308.348C2240.57 298.952 2227.42 294.254 2211.45 294.254C2195.94 294.019 2182.79 298.717 2171.99 308.113Z" fill="#1B1B1B"/>
<path d="M2504.78 454.698C2499.14 459.396 2492.1 462.919 2483.88 465.268C2475.66 467.617 2466.97 468.791 2457.81 468.791C2434.79 468.791 2417.17 462.684 2404.73 450.705C2392.28 438.725 2385.94 421.343 2385.94 398.323V297.789H2351.64V259.031H2385.94V211.348H2434.79V259.031H2490.69V298.024H2434.79V397.384C2434.79 407.484 2437.37 415.236 2442.3 420.638C2447.24 426.041 2454.52 428.625 2463.91 428.625C2474.95 428.625 2483.88 425.806 2491.16 419.933L2504.78 454.698Z" fill="#1B1B1B"/>
<path d="M1386.81 606.448C1402.08 621.481 1409.59 643.327 1409.59 671.984V791.31H1381.88V674.802C1381.88 653.427 1376.48 637.219 1365.91 625.944C1355.1 614.67 1340.07 609.032 1320.11 609.032C1298.03 609.032 1280.41 615.609 1267.5 628.763C1254.58 641.917 1248.24 660.004 1248.24 683.259V791.075H1220.52V585.543H1247.06V623.361C1254.58 610.911 1265.15 601.046 1278.54 594.234C1291.92 587.422 1307.42 583.898 1325.27 583.898C1351.11 583.898 1371.54 591.415 1386.81 606.448Z" fill="#1B1B1B"/>
<path d="M1661.85 696.882H1489.93C1491.57 718.258 1499.79 735.405 1514.59 748.559C1529.39 761.713 1548.18 768.29 1570.96 768.29C1583.64 768.29 1595.39 765.941 1606.19 761.478C1616.76 757.015 1626.15 750.203 1633.9 741.277L1649.64 759.364C1640.48 770.404 1629.21 778.625 1615.35 784.498C1601.73 790.135 1586.7 793.189 1570.25 793.189C1549.12 793.189 1530.56 788.726 1514.12 779.8C1497.91 770.874 1485.23 758.425 1476.07 742.452C1466.91 726.479 1462.45 708.627 1462.45 688.426C1462.45 668.46 1466.91 650.373 1475.6 634.401C1484.29 618.428 1496.27 606.213 1511.54 597.287C1526.8 588.361 1543.95 583.898 1562.97 583.898C1582 583.898 1599.14 588.361 1614.18 597.287C1629.21 606.213 1641.19 618.428 1649.64 634.166C1658.33 649.904 1662.56 667.99 1662.56 688.191L1661.85 696.882ZM1512.71 626.884C1499.32 639.568 1491.57 656.011 1489.93 676.447H1635.78C1633.9 656.011 1626.39 639.568 1613 626.884C1599.61 614.2 1582.94 607.858 1562.74 607.858C1542.77 607.858 1526.1 614.2 1512.71 626.884Z" fill="#1B1B1B"/>
<path d="M1818.02 778.643C1812.85 783.341 1806.28 786.864 1798.76 789.448C1791.01 792.032 1783.03 793.206 1774.81 793.206C1755.55 793.206 1740.75 788.039 1730.18 777.468C1719.85 767.133 1714.44 752.335 1714.44 733.308V609.049H1677.8V585.56H1714.44V540.695H1742.16V585.56H1804.63V609.049H1742.16V731.899C1742.16 744.113 1745.21 753.509 1751.32 759.851C1757.42 766.193 1766.35 769.482 1777.62 769.482C1783.26 769.482 1788.9 768.542 1794.3 766.663C1799.7 764.784 1804.16 762.2 1808.16 758.912L1818.02 778.643Z" fill="#1B1B1B"/>
<path d="M2106.93 587.137H2140.05L2053.38 791.259H2024.96L1983.86 691.664L1943.23 791.259H1914.81L1828.14 587.137H1861.02L1931.48 757.2L1965.77 672.403L1930.54 587.606H1958.96L1984.09 652.907L2009.22 587.606H2037.64L2002.65 672.403L2036.94 757.2L2106.93 587.137Z" fill="#1B1B1B"/>
<path d="M2251.37 795.032C2236.57 795.032 2222.95 792.214 2210.73 786.576C2198.52 780.939 2187.95 773.422 2178.79 763.791C2169.87 754.161 2162.82 742.886 2157.89 730.202C2152.96 717.517 2150.37 704.128 2150.37 690.035C2150.37 675.706 2152.96 662.082 2157.89 649.398C2163.06 636.714 2170.1 625.439 2179.03 615.808C2187.95 606.178 2198.52 598.426 2210.97 592.789C2223.18 587.151 2236.57 584.098 2251.13 584.098C2265.69 584.098 2279.32 586.916 2291.53 592.789C2303.98 598.426 2314.55 606.178 2323.47 615.808C2332.4 625.439 2339.44 636.714 2344.61 649.398C2349.78 662.082 2352.13 675.706 2352.13 690.035C2352.13 704.128 2349.54 717.517 2344.61 730.202C2339.68 742.886 2332.63 754.161 2323.71 763.791C2314.78 773.422 2303.98 781.174 2291.76 786.576C2279.79 792.214 2266.16 795.032 2251.37 795.032ZM2177.38 690.27C2177.38 701.779 2179.26 712.35 2183.25 722.215C2187.25 732.081 2192.41 740.537 2198.99 748.054C2205.57 755.57 2213.55 761.208 2222.48 765.436C2231.4 769.664 2241.03 771.778 2251.13 771.778C2261.23 771.778 2270.86 769.664 2279.79 765.436C2288.71 761.208 2296.7 755.335 2303.51 747.819C2310.32 740.302 2315.72 731.846 2319.48 721.745C2323.47 711.88 2325.35 701.075 2325.35 689.8C2325.35 678.525 2323.47 667.955 2319.48 657.854C2315.49 647.754 2310.32 639.063 2303.51 631.546C2296.7 624.03 2288.95 618.157 2279.79 613.929C2270.86 609.701 2261.23 607.587 2251.13 607.587C2241.03 607.587 2231.4 609.701 2222.71 613.929C2213.79 618.157 2206.04 624.265 2199.23 631.781C2192.41 639.298 2187.01 648.224 2183.25 658.089C2179.5 668.19 2177.38 678.76 2177.38 690.27Z" fill="#1B1B1B"/>
<path d="M2498.67 610.894C2480.59 611.364 2465.09 616.297 2451.7 625.693C2438.31 635.088 2428.92 648.008 2423.52 664.45V791.058H2396.97V587.405H2422.11V636.263C2429.62 620.525 2439.72 608.31 2452.64 599.619C2465.32 590.693 2479.18 586.23 2493.74 586.23C2495.86 586.23 2497.5 586.465 2498.91 586.7V610.894H2498.67Z" fill="#1B1B1B"/>
<path d="M2698.1 791.056L2622.94 686.763L2579.26 727.399V791.056H2552.72V505.895H2579.26V699.682L2693.64 587.872H2723.7L2640.56 671.025L2726.99 791.056H2698.1Z" fill="#1B1B1B"/>
</svg>
