<?xml version="1.0" encoding="utf-8"?>
<!-- Generator: Adobe Illustrator 24.3.0, SVG Export Plug-In . SVG Version: 6.00 Build 0)  -->
<svg version="1.1" id="Layer_1" xmlns="http://www.w3.org/2000/svg" xmlns:xlink="http://www.w3.org/1999/xlink" x="0px" y="0px"
	 viewBox="0 0 1000 1158" style="enable-background:new 0 0 1000 1158;" xml:space="preserve">
<style type="text/css">
	.st0{fill:#1B1B1B;}
</style>
<g>
	<g>
		<path class="st0" d="M737.7,98.6C674.2,35,589.8,0,500,0C314.6,0,163.8,150.9,163.8,336.5c0,185.5,150.8,336.5,336.2,336.5
			c89.8,0,174.2-35,237.7-98.6c63.5-63.6,98.5-148.1,98.5-237.9C836.2,246.6,801.3,162.1,737.7,98.6z M500,649.6
			c-172.6,0-313-140.5-313-313.2c0-172.7,140.4-313.2,313-313.2c172.6,0,313,140.5,313,313.2C813,509.2,672.6,649.6,500,649.6z"/>
		<path class="st0" d="M610.4,344.4c-21.5-19.2-49.7-32.1-77-44.5l-0.2-0.1c-48.2-22-89.9-41-86.9-86.1c1.2-17.2,13.7-27.5,24-33.1
			c11.5-6.3,26.8-10.1,40.9-10.1c1.7,0,3.4,0.1,5,0.2c41.1,2.8,73.6,20.2,105.3,56.4l1.9,2.2l2.2-1.9l12.4-10.7l2.2-1.9l-1.9-2.2
			c-35.3-40.5-73.7-60.9-120.6-64.1c-2-0.2-4.2-0.3-6.5-0.3c-1.4,0-2.9,0-4.6,0.1h-2c-30.8,0-64.4,10.1-90.1,27
			c-30.7,20.2-47.8,48.1-48.2,78.4c-1.2,73.8,59.1,98.7,112.4,120.6l0.1,0l0.5,0.2c47.1,19.5,87.7,36.3,86.9,81.4
			c-0.4,29.7-42.9,46.2-72.2,46.2h-1.2h-2.9v0.1c-43.5-1.3-82.4-20-115.6-55.7l-2-2.1l-2.1,2l-12.1,11.2l-2.2,2l2,2.1
			c37.7,40.6,84.2,62.4,134.6,63h2.3c32.5,0,67.8-8.8,94.5-23.5c33.4-18.2,52.8-44.8,54.8-74.8C646.2,393.4,635.2,366.6,610.4,344.4
			z M454.1,280.2c19.2,16.4,45.2,28.2,70.3,39.6l0.5,0.2c26.6,12.3,51.7,23.8,70,39.9c20.2,17.8,28.8,38.4,26.9,64.8
			c-1.7,26.2-21.1,43.7-38.9,54.3c3.5-7,5.3-14.6,5.5-22.7c0.4-27.2-10-48.9-32-66.5c-19.2-15.4-44.6-25.9-69.2-36
			c-51.2-21.1-99.6-41-98.8-99.8c0.3-22.6,13.9-44,38.3-60.2c0.8-0.5,1.6-1.1,2.5-1.6c-2.9,6.3-4.5,13-4.9,19.9
			C422.4,239.2,432.2,261.5,454.1,280.2z"/>
	</g>
	<g>
		<path class="st0" d="M133.3,918.3c-11.4,0-22.6-1.9-33.5-5.5c-10.9-3.6-20.3-8.9-28.1-15.6l12.9-21.8c8.3,5.9,16.4,10.3,24.3,13.4
			c7.8,3,15.7,4.5,23.5,4.5c6.9,0,12.3-1.2,16.4-3.9c4.1-2.7,5.9-6.2,5.9-11.2c0-4.8-2.3-8.4-7-10.6c-4.7-2.2-12.3-4.8-22.8-7.8
			c-8.9-2.5-16.4-4.8-22.6-7c-6.2-2.2-11.2-4.8-15.1-7.6c-3.7-2.8-6.5-6.1-8.3-9.8c-1.7-3.7-2.6-8.1-2.6-13.4
			c0-6.9,1.4-13.1,4.1-18.7c2.7-5.5,6.4-10.3,11.2-14.2c4.8-3.9,10.4-6.9,17-8.9c6.5-2,13.6-3.1,21.2-3.1c10.1,0,19.8,1.4,28.7,4.4
			c8.9,3,17.1,7.6,24.5,14.4l-14,21.1c-6.9-5.1-13.6-9-20.1-11.4c-6.5-2.5-12.9-3.6-19.3-3.6c-5.9,0-10.8,1.2-14.8,3.6
			c-4.1,2.5-5.9,6.4-5.9,11.7c0,2.5,0.5,4.4,1.4,5.9c0.9,1.6,2.5,3,4.5,4.2c2,1.2,4.8,2.3,8.1,3.4c3.4,1.1,7.6,2.3,12.6,3.4
			c9.4,2.5,17.3,4.8,24,7.3c6.7,2.5,12.2,5.1,16.4,8.3c4.2,3.1,7.3,6.7,9.4,10.8c2,4.1,3,8.9,3,14.7c0,13.3-5,23.9-14.8,31.5
			C163.7,914.6,150.3,918.3,133.3,918.3z"/>
		<path class="st0" d="M356.3,856.9H247.6c1.9,10.1,6.9,18.3,15,24.3c8.1,5.9,18.1,8.9,29.9,8.9c15.3,0,27.8-5,37.6-15.1l17.3,20
			c-6.2,7.5-14,13.1-23.5,16.8c-9.5,3.7-20.3,5.8-32.1,5.8c-15.3,0-28.7-3-40.2-9c-11.5-6.1-20.6-14.5-26.8-25.3
			c-6.4-10.8-9.5-23.1-9.5-36.7s3.1-25.6,9.2-36.5c6.1-10.8,14.7-19.2,25.6-25.3c10.9-6.1,23.2-9,36.8-9c13.6,0,25.6,3,36.2,8.9
			c10.6,5.9,18.9,14.4,24.9,25.1c5.9,10.8,8.9,23.4,8.9,37.4C356.7,849.5,356.6,852.7,356.3,856.9z M260.4,810.8
			c-7.2,6.1-11.5,14.4-13.1,24.5h78.6c-1.4-10-5.6-18.1-12.8-24.3c-7.2-6.2-15.9-9.4-26.5-9.4C276.3,801.5,267.5,804.6,260.4,810.8z
			"/>
		<path class="st0" d="M423,908.5c-11.4-6.1-20.3-14.5-26.7-25.3c-6.4-10.8-9.7-23.1-9.7-36.7c0-13.7,3.3-25.9,9.7-36.7
			c6.4-10.8,15.3-19.2,26.7-25.1c11.4-6.1,24.3-9,38.8-9c13.7,0,25.6,2.8,35.9,8.3c10.3,5.6,18.1,13.6,23.2,23.9l-24.9,14.5
			c-4.1-6.4-8.9-11.2-15-14.4c-5.9-3.3-12.5-4.8-19.6-4.8c-12.2,0-22.1,3.9-30.1,11.9c-8,7.8-12,18.4-12,31.5s3.9,23.7,11.8,31.5
			c7.8,8,17.9,11.9,30.2,11.9c7,0,13.6-1.6,19.6-4.8c5.9-3.3,10.9-8,15-14.4l24.9,14.5c-5.3,10.5-13.3,18.4-23.5,24
			c-10.3,5.6-22.1,8.4-35.7,8.4C447.1,917.6,434.4,914.6,423,908.5z"/>
		<path class="st0" d="M639.1,775.6v30.9c-2.8-0.5-5.3-0.8-7.5-0.8c-12.6,0-22.5,3.7-29.6,11.1c-7.2,7.3-10.6,17.9-10.6,31.8v67.2
			h-32.4V777.1h30.9v20.3C599.2,782.9,615.5,775.6,639.1,775.6z"/>
		<path class="st0" d="M803.1,856.9H694.4c1.9,10.1,6.9,18.3,15,24.3c8.1,5.9,18.1,8.9,29.9,8.9c15.3,0,27.8-5,37.6-15.1l17.3,20
			c-6.2,7.5-14,13.1-23.5,16.8c-9.5,3.7-20.3,5.8-32.1,5.8c-15.3,0-28.7-3-40.2-9c-11.5-6.1-20.6-14.5-26.8-25.3
			c-6.4-10.8-9.5-23.1-9.5-36.7s3.1-25.6,9.2-36.5c6.1-10.8,14.7-19.2,25.6-25.3c10.9-6.1,23.2-9,36.8-9c13.6,0,25.6,3,36.2,8.9
			c10.6,5.9,18.9,14.4,24.9,25.1c5.9,10.8,8.9,23.4,8.9,37.4C803.7,849.5,803.6,852.7,803.1,856.9z M707.4,810.8
			c-7.2,6.1-11.5,14.4-13.1,24.5h78.6c-1.4-10-5.6-18.1-12.8-24.3c-7.2-6.2-15.9-9.4-26.5-9.4C723.3,801.5,714.5,804.6,707.4,810.8z
			"/>
		<path class="st0" d="M928.3,908.2c-3.7,3.1-8.4,5.5-13.9,7c-5.5,1.6-11.2,2.3-17.3,2.3c-15.3,0-27-4.1-35.2-12
			s-12.5-19.5-12.5-34.8V804h-22.8v-25.7h22.8v-31.7h32.4v31.7h37.1v25.9h-37.1v66c0,6.7,1.7,11.9,5,15.4c3.3,3.6,8.1,5.3,14.3,5.3
			c7.3,0,13.3-1.9,18.1-5.8L928.3,908.2z"/>
	</g>
	<g>
		<path class="st0" d="M110.4,1033.4c10.1,10,15.1,24.5,15.1,43.5v79.3h-18.4v-77.4c0-14.2-3.6-25-10.6-32.4
			c-7.2-7.5-17.1-11.2-30.4-11.2c-14.7,0-26.3,4.4-34.9,13.1c-8.6,8.7-12.8,20.8-12.8,36.2v71.6H0v-136.5h17.6v25.1
			c5-8.3,12-14.8,20.9-19.3c8.9-4.5,19.2-6.9,31-6.9C86.7,1018.4,100.3,1023.4,110.4,1033.4z"/>
		<path class="st0" d="M293,1093.5H178.8c1.1,14.2,6.5,25.6,16.4,34.3c9.8,8.7,22.3,13.1,37.4,13.1c8.4,0,16.2-1.6,23.4-4.5
			c7-3,13.3-7.5,18.4-13.4l10.4,12c-6.1,7.3-13.6,12.8-22.8,16.7c-9,3.7-19,5.8-29.9,5.8c-14,0-26.3-3-37.3-8.9
			c-10.8-5.9-19.2-14.2-25.3-24.8c-6.1-10.6-9-22.5-9-35.9c0-13.3,3-25.3,8.7-35.9c5.8-10.6,13.7-18.7,23.9-24.7
			c10.1-5.9,21.5-8.9,34.1-8.9c12.6,0,24,3,34,8.9c10,5.9,17.9,14,23.5,24.5c5.8,10.5,8.6,22.5,8.6,35.9L293,1093.5z M194,1047
			c-8.9,8.4-14,19.3-15.1,32.9h96.8c-1.2-13.6-6.2-24.5-15.1-32.9c-8.9-8.4-20-12.6-33.4-12.6C213.9,1034.4,202.8,1038.6,194,1047z"
			/>
		<path class="st0" d="M396.6,1147.8c-3.4,3.1-7.8,5.5-12.8,7.2c-5.1,1.7-10.4,2.5-15.9,2.5c-12.8,0-22.6-3.4-29.6-10.5
			c-6.9-6.9-10.4-16.7-10.4-29.3v-82.5h-24.3v-15.6h24.3v-29.8h18.4v29.8h41.5v15.6h-41.5v81.6c0,8.1,2,14.4,6.1,18.6
			c4.1,4.2,10,6.4,17.5,6.4c3.7,0,7.5-0.6,11.1-1.9c3.6-1.2,6.5-3,9.2-5.1L396.6,1147.8z"/>
		<path class="st0" d="M588.4,1020.6h22l-57.5,135.6H534l-27.3-66.1l-27,66.1h-18.9l-57.5-135.6h21.8l46.8,113l22.8-56.3l-23.4-56.3
			h18.9l16.7,43.4l16.7-43.4h18.9l-23.2,56.3l22.8,56.3L588.4,1020.6z"/>
		<path class="st0" d="M684.3,1158c-9.8,0-18.9-1.9-27-5.6c-8.1-3.7-15.1-8.7-21.2-15.1c-5.9-6.4-10.6-13.9-13.9-22.3
			c-3.3-8.4-5-17.3-5-26.7c0-9.5,1.7-18.6,5-27c3.4-8.4,8.1-15.9,14-22.3c5.9-6.4,12.9-11.5,21.2-15.3c8.1-3.7,17-5.8,26.7-5.8
			c9.7,0,18.7,1.9,26.8,5.8c8.3,3.7,15.3,8.9,21.2,15.3c5.9,6.4,10.6,13.9,14,22.3c3.4,8.4,5,17.5,5,27c0,9.4-1.7,18.3-5,26.7
			c-3.3,8.4-8,15.9-13.9,22.3c-5.9,6.4-13.1,11.5-21.2,15.1C703.1,1156.1,694.1,1158,684.3,1158z M635.2,1088.4
			c0,7.6,1.2,14.7,3.9,21.2c2.7,6.6,6.1,12.2,10.4,17.2c4.4,5,9.7,8.7,15.6,11.5c5.9,2.8,12.3,4.2,19,4.2s13.1-1.4,19-4.2
			c5.9-2.8,11.2-6.7,15.7-11.7c4.5-5,8.1-10.6,10.6-17.3c2.7-6.6,3.9-13.7,3.9-21.2c0-7.5-1.2-14.5-3.9-21.2
			c-2.7-6.7-6.1-12.5-10.6-17.5c-4.5-5-9.7-8.9-15.7-11.7c-5.9-2.8-12.3-4.2-19-4.2s-13.1,1.4-18.9,4.2c-5.9,2.8-11.1,6.9-15.6,11.9
			c-4.5,5-8.1,10.9-10.6,17.5C636.6,1073.8,635.2,1080.8,635.2,1088.4z"/>
		<path class="st0" d="M848.5,1036.5c-12,0.3-22.3,3.6-31.2,9.8c-8.9,6.2-15.1,14.8-18.7,25.7v84.1h-17.6v-135.3h16.7v32.5
			c5-10.5,11.7-18.6,20.3-24.3c8.4-5.9,17.6-8.9,27.3-8.9c1.4,0,2.5,0.2,3.4,0.3v16.1H848.5z"/>
		<path class="st0" d="M980.8,1156.2l-49.9-69.3l-29,27v42.3h-17.6V966.8h17.6v128.7l75.9-74.3h20l-55.2,55.2l57.4,79.7H980.8z"/>
	</g>
</g>
</svg>
