<?xml version="1.0" encoding="UTF-8"?>
<svg width="49px" height="47px" viewBox="0 0 49 47" version="1.1" xmlns="http://www.w3.org/2000/svg" xmlns:xlink="http://www.w3.org/1999/xlink">
    <title>Group</title>
    <g id="Page-1" stroke="none" stroke-width="1" fill="none" fill-rule="evenodd">
        <g id="large-copy-4" transform="translate(-320.000000, -341.000000)">
            <g id="Group" transform="translate(320.000000, 341.000000)">
                <circle id="Oval-Copy-5" fill="#D63A2D" cx="15" cy="32" r="15"></circle>
                <circle id="Oval-Copy-6" fill="#F4D22A" cx="24" cy="15" r="15"></circle>
                <path d="M15,17 C22.2175003,17 28.2444131,22.0975106 29.6769123,28.8887057 C27.9256333,29.6050728 26.0089367,30 24,30 C16.7824997,30 10.7555869,24.9024894 9.32308765,18.1112943 C11.0749865,17.3947995 12.9913881,17 15,17 Z" id="Path" fill="#FFDEC0"></path>
                <circle id="Oval-Copy-7" fill="#615982" cx="34" cy="32" r="15"></circle>
                <path d="M34,17 C35.6582574,17 37.2536667,17.2690843 38.7449459,17.7659708 C37.4471334,24.7292979 31.3390859,30 24,30 C22.3418118,30 20.7464663,29.7309381 19.2552407,29.2340914 C20.5528666,22.2707021 26.6609141,17 34,17 Z" id="Path" fill="#A6DDA9"></path>
                <path d="M24.5007599,20.3918564 C27.8578255,23.1427171 30,27.3211927 30,32 C30,36.6788073 27.8578255,40.8572829 24.5007599,43.6081436 C21.1426012,40.8581153 19,36.6792733 19,32 C19,27.3859755 21.083264,23.2585234 24.3604955,20.5069403 Z" id="Combined-Shape" fill="#D63A2D"></path>
                <path d="M28.2700459,25.0002632 C28.394945,25.2365562 28.5137176,25.4765873 28.6261523,25.7201452 C28.7646597,26.0201889 28.8935033,26.3254667 29.0123406,26.6356975 C29.0306637,26.6835389 29.0484562,26.7307099 29.0660171,26.7779935 C29.147139,26.9963981 29.2234599,27.2176441 29.2946834,27.4411648 L29.2675322,27.356825 C29.2920492,27.4322122 29.3159854,27.5078615 29.3393354,27.5837675 L29.3393985,27.5839727 C29.400485,27.7825522 29.4576146,27.9830978 29.5106293,28.1853095 C29.5744251,28.428657 29.6322177,28.6742078 29.6838961,28.9220024 L29.6838734,28.9218933 C29.737305,29.1780945 29.7841833,29.4365833 29.8243491,29.6972866 L29.8242878,29.6968891 C29.9010595,30.1951906 29.9532856,30.7011722 29.9797588,31.213963 L29.9797555,31.2138997 C29.9931976,31.4742759 30,31.7363436 30,32 C30,32.2866999 29.9919566,32.5715212 29.9760831,32.8542506 L29.9760575,32.8547073 C29.9468704,33.3745727 29.8911379,33.8878095 29.8102157,34.3926311 L29.8102476,34.3924319 C29.7675995,34.658486 29.7179972,34.9220071 29.6616029,35.1830001 L29.6617163,35.1824753 C29.6180852,35.3844 29.5705232,35.5842945 29.5190059,35.7825943 C29.4493817,36.0505825 29.3725706,36.3155441 29.2887622,36.5773758 L29.3544014,36.3669528 C29.3277819,36.4545657 29.3003822,36.5418391 29.2722105,36.6287649 L29.272269,36.6285844 C29.2093378,36.8227627 29.1426198,37.0150289 29.0721462,37.2054736 L29.0149481,37.3574905 L29.0149481,37.3574905 L28.8926113,37.6669232 C28.840437,37.7946985 28.7865511,37.9215932 28.7309821,38.0475787 L28.7571552,37.9878865 C28.7127896,38.0896743 28.6673274,38.1908742 28.6207836,38.2914715 L28.7309821,38.0475787 C28.6775185,38.168791 28.622497,38.2891617 28.5659429,38.4086655 L28.6207836,38.2914715 C28.5651137,38.4117932 28.5078965,38.5312527 28.4491573,38.6498243 L28.4491487,38.6498417 C28.3702363,38.8091353 28.288568,38.9668436 28.2042143,39.1228872 C27.9380074,39.6153473 27.6449741,40.0913441 27.3271299,40.5488048 C27.2324075,40.6851349 27.1354863,40.8198123 27.0364134,40.9527922 L26.833735,41.2186254 C26.7442555,41.3333244 26.6531448,41.4466888 26.560438,41.5586837 L26.5603218,41.5588241 C26.1953983,41.9996713 25.8056098,42.4194258 25.393201,42.8158185 C25.2057401,42.9959919 25.0138369,43.1711383 24.8174704,43.34127 L25.0087428,43.1727014 C24.9171792,43.2547814 24.8246009,43.3357522 24.7310289,43.4155928 L24.7307863,43.4157998 L24.5007599,43.6081436 L24.5007599,43.6081436 C23.435025,42.7354031 22.4917155,41.7187591 21.7004623,40.5878851 L21.7423834,40.6479978 C21.6783009,40.5573334 21.615199,40.4659267 21.553093,40.373793 L21.7004623,40.5878851 C21.626642,40.4823798 21.5541452,40.3758801 21.4829959,40.2684104 L21.4828583,40.2686486 C21.2733269,39.9517086 21.0753603,39.6265818 20.889712,39.2936466 L20.9548694,39.4096197 C20.9036341,39.3196105 20.8533035,39.2290194 20.8038899,39.1378586 L20.8041282,39.1379994 C20.7102932,38.9651865 20.6199868,38.7904708 20.5330548,38.6137957 C20.4278186,38.3997028 20.3274593,38.1828251 20.2322014,37.9632206 L20.2324014,37.9638687 C20.0348191,37.5081815 19.85934,37.0414346 19.7070931,36.5643106 L19.7070622,36.5643098 C19.5649159,36.118744 19.4429993,35.6641277 19.3424257,35.2015456 C19.2844083,34.934724 19.2335073,34.6652967 19.1899121,34.3934286 L19.2422271,34.6993079 C19.2186751,34.5697059 19.1967886,34.4395234 19.1765904,34.3087833 L19.1765644,34.3086345 C19.096984,33.7935021 19.0436038,33.26956 19.0178554,32.7383646 L19.017862,32.738503 C19.0059976,32.4937355 19,32.2475682 19,32 C19,31.316633 19.0456975,30.6439393 19.1342034,29.9848079 L19.1208873,30.0866168 C19.1362511,29.9659424 19.1530488,29.8457158 19.1712626,29.7259544 L19.1342034,29.9848079 C19.1506311,29.8624653 19.1685337,29.7405899 19.1878926,29.6192002 L19.1712626,29.7259544 C19.1882117,29.6145088 19.2063872,29.5034661 19.2257749,29.3928405 L19.1878926,29.6192002 C19.207068,29.4989611 19.2276723,29.3791986 19.2496875,29.2599306 L19.2257749,29.3928405 C19.2586997,29.2049723 19.2951204,29.0183072 19.3349674,28.8329148 C19.400745,28.5268962 19.4758074,28.2245254 19.559882,27.9259301 C19.6332079,27.6654962 19.7134529,27.4077493 19.8003561,27.1530861 L19.7461004,27.3151154 C19.776763,27.2217679 19.8083171,27.1288248 19.8407525,27.0362961 L19.8003561,27.1530861 C19.8401778,27.0363915 19.8813976,26.9203445 19.9239955,26.804965 L19.8407525,27.0362961 C19.881998,26.9186346 19.9246686,26.8016433 19.9687437,26.6853428 L19.9239955,26.804965 C19.9588381,26.7105911 19.9946028,26.6166638 20.0312785,26.5231941 L20.0312471,26.5232739 C20.056191,26.4597032 20.081524,26.3964234 20.1072738,26.3333581 C20.2767848,25.918204 20.4643429,25.5123865 20.6689885,25.1168403 C20.7858126,24.8910316 20.9083013,24.6684061 21.036185,24.4493151 L20.925516,24.642187 C20.9781758,24.5488139 21.0318069,24.4560614 21.0863956,24.3639432 L21.0863515,24.3640176 C21.2890695,24.0219322 21.5049436,23.6886656 21.733316,23.3648451 L21.633209,23.5085614 C21.6924881,23.422393 21.7526445,23.3368751 21.8136652,23.2520205 L21.733316,23.3648451 C21.7931951,23.2799396 21.8539334,23.1956835 21.9155184,23.1120895 L21.8136652,23.2520205 C21.8904165,23.1452911 21.9685353,23.039611 22.0479959,22.9350059 L21.9155184,23.1120895 C21.9763729,23.0294868 22.0380541,22.9475306 22.1005498,22.866233 L22.1005071,22.8662885 C22.3339503,22.5626136 22.5787102,22.2681808 22.8341939,21.9835705 L22.7478585,22.0805853 C22.8152021,22.0042525 22.8833103,21.9286103 22.9521712,21.8536706 L22.8341939,21.9835705 C22.9132379,21.895515 22.9933085,21.8083997 23.0743867,21.7222434 L23.0746535,21.7219599 C23.3217915,21.4593433 23.5785789,21.2053732 23.844214,20.9608681 L23.8436411,20.9613954 C24.0127901,20.8057014 24.1849295,20.6543465 24.3604955,20.5069403 L24.5007599,20.3918564 L24.5007599,20.3918564 C24.6971764,20.5528049 24.8894341,20.7186404 25.0773473,20.8891773 L25.0779205,20.8896975 C25.3590482,21.1448295 25.6309856,21.4110471 25.8925337,21.6872043 L25.7982405,21.5885414 C25.876819,21.6700206 25.9544839,21.7523868 26.0312187,21.8356236 L26.0315521,21.8359853 C26.0836801,21.8925302 26.1357068,21.9498438 26.1872935,22.007559 C26.3413609,22.1799431 26.4911336,22.3554562 26.6368615,22.5343945 L26.6368633,22.5343966 C26.7313759,22.6504479 26.8241888,22.7679421 26.9152623,22.886839 C27.0569624,23.0718396 27.1942131,23.2598935 27.3271254,23.4511887 C27.6527938,23.9199105 27.952411,24.4080851 28.2238859,24.9136235 Z" id="Combined-Shape" fill="#83D9DD"></path>
                <path d="M24.8129793,20.6548404 L25.0347455,20.8506625 L25.0347455,20.8506625 C25.2292746,21.0258589 25.4191688,21.2060474 25.6042518,21.3910489 L25.4176485,21.2077256 C25.5036311,21.2907437 25.5886564,21.3748118 25.6726872,21.4598942 L25.6042518,21.3910489 C25.6973607,21.4841168 25.7892519,21.5784027 25.8798996,21.6738807 L25.8800712,21.6740614 L25.9253688,21.7219836 L25.9253688,21.7219836 L26.0312187,21.8356236 L26.0312187,21.8356236 L26.0315521,21.8359853 L26.046606,21.85234 C26.4846799,22.3289713 26.8923049,22.834032 27.2663968,23.364438 L27.2659619,23.3638215 C27.5147325,23.7165406 27.7482909,24.0798123 27.9661699,24.453351 L27.8556455,24.2669728 C27.924228,24.3807421 27.9913429,24.4954958 28.056964,24.6112076 L28.0570368,24.611336 L28.2238859,24.9136235 L28.2238859,24.9136235 L28.2700459,25.0002632 L28.4179003,25.2874501 C28.4653469,25.3821077 28.5118213,25.4773371 28.5573104,25.5731251 L28.5570774,25.5726344 L28.63999,25.7502083 L28.63999,25.7502083 L28.6261523,25.7201452 C28.7646597,26.0201889 28.8935033,26.3254667 29.0123406,26.6356975 L29.0394647,26.7070547 L29.0394647,26.7070547 L29.1455491,26.9973913 C29.1664346,27.0564468 29.1869608,27.1156721 29.2071249,27.1750646 L29.2946834,27.4411648 L29.2946834,27.4411648 L29.349363,27.6164989 C29.3800305,27.717015 29.4096709,27.817979 29.4382718,27.919379 L29.5106293,28.1853095 L29.5106293,28.1853095 L29.6018067,28.5519883 L29.6018067,28.5519883 L29.6651596,28.8335057 C29.6691109,28.8518932 29.6730285,28.8702933 29.6769123,28.8887057 L29.6241758,28.909972 C29.4876279,28.9652372 29.3500808,29.01855 29.2115693,29.0698758 C28.9392349,29.1708967 28.6635052,29.263999 28.384323,29.3491797 L28.4743143,29.3213306 C28.3405226,29.3630872 28.2059263,29.4030206 28.0705543,29.4411017 L28.384323,29.3491797 C28.2495603,29.3902968 28.1139931,29.4295682 27.9776509,29.4669643 L28.0705543,29.4411017 C27.9133701,29.4853187 27.7551401,29.5270384 27.5959099,29.5662153 L27.9776509,29.4669643 C27.826165,29.5085141 27.6737223,29.5477488 27.5203631,29.584628 L27.5959099,29.5662153 C27.476516,29.5955909 27.3565597,29.6235368 27.2360603,29.6500339 L27.5203631,29.584628 C27.3707325,29.6206107 27.2202293,29.6543509 27.0688912,29.6858113 L27.0683775,29.6858968 C26.7786628,29.7461444 26.4853634,29.7980924 26.189257,29.8413902 L26.297894,29.8250899 C26.1649417,29.8455292 26.0314139,29.8642229 25.8973346,29.8811466 L26.189257,29.8413902 C26.0495566,29.8618178 25.9092314,29.8803199 25.7683091,29.8968688 L25.7683588,29.8968596 C25.4585199,29.9332482 25.1458453,29.9601885 24.8305798,29.9773938 L24.9700484,29.969137 C24.8282491,29.9781879 24.685914,29.9852686 24.5430703,29.990352 L24.8305798,29.9773938 C24.6882824,29.9851596 24.5454572,29.9909421 24.4021312,29.9947142 L24.5430703,29.990352 C24.3628385,29.9967659 24.181797,30 24,30 L23.5770756,29.9941527 C23.4342459,29.9901986 23.2919152,29.9842478 23.1501104,29.9763274 L23.1496827,29.9763035 C22.9513885,29.9652278 22.7536993,29.9502601 22.5571171,29.9314982 L22.9677531,29.9650384 C22.8029326,29.9538362 22.6388429,29.9399715 22.4755267,29.9234871 L22.5571171,29.9314982 C22.3986104,29.9163703 22.2408234,29.8987756 22.0837948,29.8787531 L22.4755267,29.9234871 C22.3253201,29.9083259 22.1757678,29.8909486 22.026903,29.8713884 L22.0837948,29.8787531 C21.9270446,29.8587661 21.77105,29.8363597 21.6158499,29.8115727 L22.026903,29.8713884 C21.8417247,29.8470567 21.6576101,29.8193473 21.4746232,29.788324 L21.6158499,29.8115727 C21.467489,29.787878 21.3198541,29.7620078 21.1729788,29.7339959 L21.4746232,29.788324 C21.3276101,29.7633997 21.1813249,29.7363364 21.0358007,29.7071672 L21.1729788,29.7339959 C20.9913525,29.6993563 20.8108878,29.6614416 20.6316486,29.6203156 L21.0358007,29.7071672 C20.891855,29.6783144 20.7486537,29.6474012 20.6062291,29.6144597 L20.6316486,29.6203156 C20.4882407,29.5874109 20.3456172,29.5524506 20.2038109,29.5154672 L20.6062291,29.6144597 C20.4403881,29.5761021 20.2756001,29.5349945 20.1119158,29.4911872 L20.2038109,29.5154672 C20.0707002,29.4807517 19.9383095,29.4442536 19.8066658,29.406 L19.8070565,29.4061136 C19.6366493,29.3565959 19.4678788,29.3042637 19.3004125,29.2490615 L19.3001084,29.2489613 L19.2552223,29.2340853 L19.2552223,29.2340853 C19.3172997,28.9010672 19.3903612,28.5719145 19.4740338,28.2470248 L19.559882,27.9259301 L19.559882,27.9259301 L19.6610764,27.5845778 C19.8754667,26.887355 20.1393078,26.2117987 20.4485063,25.5620008 L20.2966529,25.8901538 C20.3669578,25.73271 20.4398947,25.5767041 20.5154084,25.4221897 L20.4485063,25.5620008 C20.5082702,25.4364034 20.5697288,25.3117683 20.6328523,25.1881252 L20.6322457,25.1883284 C21.1520553,24.1711362 21.7839005,23.2212515 22.5119386,22.3549141 L22.5116706,22.3548648 C23.0577923,21.7053692 23.6577198,21.1027895 24.3047883,20.5541051 L24.3051141,20.5536662 L24.4085772,20.4668959 L24.4085772,20.4668959 L24.5008163,20.3919027 C24.6060745,20.4781546 24.7101384,20.5658101 24.8129793,20.6548404 Z" id="Combined-Shape" fill="#FFFFFF"></path>
            </g>
        </g>
    </g>
</svg>