<?xml version="1.0" encoding="UTF-8"?>
<svg width="187px" height="60px" viewBox="0 0 187 60" version="1.1" xmlns="http://www.w3.org/2000/svg" xmlns:xlink="http://www.w3.org/1999/xlink">
    <title>Group</title>
    <g id="Page-1" stroke="none" stroke-width="1" fill="none" fill-rule="evenodd">
        <g id="large-copy" transform="translate(-467.000000, -249.000000)" fill="#FFFFFF">
            <g id="Group" transform="translate(467.000000, 249.000000)">
                <path d="M29.9836066,36.1124122 L29.9836066,60 L29.0163934,60 L29.0163934,36.1124122 L29.9836066,36.1124122 Z M31.0199786,35.9341502 L35.0988807,59.4588318 L34.1463618,59.6296333 L30.0674596,36.1049516 L31.0199786,35.9341502 Z M27.9800214,35.9341502 L28.9325404,36.1049516 L24.8536382,59.6296333 L23.9011193,59.4588318 L27.9800214,35.9341502 Z M32.0101668,35.575582 L40.0440357,58.022572 L39.1351527,58.3589853 L31.1012838,35.9119952 L32.0101668,35.575582 Z M26.9898332,35.575582 L27.8987162,35.9119952 L19.8648473,58.3589853 L18.9559643,58.022572 L26.9898332,35.575582 Z M32.9240849,35.0476026 L44.6688156,55.7348605 L43.8311844,56.2266638 L32.0864538,35.5394059 L32.9240849,35.0476026 Z M26.0759151,35.0476026 L26.9135462,35.5394059 L15.1688156,56.2266638 L14.3311844,55.7348605 L26.0759151,35.0476026 Z M33.7339639,34.3662543 L48.8326986,52.6652082 L48.0917704,53.2974583 L32.9930357,34.9985044 L33.7339639,34.3662543 Z M25.2660361,34.3662543 L26.0069643,34.9985044 L10.9082296,53.2974583 L10.1673014,52.6652082 L25.2660361,34.3662543 Z M34.415196,33.5522396 L52.4091674,48.9068851 L51.7874548,49.6603715 L33.7934834,34.305726 L34.415196,33.5522396 Z M24.584804,33.5522396 L25.2065166,34.305726 L7.21254523,49.6603715 L6.59083262,48.9068851 L24.584804,33.5522396 Z M34.9470824,32.630292 L55.2895527,44.5740859 L54.8059461,45.4259141 L34.4634759,33.4821202 L34.9470824,32.630292 Z M24.0529176,32.630292 L24.5365241,33.4821202 L4.19405387,45.4259141 L3.71044731,44.5740859 L24.0529176,32.630292 Z M35.313462,31.6284242 L57.3863355,39.7984604 L57.0555291,40.7227482 L34.9826556,32.552712 L35.313462,31.6284242 Z M23.686538,31.6284242 L24.0173444,32.552712 L1.94447087,40.7227482 L1.6136645,39.7984604 L23.686538,31.6284242 Z M35.5032025,30.5770776 L58.6358061,34.7251136 L58.4678513,35.693777 L35.3352477,31.5457409 L35.5032025,30.5770776 Z M23.4967975,30.5770776 L23.6647523,31.5457409 L0.532148684,35.693777 L0.364193889,34.7251136 L23.4967975,30.5770776 Z M23.4894614,29.5081967 L23.4894614,30.4918033 L0,30.4918033 L0,29.5081967 L23.4894614,29.5081967 Z M59,29.5081967 L59,30.4918033 L35.5105386,30.4918033 L35.5105386,29.5081967 L59,29.5081967 Z M0.532148684,24.306223 L23.6647523,28.4542591 L23.4967975,29.4229224 L0.364193889,25.2748864 L0.532148684,24.306223 Z M58.4678513,24.306223 L58.6358061,25.2748864 L35.5032025,29.4229224 L35.3352477,28.4542591 L58.4678513,24.306223 Z M1.94447087,19.2772518 L24.0173444,27.447288 L23.686538,28.3715758 L1.6136645,20.2015396 L1.94447087,19.2772518 Z M57.0555291,19.2772518 L57.3863355,20.2015396 L35.313462,28.3715758 L34.9826556,27.447288 L57.0555291,19.2772518 Z M4.19405387,14.5740859 L24.5365241,26.5178798 L24.0529176,27.369708 L3.71044731,15.4259141 L4.19405387,14.5740859 Z M54.8059461,14.5740859 L55.2895527,15.4259141 L34.9470824,27.369708 L34.4634759,26.5178798 L54.8059461,14.5740859 Z M7.21254523,10.3396285 L25.2065166,25.694274 L24.584804,26.4477604 L6.59083262,11.0931149 L7.21254523,10.3396285 Z M51.7874548,10.3396285 L52.4091674,11.0931149 L34.415196,26.4477604 L33.7934834,25.694274 L51.7874548,10.3396285 Z M10.9082296,6.70254165 L26.0069643,25.0014956 L25.2660361,25.6337457 L10.1673014,7.33479176 L10.9082296,6.70254165 Z M48.0917704,6.70254165 L48.8326986,7.33479176 L33.7339639,25.6337457 L32.9930357,25.0014956 L48.0917704,6.70254165 Z M15.1688156,3.77333625 L26.9135462,24.4605941 L26.0759151,24.9523974 L14.3311844,4.26513953 L15.1688156,3.77333625 Z M43.8311844,3.77333625 L44.6688156,4.26513953 L32.9240849,24.9523974 L32.0864538,24.4605941 L43.8311844,3.77333625 Z M19.8648473,1.64101475 L27.8987162,24.0880048 L26.9898332,24.424418 L18.9559643,1.977428 L19.8648473,1.64101475 Z M39.1351527,1.64101475 L40.0440357,1.977428 L32.0101668,24.424418 L31.1012838,24.0880048 L39.1351527,1.64101475 Z M24.8536382,0.370366667 L28.9325404,23.8950484 L27.9800214,24.0658498 L23.9011193,0.541168153 L24.8536382,0.370366667 Z M34.1463618,0.370366667 L35.0988807,0.541168153 L31.0199786,24.0658498 L30.0674596,23.8950484 L34.1463618,0.370366667 Z M29.9836066,0 L29.9836066,23.8875878 L29.0163934,23.8875878 L29.0163934,0 L29.9836066,0 Z" id="Combined-Shape"></path>
                <path d="M83.6882102,59.3636364 L83.6882102,44.3423295 L98.4786932,44.3423295 L98.4786932,38.0035511 L83.6882102,38.0035511 L83.6882102,29.3387784 L100.076705,29.3387784 L100.076705,23 L76,23 L76,59.3636364 L83.6882102,59.3636364 Z M110.998816,59.3636364 L110.998816,23 L103.434896,23 L103.434896,59.3636364 L110.998816,59.3636364 Z M123.14607,59.8785511 C125.158381,59.8785511 126.824455,59.4790483 128.144295,58.6800426 C129.464134,57.8810369 130.455492,56.8482481 131.118371,55.5816761 L131.118371,55.5816761 L131.331439,55.5816761 L131.331439,59.3636364 L138.504735,59.3636364 L138.504735,40.96875 C138.504735,38.8025568 137.963187,37.041785 136.88009,35.6864347 C135.796993,34.3310843 134.37358,33.3338068 132.609848,32.6946023 C130.846117,32.0553977 128.952178,31.7357955 126.92803,31.7357955 C123.660985,31.7357955 120.994673,32.4637784 118.929096,33.9197443 C116.863518,35.3757102 115.570313,37.3465909 115.049479,39.8323864 L115.049479,39.8323864 L122.045218,40.4005682 C122.305634,39.4891098 122.838305,38.7374527 123.643229,38.1455966 C124.448153,37.5537405 125.53125,37.2578125 126.892519,37.2578125 C128.182765,37.2578125 129.180043,37.5655777 129.884351,38.181108 C130.58866,38.7966383 130.940814,39.6666667 130.940814,40.7911932 L130.940814,40.7911932 L130.940814,40.8977273 C130.940814,41.7736742 130.431818,42.3418561 129.413826,42.6022727 C128.395833,42.8626894 126.703125,43.1112689 124.335701,43.3480114 C122.536458,43.5137311 120.858546,43.8658854 119.301965,44.4044744 C117.745384,44.9430634 116.487689,45.7923769 115.528883,46.9524148 C114.570076,48.1124527 114.090672,49.710464 114.090672,51.7464489 C114.090672,54.4453125 114.948864,56.4753788 116.665246,57.8366477 C118.381629,59.1979167 120.541903,59.8785511 123.14607,59.8785511 Z M125.312263,54.6583807 C124.152225,54.6583807 123.196378,54.3920455 122.444721,53.859375 C121.693063,53.3267045 121.317235,52.539536 121.317235,51.4978693 C121.317235,50.4325284 121.722656,49.6216856 122.533499,49.0653409 C123.344342,48.5089962 124.412642,48.1361269 125.7384,47.946733 C126.294744,47.8638731 126.925071,47.7662169 127.62938,47.6537642 C128.333688,47.5413116 128.996567,47.4081439 129.618016,47.2542614 C130.239465,47.1003788 130.698153,46.922822 130.994081,46.7215909 L130.994081,46.7215909 L130.994081,49.615767 C130.994081,51.0480587 130.461411,52.2465672 129.39607,53.2112926 C128.330729,54.176018 126.96946,54.6583807 125.312263,54.6583807 Z M150.279119,59.3636364 L150.279119,43.9339489 C150.290956,42.2649148 150.826586,40.9095644 151.886009,39.8678977 C152.945431,38.8262311 154.238636,38.3053977 155.765625,38.3053977 C156.286458,38.3053977 156.756984,38.3675426 157.177202,38.4918324 C157.59742,38.6161222 157.985085,38.7670455 158.340199,38.9446023 L158.340199,38.9446023 L160.612926,32.6946023 C160.115767,32.3868371 159.553504,32.1441761 158.926136,31.9666193 C158.298769,31.7890625 157.618134,31.7002841 156.884233,31.7002841 C155.345407,31.7002841 153.993016,32.1352983 152.82706,33.0053267 C151.661103,33.8753551 150.829545,35.1567235 150.332386,36.8494318 L150.332386,36.8494318 L150.048295,36.8494318 L150.048295,32.0909091 L142.715199,32.0909091 L142.715199,59.3636364 L150.279119,59.3636364 Z M173.630208,59.8963068 C177.003788,59.8963068 179.773674,59.1387311 181.939867,57.6235795 C184.106061,56.108428 185.455492,54.0842803 185.988163,51.5511364 L185.988163,51.5511364 L178.992424,51.0894886 C178.613636,52.1311553 177.962595,52.9183239 177.039299,53.4509943 C176.116004,53.9836648 175.02107,54.25 173.754498,54.25 C171.860559,54.25 170.357244,53.6640625 169.244555,52.4921875 C168.131866,51.3203125 167.575521,49.7163826 167.575521,47.6803977 L167.575521,47.6803977 L167.575521,47.662642 L186.147964,47.662642 L186.147964,45.5852273 C186.147964,42.4957386 185.579782,39.9241241 184.443419,37.8703835 C183.307055,35.816643 181.771188,34.2807765 179.835819,33.2627841 C177.90045,32.2447917 175.731297,31.7357955 173.328362,31.7357955 C170.653172,31.7357955 168.324219,32.3276515 166.341501,33.5113636 C164.358783,34.6950758 162.822917,36.3463542 161.733902,38.4651989 C160.644886,40.5840436 160.100379,43.0461648 160.100379,45.8515625 C160.100379,48.727983 160.644886,51.2167377 161.733902,53.3178267 C162.822917,55.4189157 164.379498,57.0406013 166.403646,58.1828835 C168.427794,59.3251657 170.836648,59.8963068 173.630208,59.8963068 Z M179.027936,42.975142 L167.575521,42.975142 C167.658381,41.4244792 168.2384,40.1046402 169.315578,39.015625 C170.392756,37.9266098 171.77178,37.3821023 173.452652,37.3821023 C175.098011,37.3821023 176.435606,37.9088542 177.465436,38.962358 C178.495265,40.0158617 179.016098,41.3534564 179.027936,42.975142 L179.027936,42.975142 Z" id="Flare" fill-rule="nonzero"></path>
            </g>
        </g>
    </g>
</svg>