<svg width="24" height="24" viewBox="0 0 24 24" fill="none" xmlns="http://www.w3.org/2000/svg">
<path d="M10.8995 2.09998C6.29952 2.59998 2.59952 6.29998 2.09952 10.8C1.59952 15.5 4.29952 19.7 8.39952 21.3C8.69952 21.4 8.99952 21.2 8.99952 20.8V19.2C8.99952 19.2 8.59952 19.3 8.09952 19.3C6.69952 19.3 6.09952 18.1 5.99952 17.4C5.89952 17 5.69952 16.7 5.39952 16.4C5.09952 16.3 4.99952 16.3 4.99952 16.2C4.99952 16 5.29952 16 5.39952 16C5.99952 16 6.49952 16.7 6.69952 17C7.19952 17.8 7.79952 18 8.09952 18C8.49952 18 8.79952 17.9 8.99952 17.8C9.09952 17.1 9.39952 16.4 9.99952 16C7.69952 15.5 5.99952 14.2 5.99952 12C5.99952 10.9 6.49952 9.79998 7.19952 8.99998C7.09952 8.79998 6.99952 8.29998 6.99952 7.59998C6.99952 7.19998 6.99952 6.59998 7.29952 5.99998C7.29952 5.99998 8.69952 5.99998 10.0995 7.29998C10.5995 7.09998 11.2995 6.99998 11.9995 6.99998C12.6995 6.99998 13.3995 7.09998 13.9995 7.29998C15.2995 5.99998 16.7995 5.99998 16.7995 5.99998C16.9995 6.59998 16.9995 7.19998 16.9995 7.59998C16.9995 8.39998 16.8995 8.79998 16.7995 8.99998C17.4995 9.79998 17.9995 10.8 17.9995 12C17.9995 14.2 16.2995 15.5 13.9995 16C14.5995 16.5 14.9995 17.4 14.9995 18.3V20.9C14.9995 21.2 15.2995 21.5 15.6995 21.4C19.3995 19.9 21.9995 16.3 21.9995 12.1C21.9995 6.09998 16.8995 1.39998 10.8995 2.09998Z" fill="white"/>
</svg>
