<svg width="122" height="122" viewBox="0 0 122 122" fill="none" xmlns="http://www.w3.org/2000/svg">
<circle cx="61" cy="61" r="59" fill="black" stroke="white" stroke-width="4"/>
<path fill-rule="evenodd" clip-rule="evenodd" d="M78.2534 43.6689C79.0369 44.4529 80.3191 44.3579 80.9958 43.4908C81.5656 42.7425 81.4825 41.6972 80.7939 41.044C74.2407 34.7725 68.2455 31.5418 58.5342 32.0525C48.1702 32.5989 39.112 37.9559 39.7056 49.3823C40.2346 59.4929 50.0228 63.216 58.5558 66.4617C65.1496 68.9698 70.9939 71.1928 71.2372 75.8578C71.5102 81.0483 66.2273 84.1722 61.6092 84.4097C52.907 84.8611 47.7784 81.7966 42.1037 76.2854C41.4151 75.6202 40.3229 75.5846 39.6106 76.226C38.8271 76.9268 38.7915 78.1502 39.5394 78.8866C45.962 85.2531 52.5034 88.4482 62.1196 87.9493C71.8426 87.4386 83.5719 82.0223 82.9784 70.5959C82.4592 60.6749 73.0926 57.0431 64.5998 53.75C57.5562 51.019 51.1136 48.5209 50.8176 42.8614C50.592 38.7279 55.4832 35.794 59.0447 35.604C67.5332 35.1645 72.8399 38.2408 78.2534 43.6689ZM79.4168 70.786C79.4168 75.1689 77.0068 78.9579 73.386 81.179L73.2079 81.1077C74.5019 79.3261 74.7512 76.9624 74.7512 74.8482C74.7512 68.3862 67.645 65.8137 60.1797 63.1112C51.9195 60.121 43.2196 56.9716 43.2196 48.2181C43.2196 44.2391 45.0598 39.9156 48.5263 37.9439L48.6213 38.0983C47.7428 40.0106 47.3154 42.0655 47.3154 44.1797C47.3154 51.3382 55.2271 54.2901 63.195 57.263C71.277 60.2785 79.4168 63.3155 79.4168 70.786Z" fill="white"/>
<path fill-rule="evenodd" clip-rule="evenodd" d="M60.5 108C86.7335 108 108 86.7335 108 60.5C108 34.2665 86.7335 13 60.5 13C34.2665 13 13 34.2665 13 60.5C13 86.7335 34.2665 108 60.5 108Z" stroke="white" stroke-width="2" stroke-linecap="round"/>
</svg>
