<svg width="148" height="148" viewBox="0 0 148 148" fill="none" xmlns="http://www.w3.org/2000/svg">
<path d="M126.323 21.6771C112.333 7.68741 93.7726 0 74 0C33.2082 0 0 33.2082 0 74C0 114.792 33.2082 148 74 148C93.7726 148 112.333 140.313 126.323 126.323C140.313 112.333 148 93.7726 148 74C148 54.2274 140.313 35.6668 126.323 21.6771ZM74 144.191C35.2859 144.191 3.80908 112.714 3.80908 74C3.80908 35.2859 35.2859 3.80908 74 3.80908C112.714 3.80908 144.191 35.2859 144.191 74C144.191 112.714 112.714 144.191 74 144.191Z" fill="white"/>
<path d="M81.5124 66.2092C70.0505 60.9804 60.1469 56.4787 60.8741 45.5363C61.1857 41.2424 64.2676 38.68 66.7955 37.2948C69.9466 35.5634 74.1712 34.6631 77.8418 34.9055C87.6069 35.5634 95.2943 39.6842 102.774 48.2373L105.648 45.7441C97.5451 36.4638 88.7842 31.8236 78.0842 31.0964C77.2531 31.0272 76.4221 31.0272 75.5564 31.0618C75.3832 31.0618 75.2101 31.0618 75.0716 31.0618C68.0421 31.0618 60.3893 33.3473 54.5025 37.2256C47.5769 41.7965 43.6986 48.0641 43.5947 54.8859C43.3177 71.5765 57.1343 77.2555 69.3233 82.2766C80.5428 86.9167 90.2732 90.899 90.0655 101.876C89.9616 109.286 79.781 113.269 72.613 113.269C72.5091 113.269 72.4398 113.269 72.3359 113.269V113.303H72.3013C61.7052 113.165 52.2864 108.732 44.2873 100.145L41.4824 102.742C50.1048 112.022 60.7356 117.008 72.2667 117.147C72.4398 117.147 72.613 117.147 72.7861 117.147C80.2311 117.147 88.2648 115.173 94.4286 111.78C101.978 107.659 106.375 101.668 106.825 94.9504C107.968 78.2598 93.9092 71.8536 81.5124 66.2092ZM103.016 94.6388C102.566 101.53 97.095 105.928 92.5933 108.386C92.1778 108.628 91.7622 108.836 91.3467 109.044C92.905 107.036 93.8399 104.646 93.9092 101.911C94.117 88.3365 82.2742 83.4539 70.8123 78.7445C58.6925 73.7581 47.2307 69.0141 47.4384 54.9205C47.5077 49.4146 50.7973 44.2551 56.6495 40.3767C57.5152 39.7881 58.4501 39.2686 59.4197 38.7492C58.0692 40.6884 57.2728 42.87 57.1343 45.2247C56.1993 58.7988 68.2845 64.3047 79.9887 69.6028C92.3163 75.2817 103.986 80.6144 103.016 94.6388Z" fill="white"/>
</svg>
