<svg width="123" height="122" viewBox="0 0 123 122" fill="none" xmlns="http://www.w3.org/2000/svg">
<circle cx="61.5" cy="61" r="59" fill="#1B1B1B" stroke="white" stroke-width="4"/>
<path fill-rule="evenodd" clip-rule="evenodd" d="M78.7534 43.6689C79.5369 44.4529 80.8191 44.3579 81.4958 43.4908C82.0656 42.7425 81.9825 41.6972 81.2939 41.044C74.7407 34.7725 68.7455 31.5418 59.0342 32.0525C48.6702 32.5989 39.612 37.9559 40.2056 49.3823C40.7346 59.4929 50.5228 63.216 59.0558 66.4617C65.6496 68.9698 71.4939 71.1928 71.7372 75.8578C72.0102 81.0483 66.7273 84.1722 62.1092 84.4097C53.407 84.8611 48.2784 81.7966 42.6037 76.2854C41.9151 75.6202 40.8229 75.5846 40.1106 76.226C39.3271 76.9268 39.2915 78.1502 40.0394 78.8866C46.462 85.2531 53.0034 88.4482 62.6196 87.9493C72.3426 87.4386 84.0719 82.0223 83.4784 70.5959C82.9592 60.6749 73.5926 57.0431 65.0998 53.75C58.0562 51.019 51.6136 48.5209 51.3176 42.8614C51.092 38.7279 55.9832 35.794 59.5447 35.604C68.0332 35.1645 73.3399 38.2408 78.7534 43.6689ZM79.9168 70.786C79.9168 75.1689 77.5068 78.9579 73.886 81.179L73.7079 81.1077C75.0019 79.3261 75.2512 76.9624 75.2512 74.8482C75.2512 68.3862 68.145 65.8137 60.6797 63.1112C52.4195 60.121 43.7196 56.9716 43.7196 48.2181C43.7196 44.2391 45.5598 39.9156 49.0263 37.9439L49.1213 38.0983C48.2428 40.0106 47.8154 42.0655 47.8154 44.1797C47.8154 51.3382 55.7271 54.2901 63.695 57.263C71.777 60.2785 79.9168 63.3155 79.9168 70.786Z" fill="white"/>
<path fill-rule="evenodd" clip-rule="evenodd" d="M61 108C87.2335 108 108.5 86.7335 108.5 60.5C108.5 34.2665 87.2335 13 61 13C34.7665 13 13.5 34.2665 13.5 60.5C13.5 86.7335 34.7665 108 61 108Z" stroke="white" stroke-width="2" stroke-linecap="round"/>
</svg>
