<svg width="35" height="34" viewBox="0 0 35 34" fill="none" xmlns="http://www.w3.org/2000/svg">
<path d="M3.63477 5.66797V25.5013C3.63477 27.0498 4.91959 28.3346 6.4681 28.3346H15.8009C15.9473 28.7485 16.2181 29.1068 16.5763 29.3605C16.9345 29.6142 17.3625 29.7507 17.8014 29.7513C18.2404 29.7507 18.6683 29.6142 19.0265 29.3605C19.3847 29.1068 19.6556 28.7485 19.8019 28.3346H29.1348C30.6833 28.3346 31.9681 27.0498 31.9681 25.5013V5.66797H22.0514C20.3359 5.66797 18.8435 6.48432 17.8014 7.70166C16.7594 6.48432 15.2669 5.66797 13.5514 5.66797H3.63477ZM6.4681 8.5013H13.5514C15.1334 8.5013 16.3848 9.75269 16.3848 11.3346H19.2181C19.2181 9.75269 20.4695 8.5013 22.0514 8.5013H29.1348V25.5013H6.4681V8.5013ZM22.0514 12.7513V15.5846H24.8848V12.7513H22.0514ZM22.0514 17.0013V22.668H24.8848V17.0013H22.0514Z" fill="#E5C7A3"/>
</svg>
