<svg width="20" height="15" viewBox="0 0 20 15" fill="none" xmlns="http://www.w3.org/2000/svg">
<path d="M0 1C0 0.447715 0.447715 0 1 0H19C19.5523 0 20 0.447715 20 1C20 1.55228 19.5523 2 19 2H1C0.447716 2 0 1.55228 0 1Z" fill="white"/>
<path d="M0 7.03223C0 6.47994 0.447715 6.03223 1 6.03223H19C19.5523 6.03223 20 6.47994 20 7.03223C20 7.58451 19.5523 8.03223 19 8.03223H1C0.447716 8.03223 0 7.58451 0 7.03223Z" fill="white"/>
<path d="M1 12.0645C0.447715 12.0645 0 12.5122 0 13.0645C0 13.6167 0.447716 14.0645 1 14.0645H19C19.5523 14.0645 20 13.6167 20 13.0645C20 12.5122 19.5523 12.0645 19 12.0645H1Z" fill="white"/>
</svg>
