<svg width="24" height="24" viewBox="0 0 24 24" fill="none" xmlns="http://www.w3.org/2000/svg">
<path d="M11.6468 12.3535L11.6468 12.3536C12.433 13.1394 13.6054 13.4411 14.8778 13.3529C16.3968 13.2476 18.0851 12.6785 19.802 11.5258C20.3335 11.169 20.8536 10.7735 21.355 10.3466C21.6688 12.122 21.4718 13.9564 20.778 15.6328C19.9787 17.5642 18.5647 19.1781 16.7551 20.2243C14.9455 21.2706 12.8413 21.6908 10.7687 21.4199C8.69606 21.1489 6.77063 20.202 5.29077 18.7258C3.8109 17.2495 2.85923 15.3265 2.58321 13.2545C2.30718 11.1825 2.72223 9.07735 3.76402 7.26519C4.80582 5.45304 6.4162 4.03506 8.34563 3.23099C10.0223 2.53227 11.8585 2.33103 13.6366 2.64203C12.3549 4.20905 11.4593 5.72638 10.985 7.35835C10.4974 9.03587 10.5232 10.7044 11.2311 11.832C11.3511 12.0231 11.4905 12.1972 11.6468 12.3535Z" stroke="white"/>
</svg>
