<svg width="212" height="87" viewBox="0 0 212 87" fill="none" xmlns="http://www.w3.org/2000/svg">
<path d="M103.734 40.26C102.59 40.26 101.472 40.078 100.38 39.714C99.288 39.35 98.352 38.83 97.572 38.154L98.872 35.97C99.704 36.5593 100.51 37.01 101.29 37.322C102.087 37.6167 102.876 37.764 103.656 37.764C104.349 37.764 104.895 37.634 105.294 37.374C105.693 37.114 105.892 36.7413 105.892 36.256C105.892 35.7707 105.658 35.4153 105.19 35.19C104.722 34.9647 103.959 34.7047 102.902 34.41C102.018 34.1673 101.264 33.9333 100.64 33.708C100.016 33.4827 99.5133 33.2313 99.132 32.954C98.7507 32.6593 98.4733 32.33 98.3 31.966C98.1267 31.5847 98.04 31.134 98.04 30.614C98.04 29.9207 98.17 29.2967 98.43 28.742C98.7073 28.1873 99.0887 27.7193 99.574 27.338C100.059 26.9393 100.623 26.636 101.264 26.428C101.923 26.22 102.633 26.116 103.396 26.116C104.419 26.116 105.372 26.2633 106.256 26.558C107.157 26.8527 107.981 27.3293 108.726 27.988L107.322 30.094C106.629 29.574 105.953 29.1927 105.294 28.95C104.653 28.7073 104.011 28.586 103.37 28.586C102.781 28.586 102.287 28.7073 101.888 28.95C101.489 29.1927 101.29 29.5827 101.29 30.12C101.29 30.3627 101.333 30.562 101.42 30.718C101.524 30.874 101.68 31.0127 101.888 31.134C102.096 31.2553 102.365 31.3767 102.694 31.498C103.041 31.602 103.465 31.7147 103.968 31.836C104.904 32.0787 105.701 32.3213 106.36 32.564C107.036 32.8067 107.582 33.084 107.998 33.396C108.431 33.708 108.743 34.072 108.934 34.488C109.142 34.8867 109.246 35.372 109.246 35.944C109.246 37.2787 108.752 38.336 107.764 39.116C106.776 39.8787 105.433 40.26 103.734 40.26ZM126.408 33.136C126.408 33.3613 126.39 33.682 126.356 34.098H115.462C115.652 35.1207 116.146 35.9353 116.944 36.542C117.758 37.1313 118.764 37.426 119.96 37.426C121.485 37.426 122.742 36.9233 123.73 35.918L125.472 37.92C124.848 38.6653 124.059 39.2287 123.106 39.61C122.152 39.9913 121.078 40.182 119.882 40.182C118.356 40.182 117.013 39.8787 115.852 39.272C114.69 38.6653 113.789 37.8247 113.148 36.75C112.524 35.658 112.212 34.4273 112.212 33.058C112.212 31.706 112.515 30.4927 113.122 29.418C113.746 28.326 114.604 27.4767 115.696 26.87C116.788 26.2633 118.018 25.96 119.388 25.96C120.74 25.96 121.944 26.2633 123.002 26.87C124.076 27.4593 124.908 28.3 125.498 29.392C126.104 30.4667 126.408 31.7147 126.408 33.136ZM119.388 28.56C118.348 28.56 117.464 28.872 116.736 29.496C116.025 30.1027 115.592 30.9173 115.436 31.94H123.314C123.175 30.9347 122.75 30.12 122.04 29.496C121.329 28.872 120.445 28.56 119.388 28.56ZM137.2 40.182C135.761 40.182 134.47 39.8787 133.326 39.272C132.182 38.6653 131.289 37.8247 130.648 36.75C130.006 35.658 129.686 34.4273 129.686 33.058C129.686 31.6887 130.006 30.4667 130.648 29.392C131.289 28.3173 132.173 27.4767 133.3 26.87C134.444 26.2633 135.744 25.96 137.2 25.96C138.569 25.96 139.765 26.2373 140.788 26.792C141.828 27.3467 142.608 28.144 143.128 29.184L140.632 30.64C140.233 29.9987 139.73 29.522 139.124 29.21C138.534 28.8807 137.884 28.716 137.174 28.716C135.96 28.716 134.955 29.1147 134.158 29.912C133.36 30.692 132.962 31.7407 132.962 33.058C132.962 34.3753 133.352 35.4327 134.132 36.23C134.929 37.01 135.943 37.4 137.174 37.4C137.884 37.4 138.534 37.244 139.124 36.932C139.73 36.6027 140.233 36.1173 140.632 35.476L143.128 36.932C142.59 37.972 141.802 38.778 140.762 39.35C139.739 39.9047 138.552 40.182 137.2 40.182ZM150.331 28.144C151.267 26.688 152.914 25.96 155.271 25.96V29.054C154.994 29.002 154.742 28.976 154.517 28.976C153.252 28.976 152.264 29.3487 151.553 30.094C150.842 30.822 150.487 31.8793 150.487 33.266V40H147.237V26.116H150.331V28.144ZM172.253 33.136C172.253 33.3613 172.236 33.682 172.201 34.098H161.307C161.498 35.1207 161.992 35.9353 162.789 36.542C163.604 37.1313 164.609 37.426 165.805 37.426C167.33 37.426 168.587 36.9233 169.575 35.918L171.317 37.92C170.693 38.6653 169.904 39.2287 168.951 39.61C167.998 39.9913 166.923 40.182 165.727 40.182C164.202 40.182 162.858 39.8787 161.697 39.272C160.536 38.6653 159.634 37.8247 158.993 36.75C158.369 35.658 158.057 34.4273 158.057 33.058C158.057 31.706 158.36 30.4927 158.967 29.418C159.591 28.326 160.449 27.4767 161.541 26.87C162.633 26.2633 163.864 25.96 165.233 25.96C166.585 25.96 167.79 26.2633 168.847 26.87C169.922 27.4593 170.754 28.3 171.343 29.392C171.95 30.4667 172.253 31.7147 172.253 33.136ZM165.233 28.56C164.193 28.56 163.309 28.872 162.581 29.496C161.87 30.1027 161.437 30.9173 161.281 31.94H169.159C169.02 30.9347 168.596 30.12 167.885 29.496C167.174 28.872 166.29 28.56 165.233 28.56ZM185.021 39.246C184.64 39.558 184.172 39.792 183.617 39.948C183.08 40.104 182.508 40.182 181.901 40.182C180.376 40.182 179.197 39.7833 178.365 38.986C177.533 38.1887 177.117 37.0273 177.117 35.502V28.82H174.829V26.22H177.117V23.048H180.367V26.22H184.085V28.82H180.367V35.424C180.367 36.1 180.532 36.62 180.861 36.984C181.19 37.3307 181.667 37.504 182.291 37.504C183.019 37.504 183.626 37.3133 184.111 36.932L185.021 39.246Z" fill="#F2F2F2"/>
<path d="M104.386 49.324C106.085 49.324 107.428 49.818 108.416 50.806C109.404 51.794 109.898 53.2153 109.898 55.07V63H108.598V55.174C108.598 53.6487 108.208 52.4873 107.428 51.69C106.665 50.8927 105.591 50.494 104.204 50.494C102.609 50.494 101.353 50.9707 100.434 51.924C99.5153 52.8773 99.056 54.16 99.056 55.772V63H97.756V49.428H99.004V52.366C99.472 51.4127 100.165 50.6673 101.084 50.13C102.02 49.5927 103.121 49.324 104.386 49.324ZM126.742 56.526H115.068C115.102 57.5833 115.371 58.528 115.874 59.36C116.376 60.1747 117.052 60.8073 117.902 61.258C118.768 61.7087 119.739 61.934 120.814 61.934C121.698 61.934 122.512 61.778 123.258 61.466C124.02 61.1367 124.653 60.66 125.156 60.036L125.91 60.894C125.32 61.6047 124.575 62.1507 123.674 62.532C122.79 62.9133 121.828 63.104 120.788 63.104C119.436 63.104 118.231 62.8093 117.174 62.22C116.116 61.6307 115.284 60.816 114.678 59.776C114.088 58.736 113.794 57.5487 113.794 56.214C113.794 54.8967 114.071 53.718 114.626 52.678C115.198 51.6207 115.978 50.7973 116.966 50.208C117.954 49.6187 119.063 49.324 120.294 49.324C121.524 49.324 122.625 49.6187 123.596 50.208C124.584 50.78 125.355 51.586 125.91 52.626C126.482 53.666 126.768 54.8447 126.768 56.162L126.742 56.526ZM120.294 50.468C119.34 50.468 118.482 50.6847 117.72 51.118C116.957 51.534 116.342 52.132 115.874 52.912C115.423 53.6747 115.163 54.5413 115.094 55.512H125.494C125.442 54.5413 125.182 53.6747 124.714 52.912C124.246 52.1493 123.63 51.5513 122.868 51.118C122.105 50.6847 121.247 50.468 120.294 50.468ZM137.523 62.142C137.194 62.454 136.778 62.6967 136.275 62.87C135.79 63.026 135.279 63.104 134.741 63.104C133.563 63.104 132.653 62.7833 132.011 62.142C131.37 61.4833 131.049 60.5733 131.049 59.412V50.546H128.553V49.428H131.049V46.464H132.349V49.428H136.665V50.546H132.349V59.282C132.349 60.166 132.557 60.842 132.973 61.31C133.407 61.7607 134.039 61.986 134.871 61.986C135.721 61.986 136.423 61.7347 136.977 61.232L137.523 62.142ZM157.555 49.48H158.855L153.005 63H151.913L148.871 55.85L145.829 63H144.737L138.887 49.48H140.161L145.335 61.57L148.169 54.914L145.881 49.506H146.999L148.871 53.978L150.717 49.506H151.861L149.573 54.914L152.407 61.57L157.555 49.48ZM167.4 63.104C166.117 63.104 164.956 62.8093 163.916 62.22C162.893 61.6307 162.087 60.816 161.498 59.776C160.909 58.7187 160.614 57.5313 160.614 56.214C160.614 54.8967 160.909 53.718 161.498 52.678C162.087 51.6207 162.893 50.7973 163.916 50.208C164.956 49.6187 166.117 49.324 167.4 49.324C168.683 49.324 169.835 49.6187 170.858 50.208C171.898 50.7973 172.713 51.6207 173.302 52.678C173.891 53.718 174.186 54.8967 174.186 56.214C174.186 57.5313 173.891 58.7187 173.302 59.776C172.713 60.816 171.898 61.6307 170.858 62.22C169.835 62.8093 168.683 63.104 167.4 63.104ZM167.4 61.934C168.44 61.934 169.367 61.6913 170.182 61.206C171.014 60.7207 171.664 60.0447 172.132 59.178C172.617 58.3113 172.86 57.3233 172.86 56.214C172.86 55.1047 172.617 54.1167 172.132 53.25C171.664 52.3833 171.014 51.7073 170.182 51.222C169.367 50.7367 168.44 50.494 167.4 50.494C166.36 50.494 165.424 50.7367 164.592 51.222C163.777 51.7073 163.127 52.3833 162.642 53.25C162.174 54.1167 161.94 55.1047 161.94 56.214C161.94 57.3233 162.174 58.3113 162.642 59.178C163.127 60.0447 163.777 60.7207 164.592 61.206C165.424 61.6913 166.36 61.934 167.4 61.934ZM179.467 52.392C179.883 51.404 180.533 50.65 181.417 50.13C182.301 49.5927 183.376 49.324 184.641 49.324V50.598L184.329 50.572C182.821 50.572 181.642 51.0487 180.793 52.002C179.944 52.938 179.519 54.2467 179.519 55.928V63H178.219V49.428H179.467V52.392ZM193.059 55.746L189.523 58.97V63H188.223V43.708H189.523V57.358L198.207 49.428H199.871L194.021 54.914L200.443 63H198.831L193.059 55.746Z" fill="#F2F2F2"/>
<g clip-path="url(#clip0)">
<path d="M58.8987 31.3201C58.4028 31.9552 57.4633 32.0248 56.889 31.4506C52.9218 27.4747 49.0329 25.2214 42.8124 25.5433C40.2024 25.6825 36.618 27.8314 36.7833 30.859C37.2618 40.0027 59.6557 37.8799 60.3517 51.1735C60.7867 59.5429 52.191 63.5101 45.0657 63.8842C38.0187 64.2496 33.225 61.9093 28.5183 57.2461C27.9702 56.7067 27.9963 55.8106 28.5705 55.2973C29.0925 54.8275 29.8929 54.8536 30.3975 55.3408C34.5561 59.3776 38.3145 61.6222 44.6916 61.2916C48.0759 61.1176 51.9474 58.8295 51.7473 55.0276C51.3384 47.1889 29.3274 48.7636 28.6401 35.6353C28.2051 27.2659 34.8432 23.3422 42.4383 22.942C49.5549 22.5679 53.9484 24.9343 58.7508 29.5279C59.2554 30.0064 59.3163 30.772 58.8987 31.3201ZM53.322 58.9252C55.9755 57.2983 57.7416 54.523 57.7416 51.3127C57.7416 40.4464 34.2168 42.3865 34.2168 31.8247C34.2168 30.2761 34.53 28.771 35.1738 27.3703L35.1042 27.2572C32.5638 28.7014 31.2153 31.8682 31.2153 34.7827C31.2153 46.9888 54.3225 44.3179 54.3225 54.2881C54.3225 55.8367 54.1398 57.568 53.1915 58.873L53.322 58.9252Z" fill="#F2F2F2"/>
<path d="M43.9441 78.2566C63.1876 78.2566 78.7876 62.6566 78.7876 43.4131C78.7876 24.1695 63.1876 8.56958 43.9441 8.56958C24.7006 8.56958 9.10059 24.1695 9.10059 43.4131C9.10059 62.6566 24.7006 78.2566 43.9441 78.2566Z" stroke="#F2F2F2" stroke-width="2" stroke-miterlimit="10" stroke-linecap="round"/>
</g>
<defs>
<clipPath id="clip0">
<rect width="87" height="87" fill="white"/>
</clipPath>
</defs>
</svg>
