<svg width="212" height="87" viewBox="0 0 212 87" fill="none" xmlns="http://www.w3.org/2000/svg">
<g clip-path="url(#clip0)">
<path d="M69.9536 18.5111C63.2033 11.7601 54.2474 8.05042 44.7067 8.05042C25.0237 8.05042 9 24.0757 9 43.7606C9 63.4455 25.0237 79.4705 44.7067 79.4705C54.2474 79.4705 63.2033 75.7611 69.9536 69.0101C76.704 62.2591 80.4136 53.3023 80.4136 43.7606C80.4136 34.2189 76.704 25.2622 69.9536 18.5111ZM44.7067 77.6327C26.0263 77.6327 10.838 62.4429 10.838 43.7606C10.838 25.0783 26.0263 9.88857 44.7067 9.88857C63.3871 9.88857 78.5754 25.0783 78.5754 43.7606C78.5754 62.4429 63.3871 77.6327 44.7067 77.6327Z" fill="white"/>
<path d="M48.3315 39.9991C42.8009 37.4758 38.0221 35.3035 38.3731 30.0229C38.5235 27.9509 40.0105 26.7143 41.2303 26.0459C42.7508 25.2104 44.7892 24.7759 46.5603 24.8929C51.2723 25.2104 54.9816 27.1989 58.5907 31.3264L59.9775 30.1233C56.0677 25.6448 51.8403 23.4056 46.6773 23.0547C46.2763 23.0213 45.8753 23.0213 45.4576 23.038C45.374 23.038 45.2905 23.038 45.2237 23.038C41.8318 23.038 38.1392 24.1409 35.2987 26.0125C31.9569 28.2183 30.0855 31.2429 30.0353 34.5348C29.9017 42.5893 36.5685 45.3297 42.45 47.7528C47.8636 49.992 52.5588 51.9136 52.4586 57.2109C52.4084 60.7869 47.4961 62.7086 44.0374 62.7086C43.9872 62.7086 43.9538 62.7086 43.9037 62.7086V62.7254H43.887C38.7741 62.6585 34.2293 60.5196 30.3696 56.3754L29.0161 57.6286C33.1766 62.1071 38.3062 64.5133 43.8702 64.5802C43.9538 64.5802 44.0374 64.5802 44.1209 64.5802C47.7133 64.5802 51.5897 63.6277 54.5639 61.99C58.2064 60.0015 60.3284 57.1106 60.5456 53.8688C61.097 45.8143 54.3132 42.7229 48.3315 39.9991ZM58.7077 53.7184C58.4905 57.0438 55.8504 59.166 53.6783 60.3525C53.4778 60.4694 53.2773 60.5697 53.0768 60.67C53.8287 59.7007 54.2798 58.5477 54.3132 57.2276C54.4135 50.6771 48.6991 48.3209 43.1685 46.0483C37.3204 43.642 31.7898 41.3526 31.89 34.5515C31.9235 31.8946 33.5108 29.4047 36.3346 27.5331C36.7523 27.249 37.2035 26.9984 37.6713 26.7477C37.0196 27.6835 36.6353 28.7363 36.5685 29.8726C36.1174 36.4231 41.9487 39.08 47.5963 41.6368C53.5446 44.3772 59.1755 46.9507 58.7077 53.7184Z" fill="white"/>
<path d="M101.993 41.4339C100.774 41.4339 99.5702 41.2333 98.4007 40.849C97.2311 40.4647 96.2287 39.8965 95.3936 39.1779L96.7801 36.8385C97.6658 37.4735 98.5344 37.9414 99.3867 38.2756C100.222 38.5931 101.074 38.7602 101.91 38.7602C102.645 38.7602 103.23 38.6265 103.664 38.3425C104.098 38.0584 104.299 37.674 104.299 37.1393C104.299 36.6213 104.049 36.2369 103.547 36.003C103.046 35.769 102.227 35.485 101.108 35.1675C100.156 34.9001 99.3532 34.6494 98.6852 34.4155C98.0165 34.1815 97.4822 33.8975 97.0639 33.5967C96.6634 33.2959 96.3625 32.945 96.1789 32.5439C95.9947 32.1429 95.8944 31.675 95.8944 31.1068C95.8944 30.3715 96.0452 29.7032 96.3291 29.1015C96.6129 28.5167 97.0141 27.9986 97.532 27.5809C98.0499 27.1632 98.6518 26.8457 99.3532 26.6284C100.055 26.4112 100.807 26.2942 101.625 26.2942C102.712 26.2942 103.748 26.4446 104.7 26.7621C105.653 27.0796 106.538 27.5809 107.323 28.2995L105.82 30.5554C105.084 30.0039 104.366 29.5861 103.664 29.3355C102.962 29.0682 102.277 28.9511 101.592 28.9511C100.957 28.9511 100.44 29.0849 100.005 29.3355C99.5702 29.6029 99.3703 30.0207 99.3703 30.5888C99.3703 30.8561 99.4201 31.0567 99.5204 31.2238C99.6207 31.3909 99.7879 31.5413 100.005 31.675C100.222 31.8086 100.523 31.9257 100.874 32.0426C101.241 32.1596 101.692 32.2932 102.227 32.4102C103.23 32.6776 104.082 32.9282 104.8 33.1956C105.519 33.463 106.104 33.7471 106.555 34.0813C107.006 34.4155 107.34 34.7998 107.557 35.2343C107.775 35.6688 107.875 36.1868 107.875 36.8051C107.875 38.2254 107.34 39.3618 106.287 40.1806C105.252 41.0329 103.814 41.4339 101.993 41.4339Z" fill="white"/>
<path d="M125.887 34.8489H114.242C114.441 35.9351 114.976 36.804 115.845 37.4557C116.714 38.0907 117.784 38.4082 119.053 38.4082C120.691 38.4082 122.027 37.8735 123.08 36.7873L124.935 38.9263C124.267 39.7284 123.431 40.3299 122.412 40.731C121.392 41.1321 120.239 41.3492 118.969 41.3492C117.333 41.3492 115.896 41.0318 114.659 40.38C113.423 39.7284 112.453 38.826 111.785 37.673C111.1 36.52 110.766 35.1998 110.766 33.746C110.766 32.2922 111.1 31.0055 111.752 29.8357C112.403 28.6828 113.322 27.7803 114.492 27.1287C115.661 26.477 116.981 26.1595 118.435 26.1595C119.889 26.1595 121.176 26.477 122.312 27.112C123.448 27.747 124.333 28.6493 124.985 29.8024C125.62 30.9553 125.937 32.3089 125.937 33.8128C125.937 34.0635 125.921 34.3977 125.887 34.8489ZM115.611 29.9193C114.843 30.571 114.375 31.4567 114.208 32.5428H122.629C122.479 31.4734 122.027 30.6044 121.259 29.936C120.49 29.2676 119.554 28.9334 118.418 28.9334C117.315 28.9167 116.38 29.2509 115.611 29.9193Z" fill="white"/>
<path d="M133.038 40.38C131.819 39.7284 130.866 38.826 130.181 37.673C129.496 36.52 129.146 35.1998 129.146 33.746C129.146 32.2755 129.496 30.9721 130.181 29.819C130.866 28.666 131.819 27.7637 133.038 27.1287C134.258 26.477 135.645 26.1595 137.199 26.1595C138.67 26.1595 139.94 26.4603 141.042 27.0451C142.145 27.6467 142.98 28.4989 143.532 29.6018L140.858 31.1559C140.424 30.4707 139.906 29.9528 139.255 29.6185C138.619 29.2676 137.918 29.1005 137.149 29.1005C135.846 29.1005 134.776 29.5182 133.924 30.3705C133.072 31.206 132.638 32.3423 132.638 33.746C132.638 35.1497 133.055 36.286 133.908 37.1215C134.743 37.9738 135.829 38.3915 137.149 38.3915C137.901 38.3915 138.603 38.2244 139.255 37.8735C139.889 37.5226 140.424 37.0213 140.858 36.3361L143.532 37.8902C142.964 39.0098 142.112 39.8621 141.009 40.4636C139.906 41.0652 138.636 41.366 137.182 41.366C135.629 41.3493 134.258 41.0318 133.038 40.38Z" fill="white"/>
<path d="M156.198 26.1455V29.4542C155.897 29.4041 155.63 29.3707 155.396 29.3707C154.042 29.3707 152.99 29.7717 152.221 30.5571C151.452 31.3425 151.085 32.4788 151.085 33.9661V41.1682H147.609V26.3126H150.918V28.4851C151.92 26.9309 153.675 26.1455 156.198 26.1455Z" fill="white"/>
<path d="M173.776 34.8489H162.13C162.33 35.9351 162.865 36.804 163.734 37.4557C164.602 38.0907 165.672 38.4082 166.942 38.4082C168.579 38.4082 169.916 37.8735 170.969 36.7873L172.823 38.9263C172.155 39.7284 171.319 40.3299 170.301 40.731C169.281 41.1321 168.128 41.3492 166.858 41.3492C165.221 41.3492 163.784 41.0318 162.548 40.38C161.311 39.7284 160.342 38.826 159.674 37.673C158.989 36.52 158.654 35.1998 158.654 33.746C158.654 32.2922 158.989 31.0055 159.64 29.8357C160.292 28.6828 161.211 27.7803 162.381 27.1287C163.55 26.477 164.87 26.1595 166.324 26.1595C167.777 26.1595 169.064 26.477 170.2 27.112C171.336 27.747 172.222 28.6493 172.874 29.8024C173.508 30.9553 173.826 32.3089 173.826 33.8128C173.843 34.0635 173.826 34.3977 173.776 34.8489ZM163.517 29.9193C162.748 30.571 162.28 31.4567 162.113 32.5428H170.534C170.384 31.4734 169.933 30.6044 169.164 29.936C168.396 29.2676 167.46 28.9334 166.324 28.9334C165.221 28.9167 164.285 29.2509 163.517 29.9193Z" fill="white"/>
<path d="M187.191 40.3474C186.79 40.6816 186.289 40.9322 185.704 41.0993C185.12 41.2664 184.502 41.35 183.85 41.35C182.212 41.35 180.959 40.9155 180.074 40.0633C179.188 39.2111 178.737 37.9745 178.737 36.3368V29.1848H176.297V26.4276H178.737V23.0354H182.212V26.4276H186.189V29.2015H182.212V36.27C182.212 36.9886 182.396 37.54 182.746 37.9243C183.098 38.3087 183.616 38.4925 184.284 38.4925C185.069 38.4925 185.704 38.292 186.222 37.8742L187.191 40.3474Z" fill="white"/>
<path d="M107.658 51.143C108.744 52.2125 109.279 53.7666 109.279 55.8053V64.2942H107.307V56.0058C107.307 54.4851 106.923 53.3321 106.171 52.53C105.402 51.7279 104.333 51.3269 102.913 51.3269C101.342 51.3269 100.089 51.7948 99.1703 52.7305C98.2511 53.6663 97.8001 54.953 97.8001 56.6074V64.2775H95.8281V49.6558H97.7162V52.3462C98.2512 51.4605 99.0031 50.7587 99.9557 50.2741C100.908 49.7895 102.01 49.5388 103.28 49.5388C105.118 49.5388 106.572 50.0736 107.658 51.143Z" fill="white"/>
<path d="M127.224 57.5765H114.994C115.111 59.0972 115.695 60.3171 116.748 61.2529C117.801 62.1886 119.138 62.6565 120.758 62.6565C121.661 62.6565 122.496 62.4894 123.265 62.1719C124.017 61.8544 124.685 61.3698 125.236 60.7348L126.356 62.0215C125.704 62.8069 124.902 63.3918 123.916 63.8096C122.947 64.2106 121.878 64.4279 120.708 64.4279C119.205 64.4279 117.884 64.1104 116.715 63.4754C115.562 62.8404 114.66 61.9547 114.008 60.8184C113.356 59.6821 113.039 58.4121 113.039 56.975C113.039 55.5546 113.356 54.2679 113.975 53.1316C114.593 51.9953 115.445 51.1263 116.531 50.4913C117.617 49.8563 118.837 49.5388 120.19 49.5388C121.544 49.5388 122.763 49.8563 123.833 50.4913C124.902 51.1263 125.755 51.9953 126.356 53.1149C126.974 54.2345 127.275 55.5212 127.275 56.9583L127.224 57.5765ZM116.615 52.5969C115.662 53.4992 115.111 54.669 114.994 56.1228H125.37C125.236 54.669 124.702 53.4992 123.749 52.5969C122.797 51.6945 121.611 51.2433 120.174 51.2433C118.753 51.2433 117.567 51.6945 116.615 52.5969Z" fill="white"/>
<path d="M138.335 63.393C137.967 63.7272 137.5 63.9778 136.965 64.1616C136.414 64.3455 135.845 64.429 135.26 64.429C133.89 64.429 132.838 64.0614 132.086 63.3094C131.351 62.5741 130.966 61.5214 130.966 60.1678V51.328H128.36V49.657H130.966V46.4652H132.938V49.657H137.383V51.328H132.938V60.0676C132.938 60.9365 133.155 61.6049 133.59 62.0561C134.024 62.5073 134.659 62.7413 135.461 62.7413C135.862 62.7413 136.263 62.6744 136.648 62.5407C137.032 62.407 137.349 62.2232 137.634 61.9893L138.335 63.393Z" fill="white"/>
<path d="M158.888 49.7692H161.244L155.078 64.2905H153.057L150.133 57.2053L147.242 64.2905H145.22L139.055 49.7692H141.394L146.406 61.8676L148.846 55.8351L146.339 49.8026H148.361L150.149 54.4481L151.937 49.8026H153.959L151.469 55.8351L153.909 61.8676L158.888 49.7692Z" fill="white"/>
<path d="M169.164 64.5589C168.111 64.5589 167.142 64.3585 166.273 63.9574C165.404 63.5564 164.652 63.0216 164 62.3364C163.366 61.6514 162.864 60.8493 162.513 59.9469C162.163 59.0445 161.979 58.092 161.979 57.0894C161.979 56.07 162.163 55.1008 162.513 54.1985C162.881 53.2961 163.382 52.494 164.017 51.8089C164.652 51.1238 165.404 50.5723 166.29 50.1713C167.158 49.7702 168.111 49.553 169.147 49.553C170.182 49.553 171.152 49.7535 172.021 50.1713C172.906 50.5723 173.658 51.1238 174.293 51.8089C174.928 52.494 175.429 53.2961 175.797 54.1985C176.165 55.1008 176.332 56.07 176.332 57.0894C176.332 58.092 176.148 59.0445 175.797 59.9469C175.446 60.8493 174.945 61.6514 174.31 62.3364C173.675 63.0216 172.906 63.5731 172.037 63.9574C171.185 64.3585 170.216 64.5589 169.164 64.5589ZM163.9 57.1061C163.9 57.9249 164.034 58.6769 164.318 59.3787C164.602 60.0806 164.969 60.6821 165.437 61.2169C165.905 61.7516 166.473 62.1527 167.108 62.4535C167.743 62.7542 168.428 62.9046 169.147 62.9046C169.865 62.9046 170.55 62.7542 171.185 62.4535C171.82 62.1527 172.388 61.7349 172.873 61.2002C173.357 60.6654 173.742 60.0639 174.009 59.3453C174.293 58.6435 174.427 57.8748 174.427 57.0727C174.427 56.2706 174.293 55.5186 174.009 54.8C173.725 54.0815 173.357 53.4632 172.873 52.9285C172.388 52.3938 171.837 51.976 171.185 51.6752C170.55 51.3744 169.865 51.224 169.147 51.224C168.428 51.224 167.743 51.3744 167.125 51.6752C166.49 51.976 165.939 52.4105 165.454 52.9452C164.969 53.48 164.585 54.115 164.318 54.8168C164.051 55.5353 163.9 56.2873 163.9 57.1061Z" fill="white"/>
<path d="M186.756 51.4593C185.47 51.4927 184.368 51.8436 183.415 52.5121C182.462 53.1804 181.794 54.0996 181.41 55.2693V64.2762H179.521V49.7882H181.31V53.264C181.844 52.1444 182.563 51.2754 183.482 50.6572C184.384 50.0222 185.37 49.7047 186.406 49.7047C186.557 49.7047 186.673 49.7214 186.774 49.7381V51.4593H186.756Z" fill="white"/>
<path d="M200.944 64.2761L195.597 56.8566L192.49 59.7475V64.2761H190.601V43.9896H192.49V57.7757L200.627 49.8215H202.765L196.851 55.737L202.999 64.2761H200.944Z" fill="white"/>
</g>
<defs>
<clipPath id="clip0">
<rect width="194" height="71.6384" fill="white" transform="translate(9 8)"/>
</clipPath>
</defs>
</svg>
