<?xml version="1.0" encoding="utf-8"?>
<!-- Generator: Adobe Illustrator 24.3.0, SVG Export Plug-In . SVG Version: 6.00 Build 0)  -->
<svg version="1.1" id="Layer_1" xmlns="http://www.w3.org/2000/svg" xmlns:xlink="http://www.w3.org/1999/xlink" x="0px" y="0px"
	 viewBox="0 0 2818 1000" style="enable-background:new 0 0 2818 1000;" xml:space="preserve">
<style type="text/css">
	.st0{fill:#FFFFFF;}
</style>
<g>
	<g>
		<path class="st0" d="M852.8,146.5C758.4,52,633,0,499.6,0C224.1,0,0,224.3,0,500c0,275.7,224.1,500,499.6,500
			c133.4,0,258.9-52,353.2-146.5c94.4-94.5,146.3-220,146.3-353.5C999.1,366.5,947.2,240.9,852.8,146.5z M499.6,965.4
			c-256.4,0-465-208.8-465-465.4c0-256.6,208.6-465.4,465-465.4c256.4,0,465,208.8,465,465.4C964.6,756.6,756,965.4,499.6,965.4z"/>
		<path class="st0" d="M663.6,511.8c-32-28.6-73.9-47.7-114.5-66.2l-0.3-0.1c-71.6-32.7-133.5-61-129.1-127.9
			c1.9-25.5,20.4-40.9,35.6-49.2c17.1-9.4,39.8-15,60.8-15c2.5,0,5,0.1,7.4,0.2c61.1,4.1,109.3,30,156.4,83.8l2.8,3.3l3.3-2.8
			l18.4-16l3.3-2.9l-2.9-3.3c-52.5-60.2-109.5-90.5-179.2-95.2c-3-0.3-6.2-0.4-9.7-0.4c-2.1,0-4.4,0-6.8,0.1h-3
			c-45.7,0-95.8,15-133.9,40.2c-45.5,30.1-71,71.5-71.7,116.6c-1.8,109.7,87.9,146.6,167,179.3l0.2,0.1l0.8,0.3
			c70,29,130.4,54,129.1,121c-0.6,44.2-63.8,68.6-107.2,68.6h-1.8h-4.3v0.1c-64.7-1.9-122.5-29.8-171.8-82.7l-3-3.2l-3.2,2.9
			l-17.9,16.6l-3.2,3l3,3.2c56,60.3,125.1,92.7,199.9,93.6h3.4c48.3,0,100.8-13,140.4-34.9c49.6-27.1,78.5-66.6,81.5-111.2
			C716.8,584.7,700.5,544.8,663.6,511.8z M431.4,416.4c28.5,24.4,67.1,41.9,104.4,58.8l0.7,0.3c39.5,18.2,76.9,35.4,104,59.3
			c30,26.4,42.7,57,40,96.3c-2.5,38.9-31.4,64.9-57.7,80.6c5.1-10.4,7.9-21.7,8.2-33.7c0.6-40.4-14.9-72.7-47.5-98.9
			c-28.5-22.9-66.3-38.4-102.9-53.5c-76.1-31.3-148-60.9-146.7-148.3c0.4-33.6,20.6-65.4,56.9-89.5c1.2-0.8,2.4-1.6,3.7-2.4
			c-4.3,9.4-6.7,19.2-7.3,29.5C384.3,355.4,398.8,388.6,431.4,416.4z"/>
	</g>
	<g>
		<g>
			<path class="st0" d="M1312.1,445.3c-18.2,0-36.1-3-53.6-8.7c-17.4-5.7-32.4-14.2-44.8-24.9l20.7-34.9
				c13.2,9.5,26.2,16.5,38.9,21.4c12.5,4.7,25.2,7.2,37.6,7.2c11,0,19.7-2,26.2-6.2c6.5-4.2,9.5-10,9.5-18c0-7.7-3.7-13.5-11.2-17
				c-7.5-3.5-19.7-7.7-36.4-12.5c-14.2-4-26.2-7.7-36.1-11.2c-10-3.5-17.9-7.7-24.2-12.2c-6-4.5-10.5-9.7-13.2-15.7
				c-2.7-6-4.2-13-4.2-21.4c0-11,2.2-20.9,6.5-29.9c4.2-8.7,10.2-16.5,17.9-22.7s16.7-11,27.2-14.2c10.5-3.2,21.7-5,33.9-5
				c16.2,0,31.6,2.2,45.8,7c14.2,4.7,27.4,12.2,39.1,22.9l-22.4,33.7c-11-8.2-21.7-14.5-32.1-18.2c-10.5-4-20.7-5.7-30.9-5.7
				c-9.5,0-17.2,2-23.7,5.7c-6.5,4-9.5,10.2-9.5,18.7c0,4,0.8,7,2.2,9.5c1.5,2.5,4,4.7,7.2,6.7c3.2,2,7.7,3.7,13,5.5
				c5.5,1.7,12.2,3.7,20.2,5.5c14.9,4,27.7,7.7,38.4,11.7c10.7,4,19.4,8.2,26.2,13.2c6.7,5,11.7,10.7,14.9,17.2
				c3.2,6.5,4.7,14.2,4.7,23.4c0,21.2-8,38.1-23.7,50.4C1360.6,439.3,1339.2,445.3,1312.1,445.3z"/>
			<path class="st0" d="M1668.3,347.1h-173.6c3,16.2,11,29.2,23.9,38.9c13,9.5,28.9,14.2,47.8,14.2c24.4,0,44.3-8,60-24.2l27.7,31.9
				c-10,12-22.4,20.9-37.6,26.9c-15.2,6-32.4,9.2-51.3,9.2c-24.4,0-45.8-4.7-64.3-14.5c-18.4-9.7-32.9-23.2-42.9-40.4
				c-10.2-17.2-15.2-36.9-15.2-58.6s5-40.9,14.7-58.3c9.7-17.2,23.4-30.7,40.9-40.4c17.4-9.7,37.1-14.5,58.8-14.5
				c21.7,0,40.9,4.7,57.8,14.2c16.9,9.5,30.1,22.9,39.9,40.1c9.5,17.2,14.2,37.4,14.2,59.8C1669,335.4,1668.8,340.3,1668.3,347.1z
				 M1515.1,273.5c-11.5,9.7-18.4,22.9-20.9,39.1h125.6c-2.2-16-9-28.9-20.4-38.9c-11.5-10-25.4-15-42.4-15
				C1540.5,258.6,1526.5,263.5,1515.1,273.5z"/>
			<path class="st0" d="M1774.9,429.6c-18.2-9.7-32.4-23.2-42.6-40.4c-10.2-17.2-15.4-36.9-15.4-58.6c0-21.9,5.2-41.4,15.4-58.6
				c10.2-17.2,24.4-30.7,42.6-40.1c18.2-9.7,38.9-14.5,62-14.5c21.9,0,40.9,4.5,57.3,13.2c16.4,9,28.9,21.7,37.1,38.1l-39.9,23.2
				c-6.5-10.2-14.2-18-23.9-22.9c-9.5-5.2-19.9-7.7-31.4-7.7c-19.4,0-35.4,6.2-48.1,19c-12.7,12.5-19.2,29.4-19.2,50.4
				c0,20.9,6.2,37.9,18.9,50.4c12.5,12.7,28.6,19,48.3,19c11.2,0,21.7-2.5,31.4-7.7c9.5-5.2,17.4-12.7,23.9-22.9l39.9,23.2
				c-8.5,16.7-21.2,29.4-37.6,38.4c-16.4,9-35.4,13.5-57,13.5C1813.5,444.1,1793.1,439.3,1774.9,429.6z"/>
			<path class="st0" d="M2120.2,217.2v49.4c-4.5-0.7-8.5-1.2-12-1.2c-20.2,0-35.9,6-47.3,17.7c-11.5,11.7-16.9,28.7-16.9,50.9v107.5
				h-51.8V219.7h49.3v32.4C2056.4,228.9,2082.6,217.2,2120.2,217.2z"/>
			<path class="st0" d="M2382.3,347.1h-173.6c3,16.2,11,29.2,23.9,38.9c13,9.5,28.9,14.2,47.8,14.2c24.4,0,44.3-8,60-24.2l27.7,31.9
				c-10,12-22.4,20.9-37.6,26.9c-15.2,6-32.4,9.2-51.3,9.2c-24.4,0-45.8-4.7-64.3-14.5c-18.4-9.7-32.9-23.2-42.9-40.4
				c-10.2-17.2-15.2-36.9-15.2-58.6s5-40.9,14.7-58.3c9.7-17.2,23.4-30.7,40.9-40.4c17.4-9.7,37.1-14.5,58.8-14.5
				c21.7,0,40.9,4.7,57.8,14.2c16.9,9.5,30.1,22.9,39.9,40.1c9.5,17.2,14.2,37.4,14.2,59.8C2383.3,335.4,2383,340.3,2382.3,347.1z
				 M2229.3,273.5c-11.5,9.7-18.4,22.9-20.9,39.1H2334c-2.2-16-9-28.9-20.4-38.9c-11.5-10-25.4-15-42.4-15
				C2254.7,258.6,2240.8,263.5,2229.3,273.5z"/>
			<path class="st0" d="M2582.3,429.1c-6,5-13.5,8.7-22.2,11.2c-8.7,2.5-17.9,3.7-27.7,3.7c-24.4,0-43.1-6.5-56.3-19.2
				s-19.9-31.2-19.9-55.6V262.5h-36.4v-41.1h36.4v-50.6h51.8v50.6h59.3v41.4h-59.3v105.5c0,10.7,2.7,19,8,24.7
				c5.2,5.7,13,8.5,22.9,8.5c11.7,0,21.2-3,28.9-9.2L2582.3,429.1z"/>
		</g>
		<g>
			<path class="st0" d="M1396.5,584.4c16.2,16,24.2,39.1,24.2,69.6v126.7h-29.4V657c0-22.7-5.7-39.9-16.9-51.9
				c-11.5-12-27.4-18-48.6-18c-23.4,0-42.1,7-55.8,20.9c-13.7,14-20.4,33.2-20.4,57.8v114.4h-29.4V562.2h28.2v40.1
				c8-13.2,19.2-23.7,33.4-30.9c14.2-7.2,30.6-11,49.6-11C1358.6,560.5,1380.3,568.5,1396.5,584.4z"/>
			<path class="st0" d="M1688.2,680.4h-182.4c1.7,22.7,10.5,40.9,26.2,54.9c15.7,14,35.6,20.9,59.8,20.9c13.5,0,25.9-2.5,37.4-7.2
				c11.2-4.7,21.2-12,29.4-21.4l16.7,19.2c-9.7,11.7-21.7,20.4-36.4,26.7c-14.4,6-30.4,9.2-47.8,9.2c-22.4,0-42.1-4.7-59.5-14.2
				c-17.2-9.5-30.6-22.7-40.4-39.6c-9.7-17-14.4-35.9-14.4-57.3c0-21.2,4.7-40.4,14-57.3c9.2-17,21.9-29.9,38.1-39.4
				c16.2-9.5,34.4-14.2,54.6-14.2s38.4,4.7,54.3,14.2c15.9,9.5,28.6,22.4,37.6,39.1c9.2,16.7,13.7,35.9,13.7,57.3L1688.2,680.4z
				 M1530,606.1c-14.2,13.5-22.4,30.9-24.2,52.6h154.7c-2-21.7-10-39.1-24.2-52.6c-14.2-13.5-31.9-20.2-53.3-20.2
				C1561.9,585.9,1544.2,592.6,1530,606.1z"/>
			<path class="st0" d="M1853.9,767.2c-5.5,5-12.5,8.7-20.4,11.5c-8.2,2.7-16.7,4-25.4,4c-20.4,0-36.1-5.5-47.3-16.7
				c-11-11-16.7-26.7-16.7-46.9V587.2h-38.9v-24.9h38.9v-47.6h29.4v47.6h66.3v24.9h-66.3v130.4c0,13,3.2,22.9,9.7,29.7
				c6.5,6.7,15.9,10.2,27.9,10.2c6,0,12-1,17.7-3c5.7-2,10.5-4.7,14.7-8.2L1853.9,767.2z"/>
			<path class="st0" d="M2160.3,564h35.1l-91.9,216.7h-30.1l-43.6-105.7l-43.1,105.7h-30.1L1864.6,564h34.9l74.7,180.5l36.4-90
				l-37.4-90h30.1l26.7,69.3l26.7-69.3h30.1l-37.1,90l36.4,90L2160.3,564z"/>
			<path class="st0" d="M2313.5,783.5c-15.7,0-30.1-3-43.1-9c-13-6-24.2-14-33.9-24.2c-9.5-10.2-16.9-22.2-22.2-35.7
				c-5.2-13.5-8-27.7-8-42.6c0-15.2,2.7-29.7,8-43.1c5.5-13.5,13-25.4,22.4-35.7c9.5-10.2,20.7-18.5,33.9-24.4
				c13-6,27.2-9.2,42.6-9.2c15.4,0,29.9,3,42.8,9.2c13.2,6,24.4,14.2,33.9,24.4c9.5,10.2,16.9,22.2,22.4,35.7
				c5.5,13.5,8,27.9,8,43.1c0,15-2.7,29.2-8,42.6c-5.2,13.5-12.7,25.4-22.2,35.7c-9.5,10.2-20.9,18.5-33.9,24.2
				C2343.7,780.5,2329.2,783.5,2313.5,783.5z M2235,672.3c0,12.2,2,23.4,6.2,33.9c4.2,10.5,9.7,19.4,16.7,27.4
				c7,8,15.4,14,24.9,18.5c9.5,4.5,19.7,6.7,30.4,6.7c10.7,0,20.9-2.2,30.4-6.7c9.5-4.5,17.9-10.7,25.2-18.7c7.2-8,13-17,16.9-27.7
				c4.2-10.5,6.2-21.9,6.2-33.9c0-12-2-23.2-6.2-33.9c-4.2-10.7-9.7-19.9-16.9-27.9c-7.2-8-15.4-14.2-25.2-18.7
				c-9.5-4.5-19.7-6.7-30.4-6.7c-10.7,0-20.9,2.2-30.1,6.7c-9.5,4.5-17.7,11-24.9,18.9c-7.2,8-13,17.5-16.9,27.9
				C2237.3,648.9,2235,660.1,2235,672.3z"/>
			<path class="st0" d="M2575.9,589.4c-19.2,0.5-35.6,5.7-49.8,15.7c-14.2,10-24.2,23.7-29.9,41.1v134.4H2468V564.5h26.7v51.9
				c8-16.7,18.7-29.7,32.4-38.9c13.5-9.5,28.1-14.2,43.6-14.2c2.2,0,4,0.3,5.5,0.5v25.7H2575.9z"/>
			<path class="st0" d="M2787.3,780.6l-79.7-110.7l-46.3,43.1v67.6h-28.2V477.9h28.2v205.7L2782.6,565h31.9l-88.2,88.3l91.7,127.4
				H2787.3z"/>
		</g>
	</g>
</g>
</svg>
