<svg width="489" height="16" viewBox="0 0 489 16" fill="none" xmlns="http://www.w3.org/2000/svg">
<path d="M1.5 2.05273C15 2.05273 15 14.0527 28.5 14.0527C42 14.0527 42 2.05273 55.5 2.05273C69 2.05273 69 14.0527 82.5 14.0527C96 14.0527 96 2.05273 109.5 2.05273C123 2.05273 123 14.0527 136.5 14.0527C150 14.0527 150 2.05273 163.5 2.05273C177 2.05273 177 14.0527 190.5 14.0527C204 14.0527 204 2.05273 217.5 2.05273C231 2.05273 231 14.0527 244.5 14.0527C258 14.0527 258 2.05273 271.5 2.05273C285 2.05273 285 14.0527 298.5 14.0527C312 14.0527 312 2.05273 325.5 2.05273C339 2.05273 339 14.0527 352.5 14.0527C366 14.0527 366 2.05273 379.5 2.05273C393 2.05273 393 14.0527 406.5 14.0527C420 14.0527 420 2.05273 433.5 2.05273C447 2.05273 447 14.0527 460.5 14.0527C474 14.0527 474 2.05273 487.5 2.05273" stroke="#1b1b1b" stroke-width="3" stroke-miterlimit="10" stroke-linecap="round"/>
</svg>
