<svg width="486" height="16" viewBox="0 0 486 16" fill="none" xmlns="http://www.w3.org/2000/svg">
<path d="M0 1.88208C13.5 1.88208 13.5 13.8821 27 13.8821C40.5 13.8821 40.5 1.88208 54 1.88208C67.5 1.88208 67.5 13.8821 81 13.8821C94.5 13.8821 94.5 1.88208 108 1.88208C121.5 1.88208 121.5 13.8821 135 13.8821C148.5 13.8821 148.5 1.88208 162 1.88208C175.5 1.88208 175.5 13.8821 189 13.8821C202.5 13.8821 202.5 1.88208 216 1.88208C229.5 1.88208 229.5 13.8821 243 13.8821C256.5 13.8821 256.5 1.88208 270 1.88208C283.5 1.88208 283.5 13.8821 297 13.8821C310.5 13.8821 310.5 1.88208 324 1.88208C337.5 1.88208 337.5 13.8821 351 13.8821C364.5 13.8821 364.5 1.88208 378 1.88208C391.5 1.88208 391.5 13.8821 405 13.8821C418.5 13.8821 418.5 1.88208 432 1.88208C445.5 1.88208 445.5 13.8821 459 13.8821C472.5 13.8821 472.5 1.88208 486 1.88208" stroke="#1b1b1b" stroke-width="3" stroke-miterlimit="10"/>
</svg>
