<svg width="24" height="24" viewBox="0 0 24 24" fill="none" xmlns="http://www.w3.org/2000/svg">
<path d="M20.5723 3.01163C20.2399 2.97638 19.8786 3.02829 19.5156 3.17179C19.0656 3.34879 12.0144 6.31495 5.44141 9.08195L3.26953 9.99601C2.42853 10.337 2.00391 10.8916 2.00391 11.6386C2.00391 12.1616 2.22525 12.871 3.28125 13.289L6.94727 14.7577C7.26427 15.7087 8.00055 17.9168 8.18555 18.5038C8.29555 18.8518 8.57339 19.7285 9.27539 19.9335C9.41939 19.9825 9.56966 20.0077 9.72266 20.0077C10.1657 20.0077 10.4846 19.8016 10.6406 19.6816L12.9707 17.7109L15.8008 20.328C15.9098 20.439 16.4867 20.9999 17.2617 20.9999C18.2287 20.9999 18.9622 20.1949 19.1152 19.4159C19.1982 18.9889 21.9277 5.28698 21.9277 5.28898C22.1727 4.18998 21.7322 3.61987 21.4492 3.37687C21.2067 3.16937 20.9046 3.04688 20.5723 3.01163ZM19.9102 5.17179C19.5332 7.06179 17.478 17.3781 17.166 18.8651L13.0293 15.039L10.2227 17.4159L11 14.3749C11 14.3749 16.3625 8.94677 16.6855 8.63077C16.9455 8.37777 17 8.28909 17 8.20109C17 8.08409 16.9398 7.99991 16.8008 7.99991C16.6758 7.99991 16.506 8.1197 16.416 8.1757C15.2727 8.88851 10.4041 11.6622 8.00781 13.0253L4.53125 11.6366L6.21875 10.9276C10.5177 9.11765 18.1742 5.89379 19.9102 5.17179Z" fill="black"/>
</svg>
