<svg width="24" height="24" viewBox="0 0 24 24" fill="none" xmlns="http://www.w3.org/2000/svg">
<path d="M5.67969 2L7.1582 7.34375V9.90625H8.43945V7.34375L9.9375 2H8.64648L8.10938 4.43164C7.95837 5.14164 7.86236 5.64627 7.81836 5.94727H7.7793C7.7163 5.52627 7.62028 5.01787 7.48828 4.42188L6.9707 2H5.67969ZM11.4316 4.01758C10.9976 4.01758 10.6479 4.10239 10.3809 4.27539C10.1139 4.44739 9.91702 4.72261 9.79102 5.09961C9.66602 5.47661 9.60352 5.97566 9.60352 6.59766V7.4375C9.60352 8.0525 9.65758 8.54502 9.76758 8.91602C9.87758 9.28702 10.0632 9.56033 10.3242 9.73633C10.5852 9.91233 10.9443 10 11.4023 10C11.8483 10 12.2029 9.91323 12.4629 9.74023C12.7229 9.56723 12.9113 9.29588 13.0273 8.92188C13.1433 8.54787 13.2012 8.0535 13.2012 7.4375V6.59766C13.2012 5.97666 13.1424 5.47947 13.0234 5.10547C12.9044 4.73247 12.715 4.45725 12.457 4.28125C12.199 4.10525 11.8586 4.01758 11.4316 4.01758ZM13.8789 4.13086V8.44531C13.8789 8.97931 13.9684 9.37205 14.1504 9.62305C14.3324 9.87405 14.615 10 14.998 10C15.55 10 15.9662 9.73322 16.2422 9.19922H16.2695L16.3828 9.90625H17.4004V4.13086H16.1016V8.71875C16.0516 8.82575 15.9751 8.91342 15.8711 8.98242C15.7671 9.05242 15.6599 9.08594 15.5469 9.08594C15.4149 9.08594 15.3207 9.03188 15.2637 8.92188C15.2067 8.81187 15.1777 8.62714 15.1777 8.36914V4.13086H13.8789ZM11.4023 4.91211C11.5843 4.91211 11.7132 5.00722 11.7852 5.19922C11.8572 5.39022 11.8926 5.69438 11.8926 6.10938V7.9082C11.8926 8.3352 11.8572 8.64403 11.7852 8.83203C11.7132 9.02003 11.5853 9.11423 11.4043 9.11523C11.2223 9.11523 11.0963 9.02003 11.0273 8.83203C10.9573 8.64403 10.9238 8.3352 10.9238 7.9082V6.10938C10.9238 5.69537 10.9592 5.39122 11.0312 5.19922C11.1032 5.00822 11.2263 4.91211 11.4023 4.91211ZM5 11C3.9 11 3 11.9 3 13V20C3 21.1 3.9 22 5 22H19C20.1 22 21 21.1 21 20V13C21 11.9 20.1 11 19 11H5ZM12.0488 13H13.1055V15.5684H13.1133C13.2083 15.3824 13.3445 15.2331 13.5195 15.1191C13.6945 15.0051 13.8839 14.9492 14.0859 14.9492C14.3459 14.9492 14.5493 15.0183 14.6973 15.1562C14.8453 15.2942 14.9535 15.5172 15.0195 15.8242C15.0855 16.1322 15.1172 16.5595 15.1172 17.1055V17.877H15.1191C15.1191 18.604 15.0305 19.1365 14.8555 19.4785C14.6805 19.8205 14.4081 19.9922 14.0371 19.9922C13.8301 19.9922 13.6427 19.9446 13.4727 19.8496C13.3027 19.7546 13.1748 19.624 13.0898 19.459H13.0664L12.9551 19.9199H12.0488V13ZM5.48633 13.2461H8.73828V14.1309H7.64844V19.9199H6.57617V14.1309H5.48633V13.2461ZM17.0977 14.9512C17.4737 14.9512 17.7628 15.0202 17.9648 15.1582C18.1658 15.2962 18.3076 15.5117 18.3906 15.8027C18.4726 16.0947 18.5137 16.4977 18.5137 17.0117V17.8477H16.6777V18.0957C16.6777 18.4087 16.6861 18.6428 16.7051 18.7988C16.7241 18.9548 16.7623 19.0696 16.8203 19.1406C16.8783 19.2126 16.9678 19.248 17.0898 19.248C17.2538 19.248 17.3667 19.1836 17.4277 19.0566C17.4887 18.9296 17.5223 18.7189 17.5273 18.4219L18.4746 18.4766C18.4796 18.5186 18.4824 18.5783 18.4824 18.6523C18.4824 19.1033 18.3583 19.4401 18.1113 19.6621C17.8643 19.8851 17.5174 19.9961 17.0664 19.9961C16.5254 19.9961 16.1457 19.8253 15.9277 19.4863C15.7097 19.1473 15.6016 18.6231 15.6016 17.9121V17.0605C15.6016 16.3285 15.7145 15.794 15.9395 15.457C16.1645 15.12 16.5517 14.9512 17.0977 14.9512ZM8.41016 15.0449H9.50977V18.625C9.50977 18.842 9.53403 18.9978 9.58203 19.0898C9.63003 19.1828 9.70831 19.2285 9.82031 19.2285C9.91531 19.2285 10.0087 19.1996 10.0957 19.1406C10.1837 19.0826 10.2461 19.008 10.2891 18.918V15.0449H11.3887V19.9199H11.3867H10.5273L10.4336 19.3223H10.4082C10.1742 19.7743 9.82442 20 9.35742 20C9.03342 20 8.79658 19.8936 8.64258 19.6816C8.48858 19.4696 8.41016 19.1375 8.41016 18.6875V15.0449ZM17.0742 15.6934C16.9572 15.6934 16.8705 15.7289 16.8145 15.7969C16.7585 15.8659 16.7211 15.9788 16.7031 16.1348C16.6841 16.2908 16.6758 16.5277 16.6758 16.8457V17.1953H17.4785V16.8457C17.4785 16.5327 17.4683 16.2968 17.4473 16.1348C17.4273 15.9728 17.388 15.859 17.332 15.793C17.276 15.727 17.1912 15.6934 17.0742 15.6934ZM13.5918 15.7285C13.4858 15.7285 13.3888 15.7705 13.2988 15.8555C13.2088 15.9405 13.1444 16.0496 13.1074 16.1816V18.9492C13.1554 19.0342 13.2179 19.0976 13.2949 19.1406C13.3719 19.1826 13.4539 19.2051 13.5449 19.2051C13.6619 19.2051 13.7533 19.1631 13.8223 19.0781C13.8913 18.9931 13.9417 18.8504 13.9707 18.6484C13.9997 18.4474 14.0137 18.1675 14.0137 17.8125V17.1855C14.0137 16.8035 14.0025 16.5097 13.9785 16.3027C13.9545 16.0957 13.9116 15.9464 13.8516 15.8594C13.7906 15.7724 13.7038 15.7285 13.5918 15.7285Z" fill="white"/>
</svg>
